<?xml version="1.0" encoding="UTF-8"?>
<svg width="115px" height="86px" viewBox="0 0 115 86" version="1.1" xmlns="http://www.w3.org/2000/svg" xmlns:xlink="http://www.w3.org/1999/xlink">
    <!-- Generator: Sketch 52.6 (67491) - http://www.bohemiancoding.com/sketch -->
    <title>Group 27</title>
    <desc>Created with Sketch.</desc>
    <g id="Icons" stroke="none" stroke-width="1" fill="none" fill-rule="evenodd">
        <g id="Content" transform="translate(-64.000000, -194.000000)">
            <g id="Freelancer-Library">
                <g id="Group-27" transform="translate(64.000000, 194.000000)">
                    <g id="Logo" fill="#FFFFFF">
                        <polyline id="Fill-1" points="67.5289608 0.924482104 75.3598953 11.8030562 114.975967 0.924482104 67.5289608 0.924482104"></polyline>
                        <polyline id="Fill-2" points="26.3651584 85.6216216 47.7986037 64.8664777 34.8981203 51.1566048 26.3651584 85.6216216"></polyline>
                        <polyline id="Fill-3" points="64.2851504 0.924482104 52.8296053 11.1562659 72.0950591 11.867851 64.2851504 0.924482104"></polyline>
                        <polyline id="Fill-4" points="19.7537191 0.924482104 23.8665951 9.27721841 46.5417293 10.6760906 19.7537191 0.924482104"></polyline>
                        <polyline id="Fill-6" points="31.8914339 44.232824 48.641971 13.2806077 0 10.6749335 31.8914339 44.232824"></polyline>
                        <polyline id="Fill-8" points="33.8409909 46.1940219 49.6663937 63.029084 67.1189581 46.0852593 72.5354323 14.5209642 51.2655209 13.4437516 33.8409909 46.1940219"></polyline>
                    </g>
                    <path d="M40.8115018,39.4986446 L40.8115018,25.2798946 L45.9189237,25.2798946 C47.7483599,25.2798946 49.1399476,25.6151777 50.0937284,26.285754 C51.0475092,26.9563303 51.5243924,27.9296278 51.5243924,29.2056759 C51.5243924,29.9413566 51.3551233,30.5696056 51.0165799,31.0904415 C50.6780366,31.6112774 50.1799947,31.9953882 49.5224393,32.2427853 C50.2646305,32.4380987 50.8342863,32.8026784 51.2314237,33.3365353 C51.6285611,33.8703921 51.8271268,34.5214272 51.8271268,35.2896603 C51.8271268,36.6828964 51.3860505,37.7294354 50.5038846,38.4293087 C49.6217188,39.129182 48.3147657,39.4856237 46.5829862,39.4986446 L40.8115018,39.4986446 Z M44.2392362,33.4537228 L44.2392362,36.8619259 L46.4853299,36.8619259 C47.1038226,36.8619259 47.5790783,36.7203257 47.9111112,36.4371212 C48.2431441,36.1539166 48.4091581,35.7551576 48.4091581,35.2408321 C48.4091581,34.0559304 47.8199713,33.4602332 46.6415799,33.4537228 L44.2392362,33.4537228 Z M44.2392362,31.207629 L46.0263456,31.207629 C46.7750472,31.2011186 47.3088961,31.0644012 47.6279081,30.7974728 C47.9469201,30.5305443 48.1064237,30.1366681 48.1064237,29.6158321 C48.1064237,29.0168708 47.9338994,28.58556 47.5888456,28.3218868 C47.2437918,28.0582136 46.6871567,27.926379 45.9189237,27.926379 L44.2392362,27.926379 L44.2392362,31.207629 Z M56.5322049,39.4986446 L53.2314237,39.4986446 L53.2314237,28.9322384 L56.5322049,28.9322384 L56.5322049,39.4986446 Z M53.0361112,26.207629 C53.0361112,25.7388767 53.2053803,25.3547659 53.5439237,25.0552853 C53.8824671,24.7558046 54.3219158,24.6060665 54.8622831,24.6060665 C55.4026504,24.6060665 55.8420991,24.7558046 56.1806424,25.0552853 C56.5191858,25.3547659 56.6884549,25.7388767 56.6884549,26.207629 C56.6884549,26.6763813 56.5191858,27.0604921 56.1806424,27.3599728 C55.8420991,27.6594534 55.4026504,27.8091915 54.8622831,27.8091915 C54.3219158,27.8091915 53.8824671,27.6594534 53.5439237,27.3599728 C53.2053803,27.0604921 53.0361112,26.6763813 53.0361112,26.207629 Z M61.8915799,26.3052853 L61.8915799,28.9322384 L63.6298612,28.9322384 L63.6298612,31.2173946 L61.8915799,31.2173946 L61.8915799,36.051379 C61.8915799,36.4485164 61.9631938,36.7252063 62.1064237,36.8814571 C62.2496536,37.0377079 62.5328539,37.1158321 62.9560331,37.1158321 C63.2815555,37.1158321 63.5549903,37.0963011 63.7763456,37.0572384 L63.7763456,39.410754 C63.1838947,39.599557 62.5654113,39.6939571 61.9208768,39.6939571 C60.7880587,39.6939571 59.9514785,39.4270327 59.4111112,38.8931759 C58.8707439,38.359319 58.6005643,37.5487803 58.6005643,36.4615353 L58.6005643,31.2173946 L57.2529081,31.2173946 L57.2529081,28.9322384 L58.6005643,28.9322384 L58.6005643,26.3052853 L61.8915799,26.3052853 Z M69.9560331,36.5298946 C69.9560331,36.2499453 69.8095502,36.0253382 69.5165799,35.8560665 C69.2236097,35.6867948 68.6669747,35.5110153 67.8466581,35.3287228 C67.0263415,35.1464302 66.3492649,34.9071748 65.8154081,34.6109493 C65.2815512,34.3147239 64.8746543,33.955027 64.5947049,33.5318478 C64.3147556,33.1086686 64.1747831,32.6236474 64.1747831,32.0767696 C64.1747831,31.1067127 64.5751697,30.307567 65.3759549,29.6793087 C66.1767402,29.0510503 67.2249068,28.7369259 68.5204862,28.7369259 C69.9137223,28.7369259 71.0335028,29.0526779 71.8798612,29.6841915 C72.7262196,30.3157051 73.1493924,31.1457749 73.1493924,32.1744259 L69.8486112,32.1744259 C69.8486112,31.3280675 69.4026521,30.9048946 68.5107206,30.9048946 C68.1656668,30.9048946 67.8759561,31.0009223 67.6415799,31.1929806 C67.4072038,31.3850388 67.2900174,31.6242942 67.2900174,31.910754 C67.2900174,32.2037242 67.4332452,32.441352 67.7197049,32.6236446 C68.0061647,32.8059372 68.4635169,32.9556753 69.0917753,33.0728634 C69.7200336,33.1900515 70.2717859,33.330024 70.7470487,33.4927853 C72.3355983,34.039663 73.1298612,35.0194709 73.1298612,36.4322384 C73.1298612,37.3957849 72.7018056,38.1802822 71.8456815,38.785754 C70.9895574,39.3912258 69.8811701,39.6939571 68.5204862,39.6939571 C67.6155338,39.6939571 66.8082502,39.5311983 66.0986112,39.2056759 C65.3889722,38.8801534 64.8355924,38.4374495 64.4384549,37.8775509 C64.0413175,37.3176522 63.8427518,36.7284654 63.8427518,36.1099728 L66.9189237,36.1099728 C66.9319446,36.5982564 67.0947034,36.9546982 67.4072049,37.1793087 C67.7197065,37.4039192 68.1200931,37.5162228 68.6083768,37.5162228 C69.0575978,37.5162228 69.3945085,37.4250778 69.619119,37.2427853 C69.8437295,37.0604927 69.9560331,36.8228648 69.9560331,36.5298946 Z" id="Bits" fill="#284CA8" transform="translate(56.980447, 32.150012) rotate(-261.000000) translate(-56.980447, -32.150012) "></path>
                </g>
            </g>
        </g>
    </g>
</svg>