<?xml version="1.0" encoding="UTF-8"?>
<svg width="300px" height="300px" viewBox="0 0 300 300" version="1.1" xmlns="http://www.w3.org/2000/svg" xmlns:xlink="http://www.w3.org/1999/xlink">
    <title>experiments / koziplan</title>
    <g id="experiments-/-koziplan" stroke="none" stroke-width="1" fill="none" fill-rule="evenodd">
        <g id="Group-17">
            <path d="M266.739623,2.00950367e-14 L33.2583709,2.00950367e-14 C14.9126377,2.00950367e-14 0.00147122929,14.9163615 0.00147122929,33.2524993 L0.00147122929,266.747501 C0.00147122929,285.083639 14.9126377,300 33.2583709,300 L266.739623,300 C285.075458,300 300.001471,285.083639 300.001471,266.747501 L300.001471,98.8518262 L300.001471,86.563397 L287.703347,86.5337029 L257.564282,86.4792636 L295.596912,54.6075423 L300.001471,50.9205187 L300.001471,45.1697516 L300.001471,33.2524993 C300.001471,14.9163615 285.075458,2.00950367e-14 266.739623,2.00950367e-14 M266.739623,12.3032763 C278.305303,12.3032763 287.683551,21.6915768 287.683551,33.2524993 L287.683551,45.1697516 L223.782794,98.7281006 L287.683551,98.8518262 L287.683551,266.747501 C287.683551,278.308423 278.305303,287.691775 266.739623,287.691775 L33.2583709,287.691775 C21.6877412,287.691775 12.3094935,278.308423 12.3094935,266.747501 L12.3094935,33.2524993 C12.3094935,21.6915768 21.6877412,12.3032763 33.2583709,12.3032763 L266.739623,12.3032763" id="Fill-1" fill="#FFFFFF"></path>
            <polygon id="Fill-4" fill="#CCCCCC" points="192.827648 146.707716 172.608054 177.211203 190.80716 177.211203 190.80716 189.932432 146.993952 189.932432 167.296916 159.438753 149.686301 159.438753 149.686301 146.707716"></polygon>
            <path d="M226.703684,168.361759 C226.703684,163.065333 223.074651,158.592796 216.846447,158.592796 C210.613339,158.592796 206.984307,163.065333 206.984307,168.361759 C206.984307,173.84454 210.613339,178.062064 216.846447,178.062064 C223.074651,178.062064 226.703684,173.84454 226.703684,168.361759 L226.703684,168.361759 Z M241.538579,146.705264 L241.538579,189.934884 L226.193657,189.934884 L226.193657,185.138677 L226.026918,185.138677 C223.334568,189.429762 218.023431,191.371785 212.962402,191.371785 C200.152899,191.371785 191.144071,180.66614 191.144071,168.278389 C191.144071,155.895543 199.995968,145.283075 212.800567,145.283075 C217.768418,145.283075 223.00109,147.13192 226.193657,150.922788 L226.193657,146.705264 L241.538579,146.705264 Z" id="Fill-6" fill="#CCCCCC"></path>
            <path d="M210.023376,237.76651 L210.023376,264.474226 L194.683359,264.474226 L194.683359,243.416031 C194.683359,239.286781 195.360124,232.038524 187.773485,232.038524 C181.535473,232.038524 179.765094,236.672897 179.765094,242.067404 L179.765094,264.474226 L164.434884,264.474226 L164.434884,221.244605 L179.765094,221.244605 L179.765094,226.81566 L179.931833,226.81566 C183.472592,221.587892 187.773485,219.817513 193.761388,219.817513 C205.389004,219.817513 210.023376,227.144235 210.023376,237.76651" id="Fill-8" fill="#FFFFFF"></path>
            <path d="M69.9765693,222.340671 C69.9765693,214.337184 64.4937881,214.253814 58.0890366,214.253814 L55.3133173,214.253814 L55.3133173,230.09405 L58.0890366,230.09405 C64.0769398,230.09405 69.9765693,230.09405 69.9765693,222.340671 M87.1703357,221.845357 C87.1703357,236.842088 79.0834786,243.418483 64.6654316,243.418483 L55.3133173,243.418483 L55.3133173,264.471774 L38.8061247,264.471774 L38.8061247,200.939189 L64.0769398,200.939189 C77.7299477,200.939189 87.1703357,207.270379 87.1703357,221.845357" id="Fill-10" fill="#FFFFFF"></path>
            <polygon id="Fill-12" fill="#FFFFFF" points="89.950959 264.473736 105.281168 264.473736 105.281168 194.536399 89.950959 194.536399"></polygon>
            <path d="M130.55934,168.361759 C130.55934,163.065333 126.935211,158.592796 120.702103,158.592796 C114.468995,158.592796 110.844867,163.065333 110.844867,168.361759 C110.844867,173.84454 114.468995,178.062064 120.702103,178.062064 C126.935211,178.062064 130.55934,173.84454 130.55934,168.361759 L130.55934,168.361759 Z M145.394235,146.705264 L145.394235,189.934884 L130.054218,189.934884 L130.054218,185.138677 L129.882574,185.138677 C127.195129,189.429762 121.883991,191.371785 116.827866,191.371785 C104.023267,191.371785 95.0046316,180.66614 95.0046316,168.278389 C95.0046316,155.895543 103.851624,145.283075 116.661127,145.283075 C121.624074,145.283075 126.846938,147.13192 130.054218,150.922788 L130.054218,146.705264 L145.394235,146.705264 Z" id="Fill-14" fill="#CCCCCC"></path>
            <polygon id="Fill-15" fill="#CCCCCC" points="70.6513731 156.489919 98.2074978 189.935865 76.8060157 189.935865 55.4829991 162.389549 55.3113557 162.389549 55.3113557 189.935865 38.804163 189.935865 38.804163 126.398376 55.3113557 126.398376 55.3113557 152.605874 55.4829991 152.605874 75.4573888 126.398376 95.9319965 126.398376"></polygon>
            <path d="M143.623856,242.905024 C143.623856,237.603694 140.004632,233.131157 133.766619,233.131157 C127.523703,233.131157 123.899575,237.603694 123.899575,242.905024 C123.899575,248.382901 127.523703,252.600425 133.766619,252.600425 C140.004632,252.600425 143.623856,248.382901 143.623856,242.905024 L143.623856,242.905024 Z M158.448943,221.243625 L158.448943,264.473245 L143.108925,264.473245 L143.108925,259.681942 L142.94709,259.681942 C140.244932,263.968123 134.943603,265.910146 129.882574,265.910146 C117.073071,265.910146 108.054435,255.204501 108.054435,242.81675 C108.054435,230.438808 116.901428,219.816532 129.725643,219.816532 C134.68859,219.816532 139.911454,221.675185 143.108925,225.461149 L143.108925,221.243625 L158.448943,221.243625 Z" id="Fill-16" fill="#FFFFFF"></path>
        </g>
    </g>
</svg>