<svg version="1.1" xmlns="http://www.w3.org/2000/svg" xmlns:xlink="http://www.w3.org/1999/xlink" x="0px" y="0px" viewBox="-5 0 240 945" style="enable-background:new 0 0 234 945;"  xml:space="preserve">
	<path fill="white" class="main_carrot" d="M206.2,284.2h-90.1H36.9c-96.9,0,22.8,379.9,67.1,628.7c12.5,42.4,12.7,43.1,24.2,0  c7.5-41.3,18.8-92.4,31.3-147.5c-34-170.4-103-401.5-40.2-401.5H174h59.6C235.6,315.1,228.3,284.2,206.2,284.2z"/>
	<path fill="white" class="leaf2" d="M127.4,133c7.4,17.4,10.7,35.6,10.2,53.4c-0.3,11.9-2.3,23.7-5.9,34.9c30.7-20.6,54.3-52,64.6-90.5   c12.5-46.6,2.8-94-22.6-130.9c-35.9,17.1-65.2,47.6-80.1,86.9l2.1,1.8C108.9,100.6,119.9,115.5,127.4,133z"/>
	<path fill="white" class="leaf1" d="M111.3,232.9c14.1-28.5,16.1-62.7,2.6-94.2c-13.5-31.5-39.7-53.6-70-63c-14.1,28.5-16.1,62.7-2.6,94.2 C54.8,201.3,81,223.5,111.3,232.9z"/>
</svg>