<!-- Generator: Adobe Illustrator 21.1.0, SVG Export Plug-In  -->
<svg version="1.1"
	 xmlns="http://www.w3.org/2000/svg" xmlns:xlink="http://www.w3.org/1999/xlink" xmlns:a="http://ns.adobe.com/AdobeSVGViewerExtensions/3.0/"
	 x="0px" y="0px" width="827.9px" height="253px" viewBox="0 0 827.9 253" style="enable-background:new 0 0 827.9 253;"
	 xml:space="preserve">
<style type="text/css">
	.st0{fill:#FFFFFF;}
</style>
<defs>
</defs>
<g id="Layer_2_1_">
	<g id="Layer_1-2_1_">
		<path class="st0" d="M147.8,252.2v-58.3h16.3c5.5,0,9.8,1.3,12.9,3.9c3.1,2.6,4.6,6.5,4.6,11.8c0.1,2.6-0.7,5.2-2.1,7.4
			c-1.4,2.1-3.4,3.8-5.8,4.7c3,0.6,5.6,2.4,7.3,4.9c1.7,2.7,2.6,5.9,2.5,9.1c0,5.4-1.5,9.5-4.5,12.3s-7.2,4.2-12.6,4.2L147.8,252.2z
			 M155.9,219.2h8.9c2.3,0.1,4.6-0.8,6.3-2.4c1.5-1.6,2.3-4,2.3-7c0-3.2-0.8-5.6-2.4-7.2c-1.6-1.6-3.9-2.4-7-2.4h-8.1L155.9,219.2z
			 M155.9,225v21h10.4c2.5,0.2,5-0.8,6.7-2.7c1.6-1.8,2.3-4.3,2.3-7.6c0.1-2.8-0.6-5.5-2-7.8c-1.4-2-3.7-3.1-6.2-2.9L155.9,225z"/>
		<path class="st0" d="M238.1,231.1c0,6.9-1.8,12.3-5.4,16.2c-3.6,3.9-8.4,5.8-14.4,5.8c-5.9,0-10.6-1.9-14.1-5.8
			c-3.5-3.9-5.2-9.2-5.2-16.2v-16c0-6.9,1.8-12.3,5.3-16.2s8.2-5.9,14.1-5.9c6,0,10.8,1.9,14.4,5.9c3.6,3.9,5.4,9.3,5.4,16.2V231.1z
			 M230,214.9c0-5.1-1-8.9-3-11.6c-2.1-2.6-5.3-4.1-8.6-3.9c-3.3-0.2-6.4,1.3-8.4,3.9c-2,2.6-3,6.5-3,11.6v16.1c0,5.1,1,9,2.9,11.6
			c1.9,2.7,5.1,4.2,8.4,4c3.3,0.2,6.6-1.3,8.6-3.9c2-2.6,3-6.5,3-11.7L230,214.9z"/>
		<path class="st0" d="M294.2,252.2h-8.1L264,208.8l-0.2,0.1v43.3h-8.2v-58.3h8.1l22.1,43.2l0.2-0.1v-43.2h8.1V252.2z"/>
		<path class="st0" d="M313.7,252.2v-58.3h16c5.9-0.2,11.5,2.4,15.2,7c3.9,4.7,5.9,10.7,5.9,18v8.3c0,7.4-2,13.4-5.9,18
			c-3.7,4.6-9.3,7.1-15.2,7L313.7,252.2z M321.9,200v46h7.6c3.9,0.1,7.6-1.9,9.7-5.2c2.4-3.5,3.5-8,3.5-13.6v-8.4
			c0-5.5-1.2-10-3.5-13.5c-2.1-3.3-5.7-5.3-9.7-5.2L321.9,200z"/>
		<path class="st0" d="M376.8,252.2h-8.1v-58.3h8.1V252.2z"/>
		<path class="st0" d="M423,252.2v-58.3h16.3c5.5,0,9.8,1.3,12.9,3.9c3.1,2.6,4.6,6.5,4.6,11.8c0.1,2.6-0.7,5.2-2.1,7.4
			c-1.4,2.1-3.4,3.8-5.8,4.7c3,0.6,5.6,2.4,7.3,4.9c1.7,2.7,2.6,5.9,2.5,9.1c0,5.4-1.5,9.5-4.5,12.3s-7.2,4.2-12.6,4.2L423,252.2z
			 M431.1,219.2h8.9c2.3,0.1,4.6-0.8,6.3-2.4c1.5-1.6,2.3-4,2.3-7c0-3.2-0.8-5.6-2.4-7.2c-1.6-1.6-3.9-2.4-7-2.4h-8.1L431.1,219.2z
			 M431.1,225v21h10.4c2.5,0.2,5-0.8,6.7-2.7c1.6-1.8,2.3-4.3,2.3-7.6c0.1-2.8-0.6-5.5-2-7.8c-1.4-2-3.7-3.1-6.2-2.9L431.1,225z"/>
		<path class="st0" d="M505.9,225.1h-21.6V246h25.1v6.2h-33.2v-58.3h33v6.1h-24.9v18.9h21.6L505.9,225.1z"/>
		<path class="st0" d="M551.6,237.5H533l-4.2,14.7h-8.2l17.9-58.3h7.8l17.8,58.3h-8.2L551.6,237.5z M534.9,231h14.9l-7.3-25.5h-0.2
			L534.9,231z"/>
		<path class="st0" d="M612.9,234.5l0.1,0.2c0,5.8-1.5,10.3-4.6,13.5c-3.1,3.2-7.4,4.8-13,4.8c-5.7,0-10.3-1.9-13.7-5.8
			c-3.4-3.8-5.1-9.2-5.1-16.1V215c0-6.9,1.7-12.3,5.1-16.1c3.4-3.9,7.9-5.8,13.5-5.9c5.7,0,10.1,1.6,13.2,4.7s4.7,7.7,4.8,13.7
			l-0.1,0.2h-7.7c-0.1-4.3-0.9-7.4-2.5-9.4c-1.6-2-4.1-3-7.6-3c-3.1-0.1-6.1,1.4-7.8,4c-1.8,2.7-2.8,6.6-2.8,11.6v16.3
			c0,5.1,0.9,9,2.8,11.7c1.8,2.7,4.8,4.2,8,4.1c3.3,0,5.8-1,7.4-2.9c1.6-2,2.4-5.1,2.4-9.4L612.9,234.5z"/>
		<path class="st0" d="M668.6,252.2h-8.1v-25.8h-22.3v25.8H630v-58.3h8.1v26.4h22.3v-26.4h8.1L668.6,252.2z"/>
		<path class="st0" d="M582.7,25.1c1.5,0,2.7-1.2,2.7-2.7V2.7c0-1.5-1.2-2.7-2.7-2.7h-66.8c-1.5,0-2.7,1.2-2.7,2.7v19.7
			c0,1.5,1.2,2.7,2.7,2.7h17.6c1.5,0,2.7,1.2,2.7,2.7c0,0,0,0,0,0V131c0,1.5,1.2,2.7,2.7,2.7h20.9c1.5,0,2.7-1.2,2.7-2.7l0,0V27.8
			c0-1.5,1.2-2.7,2.7-2.7c0,0,0,0,0,0H582.7z"/>
		<path class="st0" d="M437.2,133.7c1.5,0,2.7-1.2,2.7-2.7V2.7c0-1.5-1.2-2.7-2.7-2.7h-19.6c-1.5,0-2.7,1.3-2.7,2.8v57
			c0,1.5-0.4,1.6-1,0.2L390.1,2.6c-0.7-1.5-2.1-2.5-3.7-2.6h-18.6c-1.5,0-2.7,1.2-2.7,2.7V131c0,1.5,1.2,2.7,2.7,2.7h19.6
			c1.5,0,2.7-1.2,2.7-2.7V70.6c0-1.5,0.4-1.6,0.9-0.2l24.6,60.7c0.6,1.5,2,2.5,3.6,2.6L437.2,133.7z"/>
		<path class="st0" d="M314.4,79.7c0-1.5,0.3-1.8,1.8-1.8h18.3c1.5,0,2.7-1.3,2.7-2.8V55.8c0-1.5-1.2-2.7-2.7-2.7h-18.3
			c-1.5,0-1.8-0.3-1.8-1.8V26.9c0-1.5,0.3-1.8,1.8-1.8h31.7c1.4,0.1,2.6-1,2.7-2.4c0,0,0-0.1,0-0.1v-20c0-1.5-1.2-2.7-2.7-2.7h-57.1
			c-1.5,0-2.7,1.2-2.7,2.7V131c0,1.5,1.2,2.7,2.7,2.7h57.1c1.5,0,2.7-1.2,2.7-2.7v-19.8c0-1.5-1.2-2.7-2.7-2.7h-31.7
			c-1.5,0-1.8-0.3-1.8-1.8L314.4,79.7z"/>
		<path class="st0" d="M232.7,80.6c0-1.5,0.4-1.5,0.9-0.1l19.8,50.6c0.6,1.5,2,2.5,3.5,2.6h21.5c1,0.1,1.9-0.6,2-1.6
			c0-0.3,0-0.7-0.2-1l-25.4-64.6c-0.5-1.7-0.5-3.4,0.1-5.1l22.8-59c0.4-0.9,0.1-1.9-0.8-2.3C276.6,0,276.2,0,275.9,0h-21.5
			c-1.6,0.1-3,1.1-3.6,2.5l-17.2,47c-0.5,1.4-0.9,1.3-0.9-0.2V2.7c0-1.5-1.2-2.7-2.7-2.7h-19.7c-1.5,0-2.7,1.2-2.7,2.7V131
			c0,1.5,1.2,2.7,2.7,2.7c0,0,0,0,0,0H230c1.5,0,2.7-1.2,2.7-2.7c0,0,0,0,0,0L232.7,80.6z"/>
		<path class="st0" d="M768.2,80.6c0-1.5,0.4-1.5,0.9-0.1l19.8,50.6c0.6,1.5,2,2.5,3.6,2.6h21.5c1,0.1,1.9-0.6,2-1.6
			c0-0.3,0-0.6-0.2-0.9l-25.4-64.6c-0.5-1.7-0.5-3.4,0.1-5.1l22.8-59c0.4-0.8,0.1-1.9-0.8-2.3c-0.3-0.2-0.6-0.2-1-0.2H790
			c-1.6,0.1-3,1.1-3.6,2.5l-17.3,47c-0.5,1.4-0.9,1.3-0.9-0.2V2.7c0-1.5-1.2-2.7-2.7-2.7h-19.7c-1.5,0-2.7,1.2-2.7,2.7V131
			c0,1.5,1.2,2.7,2.7,2.7h19.7c1.5,0,2.7-1.2,2.7-2.7l0,0L768.2,80.6z"/>
		<path class="st0" d="M107.3,2.7c0-1.5-1.2-2.7-2.7-2.7H84.9c-1.5,0-2.7,1.2-2.7,2.7c0,0,0,0,0,0V131c0,1.5,1.2,2.7,2.7,2.7
			c0,0,0,0,0,0h19.7c1.5,0,2.7-1.2,2.7-2.7V2.7z"/>
		<path class="st0" d="M492.2,56.8c-7.9-8-16.1-14.2-16.1-21.6c0-5.1,4.1-10.1,9.4-10.1c1.2,0,10.8,0,14.8,0h0.1
			c1.5,0,2.7-1.2,2.7-2.8V2.7c0-1.5-1.2-2.7-2.7-2.7c0,0,0,0,0,0h-18.5c-20.5,0-31.8,14.3-31.5,34.4c0.1,16.3,9.6,27.5,23,40
			c7.6,6.9,13.8,12.7,13.8,22c0,7.7-4.4,11.9-11.7,12.1H453c-1.5,0-2.7,1.3-2.7,2.8V131c0,1.5,1.2,2.7,2.7,2.7c0,0,0,0,0,0h29.6
			c22.3,0.4,30.5-18.3,30.5-37.5C513.1,77.7,503.7,68.6,492.2,56.8"/>
		<path class="st0" d="M58.1,64.3c-0.4-0.3-0.7-0.7-0.8-1.2c0-0.7,0.9-1.4,0.9-1.4c5.1-5.1,7.8-12.1,7.6-19.4V26.8
			C65.6,8,59.3,0,38.4,0H2.8C1.2,0,0,1.2,0,2.7c0,0,0,0,0,0V131c0,1.5,1.2,2.7,2.7,2.7c0,0,0,0,0,0h37.5c19.6,0,27.2-14,27.2-33.5
			v-11C67.4,76.2,65.5,69.7,58.1,64.3 M25,25.6c0-1.5,0.3-1.8,1.8-1.8H33c5.6,0,8,4.2,8,15.2c0,12.2-3.3,14.1-8,14.1h-6.2
			c-1.5,0-1.8-0.3-1.8-1.8L25,25.6z M34.8,109.9h-7.9c-1.5,0-1.8-0.3-1.8-1.8V79.7c0-1.5,0.3-1.8,1.8-1.8h7.9
			c6.1,0,7.7,5.3,7.8,15.4C42.7,106.8,40.6,109.9,34.8,109.9"/>
		<path class="st0" d="M196.6,131.2l-21.5-52.8h0.3c0,0,2-0.8,2-0.8c6.6-3.3,13.3-10.5,13.3-24.2V28.4c0-23.8-13.9-28.4-31-28.4
			h-33.1c-1.5,0-2.8,1.2-2.8,2.7V131c0,1.5,1.3,2.7,2.8,2.7h19.6c1.5,0,2.7-1.2,2.7-2.7c0,0,0,0,0,0V80.6c0-1.5,0.4-1.5,0.9-0.1
			l20.1,50.6c0.6,1.5,2,2.5,3.6,2.6h21.5c1,0.1,1.9-0.6,2-1.6C196.8,131.8,196.7,131.4,196.6,131.2 M166.3,39.2
			c0.1,13.5-2,16.6-7.8,16.6h-7.8c-1.5,0-1.9-0.3-1.9-1.8V25.7c0-1.5,0.4-1.8,1.9-1.8h7.8C164.6,23.8,166.2,29.1,166.3,39.2"/>
		<path class="st0" d="M721.6,133.7c-38.9,0-43.7-28-43.7-67S682.7,0,721.6,0h8.8c1.5-0.1,2.7,1.1,2.8,2.5c0,0,0,0,0,0v19.8
			c0,1.5-1.2,2.7-2.7,2.7c0,0,0,0,0,0h-8.9c-15.3,0-17.8,7.1-17.8,41.5c0,34.6,2.5,41.8,17.8,41.8h8.8l0,0c1.5,0,2.7,1.2,2.8,2.7
			c0,0,0,0,0,0V131c0,1.5-1.2,2.7-2.7,2.7c0,0,0,0,0,0L721.6,133.7z"/>
		<path class="st0" d="M627.8,0c38.9,0,41.5,27.5,41.5,66.6s-2.7,67.1-41.5,67.1s-41.5-28-41.5-67.1S588.9,0,627.8,0 M627.8,108.6
			c15.3,0,15.6-7.5,15.6-42c0-34.4-0.3-42.8-15.6-42.8s-15.6,8.4-15.6,42.8C612.2,101.2,612.5,108.6,627.8,108.6"/>
		<path class="st0" d="M803,64.8c0-6.9,5.6-12.4,12.5-12.4c6.9,0,12.4,5.6,12.4,12.5c0,6.8-5.6,12.4-12.4,12.4
			c-6.7,0.1-12.3-5.2-12.4-12C803,65.2,803,65,803,64.8 M825.6,64.8c-0.1-5.6-4.7-10.2-10.3-10.1c-5.6,0.1-10.2,4.7-10.1,10.3
			c0.1,5.6,4.6,10.1,10.2,10.1c5.5,0.1,10.1-4.3,10.2-9.8C825.6,65.2,825.6,65,825.6,64.8 M811,71.7c-0.2,0-0.4-0.1-0.5-0.3
			c0,0,0-0.1,0-0.1V58.3c0-0.2,0.1-0.4,0.4-0.5c0,0,0.1,0,0.1,0h5.2c3,0,4.8,1.5,4.8,4.1c0.1,1.8-1.1,3.3-2.7,3.9l2.8,5.4
			c0.1,0.3,0,0.4-0.3,0.4H819c-0.3,0-0.5-0.2-0.6-0.4l-2.6-5.1h-2.5c-0.2,0-0.3,0.1-0.3,0.3v4.8c0,0.2-0.1,0.4-0.4,0.5
			c0,0-0.1,0-0.1,0L811,71.7z M818.5,62c0-1.2-0.7-1.9-2.3-1.9h-2.9c-0.2,0-0.3,0.1-0.3,0.3v3.3c0,0.1,0.1,0.2,0.2,0.3
			c0,0,0.1,0,0.1,0h2.9C817.8,64,818.5,63.3,818.5,62"/>
	</g>
</g>
</svg>
