<svg width="120" height="120" viewBox="0 0 120 120" fill="none" xmlns="http://www.w3.org/2000/svg">
<path fill-rule="evenodd" clip-rule="evenodd" d="M117.251 103.89L102.617 89.2598C109.237 80.029 113.07 68.7083 113.07 56.5167C113.07 25.3411 87.7206 0 56.5349 0C25.3493 0 0 25.3411 0 56.5167C0 87.6923 25.3493 113.033 56.5349 113.033C68.7304 113.033 80.0549 109.115 89.2886 102.583L103.923 117.213C105.753 119.042 108.192 120 110.544 120C112.983 120 115.335 119.042 117.164 117.213C120.91 113.556 120.91 107.547 117.251 103.89ZM18.8159 56.5167C18.8159 35.7039 35.7154 18.8099 56.5349 18.8099C77.3544 18.8099 94.2539 35.7039 94.2539 56.5167C94.2539 77.3295 77.3544 94.2235 56.5349 94.2235C35.7154 94.2235 18.8159 77.3295 18.8159 56.5167Z" fill="white"/>
</svg>
