<?xml version="1.0" encoding="UTF-8"?>
<svg width="115px" height="98px" viewBox="0 0 115 98" version="1.1" xmlns="http://www.w3.org/2000/svg" xmlns:xlink="http://www.w3.org/1999/xlink">
    <!-- Generator: Sketch 53.2 (72643) - https://sketchapp.com -->
    <title>Group 27</title>
    <desc>Created with Sketch.</desc>
    <g id="Icons" stroke="none" stroke-width="1" fill="none" fill-rule="evenodd">
        <g id="Content" transform="translate(-64.000000, -194.000000)" fill="#FFFFFF">
            <g id="Freelancer-Library">
                <g id="Group-27" transform="translate(64.000000, 194.000000)">
                    <g id="Logo">
                        <polyline id="Fill-1" points="67.5289608 0.924482104 75.3598953 11.8030562 114.975967 0.924482104 67.5289608 0.924482104"></polyline>
                        <polyline id="Fill-2" points="26.3651584 85.6216216 47.7986037 64.8664777 34.8981203 51.1566048 26.3651584 85.6216216"></polyline>
                        <polyline id="Fill-3" points="64.2851504 0.924482104 52.8296053 11.1562659 72.0950591 11.867851 64.2851504 0.924482104"></polyline>
                        <polyline id="Fill-4" points="19.7537191 0.924482104 23.8665951 9.27721841 46.5417293 10.6760906 19.7537191 0.924482104"></polyline>
                        <polyline id="Fill-6" points="31.8914339 44.232824 48.641971 13.2806077 0 10.6749335 31.8914339 44.232824"></polyline>
                        <polyline id="Fill-8" points="33.8409909 46.1940219 49.6663937 63.029084 67.1189581 46.0852593 72.5354323 14.5209642 51.2655209 13.4437516 33.8409909 46.1940219"></polyline>
                    </g>
                    <path d="M28.6857825,88.5367179 L28.6857825,74.3179679 L33.7932043,74.3179679 C35.6226406,74.3179679 37.0142282,74.653251 37.968009,75.3238272 C38.9217898,75.9944035 39.3986731,76.9677011 39.3986731,78.2437491 C39.3986731,78.9794299 39.2294039,79.6076788 38.8908606,80.1285147 C38.5523172,80.6493507 38.0542753,81.0334614 37.39672,81.2808585 C38.1389112,81.476172 38.7085669,81.8407516 39.1057043,82.3746085 C39.5028417,82.9084653 39.7014075,83.5595005 39.7014075,84.3277335 C39.7014075,85.7209696 39.2603311,86.7675086 38.3781653,87.4673819 C37.4959994,88.1672552 36.1890463,88.523697 34.4572668,88.5367179 L28.6857825,88.5367179 Z M32.1135168,82.491796 L32.1135168,85.8999991 L34.3596106,85.8999991 C34.9781033,85.8999991 35.4533589,85.758399 35.7853918,85.4751944 C36.1174247,85.1919899 36.2834387,84.7932308 36.2834387,84.2789054 C36.2834387,83.0940036 35.6942519,82.4983064 34.5158606,82.491796 L32.1135168,82.491796 Z M32.1135168,80.2457022 L33.9006262,80.2457022 C34.6493279,80.2391918 35.1831767,80.1024744 35.5021887,79.835546 C35.8212007,79.5686176 35.9807043,79.1747413 35.9807043,78.6539054 C35.9807043,78.054944 35.80818,77.6236332 35.4631262,77.35996 C35.1180724,77.0962868 34.5614373,76.9644522 33.7932043,76.9644522 L32.1135168,76.9644522 L32.1135168,80.2457022 Z M44.4064856,88.5367179 L41.1057043,88.5367179 L41.1057043,77.9703116 L44.4064856,77.9703116 L44.4064856,88.5367179 Z M40.9103918,75.2457022 C40.9103918,74.7769499 41.079661,74.3928391 41.4182043,74.0933585 C41.7567477,73.7938778 42.1961964,73.6441397 42.7365637,73.6441397 C43.276931,73.6441397 43.7163797,73.7938778 44.0549231,74.0933585 C44.3934664,74.3928391 44.5627356,74.7769499 44.5627356,75.2457022 C44.5627356,75.7144546 44.3934664,76.0985653 44.0549231,76.398046 C43.7163797,76.6975266 43.276931,76.8472647 42.7365637,76.8472647 C42.1961964,76.8472647 41.7567477,76.6975266 41.4182043,76.398046 C41.079661,76.0985653 40.9103918,75.7144546 40.9103918,75.2457022 Z M49.7658606,75.3433585 L49.7658606,77.9703116 L51.5041418,77.9703116 L51.5041418,80.2554679 L49.7658606,80.2554679 L49.7658606,85.0894522 C49.7658606,85.4865896 49.8374744,85.7632796 49.9807043,85.9195304 C50.1239342,86.0757811 50.4071345,86.1539054 50.8303137,86.1539054 C51.1558362,86.1539054 51.4292709,86.1343743 51.6506262,86.0953116 L51.6506262,88.4488272 C51.0581753,88.6376303 50.4396919,88.7320304 49.7951575,88.7320304 C48.6623393,88.7320304 47.8257591,88.4651059 47.2853918,87.9312491 C46.7450245,87.3973923 46.474845,86.5868535 46.474845,85.4996085 L46.474845,80.2554679 L45.1271887,80.2554679 L45.1271887,77.9703116 L46.474845,77.9703116 L46.474845,75.3433585 L49.7658606,75.3433585 Z M57.8303137,85.5679679 C57.8303137,85.2880185 57.6838308,85.0634114 57.3908606,84.8941397 C57.0978904,84.724868 56.5412553,84.5490886 55.7209387,84.366796 C54.9006221,84.1845034 54.2235455,83.945248 53.6896887,83.6490225 C53.1558319,83.3527971 52.7489349,82.9931002 52.4689856,82.569921 C52.1890363,82.1467418 52.0490637,81.6617206 52.0490637,81.1148429 C52.0490637,80.1447859 52.4494503,79.3456403 53.2502356,78.7173819 C54.0510208,78.0891236 55.0991874,77.7749991 56.3947668,77.7749991 C57.788003,77.7749991 58.9077834,78.0907512 59.7541418,78.7222647 C60.6005002,79.3537783 61.0236731,80.1838481 61.0236731,81.2124991 L57.7228918,81.2124991 C57.7228918,80.3661407 57.2769328,79.9429679 56.3850012,79.9429679 C56.0399474,79.9429679 55.7502368,80.0389955 55.5158606,80.2310538 C55.2814844,80.423112 55.1642981,80.6623675 55.1642981,80.9488272 C55.1642981,81.2417974 55.3075258,81.4794253 55.5939856,81.6617179 C55.8804453,81.8440104 56.3377975,81.9937485 56.9660559,82.1109366 C57.5943142,82.2281247 58.1460665,82.3680972 58.6213293,82.5308585 C60.2098789,83.0777362 61.0041418,84.0575441 61.0041418,85.4703116 C61.0041418,86.4338581 60.5760862,87.2183554 59.7199621,87.8238272 C58.8638381,88.429299 57.7554507,88.7320304 56.3947668,88.7320304 C55.4898144,88.7320304 54.6825308,88.5692716 53.9728918,88.2437491 C53.2632529,87.9182266 52.709873,87.4755227 52.3127356,86.9156241 C51.9155982,86.3557255 51.7170325,85.7665387 51.7170325,85.148046 L54.7932043,85.148046 C54.8062252,85.6363297 54.968984,85.9927714 55.2814856,86.2173819 C55.5939871,86.4419924 55.9943738,86.554296 56.4826575,86.554296 C56.9318785,86.554296 57.2687891,86.4631511 57.4933996,86.2808585 C57.7180101,86.0985659 57.8303137,85.8609381 57.8303137,85.5679679 Z" id="Bits" transform="translate(44.854728, 81.188085) rotate(-404.000000) translate(-44.854728, -81.188085) "></path>
                </g>
            </g>
        </g>
    </g>
</svg>