<?xml version="1.0" encoding="UTF-8"?>
<svg width="300px" height="300px" viewBox="0 0 300 300" version="1.1" xmlns="http://www.w3.org/2000/svg" xmlns:xlink="http://www.w3.org/1999/xlink">
    <title>experiments / kozikaza</title>
    <g id="experiments-/-kozikaza" stroke="none" stroke-width="1" fill="none" fill-rule="evenodd">
        <g id="Fichier-25" fill-rule="nonzero">
            <path d="M266.75,12.3 C278.320366,12.3 287.7,21.6796345 287.7,33.25 L287.7,45 L223.8,98.75 L287.7,98.75 L287.7,266.75 C287.7,278.320366 278.320366,287.7 266.75,287.7 L33.25,287.7 C21.6796345,287.7 12.3,278.320366 12.3,266.75 L12.3,33.25 C12.3,21.6796345 21.6796345,12.3 33.25,12.3 L266.75,12.3 L266.75,12.3 Z M266.75,0 L33.25,0 C14.8979495,0.0275350059 0.0275350059,14.8979495 0,33.25 L0,266.75 C0.0275350059,285.10205 14.8979495,299.972465 33.25,300 L266.75,300 C285.10205,299.972465 299.972465,285.10205 300,266.75 L300,86.75 L257.55,86.75 L295.6,54.9 L300,51.2 L300,33.25 C299.972465,14.8979495 285.10205,0.0275350059 266.75,0 Z" id="Shape" fill="#FFFFFF"></path>
            <polygon id="Path" fill="#CCCCCC" points="76.65 131.3 97.6 131.3 71.75 162.05 100 196.25 78 196.25 56.2 168.1 56.2 168.1 56.2 196.25 39.15 196.25 39.15 131.25 56.05 131.25 56.05 158.05 56.05 158.05"></polygon>
            <path d="M150.65,174.2 C150.65,189.2 138.25,197.7 124,197.7 C109.75,197.7 97.4,189.25 97.4,174.2 C97.4,159.15 109.8,150.6 124,150.6 C138.2,150.6 150.65,159.15 150.65,174.2 Z M113.95,174.2 C113.787782,176.898634 114.789147,179.537519 116.700814,181.449186 C118.612481,183.360853 121.251366,184.362218 123.95,184.2 C126.648634,184.362218 129.287519,183.360853 131.199186,181.449186 C133.110853,179.537519 134.112218,176.898634 133.95,174.2 C133.95,168.677153 129.472847,164.2 123.95,164.2 C118.427153,164.2 113.95,168.677153 113.95,174.2 L113.95,174.2 Z" id="Shape" fill="#CCCCCC"></path>
            <polygon id="Path" fill="#CCCCCC" points="194.6 183.25 194.6 196.25 150 196.25 170.55 165 152.55 165 152.55 152 196.65 152 176 183.25"></polygon>
            <path d="M215.65,135 C215.65,138.559268 213.505949,141.768067 210.217614,143.13014 C206.92928,144.492213 203.144243,143.739322 200.62746,141.22254 C198.110678,138.705757 197.357787,134.92072 198.71986,131.632386 C200.081933,128.344051 203.290732,126.2 206.85,126.2 C211.710106,126.2 215.65,130.139894 215.65,135 Z M214.7,196.15 L199,196.15 L199,152.05 L214.7,152.05 L214.7,196.15 Z" id="Shape" fill="#CCCCCC"></path>
            <polygon id="Path" fill="#FFFFFF" points="76.65 201.05 97.6 201.05 71.75 231.8 100 266 78 266 56.2 237.85 56.2 237.85 56.2 266 39.15 266 39.15 201 56.05 201 56.05 227.8 56.05 227.8"></polygon>
            <path d="M149,266 L133.35,266 L133.35,261 L133.35,261 C130.288664,265.288548 125.263854,267.735085 120,267.5 C107.401701,266.919655 97.4859903,256.536659 97.4859903,243.925 C97.4859903,231.313341 107.401701,220.930345 120,220.35 C125.189361,220.217402 130.183313,222.331629 133.7,226.15 L133.7,221.85 L149,221.85 L149,266 Z M113.7,243.95 C113.537782,246.648634 114.539147,249.287519 116.450814,251.199186 C118.362481,253.110853 121.001366,254.112218 123.7,253.95 C126.398634,254.112218 129.037519,253.110853 130.949186,251.199186 C132.860853,249.287519 133.862218,246.648634 133.7,243.95 C133.7,238.427153 129.222847,233.95 123.7,233.95 C118.177153,233.95 113.7,238.427153 113.7,243.95 L113.7,243.95 Z" id="Shape" fill="#FFFFFF"></path>
            <polygon id="Path" fill="#FFFFFF" points="196.35 253 196.35 266 151.35 266 172.3 235 154.3 235 154.3 222 198.4 222 177.7 253"></polygon>
            <path d="M249.05,266 L233.4,266 L233.4,261 L233.4,261 C230.335069,265.311222 225.283172,267.761769 220,267.5 C207.401701,266.919655 197.48599,256.536659 197.48599,243.925 C197.48599,231.313341 207.401701,220.930345 220,220.35 C225.189361,220.217402 230.183313,222.331629 233.7,226.15 L233.7,221.85 L249.4,221.85 L249.05,266 Z M213.7,243.95 C213.7,249.472847 218.177153,253.95 223.7,253.95 C229.222847,253.95 233.7,249.472847 233.7,243.95 C233.7,238.427153 229.222847,233.95 223.7,233.95 C218.177153,233.95 213.7,238.427153 213.7,243.95 Z" id="Shape" fill="#FFFFFF"></path>
        </g>
    </g>
</svg>