<?xml version="1.0" encoding="UTF-8"?>
<svg width="300px" height="86px" viewBox="0 0 300 86" version="1.1" xmlns="http://www.w3.org/2000/svg" xmlns:xlink="http://www.w3.org/1999/xlink">
    <title>experiments / Bpi france</title>
    <g id="experiments-/-Bpi-france" stroke="none" stroke-width="1" fill="none" fill-rule="evenodd">
        <g id="bpifrance-vector-logo" fill-rule="nonzero">
            <path d="M245.367412,27.9872204 C241.4377,27.9872204 239.520767,34.9840256 240.766773,45.4313099 C242.204473,58.0830671 253.514377,58.0830671 261.182109,54.8242812 L261.182109,61.0543131 C256.485623,62.3003195 252.651757,62.6837061 249.297125,62.6837061 C230.031949,62.6837061 228.019169,46.8690096 228.019169,42.0766773 C228.019169,34.0255591 230.894569,22.9073482 246.134185,22.9073482 C256.29393,22.9073482 262.044728,29.5207668 262.140575,38.3386581 L249.968051,38.3386581 C249.968051,32.7795527 248.817891,27.9872204 245.367412,27.9872204" id="Path" fill="#FFFFFF"></path>
            <path d="M299.233227,42.5559105 L277.188498,42.5559105 L277.188498,42.7476038 C277.955272,58.370607 289.552716,57.9872204 297.795527,54.7284345 L297.795527,60.9584665 C293.099042,62.2044728 289.840256,62.5878594 286.198083,62.5878594 C267.412141,62.5878594 264.632588,48.6900958 264.632588,41.5015974 C264.632588,33.2587859 268.178914,22.715655 282.555911,22.8115016 C293.099042,22.8115016 299.233227,29.5207668 299.233227,38.7220447 L299.233227,42.5559105 L299.233227,42.5559105 Z M286.29393,37.0926518 L286.29393,36.3258786 C286.102236,32.4920128 285.335463,28.0830671 282.076677,28.0830671 C278.913738,28.0830671 277.763578,31.8210863 277.380192,36.9009585 L277.380192,37.1884984 L286.29393,37.1884984 L286.29393,37.0926518 Z" id="Shape" fill="#FFFFFF"></path>
            <path d="M180.095847,61.5335463 L159.488818,61.5335463 C151.916933,61.5335463 146.453674,58.4664537 146.453674,50.0319489 C146.453674,43.2268371 150.479233,39.8722045 154.984026,38.3386581 C157.284345,37.571885 159.680511,37.1884984 161.884984,36.9968051 C164.089457,36.8051118 165.910543,36.8051118 167.15655,36.8051118 L167.348243,36.8051118 L167.348243,35.6549521 C167.348243,26.8370607 158.530351,27.7955272 153.642173,29.2332268 C152.683706,29.5207668 151.821086,29.8083067 151.15016,30.0958466 L151.15016,24.3450479 C155.559105,23.2907348 158.530351,23.0031949 163.226837,23.0031949 C174.249201,23.0031949 180.191693,28.1789137 180.191693,36.8051118 L180.095847,61.5335463 Z M167.348243,56.2619808 L167.348243,41.5974441 L167.15655,41.5974441 C163.99361,41.884984 159.392971,43.3226837 159.392971,49.6485623 C159.392971,55.5910543 162.268371,56.1661342 165.047923,56.2619808 L167.348243,56.2619808 Z" id="Shape" fill="#FFFFFF"></path>
            <polygon id="Path" fill="#CCCCCC" points="93.7380192 24.1533546 93.7380192 61.5335463 80.9904153 61.5335463 80.9904153 24.1533546"></polygon>
            <g id="Group">
                <path d="M146.166134,28.370607 C143.194888,28.4664537 138.498403,29.6166134 138.498403,36.6134185 L138.498403,61.4376997 L125.750799,61.4376997 L125.750799,36.2300319 C125.750799,28.658147 132.747604,22.9073482 143.578275,22.9073482 L146.166134,22.9073482 L146.166134,28.370607 Z" id="Path" fill="#FFFFFF"></path>
                <path d="M125.559105,8.43450479 L125.559105,13.8019169 C124.313099,13.8019169 123.067093,13.8019169 121.821086,13.8977636 C120.57508,13.9936102 119.329073,14.1853035 118.27476,14.6645367 C116.166134,15.5271565 114.728435,17.3482428 114.728435,20.9904153 L114.728435,24.1533546 L123.738019,24.1533546 L123.738019,29.6166134 L114.728435,29.6166134 L114.728435,61.4376997 L101.980831,61.4376997 L101.980831,23.9616613 C101.980831,10.0638978 111.469649,8.43450479 123.067093,8.43450479 L125.559105,8.43450479 Z" id="Path" fill="#FFFFFF"></path>
                <path d="M222.364217,61.5335463 L209.520767,61.5335463 L209.520767,39.1054313 C209.520767,30.2875399 206.166134,29.8083067 201.469649,29.7124601 L200.607029,29.7124601 L200.607029,61.5335463 L187.859425,61.5335463 L187.859425,24.057508 C188.913738,24.1533546 192.364217,24.2492013 203.865815,24.2492013 C222.364217,24.2492013 222.460064,32.8753994 222.460064,39.7763578 L222.364217,61.5335463 Z" id="Path" fill="#FFFFFF"></path>
                <path d="M87.4121406,16.485623 C82.9073482,16.485623 79.1693291,12.8434505 79.1693291,8.2428115 C79.1693291,3.73801917 82.8115016,-5.44825101e-14 87.4121406,-5.44825101e-14 C91.9169329,-5.44825101e-14 95.6549521,3.64217252 95.6549521,8.2428115 C95.6549521,12.8434505 91.9169329,16.485623 87.4121406,16.485623" id="Path" fill="#CCCCCC"></path>
                <path d="M87.4121406,85.686901 C82.9073482,85.686901 79.1693291,82.0447284 79.1693291,77.4440895 C79.1693291,72.9392971 82.8115016,69.201278 87.4121406,69.201278 C91.9169329,69.201278 95.6549521,72.8434505 95.6549521,77.4440895 C95.6549521,82.0447284 91.9169329,85.686901 87.4121406,85.686901" id="Path" fill="#FFFFFF"></path>
                <path d="M0.670926518,61.5335463 L0.670926518,8.43450479 L13.514377,8.43450479 L13.514377,24.1533546 L17.5399361,24.1533546 C26.4536741,24.1533546 30.8626198,27.6038339 33.0670927,31.629393 C35.2715655,35.6549521 35.2715655,40.2555911 35.2715655,42.4600639 C35.2715655,48.4025559 33.4504792,61.4376997 18.6900958,61.4376997 L0.670926518,61.4376997 L0.670926518,61.5335463 Z M22.3322684,42.3642173 C22.3322684,34.2172524 20.4153355,29.2332268 14.5686901,29.2332268 L13.514377,29.2332268 L13.514377,56.3578275 L14.7603834,56.3578275 C20.4153355,56.3578275 22.3322684,50.8945687 22.3322684,42.3642173" id="Shape" fill="#CCCCCC"></path>
                <path d="M75.4313099,43.2268371 C75.4313099,45.4313099 75.4313099,50.0319489 73.2268371,54.057508 C71.0223642,58.0830671 66.6134185,61.5335463 57.6996805,61.5335463 L53.6741214,61.5335463 L53.6741214,77.2523962 L40.8306709,77.2523962 L40.8306709,24.1533546 L58.8498403,24.1533546 C73.6102236,24.1533546 75.4313099,37.284345 75.4313099,43.2268371 M53.6741214,29.2332268 L53.6741214,56.3578275 L54.7284345,56.3578275 C60.5750799,56.3578275 62.4920128,51.3738019 62.4920128,43.2268371 C62.4920128,34.6964856 60.5750799,29.2332268 54.9201278,29.2332268 L53.6741214,29.2332268 Z" id="Shape" fill="#CCCCCC"></path>
            </g>
        </g>
    </g>
</svg>