<!-- Generator: Adobe Illustrator 21.1.0, SVG Export Plug-In  -->
<svg version="1.1"
	 xmlns="http://www.w3.org/2000/svg" xmlns:xlink="http://www.w3.org/1999/xlink" xmlns:a="http://ns.adobe.com/AdobeSVGViewerExtensions/3.0/"
	 x="0px" y="0px" width="108.4px" height="14.8px" viewBox="0 0 108.4 14.8" style="enable-background:new 0 0 108.4 14.8;"
	 xml:space="preserve">
<style type="text/css">
	.st0{fill:#FFFFFF;}
</style>
<defs>
</defs>
<g>
	<path class="st0" d="M24.9,14.7v-2.1h5.8h0.5c0.6,0,0.8-0.4,0.8-1.2v-1c0-0.8-0.4-1.2-1.2-1.2H28c-0.9,0-1.6-0.2-2.1-0.6
		c-0.3-0.2-0.5-0.5-0.7-0.9c-0.2-0.4-0.3-0.7-0.3-1.1V5.2c0-0.9,0.2-1.6,0.7-2.1c0.5-0.5,1.2-0.8,2-0.8h6.4v2.1h-5.8h-0.4
		c-0.3,0-0.5,0.1-0.6,0.3C27,4.9,27,5.1,27,5.4v1.3c0,0.3,0.1,0.5,0.3,0.7c0.2,0.2,0.5,0.3,0.8,0.3h3.1c0.8,0,1.5,0.3,2.1,0.8
		c0.6,0.6,0.9,1.2,0.9,2V12c0,0.7-0.3,1.3-0.8,1.9c-0.5,0.5-1.1,0.8-1.8,0.8H24.9z"/>
	<path class="st0" d="M56.2,14.8V0h2.1v2.3h5.2c1,0,1.7,0.3,2.2,0.9s0.8,1.3,0.8,2.1v9.5h-2V5.9c0-0.5-0.1-0.8-0.3-1.1
		c-0.2-0.3-0.5-0.4-0.9-0.4h-3.4c-1,0-1.4,0.5-1.4,1.4v9H56.2z"/>
	<path class="st0" d="M71.9,14.7c-1,0-1.8-0.3-2.4-0.8c-0.6-0.6-0.9-1.3-0.9-2.2V5.3c0-0.9,0.3-1.6,0.9-2.1c0.6-0.5,1.4-0.8,2.4-0.8
		h3.8c1,0,1.8,0.3,2.4,0.8C78.7,3.7,79,4.4,79,5.3v6.4c0,0.9-0.3,1.6-0.9,2.2c-0.6,0.6-1.4,0.9-2.4,0.9H71.9z M70.7,11
		c0,0.6,0.1,1,0.3,1.3c0.2,0.3,0.6,0.4,1.1,0.4h3.3c1,0,1.5-0.5,1.5-1.6V5.9c0-1-0.5-1.5-1.5-1.5h-3.3c-1,0-1.5,0.5-1.5,1.5V11z"/>
	<path class="st0" d="M81.6,14.7V5.5c0-1,0.2-1.8,0.7-2.3c0.5-0.5,1.2-0.8,2.1-0.8h1.9c0.3,0,0.7,0.1,1.1,0.2
		c0.4,0.1,0.6,0.2,0.8,0.3c0.1,0.1,0.3,0.3,0.5,0.6l0.4-0.5c0.5-0.4,1.1-0.6,2-0.6H93c1.9,0,2.8,1.1,2.8,3.2v9.2h-2.1V5.6
		c0-0.8-0.4-1.2-1.2-1.2h-1.6c-0.7,0-1,0.4-1,1.3v9h-2.1v-9c0-0.9-0.4-1.3-1.3-1.3h-1.7c-0.4,0-0.7,0.1-0.9,0.3
		c-0.2,0.2-0.3,0.5-0.3,0.9v9.1H81.6z"/>
	<path class="st0" d="M4.9,12.9c-2.5,0-2.9-1.3-2.9-1.3V9.4c4-0.3,7.8,0.1,7.8-3.5c0-0.4-0.2-3.3-5.1-3.3C0.7,2.5,0,5.7,0,5.7v5.9
		c0,0,0.8,3.2,4.9,3.2c4.6,0,4.9-3.3,4.9-3.3H7.9C7.9,11.4,7.4,12.9,4.9,12.9z M1.9,6c0,0,0.5-1.8,3-1.8s3,1,3,1.7
		c0,1.8-2.1,1.8-5.9,1.8V6z"/>
	<path class="st0" d="M17.6,4.4c2.5,0,2.9,1.3,2.9,1.3v2c-4,0.3-7.8,0-7.8,3.7c0,0.4,0.2,3.3,5.1,3.3c3.9,0,4.6-3.2,4.6-3.2V5.7
		c0,0-0.8-3.2-4.9-3.2c-4.6,0-4.9,3.3-4.9,3.3h1.8C14.6,5.8,15.1,4.4,17.6,4.4z M20.5,11.2c0,0-0.5,1.8-3,1.8s-3-1-3-1.7
		c0-1.8,2.1-1.9,5.9-1.9V11.2z"/>
	<path class="st0" d="M103.5,12.9c-2.5,0-2.9-1.3-2.9-1.3V9.3c4-0.3,7.8,0.2,7.8-3.5c0-0.4-0.2-3.4-5.1-3.4c-3.9,0-4.7,3.2-4.7,3.2
		v5.9c0,0,0.8,3.2,4.9,3.2c4.7,0,4.9-3.3,4.9-3.3h-1.8C106.6,11.4,106,12.9,103.5,12.9z M100.6,6c0,0,0.5-1.8,3-1.8c2.5,0,3,1,3,1.7
		c0,1.8-2.1,1.9-5.9,1.9V6z"/>
	<path class="st0" d="M36.1,2.4H38v5.2c0,0,0.4,0.7,2.4,0.7s3.7-0.6,3.7-0.6V1.9h2v9.9c0,0-0.5,2.9-5,2.9c-2.5,0-5-1.2-5-1.2
		l1.4-1.3c0,0,0.9,0.7,3.5,0.7s3-1.1,3-1.1l0.1-2.4c0,0-1,0.8-4.5,0.8c0,0-3.6-0.2-3.6-2.2S36.1,2.4,36.1,2.4z"/>
</g>
</svg>
