<?xml version="1.0" encoding="UTF-8"?>
<svg width="96px" height="96px" viewBox="0 0 96 96" version="1.1" xmlns="http://www.w3.org/2000/svg" xmlns:xlink="http://www.w3.org/1999/xlink">
    <!-- Generator: Sketch 52.6 (67491) - http://www.bohemiancoding.com/sketch -->
    <title>Icons / tools / photoshop</title>
    <desc>Created with Sketch.</desc>
    <defs>
        <polygon id="path-1" points="0 0.000123076923 95.9998 0.000123076923 95.9998 96 0 96"></polygon>
    </defs>
    <g id="Icons-/-tools-/-photoshop" stroke="none" stroke-width="1" fill="none" fill-rule="evenodd">
        <g id="Group-5">
            <polygon id="Fill-1" fill="#081D24" points="4 91.8974359 92 91.8974359 92 4.1025641 4 4.1025641"></polygon>
            <g id="Group-4">
                <mask id="mask-2" fill="white">
                    <use xlink:href="#path-1"></use>
                </mask>
                <g id="Clip-3"></g>
                <path d="M64.7202,39.3847385 C61.5602,39.3847385 60.4798,41.0257641 60.4798,42.3796103 C60.4798,43.8561231 61.1998,44.8817641 65.4402,47.1381744 C71.7198,50.2565333 73.6798,53.2514051 73.6798,57.6411487 C73.6798,64.2052513 68.7998,67.7334564 62.1998,67.7334564 C58.7202,67.7334564 55.7202,66.9949949 53.9998,65.9693538 C53.7202,65.8462769 53.6798,65.6411487 53.6798,65.3125333 L53.6798,59.2821744 C53.6798,58.8719179 53.8798,58.7484308 54.1602,58.953559 C56.6798,60.6360205 59.5602,61.3744821 62.1998,61.3744821 C65.3602,61.3744821 66.6798,60.0206359 66.6798,58.1744821 C66.6798,56.6971487 65.7602,55.3847385 61.7202,53.2514051 C56.0402,50.4616615 53.6798,47.6308923 53.6798,42.9129436 C53.6798,37.6202256 57.7202,33.2308923 64.7202,33.2308923 C68.1602,33.2308923 70.5602,33.7642256 71.8798,34.3796103 C72.1998,34.5847385 72.2798,34.9129436 72.2798,35.2001231 L72.2798,40.8206359 C72.2798,41.148841 72.0798,41.3539692 71.6798,41.2308923 C69.9202,40.0817641 67.3202,39.3847385 64.7202,39.3847385 Z M30.3202,44.2663795 C31.2402,44.348841 31.9602,44.348841 33.5602,44.348841 C38.2402,44.348841 42.6402,42.6667897 42.6402,36.1437128 C42.6402,30.9330462 39.4798,28.3078154 34.1602,28.3078154 C32.5602,28.3078154 31.0402,28.3894564 30.3202,28.4308923 L30.3202,44.2663795 Z M23.1998,22.4821744 C23.1998,22.1949949 23.7602,21.9898667 24.0798,21.9898667 C26.6402,21.8667897 30.4402,21.7847385 34.3998,21.7847385 C45.4798,21.7847385 49.7998,28.0206359 49.7998,36.0206359 C49.7998,46.4407385 42.4402,50.9129436 33.3998,50.9129436 C31.8798,50.9129436 31.3602,50.8304821 30.2798,50.8304821 L30.2798,66.5847385 C30.2798,66.9129436 30.1602,67.0770462 29.7998,67.0770462 L23.6798,67.0770462 C23.3602,67.0770462 23.1998,66.953559 23.1998,66.5847385 L23.1998,22.4821744 Z M3.9998,91.897559 L91.9998,91.897559 L91.9998,4.10268718 L3.9998,4.10268718 L3.9998,91.897559 Z M-0.0002,96.0001231 L95.9998,96.0001231 L95.9998,0.000123076923 L-0.0002,0.000123076923 L-0.0002,96.0001231 Z" id="Fill-2" fill="#30C4F3" mask="url(#mask-2)"></path>
            </g>
        </g>
    </g>
</svg>