<?xml version="1.0" encoding="UTF-8"?>
<svg width="96px" height="96px" viewBox="0 0 96 96" version="1.1" xmlns="http://www.w3.org/2000/svg" xmlns:xlink="http://www.w3.org/1999/xlink">
    <!-- Generator: Sketch 52.6 (67491) - http://www.bohemiancoding.com/sketch -->
    <title>Icons / tools / SCSS</title>
    <desc>Created with Sketch.</desc>
    <defs>
        <polygon id="path-1" points="1.90956153e-05 1.78373753e-05 95.9598832 1.78373753e-05 95.9598832 71.9290511 1.90956153e-05 71.9290511"></polygon>
    </defs>
    <g id="Icons-/-tools-/-SCSS" stroke="none" stroke-width="1" fill="none" fill-rule="evenodd">
        <g id="Group-3" transform="translate(0.000000, 12.000000)">
            <mask id="mask-2" fill="white">
                <use xlink:href="#path-1"></use>
            </mask>
            <g id="Clip-2"></g>
            <path d="M67.8505226,54.3548847 C67.5460555,54.1383591 67.5966832,53.4379796 68.5980263,51.2564321 C68.9911358,50.399965 69.8880701,48.958038 71.4471942,47.5800526 C71.6278073,48.1467679 71.7379971,48.6901839 71.735019,49.1962861 C71.714873,52.5711766 69.3068146,53.8317898 67.8505226,54.3548847 M55.0327708,57.2769285 C54.6245956,57.4903007 54.2502307,57.6244905 54.0764496,57.5209577 C53.9489168,57.4449285 54.2448,57.1635854 54.2448,57.1635854 C54.2448,57.1635854 56.3261431,54.9247533 57.1458219,53.9053664 C57.6224934,53.3123737 58.1753693,52.6086657 58.7779971,51.8215708 C58.782727,51.9002277 58.7855299,51.9783591 58.7855299,52.0552642 C58.7793985,54.7378336 56.1882745,56.5486949 55.0327708,57.2769285 M38.3942891,49.3378336 C37.4314861,51.6851036 35.4161869,57.6901839 34.1899095,57.3683737 C33.1370628,57.0921109 32.4957197,52.5272058 33.9796905,48.0346511 C34.7264934,45.7733956 36.3217051,43.0710307 37.2591066,42.0223883 C38.7677781,40.3345051 40.4290336,39.7825051 40.832654,40.4669431 C41.347165,41.3386511 38.9979679,47.8664759 38.3942891,49.3378336 M18.2553109,63.0288701 C15.4909314,66.0446365 11.6286832,67.1841985 9.97268321,66.2241985 C8.18442044,65.1872934 8.89268321,60.7474686 12.2849168,57.5474102 C14.3527708,55.5969285 17.0220263,53.8006073 18.7925956,52.6943299 C19.1955153,52.4517022 19.7876321,52.0957314 20.5072818,51.6646073 C20.6264058,51.5964613 20.6936759,51.5587971 20.6936759,51.5587971 L20.6910482,51.5544175 C20.8299679,51.4712058 20.9722161,51.3860672 21.1193693,51.2981255 C22.3537051,55.8533956 21.1568584,59.8634978 18.2553109,63.0288701 M82.5840701,41.341454 C79.2302015,41.3591474 76.3253255,42.1642861 73.8902891,43.3646365 C72.9996613,41.5870599 72.0983474,40.023381 71.9469898,38.8608701 C71.7702307,37.5035562 71.5652672,36.6938628 71.7788146,35.0769285 C71.992362,33.4599942 72.9276613,31.1701839 72.9139971,30.9986803 C72.9003328,30.8271766 72.7043036,30.0034686 70.7697635,29.9896292 C68.8352234,29.9756146 67.1806248,30.3617168 66.9858219,30.8725489 C66.791019,31.383381 66.418581,32.5327533 66.1869898,33.7313518 C65.8480117,35.4856292 62.3247416,41.7412204 60.3239825,45.0141547 C59.6698511,43.7368993 59.1134715,42.6104759 58.9975007,41.7198482 C58.8207416,40.3625343 58.6157781,39.5528409 58.8293255,37.9357314 C59.042873,36.3189723 59.9781723,34.029162 59.964508,33.8576584 C59.9508438,33.6861547 59.7548146,32.8624467 57.8202745,32.8484321 C55.8857343,32.8345927 54.2311358,33.2205197 54.036508,33.7313518 C53.8415299,34.2421839 53.6337635,35.4357022 53.2375007,36.5905051 C52.8410628,37.745308 48.1575591,48.1805781 46.9309314,50.8853956 C46.3058803,52.2635562 45.7619387,53.3707095 45.3779387,54.1269723 C45.3767124,54.1250453 45.3753109,54.1227679 45.3753109,54.1227679 C45.3753109,54.1227679 45.3518365,54.1730453 45.311019,54.2580088 C44.9822015,54.9016292 44.7866978,55.2577752 44.7866978,55.2577752 C44.7866978,55.2577752 44.7888,55.2628555 44.7923036,55.2710891 C44.5316321,55.7439066 44.2522161,56.1829139 44.1139971,56.1829139 C44.0172964,56.1829139 43.8235445,54.9245781 44.1560409,53.1978044 C44.8529168,49.5776584 46.5273109,43.9322277 46.5104934,43.7379504 C46.5019095,43.6380964 46.8217927,42.6544467 45.4173547,42.1401109 C44.0521577,41.6404905 43.5658511,42.4740088 43.4412964,42.4764613 C43.3207708,42.4790891 43.2310774,42.7709431 43.2310774,42.7709431 C43.2310774,42.7709431 44.7520117,36.4223299 40.3300555,36.4223299 C37.5655007,36.4223299 33.7347854,39.4465051 31.8475445,42.1877606 C30.6568292,42.8373372 28.1084496,44.2284613 25.404508,45.7140088 C24.3660263,46.2845781 23.3065226,46.8675854 22.3015007,47.421162 C22.2331796,47.3454832 22.1652088,47.2698044 22.0949606,47.1946511 C16.7329752,41.4742423 6.82097518,37.4278774 7.24158832,29.7373664 C7.39434745,26.941454 8.36625985,19.5794102 26.2874277,10.6494832 C40.9678949,3.33421314 52.7201869,5.34723504 54.7512526,9.80843212 C57.6524496,16.1822715 48.4700847,28.0284613 33.224654,29.7373664 C27.4159533,30.3883445 24.3574423,28.1372496 23.5966248,27.2988263 C22.7958657,26.4160818 22.6763912,26.3763153 22.3773547,26.5418628 C21.8901723,26.811819 22.1988438,27.5912058 22.3773547,28.0556146 C22.8324788,29.2401985 24.7004496,31.3409869 27.885092,32.3861255 C30.686435,33.305308 37.5062891,33.8103591 45.7537051,30.6202861 C54.9910774,27.0472642 62.2040409,17.1075854 60.0853839,8.7995562 C57.9308146,0.349629197 43.9200701,-2.42823942 30.6599825,2.2825927 C22.768362,5.08638832 14.2250628,9.4866219 8.08246423,15.2322569 C0.778931387,22.063673 -0.385856934,28.0095416 0.0941430657,30.4939796 C1.79936934,39.3217752 13.9666686,45.0702131 18.8388438,49.3306511 C18.5984934,49.4632642 18.3728584,49.587819 18.1678949,49.701162 C15.7249752,50.9093956 6.45028905,55.7631766 4.13034745,60.8916438 C1.4987562,66.7089285 4.54920876,70.8828263 6.56888759,71.4448117 C12.8260555,73.1857752 19.2471942,70.054038 22.6979387,64.9070015 C26.1479825,59.7611912 25.7264934,53.0608117 24.1431942,50.0023007 C24.1235737,49.9644613 24.1018511,49.9273226 24.0815299,49.8894832 C24.712362,49.5161693 25.3556321,49.1365489 25.9931212,48.7621839 C27.2363912,48.0321985 28.4565372,47.3512642 29.5158657,46.7747387 C28.9233985,48.3985051 28.4892964,50.3447825 28.2634861,53.1555854 C27.9982599,56.4577752 29.3513693,60.7260964 31.1224642,62.4053956 C31.9022015,63.1446657 32.8403036,63.1620088 33.434873,63.1620088 C35.4955445,63.1620088 36.4357489,61.447673 37.4710774,59.4201109 C38.7409752,56.9333956 39.8675737,54.0385051 39.8675737,54.0385051 C39.8675737,54.0385051 38.4533255,61.8586511 42.3061139,61.8586511 C43.7098511,61.8586511 45.1221723,60.0383299 45.7510774,59.1103883 C45.752654,59.1203737 45.7537051,59.1258044 45.7537051,59.1258044 C45.7537051,59.1258044 45.7901431,59.0655416 45.8616175,58.9441401 C46.0075445,58.721308 46.0900555,58.5794102 46.0900555,58.5794102 C46.0900555,58.5794102 46.0928584,58.5646949 46.0974131,58.5391182 C46.6616759,57.5593226 47.9130044,55.3255708 49.7899095,51.6421839 C52.2147854,46.8830015 54.5406832,40.9208409 54.5406832,40.9208409 C54.5406832,40.9208409 54.7572088,42.3785343 55.4658219,44.7890453 C55.8827562,46.2071474 56.7683036,47.7748555 57.4672818,49.2782715 C56.9047708,50.0588847 56.5589606,50.5070015 56.5589606,50.5070015 C56.5589606,50.5070015 56.5621139,50.515235 56.5684204,50.5303007 C56.118727,51.1269723 55.614727,51.7709431 55.0876029,52.3987971 C53.1737343,54.6784467 50.8940847,57.281308 50.5887416,58.0326657 C50.229092,58.9178628 50.3140555,59.5691912 51.0090044,60.0928117 C51.5168584,60.4754102 52.4206248,60.5347971 53.3636321,60.4712058 C55.0833985,60.3555854 56.2935591,59.9290161 56.890581,59.6692204 C57.8215007,59.3400526 58.9051796,58.8223883 59.9224642,58.0747095 C61.8000701,56.6944467 62.9324496,54.719965 62.8236613,52.1044905 C62.7633985,50.6630891 62.3037197,49.2344759 61.7222891,47.885746 C61.8925664,47.6408409 62.0635445,47.3938336 62.2346978,47.1433226 C65.194581,42.8164905 67.4901723,38.0618628 67.4901723,38.0618628 C67.4901723,38.0618628 67.7066978,39.519381 68.4154861,41.929892 C68.7739095,43.150038 69.4816467,44.4810745 70.1177343,45.7863591 C67.3349606,48.0476146 65.6088876,50.6750015 65.0095883,52.3987971 C63.9017343,55.5865927 64.7694131,57.0311474 66.3972088,57.359965 C67.1345518,57.5090453 68.1758365,57.1711182 68.9592526,56.839673 C69.9341431,56.5162861 71.105238,55.9781255 72.1992526,55.1738628 C74.0768584,53.7936 75.8819387,51.8609869 75.7731504,49.2455124 C75.7232234,48.0547971 75.4005372,46.8730161 74.9624058,45.7378336 C77.3214131,44.7550599 80.3757197,44.2086657 84.2658219,44.6629139 C92.6116905,45.637454 94.2487708,50.8484321 93.9358949,53.0296292 C93.6228438,55.2106511 91.8724204,56.4096 91.2869606,56.771527 C90.7018511,57.133454 90.5233401,57.2590599 90.5723912,57.5283153 C90.6435153,57.9198482 90.9141723,57.9047825 91.4132672,57.8205197 C92.1003328,57.7045489 95.7958073,56.0464467 95.9539971,52.0205781 C96.1547562,46.909454 91.2578803,41.2952058 82.5840701,41.341454" id="Fill-1" fill="#CC6699" mask="url(#mask-2)"></path>
        </g>
    </g>
</svg>