<?xml version="1.0" encoding="UTF-8"?>
<svg width="96px" height="96px" viewBox="0 0 96 96" version="1.1" xmlns="http://www.w3.org/2000/svg" xmlns:xlink="http://www.w3.org/1999/xlink">
    <!-- Generator: Sketch 52.6 (67491) - http://www.bohemiancoding.com/sketch -->
    <title>Icons / tools / Notion</title>
    <desc>Created with Sketch.</desc>
    <g id="Icons-/-tools-/-Notion" stroke="none" stroke-width="1" fill="none" fill-rule="evenodd">
        <g id="notion-logo" transform="translate(2.000000, 0.000000)">
            <path d="M5.78327333,4.13954333 L58.9700833,0.218929094 C65.5013933,-0.341814477 67.18185,0.0337997127 71.2869667,3.01882055 L88.2648,14.9634864 C91.0662,17.0175103 92,17.576736 92,19.8158639 L92,85.3281408 C92,89.4338865 90.5057667,91.8620321 85.2817,92.2334684 L23.5162733,95.9670106 C19.5947733,96.1542636 17.7284,95.5948078 15.67473,92.9801764 L3.17196833,76.742451 C0.931622667,73.7536216 0,71.5174866 0,68.901244 L0,10.669567 C0,7.31198785 1.49457833,4.51133204 5.78327333,4.13954333 Z" id="Background" fill="#FFFFFF"></path>
            <path d="M15.8644033,16.8308716 C18.8474267,19.2566383 19.9664533,19.0715344 25.56772,18.6974895 L78.3748,15.5234794 C79.4949,15.5234794 78.5634,14.4050282 78.1900333,14.2191569 L69.4199033,7.87274834 C67.7394467,6.56688325 65.5006267,5.07130972 61.20967,5.44539304 L10.07653,9.1786057 C8.21176667,9.36370959 7.83924333,10.2969801 8.58199,11.0451468 L15.8644033,16.8308716 Z M19.0348767,29.1496438 L19.0348767,84.7671506 C19.0348767,87.7562865 20.5271167,88.8744307 23.88573,88.6894802 L81.9206333,85.3281408 C85.2809333,85.1431903 85.6550667,83.0872481 85.6550667,80.6591025 L85.6550667,25.4148733 C85.6550667,22.9906414 84.7235667,21.6832492 82.6666,21.8698879 L22.0194333,25.4148733 C19.78138,25.6031236 19.0348767,26.7238003 19.0348767,29.1496438 Z M76.3268033,32.1331012 C76.6988667,33.8146151 76.3268033,35.4945175 74.6440467,35.6834585 L71.84763,36.2411492 L71.84763,77.3016 C69.4199033,78.6077645 67.1810833,79.3544724 65.3155533,79.3544724 C62.3286967,79.3544724 61.58066,78.4205115 59.3433733,75.622465 L41.0527767,46.8799423 L41.0527767,74.6891944 L46.8405733,75.9965867 C46.8405733,75.9965867 46.8405733,79.3544724 42.1710367,79.3544724 L29.2980133,80.1019484 C28.9240333,79.3544724 29.2980133,77.4896202 30.6037233,77.1158822 L33.9630267,76.1839929 L33.9630267,39.4151593 L29.29878,39.0410376 C28.9248,37.3596005 29.8563767,34.9352919 32.4707867,34.7471183 L46.2806767,33.8153058 L65.3155533,62.9319501 L65.3155533,37.1744198 L60.4624,36.6168058 C60.0898767,34.5612469 61.58066,33.068674 63.4469567,32.8835701 L76.3268033,32.1331012 Z M5.78327333,4.13954333 L58.9700833,0.218929094 C65.5013933,-0.341814477 67.18185,0.0337997127 71.2869667,3.01882055 L88.2648,14.9634864 C91.0662,17.0175103 92,17.576736 92,19.8158639 L92,85.3281408 C92,89.4338865 90.5057667,91.8620321 85.2817,92.2334684 L23.5162733,95.9670106 C19.5947733,96.1542636 17.7284,95.5948078 15.67473,92.9801764 L3.17196833,76.742451 C0.931622667,73.7536216 0,71.5174866 0,68.901244 L0,10.669567 C0,7.31198785 1.49457833,4.51133204 5.78327333,4.13954333 Z" id="Shape" fill="#000000" fill-rule="nonzero"></path>
        </g>
    </g>
</svg>