<?xml version="1.0" encoding="UTF-8"?>
<svg width="96px" height="96px" viewBox="0 0 96 96" version="1.1" xmlns="http://www.w3.org/2000/svg" xmlns:xlink="http://www.w3.org/1999/xlink">
    <title>Icons / tools / particle Copy</title>
    <g id="Icons-/-tools-/-particle-Copy" stroke="none" stroke-width="1" fill="none" fill-rule="evenodd">
        <g id="ICON_figma" transform="translate(16.000000, 0.000000)" fill-rule="nonzero">
            <path d="M16,96 C24.832,96 32,88.832 32,80 L32,64 L16,64 C7.168,64 0,71.168 0,80 C0,88.832 7.168,96 16,96 Z" id="Path" fill="#0ACF83"></path>
            <path d="M0,48 C0,39.168 7.168,32 16,32 L32,32 L32,64 L16,64 C7.168,64 0,56.832 0,48 Z" id="Path" fill="#A259FF"></path>
            <path d="M0,16 C0,7.168 7.168,0 16,0 L32,0 L32,32 L16,32 C7.168,32 0,24.832 0,16 Z" id="Path" fill="#F24E1E"></path>
            <path d="M32,0 L48,0 C56.832,0 64,7.168 64,16 C64,24.832 56.832,32 48,32 L32,32 L32,0 Z" id="Path" fill="#FF7262"></path>
            <path d="M64,48 C64,56.832 56.832,64 48,64 C39.168,64 32,56.832 32,48 C32,39.168 39.168,32 48,32 C56.832,32 64,39.168 64,48 Z" id="Path" fill="#1ABCFE"></path>
        </g>
    </g>
</svg>