<?xml version="1.0" encoding="UTF-8"?>
<svg width="96px" height="96px" viewBox="0 0 96 96" version="1.1" xmlns="http://www.w3.org/2000/svg" xmlns:xlink="http://www.w3.org/1999/xlink">
    <!-- Generator: Sketch 52.6 (67491) - http://www.bohemiancoding.com/sketch -->
    <title>Icons / tools / html 5</title>
    <desc>Created with Sketch.</desc>
    <g id="Icons-/-tools-/-html-5" stroke="none" stroke-width="1" fill="none" fill-rule="evenodd">
        <g id="Group-6" transform="translate(14.000000, 0.000000)">
            <path d="M51.3464628,-1.875e-05 L51.3464628,12.9374813 L61.7620771,12.9374813 L61.7620771,8.66248125 L55.6550028,8.66248125 L55.6550028,-1.875e-05 L51.3464628,-1.875e-05 Z M44.6963251,-1.875e-05 L41.9240606,4.55623125 L39.1516088,-1.875e-05 L34.6368209,-1.875e-05 L34.6368209,12.9374813 L38.8706171,12.9374813 L38.8706171,6.52498125 L41.8864077,11.1749813 L44.902573,6.52498125 L44.902573,12.9374813 L49.2111129,12.9374813 L49.2111129,-1.875e-05 L44.6963251,-1.875e-05 Z M20.8120275,-1.875e-05 L20.8120275,4.31229375 L24.6149697,4.31229375 L24.6149697,12.9374813 L28.9233223,12.9374813 L28.9233223,4.31229375 L32.7448099,4.31229375 L32.7448099,-1.875e-05 L20.8120275,-1.875e-05 Z M14.6116639,-1.875e-05 L14.6116639,4.27516875 L10.6401267,4.27516875 L10.6401267,-1.875e-05 L6.3317741,-1.875e-05 L6.3317741,12.9374813 L10.6777796,12.9374813 L10.6777796,8.62498125 L14.6116639,8.62498125 L14.6116639,12.9374813 L18.9202039,12.9374813 L18.9202039,-1.875e-05 L14.6116639,-1.875e-05 Z" id="Fill-1" fill="#010202"></path>
            <polygon id="Fill-2" fill="#E24E25" points="0 18.8625187 6.18181818 88.3125188 33.9250689 96.0000188 61.7809036 88.2750188 67.9625344 18.8625187"></polygon>
            <polyline id="Fill-3" fill="#F06629" points="33.981211 90.0938063 33.981211 24.5625562 61.7619273 24.5625562 56.4605499 83.8125563"></polyline>
            <path d="M15.3234347,63.0562688 L23.8655835,63.0562688 L24.4650325,69.8625188 L33.981286,72.4123312 L33.981286,81.3000188 L16.5223328,76.4250188 M12.625914,33.0562688 L33.981286,33.0562688 L33.981286,41.5685813 L21.9548397,41.5685813 L22.7416165,50.2873313 L33.981286,50.2873313 L33.981286,58.7812687 L14.9487791,58.7812687" id="Fill-4" fill="#EAEAEA"></path>
            <path d="M53.7067934,50.2874062 L33.9438953,50.2874062 L33.9438953,58.7999062 L44.4340661,58.7999062 L43.4412287,69.8624062 L33.9438953,72.4124063 L33.9438953,81.2624062 L51.3651956,76.4249062 M55.2618017,33.0563437 L33.9438953,33.0563437 L33.9438953,41.5686562 L54.4750248,41.5686562" id="Fill-5" fill="#FEFEFE"></path>
        </g>
    </g>
</svg>