<?xml version="1.0" encoding="UTF-8"?>
<svg width="96px" height="96px" viewBox="0 0 96 96" version="1.1" xmlns="http://www.w3.org/2000/svg" xmlns:xlink="http://www.w3.org/1999/xlink">
    <!-- Generator: Sketch 52.6 (67491) - http://www.bohemiancoding.com/sketch -->
    <title>Icons / tools / Typescript</title>
    <desc>Created with Sketch.</desc>
    <defs>
        <polygon id="path-1" points="0 0 95.9999238 0 95.9999238 96 0 96"></polygon>
    </defs>
    <g id="Icons-/-tools-/-Typescript" stroke="none" stroke-width="1" fill="none" fill-rule="evenodd">
        <g id="Group-3">
            <mask id="mask-2" fill="white">
                <use xlink:href="#path-1"></use>
            </mask>
            <g id="Clip-2"></g>
            <path d="M54.8267429,48.182781 L54.8570667,52.1143619 L48.6094476,52.1143619 L42.3618286,52.1143619 L42.3618286,69.8667429 L42.3618286,87.6191238 L37.942781,87.6191238 L33.5237333,87.6191238 L33.5237333,69.8667429 L33.5237333,52.1143619 L27.2761143,52.1143619 L21.0284952,52.1143619 L21.0284952,48.2589714 C21.0284952,46.1256381 21.0743619,44.3429333 21.1351619,44.2970667 C21.1808762,44.2362667 28.7848381,44.2056381 38.0038857,44.2208762 L54.7808762,44.2667429 L54.8267429,48.182781 Z M77.3637333,44.1751619 C79.8018286,44.7846857 81.6610286,45.8667429 83.3676952,47.6342095 C84.2515048,48.5791238 85.5618286,50.3008762 85.6684952,50.7124571 C85.6991238,50.8342095 81.5237333,53.6381714 78.9943619,55.2076952 C78.9029333,55.2684952 78.537219,54.8723048 78.1256381,54.262781 C76.8915048,52.4648381 75.5962667,51.6875429 73.6153143,51.5505524 C70.7046857,51.3524571 68.8304,52.8762667 68.8457905,55.4208762 C68.8457905,56.1675429 68.9523048,56.6096 69.2570667,57.2191238 C69.8970667,58.5446857 71.0856381,59.3370667 74.8189714,60.9524571 C81.6915048,63.9084952 84.6324571,65.8589714 86.4610286,68.6323048 C88.5029333,71.7256381 88.9600762,76.662781 87.5732571,80.3351619 C86.0494476,84.3275429 82.2705524,87.0399238 76.9523048,87.9389714 C75.3065905,88.2286476 71.4057905,88.182781 69.638019,87.862781 C65.782781,87.1770667 62.1256381,85.2723048 59.8705524,82.7732571 C58.9867429,81.7981714 57.2648381,79.2532571 57.3713524,79.0704 C57.417219,79.0096 57.8134095,78.7656381 58.2553143,78.5065905 C58.681981,78.262781 60.2970667,77.3334095 61.8208762,76.4494476 L64.5791238,74.8494476 L65.1581714,75.7029333 C65.9657905,76.9370667 67.7332571,78.6286476 68.7999238,79.1923048 C71.8629333,80.8076952 76.0684952,80.5791238 78.1410286,78.7199238 C79.0248381,77.9124571 79.3904,77.0743619 79.3904,75.8399238 C79.3904,74.7275429 79.2534095,74.2399238 78.6743619,73.4018286 C77.9276952,72.3351619 76.4038857,71.4362667 72.0761143,69.561981 C67.1237333,67.4286476 64.9904,66.1029333 63.0399238,64.0000762 C61.9124571,62.7810286 60.8457905,60.8304 60.4038857,59.2000762 C60.038019,57.8437333 59.9467429,54.4457905 60.2362667,53.0743619 C61.2570667,48.2894476 64.8684952,44.9524571 70.0800762,43.961981 C71.7713524,43.6418286 75.7029333,43.7637333 77.3637333,44.1751619 Z M-7.61904762e-05,48.0000762 L-7.61904762e-05,96.0000762 L47.9999238,96.0000762 L95.9999238,96.0000762 L95.9999238,48.0000762 L95.9999238,-7.61904762e-05 L47.9999238,-7.61904762e-05 L-7.61904762e-05,-7.61904762e-05 L-7.61904762e-05,48.0000762 Z" id="Fill-1" fill="#2178BE" mask="url(#mask-2)"></path>
        </g>
    </g>
</svg>