<?xml version="1.0" encoding="utf-8"?>
<!-- Generator: Adobe Illustrator 21.1.0, SVG Export Plug-In . SVG Version: 6.00 Build 0)  -->
<svg version="1.1" id="Layer_1" xmlns="http://www.w3.org/2000/svg" xmlns:xlink="http://www.w3.org/1999/xlink" x="0px" y="0px"
	 viewBox="0 0 300 300" style="enable-background:new 0 0 300 300;" xml:space="preserve">
<style type="text/css">
	.st0{fill:#F14111;}
</style>
<path class="st0" d="M110.8,270.3c0,0-25.3-17.7-25.3-40.5s25.3-40.5,25.3-40.5s-2.5,25.3,15.2,25.3s15.2-15.2,15.2-15.2
	c0-12.7-20.3-27.8-20.3-43c0-15.2,12.7-20.3,12.7-20.3s2.5,22.8,32.9,35.4c0,0,43,25.3,43,55.7s-32.9,43-32.9,43
	s73.4-15.2,73.4-75.9c0-50.6-50.6-73.4-50.6-73.4s-2.5,17.7-17.7,17.7c-15.2,0-17.7-20.3-17.7-20.3c0-17.7,10.1-25.3,7.6-45.6
	s-25.3-43-25.3-43l2.5,12.7C151.3,82.9,50,131,50,186.7C50,260.1,110.8,270.3,110.8,270.3z"/>
</svg>
