<?xml version="1.0" encoding="UTF-8"?>
<svg width="96px" height="96px" viewBox="0 0 96 96" version="1.1" xmlns="http://www.w3.org/2000/svg" xmlns:xlink="http://www.w3.org/1999/xlink">
    <!-- Generator: Sketch 52.6 (67491) - http://www.bohemiancoding.com/sketch -->
    <title>Icons / tools / javascript</title>
    <desc>Created with Sketch.</desc>
    <g id="Icons-/-tools-/-javascript" stroke="none" stroke-width="1" fill="none" fill-rule="evenodd">
        <g id="Group-4">
            <polygon id="Fill-1" fill="#F5DE18" points="0 96 96 96 96 0 0 0"></polygon>
            <path d="M32.6201905,75.7820495 C34.0373333,78.2963352 35.3264762,80.4220495 38.4259048,80.4220495 C41.3897143,80.4220495 43.2594286,79.2625829 43.2594286,74.7534781 L43.2594286,44.0791924 L52.280381,44.0791924 L52.280381,74.8755352 C52.280381,84.2164876 46.8038095,88.4677638 38.8099048,88.4677638 C31.5870476,88.4677638 27.4041905,84.7300114 25.2769524,80.2279162 L32.6201905,75.7820495 Z M64.487619,75.0003352 C66.4213333,78.1576686 68.9371429,80.4784305 73.3866667,80.4784305 C77.1245714,80.4784305 79.5122286,78.6103924 79.5122286,76.0289067 C79.5122286,72.9355733 77.0590476,71.8399543 72.9447619,70.0403352 L70.6895238,69.0728686 C64.1798095,66.2995352 59.8550857,62.8252495 59.8550857,55.4803352 C59.8550857,48.714621 65.0102857,43.5641448 73.0666667,43.5641448 C78.8022857,43.5641448 82.9257143,45.5603352 85.8971429,50.7871543 L78.872381,55.2974781 C77.3257143,52.5241448 75.6571429,51.4315733 73.0666667,51.4315733 C70.424381,51.4315733 68.7497143,53.1077638 68.7497143,55.2974781 C68.7497143,58.0037638 70.4259048,59.0995352 74.296381,60.7757257 L76.551619,61.7416686 C84.216381,65.0286781 88.544,68.3793829 88.544,75.9130971 C88.544,84.0350019 82.1638095,88.4845257 73.5954286,88.4845257 C65.2175238,88.4845257 59.8049524,84.4921448 57.1565714,79.2593829 L64.487619,75.0003352 Z" id="Fill-2" fill="#010202"></path>
        </g>
    </g>
</svg>