<?xml version="1.0" encoding="UTF-8"?>
<svg width="96px" height="96px" viewBox="0 0 96 96" version="1.1" xmlns="http://www.w3.org/2000/svg" xmlns:xlink="http://www.w3.org/1999/xlink">
    <!-- Generator: Sketch 52.6 (67491) - http://www.bohemiancoding.com/sketch -->
    <title>Icons / tools / css 3</title>
    <desc>Created with Sketch.</desc>
    <g id="Icons-/-tools-/-css-3" stroke="none" stroke-width="1" fill="none" fill-rule="evenodd">
        <g id="Group-10" transform="translate(14.000000, 0.000000)">
            <polygon id="Fill-1" fill="#425BA8" points="0 18.8478673 6.17117526 88.2031844 33.863299 95.9063649 61.6323024 88.1924137 67.8100206 18.8478673"></polygon>
            <polygon id="Fill-2" fill="#4666AF" points="56.3437017 83.7769054 61.622932 24.518681 33.9051038 24.518681 33.9051038 90.0101151"></polygon>
            <polygon id="Fill-3" fill="#EAEAEA" points="14.1472014 50.2416234 14.9080536 58.7476917 33.905057 58.7476917 33.905057 50.2416234"></polygon>
            <polygon id="Fill-4" fill="#EAEAEA" points="33.9049869 33.0249834 33.8757773 33.0249834 12.6181828 33.0249834 13.3900179 41.5310517 33.9049869 41.5310517"></polygon>
            <polygon id="Fill-5" fill="#EAEAEA" points="33.9049869 81.1830088 33.9049869 72.3329795 33.8678323 72.3430478 24.4134955 69.784999 23.8089732 63.0010771 19.2151175 63.0010771 15.2872412 63.0010771 16.476657 76.3567844 33.8659629 81.1940137"></polygon>
            <polygon id="Fill-6" fill="#010202" points="15.9586887 2.34146341e-05 15.9586887 12.9249015 26.2404756 12.9249015 26.2404756 8.61660878 20.258345 8.61660878 20.258345 4.3083161 26.2404756 4.3083161 26.2404756 2.34146341e-05"></polygon>
            <polygon id="Fill-7" fill="#010202" points="28.2966928 2.34146341e-05 28.2966928 8.42929171 34.2788234 8.42929171 34.2788234 9.17832585 28.2966928 9.17832585 28.2966928 13.1122185 38.5784797 13.1122185 38.5784797 4.49563317 32.5963491 4.49563317 32.5963491 3.74613073 38.5784797 3.74613073 38.5784797 2.34146341e-05"></polygon>
            <polygon id="Fill-8" fill="#010202" points="40.6349072 2.34146341e-05 40.6349072 8.42929171 46.6172715 8.42929171 46.6172715 9.17832585 40.6349072 9.17832585 40.6349072 13.1122185 50.9166942 13.1122185 50.9166942 4.49563317 44.9345636 4.49563317 44.9345636 3.74613073 50.9166942 3.74613073 50.9166942 2.34146341e-05"></polygon>
            <polygon id="Fill-9" fill="#FEFEFE" points="44.3291766 58.7477151 43.3437608 69.77952 33.8758708 72.3401444 33.8758708 81.1899395 51.2787299 76.3566907 51.4065512 74.9197346 53.4012179 52.5257444 53.6084893 50.2416468 55.1411766 33.0251005 33.8758708 33.0251005 33.8758708 41.5311688 45.8375615 41.5311688 45.0652591 50.2416468 33.8758708 50.2416468 33.8758708 58.7477151"></polygon>
        </g>
    </g>
</svg>