<?xml version="1.0" encoding="UTF-8"?>
<svg width="96px" height="96px" viewBox="0 0 96 96" version="1.1" xmlns="http://www.w3.org/2000/svg" xmlns:xlink="http://www.w3.org/1999/xlink">
    <!-- Generator: Sketch 52.6 (67491) - http://www.bohemiancoding.com/sketch -->
    <title>Icons / tools / angular js</title>
    <desc>Created with Sketch.</desc>
    <g id="Icons-/-tools-/-angular-js" stroke="none" stroke-width="1" fill="none" fill-rule="evenodd">
        <g id="angular" transform="translate(3.000000, 0.000000)">
            <polygon id="Path" fill="#DD0031" points="45 0 45 0 45 0 0.430851064 15.936 7.2287234 75.024 45 96 45 96 45 96 82.7712766 75.024 89.5691489 15.936"></polygon>
            <polygon id="Path" fill="#C3002F" points="45 0 45 10.656 45 10.608 45 59.232 45 59.232 45 96 45 96 82.7712766 75.024 89.5691489 15.936"></polygon>
            <path d="M45,10.608 L17.1382979,73.248 L27.5265957,73.248 L33.1276596,59.232 L56.7765957,59.232 L62.3776596,73.248 L72.7659574,73.248 L45,10.608 Z M53.1382979,50.592 L36.8617021,50.592 L45,30.96 L53.1382979,50.592 Z" id="Shape" fill="#FFFFFF" fill-rule="nonzero"></path>
        </g>
    </g>
</svg>