<?xml version="1.0" encoding="utf-8"?>
<!-- Generator: Adobe Illustrator 21.1.0, SVG Export Plug-In . SVG Version: 6.00 Build 0)  -->
<svg version="1.1" id="Layer_1" xmlns="http://www.w3.org/2000/svg" xmlns:xlink="http://www.w3.org/1999/xlink" x="0px" y="0px"
	 viewBox="0 0 300 300" style="enable-background:new 0 0 300 300;" xml:space="preserve">
<style type="text/css">
	.st0{fill:#F54472;}
</style>
<g>
	<circle class="st0" cx="85.7" cy="70" r="20.9"/>
	<path class="st0" d="M37,111.7l-7,27.8h27.8l-20.9,80c0,0,3.5,31.3,31.3,31.3s45.2-27.8,45.2-27.8L103,250.9h34.8l27.8-97.4
		c0,0,7-17.4,24.3-17.4c20.9,0,20.9,20.9,20.9,20.9s-17.4,34.8-17.4,62.6s31.3,31.3,31.3,31.3c31.3,0,45.2-38.3,45.2-38.3
		l-13.9-10.4c0,0-7,24.3-20.9,24.3s-10.4-13.9-10.4-13.9l17.4-62.6c0,0,7-41.7-34.8-41.7c-24.3,0-48.7,34.8-48.7,34.8l10.4-31.3
		h-55.7l-7,24.3h27.8L117,198.7c0,0-20.9,31.3-34.8,31.3s-10.4-17.4-10.4-17.4l27.8-100.9H37z"/>
</g>
</svg>
