<?xml version="1.0" encoding="UTF-8"?>
<svg width="96px" height="96px" viewBox="0 0 96 96" version="1.1" xmlns="http://www.w3.org/2000/svg" xmlns:xlink="http://www.w3.org/1999/xlink">
    <!-- Generator: Sketch 52.6 (67491) - http://www.bohemiancoding.com/sketch -->
    <title>Icons / tools / Abstract</title>
    <desc>Created with Sketch.</desc>
    <g id="Icons-/-tools-/-Abstract" stroke="none" stroke-width="1" fill="none" fill-rule="evenodd">
        <g id="Group-8">
            <path d="M48,96.0000947 C86.4,96.0000947 96,86.4000947 96,48.0000947 C96,9.60009474 86.4,9.47368421e-05 48,9.47368421e-05 C9.6,9.47368421e-05 0,9.60009474 0,48.0000947 C0,86.4000947 9.6,96.0000947 48,96.0000947 Z" id="Fill-1" fill="#18191A"></path>
            <polygon id="Fill-4" fill="#FEFEFE" points="73.5 73.5000947 64.5 73.5000947 64.5 31.5000947 22.5 31.5000947 22.5 22.5000947 73.5 22.5000947"></polygon>
            <path d="M40.1242421,46.4999368 C34.9462421,46.4999368 30.7484526,50.6977263 30.7484526,55.8757263 C30.7484526,61.0537263 34.9462421,65.2515158 40.1242421,65.2515158 C45.3022421,65.2515158 49.5000316,61.0537263 49.5000316,55.8757263 C49.4930842,50.7005684 45.2994,46.5068842 40.1242421,46.4999368 M40.1242421,74.2486737 C29.9754,74.2486737 21.7484526,66.0214105 21.7484526,55.8725684 C21.7484526,45.7237263 29.9754,37.4967789 40.1242421,37.4967789 C50.2727684,37.4967789 58.5000316,45.7240421 58.5000316,55.8725684 L58.5000316,55.8757263 C58.4877158,66.0188842 50.2674,74.2379368 40.1242421,74.2486737" id="Fill-6" fill="#FEFEFE"></path>
        </g>
    </g>
</svg>