<?xml version="1.0" encoding="UTF-8"?>
<svg width="96px" height="96px" viewBox="0 0 96 96" version="1.1" xmlns="http://www.w3.org/2000/svg" xmlns:xlink="http://www.w3.org/1999/xlink">
    <!-- Generator: Sketch 52.6 (67491) - http://www.bohemiancoding.com/sketch -->
    <title>Icons / tools / illustrator</title>
    <desc>Created with Sketch.</desc>
    <g id="Icons-/-tools-/-illustrator" stroke="none" stroke-width="1" fill="none" fill-rule="evenodd">
        <g id="Group-5">
            <polygon id="Fill-1" fill="#27180C" points="4 91.8974359 92 91.8974359 92 4.1025641 4 4.1025641"></polygon>
            <path d="M0,96 L95.9996,96 L95.9996,0 L0,0 L0,96 Z M4,91.8974359 L92,91.8974359 L92,4.1025641 L4,4.1025641 L4,91.8974359 Z" id="Fill-2" fill="#F37B20"></path>
            <path d="M62.9202,34.2152615 C62.9202,33.8870564 63.0402,33.7229538 63.3998,33.7229538 L69.6798,33.7229538 C69.9998,33.7229538 70.1602,33.846441 70.1602,34.2152615 L70.1602,66.5844923 C70.1602,66.9126974 70.0798,67.0772103 69.6798,67.0772103 L63.4798,67.0772103 C63.0798,67.0772103 62.9602,66.8720821 62.9602,66.5434667 L62.9602,34.2152615 L62.9202,34.2152615 Z M62.4402,24.902441 C62.4402,22.2768 64.2402,20.7182359 66.5202,20.7182359 C68.9602,20.7182359 70.5998,22.3998769 70.5998,24.902441 C70.5998,27.6101333 68.8798,29.0870564 66.4402,29.0870564 C64.1202,29.0870564 62.4402,27.6101333 62.4402,24.902441 Z M44.4402,47.7126974 C43.3202,43.1588513 40.6798,33.2310564 39.6798,28.4306462 L39.5998,28.4306462 C38.7602,33.2310564 36.6402,41.3537231 34.9602,47.7126974 L44.4402,47.7126974 Z M33.3202,54.3592615 L30.1602,66.6669538 C30.0798,66.9947487 29.9602,67.0772103 29.5602,67.0772103 L23.6798,67.0772103 C23.2798,67.0772103 23.1998,66.9537231 23.2798,66.4618256 L34.6402,25.6819282 C34.8402,24.9434667 34.9602,24.2870564 35.0402,22.2768 C35.0402,21.9896205 35.1602,21.8665436 35.3602,21.8665436 L43.7602,21.8665436 C44.0402,21.8665436 44.1602,21.9490051 44.2402,22.2768 L56.9602,66.5434667 C57.0402,66.8720821 56.9602,67.0772103 56.6402,67.0772103 L49.9998,67.0772103 C49.6798,67.0772103 49.4798,66.9947487 49.3998,66.7075692 L46.0798,54.3592615 L33.3202,54.3592615 Z" id="Fill-3" fill="#F37B20"></path>
        </g>
    </g>
</svg>