<?xml version="1.0" encoding="UTF-8"?>
<svg width="96px" height="96px" viewBox="0 0 96 96" version="1.1" xmlns="http://www.w3.org/2000/svg" xmlns:xlink="http://www.w3.org/1999/xlink">
    <!-- Generator: Sketch 52.6 (67491) - http://www.bohemiancoding.com/sketch -->
    <title>Icons / tools / arduino</title>
    <desc>Created with Sketch.</desc>
    <defs>
        <polygon id="path-1" points="0 64.9611327 95.9744709 64.9611327 95.9744709 0 0 0"></polygon>
    </defs>
    <g id="Icons-/-tools-/-arduino" stroke="none" stroke-width="1" fill="none" fill-rule="evenodd">
        <g id="Group-42" transform="translate(0.000000, 16.000000)">
            <path d="M23.3410571,3.97956531 C12.6531457,3.97956531 3.98894626,12.2942592 3.98894626,22.5509939 C3.98894626,32.8077286 12.6531457,41.1224224 23.3410571,41.1224224 C48.604215,42.4489531 45.9449352,3.97956531 72.537733,3.97956531 C83.2256443,3.97956531 91.8899767,12.2942592 91.8899767,22.5509939 C91.8899767,32.8077286 83.2256443,41.1224224 72.537733,41.1224224 C47.2745751,42.4489531 49.9338548,3.97956531 23.3410571,3.97956531" id="Stroke-1" stroke="#00969B" stroke-width="7.97783934"></path>
            <polygon id="Fill-3" fill="#00969B" points="70.4195368 27.1506459 70.4195368 22.8022786 66.0934205 22.8022786 66.0934205 20.9850643 70.4195368 20.9850643 70.4195368 16.6690643 72.2626837 16.6690643 72.2626837 20.9850643 76.588667 20.9850643 76.588667 22.8022786 72.2626837 22.8022786 72.2626837 27.1506459"></polygon>
            <polygon id="Stroke-5" stroke="#00969B" stroke-width="2.65927978" points="70.4195368 27.1506459 70.4195368 22.8022786 66.0934205 22.8022786 66.0934205 20.9850643 70.4195368 20.9850643 70.4195368 16.6690643 72.2626837 16.6690643 72.2626837 20.9850643 76.588667 20.9850643 76.588667 22.8022786 72.2626837 22.8022786 72.2626837 27.1506459"></polygon>
            <path d="M92.107333,3.8847449 L92.107333,1.77317347 L92.6266903,1.77317347 L93.1617374,3.45985714 L93.6784355,1.77317347 L94.1875546,1.77317347 L94.1875546,3.8847449 L93.8655158,3.8847449 L93.8655158,2.11263265 L93.3200975,3.8847449 L93.000718,3.8847449 L92.4318981,2.08663265 L92.4318981,3.8847449 L92.107333,3.8847449 Z M90.8270227,3.8847449 L90.8270227,2.08663265 L90.1414604,2.08663265 L90.1414604,1.77317347 L91.871056,1.77317347 L91.871056,2.08663265 L91.1801751,2.08663265 L91.1801751,3.8847449 L90.8270227,3.8847449 Z" id="Fill-7" fill="#00969B"></path>
            <path d="M92.107333,3.8847449 L92.107333,1.77317347 L92.6266903,1.77317347 L93.1617374,3.45985714 L93.6784355,1.77317347 L94.1875546,1.77317347 L94.1875546,3.8847449 L93.8655158,3.8847449 L93.8655158,2.11263265 L93.3200975,3.8847449 L93.000718,3.8847449 L92.4318981,2.08663265 L92.4318981,3.8847449 L92.107333,3.8847449 Z M90.8270227,3.8847449 L90.8270227,2.08663265 L90.1414604,2.08663265 L90.1414604,1.77317347 L91.871056,1.77317347 L91.871056,2.08663265 L91.1801751,2.08663265 L91.1801751,3.8847449 L90.8270227,3.8847449 Z" id="Stroke-9" stroke="#00969B" stroke-width="0.5"></path>
            <path d="M7.89295512,52.1499245 L5.82243989,59.2072 L9.93940388,59.2072 L7.89295512,52.1499245 Z M11.4680909,64.5350776 L10.6012986,61.540302 L5.11227922,61.540302 L4.22155346,64.5350776 L1.28424598,64.5350776 L5.94290526,49.3640776 L10.0838028,49.3640776 L14.7423291,64.5350776 L11.4680909,64.5350776 Z" id="Fill-11" fill="#00969B"></path>
            <path d="M7.89295512,52.1499245 L5.82243989,59.2072 L9.93940388,59.2072 L7.89295512,52.1499245 Z M11.4680909,64.5350776 L10.6012986,61.540302 L5.11227922,61.540302 L4.22155346,64.5350776 L1.28424598,64.5350776 L5.94290526,49.3640776 L10.0838028,49.3640776 L14.7423291,64.5350776 L11.4680909,64.5350776 Z" id="Stroke-13" stroke="#00969B" stroke-width="0.5"></path>
            <path d="M23.5658327,53.8329602 C23.5658327,53.0901031 23.321046,52.5561745 22.8316055,52.2311745 C22.3420321,51.9061745 21.607672,51.7436745 20.6286582,51.7436745 L19.3286693,51.7436745 L19.3286693,56.0267765 L20.5323922,56.0267765 C20.9897884,56.0267765 21.4050349,55.980348 21.7782648,55.8874908 C22.1513618,55.7946337 22.4703424,55.655348 22.7352066,55.4696337 C23.0000709,55.2839194 23.2045695,55.0536337 23.3491014,54.7790418 C23.4935003,54.5043173 23.5658327,54.189001 23.5658327,53.8329602 Z M24.3000598,64.5351439 L22.0851457,59.6600112 C21.8765252,59.1957255 21.5856,58.8455214 21.212503,58.6095316 C20.8392731,58.3735418 20.3998271,58.2554806 19.894431,58.2554806 L19.3286693,58.2554806 L19.3286693,64.5351439 L16.3672953,64.5351439 L16.3672953,49.3641439 L20.9536222,49.3641439 C21.8202814,49.3641439 22.6067634,49.4357765 23.3130681,49.5789092 C24.0192399,49.7220418 24.6211679,49.9600214 25.1187191,50.2927153 C25.6161374,50.6254092 25.9993396,51.0587867 26.2681928,51.5927153 C26.537046,52.1266439 26.6714726,52.7804908 26.6714726,53.5543888 C26.6713396,54.1116643 26.5873064,54.6068582 26.418708,55.0402357 C26.2501097,55.4734806 26.0134338,55.846899 25.7084144,56.1602255 C25.403528,56.4736847 25.0404033,56.727052 24.6190404,56.9204602 C24.1978105,57.114001 23.738287,57.2494398 23.2408687,57.3267765 C23.6259324,57.4042459 23.9789518,57.6151643 24.3000598,57.959399 C24.6211679,58.3037663 24.9421429,58.80095 25.263118,59.4510827 L27.7789296,64.5351439 L24.3000598,64.5351439 Z" id="Fill-15" fill="#00969B"></path>
            <path d="M23.5658327,53.8329602 C23.5658327,53.0901031 23.321046,52.5561745 22.8316055,52.2311745 C22.3420321,51.9061745 21.607672,51.7436745 20.6286582,51.7436745 L19.3286693,51.7436745 L19.3286693,56.0267765 L20.5323922,56.0267765 C20.9897884,56.0267765 21.4050349,55.980348 21.7782648,55.8874908 C22.1513618,55.7946337 22.4703424,55.655348 22.7352066,55.4696337 C23.0000709,55.2839194 23.2045695,55.0536337 23.3491014,54.7790418 C23.4935003,54.5043173 23.5658327,54.189001 23.5658327,53.8329602 Z M24.3000598,64.5351439 L22.0851457,59.6600112 C21.8765252,59.1957255 21.5856,58.8455214 21.212503,58.6095316 C20.8392731,58.3735418 20.3998271,58.2554806 19.894431,58.2554806 L19.3286693,58.2554806 L19.3286693,64.5351439 L16.3672953,64.5351439 L16.3672953,49.3641439 L20.9536222,49.3641439 C21.8202814,49.3641439 22.6067634,49.4357765 23.3130681,49.5789092 C24.0192399,49.7220418 24.6211679,49.9600214 25.1187191,50.2927153 C25.6161374,50.6254092 25.9993396,51.0587867 26.2681928,51.5927153 C26.537046,52.1266439 26.6714726,52.7804908 26.6714726,53.5543888 C26.6713396,54.1116643 26.5873064,54.6068582 26.418708,55.0402357 C26.2501097,55.4734806 26.0134338,55.846899 25.7084144,56.1602255 C25.403528,56.4736847 25.0404033,56.727052 24.6190404,56.9204602 C24.1978105,57.114001 23.738287,57.2494398 23.2408687,57.3267765 C23.6259324,57.4042459 23.9789518,57.6151643 24.3000598,57.959399 C24.6211679,58.3037663 24.9421429,58.80095 25.263118,59.4510827 L27.7789296,64.5351439 L24.3000598,64.5351439 Z" id="Stroke-17" stroke="#00969B" stroke-width="0.5"></path>
            <path d="M38.1312266,56.9438337 C38.1312266,56.1235071 38.0628831,55.3923235 37.926595,54.7500173 C37.790174,54.1077112 37.5593485,53.5639663 37.2343845,53.119048 C36.9094205,52.6741296 36.4739634,52.335599 35.9284122,52.1034561 C35.382595,51.8713133 34.7046116,51.7552418 33.8940632,51.7552418 L32.3891767,51.7552418 L32.3891767,62.1439663 L33.6894316,62.1439663 C35.1419302,62.1439663 36.2452654,61.7261092 36.999703,60.8903949 C37.7540078,60.054548 38.1312266,58.7390276 38.1312266,56.9438337 M41.3090659,56.7581194 C41.3090659,57.9343541 41.1586837,59.0022112 40.8577861,59.9616908 C40.5567557,60.9211704 40.0872598,61.7396398 39.4492986,62.416701 C38.8113374,63.0937622 37.9948055,63.61615 36.999703,63.9837316 C36.0046006,64.3513133 34.8128443,64.5351704 33.4245673,64.5351704 L29.4280687,64.5351704 L29.4280687,49.3640378 L34.086595,49.3640378 C35.290318,49.3640378 36.3436587,49.5091602 37.2464842,49.7994051 C38.1493097,50.0895173 38.9016199,50.5364255 39.503415,51.1399969 C40.1053429,51.743701 40.5567557,52.5096398 40.8577861,53.4383439 C41.1586837,54.3669153 41.3090659,55.4735071 41.3090659,56.7581194" id="Fill-19" fill="#00969B"></path>
            <path d="M38.1312266,56.9438337 C38.1312266,56.1235071 38.0628831,55.3923235 37.926595,54.7500173 C37.790174,54.1077112 37.5593485,53.5639663 37.2343845,53.119048 C36.9094205,52.6741296 36.4739634,52.335599 35.9284122,52.1034561 C35.382595,51.8713133 34.7046116,51.7552418 33.8940632,51.7552418 L32.3891767,51.7552418 L32.3891767,62.1439663 L33.6894316,62.1439663 C35.1419302,62.1439663 36.2452654,61.7261092 36.999703,60.8903949 C37.7540078,60.054548 38.1312266,58.7390276 38.1312266,56.9438337 Z M41.3090659,56.7581194 C41.3090659,57.9343541 41.1586837,59.0022112 40.8577861,59.9616908 C40.5567557,60.9211704 40.0872598,61.7396398 39.4492986,62.416701 C38.8113374,63.0937622 37.9948055,63.61615 36.999703,63.9837316 C36.0046006,64.3513133 34.8128443,64.5351704 33.4245673,64.5351704 L29.4280687,64.5351704 L29.4280687,49.3640378 L34.086595,49.3640378 C35.290318,49.3640378 36.3436587,49.5091602 37.2464842,49.7994051 C38.1493097,50.0895173 38.9016199,50.5364255 39.503415,51.1399969 C40.1053429,51.743701 40.5567557,52.5096398 40.8577861,53.4383439 C41.1586837,54.3669153 41.3090659,55.4735071 41.3090659,56.7581194 Z" id="Stroke-21" stroke="#00969B" stroke-width="0.5"></path>
            <path d="M54.4781385,58.9518959 C54.4781385,59.919202 54.3437119,60.7684469 54.0749917,61.4997633 C53.8060055,62.2310796 53.4209418,62.8403551 52.9192687,63.3278551 C52.4177285,63.8153551 51.8058283,64.1830694 51.0835679,64.4306 C50.3613075,64.6782633 49.550759,64.8021612 48.6520554,64.8021612 C47.6408643,64.8021612 46.774205,64.6782633 46.0519446,64.4306 C45.3295512,64.1830694 44.7438449,63.8270286 44.2944266,63.3627429 C43.8450083,62.8984571 43.5200443,62.3334878 43.3194017,61.6681 C43.118759,61.0025796 43.0183712,60.2557429 43.0183712,59.4278551 L43.0183712,49.3641306 L45.9796122,49.3641306 L45.9796122,59.2536816 C45.9796122,59.7643959 46.0258837,60.2171408 46.1181607,60.6117837 C46.2103047,61.0064265 46.3707922,61.3411102 46.5996233,61.6158347 C46.8283213,61.8904265 47.1152576,62.097498 47.4602992,62.2369163 C47.8053407,62.3760694 48.2386704,62.4457122 48.7602881,62.4457122 C49.2498615,62.4457122 49.6631136,62.3857531 50.0001773,62.2658347 C50.337241,62.1459163 50.6181939,61.9523755 50.8427701,61.6853449 C51.0676122,61.4185796 51.2360776,61.0760694 51.3484321,60.6582122 C51.4607867,60.2403551 51.5168975,59.7334878 51.5168975,59.1376102 L51.5168975,49.3641306 L54.4781385,49.3641306 L54.4781385,58.9518959 Z" id="Fill-23" fill="#00969B"></path>
            <path d="M54.4781385,58.9518959 C54.4781385,59.919202 54.3437119,60.7684469 54.0749917,61.4997633 C53.8060055,62.2310796 53.4209418,62.8403551 52.9192687,63.3278551 C52.4177285,63.8153551 51.8058283,64.1830694 51.0835679,64.4306 C50.3613075,64.6782633 49.550759,64.8021612 48.6520554,64.8021612 C47.6408643,64.8021612 46.774205,64.6782633 46.0519446,64.4306 C45.3295512,64.1830694 44.7438449,63.8270286 44.2944266,63.3627429 C43.8450083,62.8984571 43.5200443,62.3334878 43.3194017,61.6681 C43.118759,61.0025796 43.0183712,60.2557429 43.0183712,59.4278551 L43.0183712,49.3641306 L45.9796122,49.3641306 L45.9796122,59.2536816 C45.9796122,59.7643959 46.0258837,60.2171408 46.1181607,60.6117837 C46.2103047,61.0064265 46.3707922,61.3411102 46.5996233,61.6158347 C46.8283213,61.8904265 47.1152576,62.097498 47.4602992,62.2369163 C47.8053407,62.3760694 48.2386704,62.4457122 48.7602881,62.4457122 C49.2498615,62.4457122 49.6631136,62.3857531 50.0001773,62.2658347 C50.337241,62.1459163 50.6181939,61.9523755 50.8427701,61.6853449 C51.0676122,61.4185796 51.2360776,61.0760694 51.3484321,60.6582122 C51.4607867,60.2403551 51.5168975,59.7334878 51.5168975,59.1376102 L51.5168975,49.3641306 L54.4781385,49.3641306 L54.4781385,58.9518959 Z" id="Stroke-25" stroke="#00969B" stroke-width="0.5"></path>
            <polygon id="Fill-27" fill="#00969B" points="57.3551734 51.6971663 57.3551734 49.3640643 67.2980875 49.3640643 67.2980875 51.6971663 63.8313175 51.6971663 63.8313175 62.178748 67.2980875 62.178748 67.2980875 64.5350643 57.3551734 64.5350643 57.3551734 62.178748 60.8219435 62.178748 60.8219435 51.6971663"></polygon>
            <polygon id="Stroke-29" stroke="#00969B" stroke-width="0.5" points="57.3551734 51.6971663 57.3551734 49.3640643 67.2980875 49.3640643 67.2980875 51.6971663 63.8313175 51.6971663 63.8313175 62.178748 67.2980875 62.178748 67.2980875 64.5350643 57.3551734 64.5350643 57.3551734 62.178748 60.8219435 62.178748 60.8219435 51.6971663"></polygon>
            <polygon id="Fill-31" fill="#00969B" points="78.0356211 64.5351041 73.8223911 55.4812673 72.9558648 53.5311347 72.9558648 59.8224714 72.9558648 64.5351041 70.2594881 64.5351041 70.2594881 49.3641041 73.8947235 49.3641041 78.1921197 58.4759102 78.9505463 60.2518694 78.9505463 53.5544816 78.9505463 49.3641041 81.646923 49.3641041 81.646923 64.5351041"></polygon>
            <polygon id="Stroke-33" stroke="#00969B" stroke-width="0.5" points="78.0356211 64.5351041 73.8223911 55.4812673 72.9558648 53.5311347 72.9558648 59.8224714 72.9558648 64.5351041 70.2594881 64.5351041 70.2594881 49.3641041 73.8947235 49.3641041 78.1921197 58.4759102 78.9505463 60.2518694 78.9505463 53.5544816 78.9505463 49.3641041 81.646923 49.3641041 81.646923 64.5351041"></polygon>
            <path d="M92.6852875,57.0250571 C92.6852875,55.2297306 92.4365119,53.8909959 91.9389607,53.0088531 C91.4415424,52.1267102 90.6228831,51.6856388 89.4833817,51.6856388 C88.9134981,51.6856388 88.4279136,51.7997204 88.0267612,52.0280163 C87.6254759,52.2563122 87.2945285,52.5909959 87.0336532,53.0319347 C86.7727778,53.4731388 86.5823734,54.016751 86.461908,54.6629041 C86.3415756,55.3090571 86.2813429,56.0499245 86.2813429,56.8857714 C86.2813429,58.6809653 86.532113,60.0197 87.0336532,60.9019755 C87.5353263,61.7841184 88.3517252,62.2251898 89.4833817,62.2251898 C90.0531324,62.2251898 90.5405784,62.1111082 90.9458526,61.8828122 C91.3511269,61.6543837 91.6822072,61.3198327 91.9389607,60.8787612 C92.1957141,60.4376898 92.3842571,59.8940776 92.5048554,59.2479245 C92.6251878,58.6017714 92.6852875,57.8607714 92.6852875,57.0250571 M95.8149939,56.8857714 C95.8149939,58.2631082 95.648523,59.4510163 95.3154482,60.4492306 C94.9823734,61.4474449 94.5249773,62.2676388 93.9432598,62.9099449 C93.3614094,63.552251 92.6793042,64.0282102 91.8968111,64.3378224 C91.114451,64.647302 90.2778416,64.8021082 89.3869828,64.8021082 C87.3166006,64.8021082 85.7597252,64.1384449 84.7163568,62.8113837 C83.6732543,61.4841898 83.1516366,59.5554143 83.1516366,57.0250571 C83.1516366,55.6475878 83.3181075,54.4598122 83.6511823,53.461598 C83.9842571,52.463251 84.4415202,51.6430571 85.0233706,51.000751 C85.6052211,50.3584449 86.2873263,49.8824857 87.0698194,49.5730061 C87.8521795,49.2635265 88.6887889,49.1087204 89.5796476,49.1087204 C91.6500299,49.1087204 93.2069053,49.7703939 94.2502737,51.0936082 C95.2933762,52.4169551 95.8149939,54.3474551 95.8149939,56.8857714" id="Fill-35" fill="#00969B"></path>
            <path d="M92.6852875,57.0250571 C92.6852875,55.2297306 92.4365119,53.8909959 91.9389607,53.0088531 C91.4415424,52.1267102 90.6228831,51.6856388 89.4833817,51.6856388 C88.9134981,51.6856388 88.4279136,51.7997204 88.0267612,52.0280163 C87.6254759,52.2563122 87.2945285,52.5909959 87.0336532,53.0319347 C86.7727778,53.4731388 86.5823734,54.016751 86.461908,54.6629041 C86.3415756,55.3090571 86.2813429,56.0499245 86.2813429,56.8857714 C86.2813429,58.6809653 86.532113,60.0197 87.0336532,60.9019755 C87.5353263,61.7841184 88.3517252,62.2251898 89.4833817,62.2251898 C90.0531324,62.2251898 90.5405784,62.1111082 90.9458526,61.8828122 C91.3511269,61.6543837 91.6822072,61.3198327 91.9389607,60.8787612 C92.1957141,60.4376898 92.3842571,59.8940776 92.5048554,59.2479245 C92.6251878,58.6017714 92.6852875,57.8607714 92.6852875,57.0250571 Z M95.8149939,56.8857714 C95.8149939,58.2631082 95.648523,59.4510163 95.3154482,60.4492306 C94.9823734,61.4474449 94.5249773,62.2676388 93.9432598,62.9099449 C93.3614094,63.552251 92.6793042,64.0282102 91.8968111,64.3378224 C91.114451,64.647302 90.2778416,64.8021082 89.3869828,64.8021082 C87.3166006,64.8021082 85.7597252,64.1384449 84.7163568,62.8113837 C83.6732543,61.4841898 83.1516366,59.5554143 83.1516366,57.0250571 C83.1516366,55.6475878 83.3181075,54.4598122 83.6511823,53.461598 C83.9842571,52.463251 84.4415202,51.6430571 85.0233706,51.000751 C85.6052211,50.3584449 86.2873263,49.8824857 87.0698194,49.5730061 C87.8521795,49.2635265 88.6887889,49.1087204 89.5796476,49.1087204 C91.6500299,49.1087204 93.2069053,49.7703939 94.2502737,51.0936082 C95.2933762,52.4169551 95.8149939,54.3474551 95.8149939,56.8857714 Z" id="Stroke-37" stroke="#00969B" stroke-width="0.5"></path>
            <mask id="mask-2" fill="white">
                <use xlink:href="#path-1"></use>
            </mask>
            <g id="Clip-40"></g>
            <polygon id="Fill-39" fill="#00969B" mask="url(#mask-2)" points="18.4339945 22.6487857 29.5124211 22.6487857 29.5124211 21.1710306 18.4339945 21.1710306"></polygon>
            <polygon id="Stroke-41" stroke="#00969B" stroke-width="3.14047645" mask="url(#mask-2)" points="18.4339945 22.6487857 29.5124211 22.6487857 29.5124211 21.1710306 18.4339945 21.1710306"></polygon>
        </g>
    </g>
</svg>