<?xml version="1.0" encoding="UTF-8"?>
<svg width="300px" height="300px" viewBox="0 0 300 300" version="1.1" xmlns="http://www.w3.org/2000/svg" xmlns:xlink="http://www.w3.org/1999/xlink">
    <!-- Generator: Sketch 51.2 (57519) - http://www.bohemiancoding.com/sketch -->
    <title>experiments / bon-compte</title>
    <desc>Created with Sketch.</desc>
    <defs>
        <linearGradient x1="0%" y1="0%" x2="100%" y2="100%" id="linearGradient-1">
            <stop stop-color="#0F73EE" offset="0%"></stop>
            <stop stop-color="#C644FC" offset="100%"></stop>
        </linearGradient>
    </defs>
    <g id="experiments-/-bon-compte" stroke="none" stroke-width="1" fill="none" fill-rule="evenodd">
        <g id="Group" transform="translate(0.000000, 91.000000)" fill="url(#linearGradient-1)">
            <path d="M95,40.4127389 L95,38.3133758 C96.189645,38.2783862 97.1430962,38.1734191 97.8603822,37.9984713 C98.5776681,37.8235235 99.1374927,37.5261167 99.5398726,37.106242 C99.9422525,36.6863673 100.213418,36.0915537 100.353376,35.3217834 C100.493334,34.5520131 100.563312,33.5548257 100.563312,32.3301911 L100.563312,8.08254777 C100.563312,6.8579132 100.510829,5.86947298 100.40586,5.11719745 C100.300891,4.36492193 100.08221,3.77010834 99.7498089,3.33273885 C99.4174081,2.89536936 98.9625507,2.59796257 98.3852229,2.44050955 C97.8078952,2.28305654 97.0468837,2.16934218 96.1021656,2.09936306 L96.1021656,0 L112.949554,0 C118.232978,0 122.300453,0.848484084 125.152102,2.54547771 C128.003751,4.24247133 129.429554,6.66546196 129.429554,9.81452229 C129.429554,13.9782798 126.437992,16.9173587 120.454777,18.6318471 L120.454777,18.8417834 C122.379203,18.8417834 124.119907,19.1129485 125.676943,19.6552866 C127.233978,20.1976248 128.554814,20.9586363 129.63949,21.9383439 C130.724167,22.9180516 131.563904,24.0726897 132.158726,25.402293 C132.753549,26.7318962 133.050955,28.1839412 133.050955,29.7584713 C133.050955,31.5429389 132.62234,33.0999509 131.765096,34.4295541 C130.907851,35.7591574 129.674488,36.8788065 128.064968,37.788535 C124.950897,39.538013 120.664741,40.4127389 115.206369,40.4127389 L95,40.4127389 Z M115.573758,37.2112102 C121.207077,37.2112102 124.023694,34.6745052 124.023694,29.6010191 C124.023694,26.4869483 123.009012,24.2126611 120.979618,22.7780892 C119.929931,22.0433084 118.574106,21.5184729 116.912102,21.2035669 C115.250098,20.8886608 113.211987,20.7312102 110.797707,20.7312102 L108.278471,20.7312102 L108.278471,31.2280255 C108.278471,33.3973782 108.838296,34.9368957 109.957962,35.8466242 C111.077628,36.7563527 112.949541,37.2112102 115.573758,37.2112102 Z M111.375032,17.5821656 C112.949562,17.5821656 114.314134,17.4334622 115.46879,17.136051 C116.623445,16.8386397 117.603138,16.410024 118.407898,15.8501911 C120.087397,14.6955356 120.927134,12.8936004 120.927134,10.4443312 C120.927134,7.89009339 120.297331,6.04442182 119.037707,4.90726115 C117.778083,3.77010047 115.748719,3.20152866 112.949554,3.20152866 L109.223185,3.20152866 C108.593373,3.20152866 108.278471,3.49893545 108.278471,4.09375796 L108.278471,17.5821656 L111.375032,17.5821656 Z M152.312611,12.0713376 C154.411985,12.0713376 156.397613,12.4299752 158.269554,13.1472611 C160.141496,13.8645471 161.78598,14.8529873 163.203057,16.1126115 C164.620134,17.3722356 165.739784,18.8680168 166.562038,20.6 C167.384293,22.3319832 167.795414,24.2301383 167.795414,26.2945223 C167.795414,28.4288854 167.384293,30.3882713 166.562038,32.1727389 C165.739784,33.9572064 164.620134,35.4967239 163.203057,36.7913376 C161.78598,38.0859513 160.141496,39.1006333 158.269554,39.835414 C156.397613,40.5701948 154.411985,40.9375796 152.312611,40.9375796 C150.248227,40.9375796 148.288842,40.578942 146.434395,39.8616561 C144.579948,39.1443701 142.952958,38.1384353 141.553376,36.8438217 C140.153793,35.549208 139.051639,34.0009432 138.246879,32.1989809 C137.442119,30.3970186 137.039745,28.4288854 137.039745,26.2945223 C137.039745,24.2301383 137.442119,22.3232359 138.246879,20.573758 C139.051639,18.82428 140.153793,17.3197515 141.553376,16.0601274 C142.952958,14.8005033 144.579948,13.8208103 146.434395,13.1210191 C148.288842,12.4212279 150.248227,12.0713376 152.312611,12.0713376 Z M152.312611,15.115414 C151.262925,15.115414 150.300726,15.386579 149.425987,15.9289172 C148.551248,16.4712554 147.807731,17.2322669 147.195414,18.2119745 C146.583097,19.1916822 146.110745,20.3725621 145.778344,21.7546497 C145.445943,23.1367373 145.279745,24.6675075 145.279745,26.3470064 C145.279745,28.0964843 145.445943,29.6709909 145.778344,31.0705732 C146.110745,32.4701556 146.583097,33.6597828 147.195414,34.6394904 C147.807731,35.6191981 148.542501,36.3802096 149.399745,36.9225478 C150.256989,37.4648859 151.227935,37.736051 152.312611,37.736051 C153.397288,37.736051 154.385728,37.4648859 155.277962,36.9225478 C156.170196,36.3802096 156.931207,35.6104508 157.561019,34.6132484 C158.190831,33.616046 158.680678,32.4176715 159.030573,31.0180892 C159.380469,29.6185068 159.555414,28.0614948 159.555414,26.3470064 C159.555414,24.6675075 159.380469,23.1454845 159.030573,21.7808917 C158.680678,20.4162989 158.190831,19.235419 157.561019,18.2382166 C156.931207,17.2410141 156.170196,16.4712554 155.277962,15.9289172 C154.385728,15.386579 153.397288,15.115414 152.312611,15.115414 Z M183.225732,31.8578344 C183.225732,33.2924063 183.269469,34.4208027 183.356943,35.2430573 C183.444417,36.065312 183.636856,36.6951146 183.934268,37.1324841 C184.231679,37.5698536 184.686536,37.8585131 185.298854,37.9984713 C185.911171,38.1384296 186.74216,38.2433967 187.791847,38.3133758 L187.791847,40.4127389 L171.259363,40.4127389 L171.259363,38.3133758 C172.27406,38.2433967 173.087555,38.1384296 173.699873,37.9984713 C174.31219,37.8585131 174.784542,37.5786008 175.116943,37.1587261 C175.449343,36.7388514 175.668025,36.1440378 175.772994,35.3742675 C175.877962,34.6044972 175.930446,33.5548262 175.930446,32.2252229 L175.930446,25.6647134 C175.930446,23.6003294 175.895457,21.929603 175.825478,20.6524841 C175.755499,19.3753652 175.668026,18.5093866 175.563057,18.0545223 C175.458089,17.599658 175.318133,17.2235259 175.143185,16.9261146 C174.968237,16.6287034 174.705819,16.4012747 174.355924,16.2438217 C174.006028,16.0863686 173.568665,15.9814015 173.043822,15.9289172 C172.518978,15.8764329 171.854187,15.8501911 171.049427,15.8501911 L171.049427,14.0657325 L181.178854,12.0713376 L181.861146,16.6899363 L182.071083,16.6899363 C183.225738,15.2203748 184.590311,14.0832312 186.164841,13.2784713 C187.739371,12.4737115 189.471328,12.0713376 191.360764,12.0713376 C193.600096,12.0713376 195.410779,12.3774916 196.792866,12.9898089 C198.174954,13.6021262 199.408317,14.6255555 200.492994,16.0601274 C201.087816,16.8648873 201.612652,17.905811 202.067516,19.1829299 C202.52238,20.4600488 202.749809,22.2182478 202.749809,24.4575796 L202.749809,31.8578344 C202.749809,33.2924063 202.793545,34.4208027 202.881019,35.2430573 C202.968493,36.065312 203.160933,36.6951146 203.458344,37.1324841 C203.755755,37.5698536 204.201865,37.8585131 204.796688,37.9984713 C205.39151,38.1384296 206.196258,38.2433967 207.210955,38.3133758 L207.210955,40.4127389 L190.783439,40.4127389 L190.783439,38.3133758 C191.833126,38.2783862 192.664116,38.1821664 193.276433,38.0247134 C193.88875,37.8672604 194.352355,37.5786008 194.667261,37.1587261 C194.982167,36.7388514 195.192101,36.1352906 195.29707,35.3480255 C195.402039,34.5607604 195.454522,33.5198366 195.454522,32.2252229 L195.454522,25.0873885 C195.454522,23.302921 195.349555,21.7983925 195.139618,20.573758 C194.92968,19.3491234 194.588537,18.3606832 194.116178,17.6084076 C193.643819,16.8561321 193.022764,16.3138021 192.252994,15.9814013 C191.483223,15.6490005 190.521025,15.4828025 189.366369,15.4828025 C188.246704,15.4828025 187.284505,15.7977039 186.479745,16.4275159 C185.674985,17.057328 184.975205,17.9320538 184.380382,19.0517197 C184.065476,19.6815318 183.794311,20.4950269 183.566879,21.4922293 C183.339447,22.4894317 183.225732,23.5303555 183.225732,24.6150318 L183.225732,31.8578344 Z M120.979618,100.510689 C119.650015,101.980251 117.996783,103.117395 116.019873,103.922154 C114.042963,104.726914 111.899884,105.129288 109.590573,105.129288 C107.45621,105.129288 105.514319,104.788145 103.764841,104.105849 C102.015363,103.423552 100.510834,102.470101 99.2512102,101.245467 C97.9915861,100.020832 97.0206404,98.5425453 96.3383439,96.8105621 C95.6560475,95.0785789 95.3149045,93.1629293 95.3149045,91.0635557 C95.3149045,88.894203 95.6822893,86.9173226 96.4170701,85.1328551 C97.1518508,83.3483875 98.1840273,81.8176173 99.5136306,80.5404984 C100.843234,79.2633795 102.435235,78.2749392 104.289682,77.5751481 C106.144128,76.8753569 108.190987,76.5254665 110.430318,76.5254665 C112.004849,76.5254665 113.465641,76.6829172 114.812739,76.9978232 C116.159837,77.3127293 117.314475,77.7500922 118.276688,78.3099251 C119.238901,78.8697581 119.999912,79.5258025 120.559745,80.278078 C121.119578,81.0303535 121.39949,81.8438486 121.39949,82.7185876 C121.39949,83.7332848 121.110831,84.5380326 120.533503,85.1328551 C119.956175,85.7276776 119.177669,86.0250844 118.197962,86.0250844 C117.393202,86.0250844 116.684674,85.8151502 116.072357,85.3952754 C115.460039,84.9754007 114.856479,84.2931146 114.261656,83.3483965 C113.736813,82.508647 113.290702,81.8438554 112.923312,81.3540016 C112.555922,80.8641477 112.214779,80.4880156 111.899873,80.2255939 C111.584967,79.9631722 111.270065,79.7882271 110.955159,79.7007532 C110.640253,79.6132793 110.255374,79.569543 109.80051,79.569543 C107.771115,79.569543 106.196609,80.5142469 105.076943,82.4036831 C103.957277,84.2931193 103.397452,86.9347914 103.397452,90.3287786 C103.397452,93.9676928 104.070991,96.7668155 105.418089,98.7262309 C106.765187,100.685646 108.698331,101.665339 111.21758,101.665339 C112.652152,101.665339 114.086702,101.394174 115.521274,100.851836 C116.955846,100.309498 118.320418,99.5309918 119.615032,98.5162946 L120.979618,100.510689 Z M140.083822,76.5254665 C142.183195,76.5254665 144.168823,76.8841041 146.040764,77.6013901 C147.912706,78.3186761 149.55719,79.3071163 150.974268,80.5667404 C152.391345,81.8263646 153.510994,83.3221458 154.333248,85.054129 C155.155503,86.7861121 155.566624,88.6842673 155.566624,90.7486512 C155.566624,92.8830144 155.155503,94.8424003 154.333248,96.6268678 C153.510994,98.4113353 152.391345,99.9508528 150.974268,101.245467 C149.55719,102.54008 147.912706,103.554762 146.040764,104.289543 C144.168823,105.024324 142.183195,105.391709 140.083822,105.391709 C138.019438,105.391709 136.060052,105.033071 134.205605,104.315785 C132.351158,103.598499 130.724168,102.592564 129.324586,101.297951 C127.925004,100.003337 126.822849,98.4550721 126.018089,96.6531098 C125.213329,94.8511475 124.810955,92.8830144 124.810955,90.7486512 C124.810955,88.6842673 125.213329,86.7773649 126.018089,85.0278869 C126.822849,83.278409 127.925004,81.7738805 129.324586,80.5142563 C130.724168,79.2546322 132.351158,78.2749392 134.205605,77.5751481 C136.060052,76.8753569 138.019438,76.5254665 140.083822,76.5254665 Z M140.083822,79.569543 C139.034135,79.569543 138.071936,79.840708 137.197197,80.3830462 C136.322458,80.9253843 135.578941,81.6863958 134.966624,82.6661035 C134.354307,83.6458111 133.881955,84.826691 133.549554,86.2087786 C133.217153,87.5908662 133.050955,89.1216365 133.050955,90.8011353 C133.050955,92.5506133 133.217153,94.1251198 133.549554,95.5247022 C133.881955,96.9242846 134.354307,98.1139117 134.966624,99.0936194 C135.578941,100.073327 136.313711,100.834339 137.170955,101.376677 C138.0282,101.919015 138.999145,102.19018 140.083822,102.19018 C141.168498,102.19018 142.156938,101.919015 143.049172,101.376677 C143.941406,100.834339 144.702417,100.06458 145.332229,99.0673774 C145.962041,98.0701749 146.451888,96.8718005 146.801783,95.4722181 C147.151679,94.0726358 147.326624,92.5156237 147.326624,90.8011353 C147.326624,89.1216365 147.151679,87.5996135 146.801783,86.2350207 C146.451888,84.8704279 145.962041,83.689548 145.332229,82.6923455 C144.702417,81.6951431 143.941406,80.9253843 143.049172,80.3830462 C142.156938,79.840708 141.168498,79.569543 140.083822,79.569543 Z M171.049427,96.2069952 C171.049427,97.6765567 171.084416,98.8311948 171.154395,99.6709442 C171.224374,100.510694 171.416814,101.149244 171.73172,101.586613 C172.046626,102.023983 172.501483,102.312642 173.096306,102.4526 C173.691128,102.592559 174.513371,102.697526 175.563057,102.767505 L175.563057,104.866868 L158.978089,104.866868 L158.978089,102.767505 C160.027776,102.697526 160.867513,102.592559 161.497325,102.4526 C162.127137,102.312642 162.599489,102.03273 162.914395,101.612855 C163.229301,101.19298 163.439235,100.58942 163.544204,99.8021544 C163.649172,99.0148893 163.701656,97.9564711 163.701656,96.6268678 L163.701656,90.1188423 C163.701656,88.1244375 163.675414,86.4624583 163.62293,85.1328551 C163.570446,83.8032518 163.474226,82.8935369 163.334268,82.4036831 C163.229299,81.9488188 163.09809,81.5901812 162.940637,81.3277595 C162.783184,81.0653378 162.538261,80.8554036 162.20586,80.6979506 C161.873459,80.5404976 161.444843,80.4355305 160.92,80.3830462 C160.395157,80.3305618 159.71287,80.30432 158.873121,80.30432 L158.873121,78.5198614 L169.002548,76.5254665 L169.632357,81.0915812 L169.947261,81.0915812 C171.416823,79.4470719 172.895109,78.2749392 174.382166,77.5751481 C175.869222,76.8753569 177.592432,76.5254665 179.551847,76.5254665 C181.861158,76.5254665 183.76806,76.9278404 185.272611,77.7326003 C186.777163,78.5373602 187.914306,79.6919983 188.684076,81.1965493 L188.894013,81.1965493 C190.153637,79.7269878 191.658165,78.581097 193.407643,77.7588423 C195.157121,76.9365877 197.029035,76.5254665 199.023439,76.5254665 C201.122813,76.5254665 202.95099,76.7878843 204.508025,77.3127277 C206.065061,77.8375711 207.28093,78.5898353 208.155669,79.569543 C208.85546,80.3743028 209.371548,81.4239739 209.703949,82.7185876 C210.03635,84.0132012 210.202548,85.8151365 210.202548,88.1244474 L210.202548,96.2069952 C210.202548,97.6415671 210.246284,98.7787107 210.333758,99.6184602 C210.421232,100.45821 210.622419,101.105507 210.937325,101.560371 C211.252231,102.015235 211.707088,102.312642 212.301911,102.4526 C212.896733,102.592559 213.718976,102.697526 214.768662,102.767505 L214.768662,104.866868 L198.183694,104.866868 L198.183694,102.767505 C199.233381,102.732515 200.064371,102.636295 200.676688,102.478842 C201.289005,102.321389 201.761357,102.023983 202.093758,101.586613 C202.426159,101.149244 202.636093,100.545683 202.723567,99.7759124 C202.811041,99.0061421 202.854777,97.9564711 202.854777,96.6268678 L202.854777,89.7514538 C202.854777,87.9319967 202.74981,86.3924792 202.539873,85.1328551 C202.329935,83.8732309 201.997539,82.8585489 201.542675,82.0887786 C201.087811,81.3190083 200.48425,80.767931 199.731975,80.4355302 C198.979699,80.1031294 198.061237,79.9369315 196.976561,79.9369315 C195.751926,79.9369315 194.745991,80.2343383 193.958726,80.8291608 C193.171461,81.4239833 192.515417,82.1937421 191.990573,83.1384602 C191.080845,84.7829694 190.625987,86.829828 190.625987,89.2790971 L190.625987,96.2069952 C190.625987,97.6415671 190.660976,98.7787107 190.730955,99.6184602 C190.800935,100.45821 190.993374,101.105507 191.30828,101.560371 C191.623186,102.015235 192.086791,102.312642 192.699108,102.4526 C193.311426,102.592559 194.15991,102.697526 195.244586,102.767505 L195.244586,104.866868 L178.607134,104.866868 L178.607134,102.767505 C179.656821,102.697526 180.48781,102.592559 181.100127,102.4526 C181.712445,102.312642 182.184797,102.03273 182.517197,101.612855 C182.849598,101.19298 183.059532,100.58942 183.147006,99.8021544 C183.23448,99.0148893 183.278217,97.9564711 183.278217,96.6268678 L183.278217,89.7514538 C183.278217,87.9319967 183.173249,86.3924792 182.963312,85.1328551 C182.753375,83.8732309 182.412232,82.8585489 181.939873,82.0887786 C181.467514,81.3190083 180.846458,80.767931 180.076688,80.4355302 C179.306918,80.1031294 178.344719,79.9369315 177.190064,79.9369315 C176.035408,79.9369315 175.081957,80.2168438 174.329682,80.7766767 C173.577406,81.3365097 172.956351,82.0887739 172.466497,83.033492 C172.011633,83.8732414 171.661742,84.8354399 171.416815,85.9201162 C171.171888,87.0047926 171.049427,88.1244417 171.049427,89.2790971 L171.049427,96.2069952 Z M226.997452,80.4617723 L227.207389,80.4617723 C229.516699,77.8375553 232.525756,76.5254665 236.23465,76.5254665 C238.264044,76.5254665 240.12721,76.8841041 241.824204,77.6013901 C243.521197,78.3186761 244.990737,79.3158635 246.232866,80.5929825 C247.474996,81.8701014 248.437194,83.3921244 249.11949,85.1590971 C249.801787,86.9260698 250.14293,88.859214 250.14293,90.9585876 C250.14293,93.0579611 249.801787,94.982358 249.11949,96.731836 C248.437194,98.4813139 247.483743,100.003337 246.259108,101.297951 C245.034474,102.592564 243.573682,103.598499 241.876688,104.315785 C240.179694,105.033071 238.334023,105.391709 236.339618,105.391709 C232.945631,105.391709 230.356442,104.23707 228.571975,101.92776 L228.362038,101.92776 L228.362038,109.223046 C228.362038,110.622629 228.432016,111.742278 228.571975,112.582027 C228.711933,113.421776 229.00934,114.069074 229.464204,114.523938 C229.919068,114.978802 230.557618,115.293703 231.379873,115.468651 C232.202127,115.643599 233.295535,115.748566 234.660127,115.783556 L234.660127,117.987887 L216.553121,117.987887 L216.553121,115.783556 C217.497839,115.748566 218.267598,115.643599 218.86242,115.468651 C219.457243,115.293703 219.920848,114.978802 220.253248,114.523938 C220.585649,114.069074 220.813078,113.448018 220.935541,112.660753 C221.058005,111.873488 221.119236,110.850059 221.119236,109.590435 L221.119236,90.0663583 C221.119236,88.4568385 221.084247,86.9260683 221.014268,85.4740016 C220.944288,84.0219349 220.856816,82.9985056 220.751847,82.4036831 C220.576899,81.5989232 220.183273,81.0390987 219.570955,80.7241926 C218.958638,80.4092866 217.917714,80.251836 216.448153,80.251836 L216.448153,78.204957 L226.997452,76.7354028 L226.997452,80.4617723 Z M235.919745,79.5170589 C234.800079,79.5170589 233.732914,79.7619821 232.718217,80.251836 C231.703519,80.7416898 230.898772,81.3889869 230.303949,82.1937468 C229.709127,82.9985066 229.254269,84.0044414 228.939363,85.2115812 C228.624457,86.418721 228.467006,87.7220625 228.467006,89.1216449 L228.467006,92.6905621 C228.467006,95.1748208 229.079314,97.2916574 230.303949,99.0411353 C231.633552,100.965561 233.505466,101.92776 235.919745,101.92776 C238.054108,101.92776 239.637362,101.044286 240.669554,99.2773137 C241.701746,97.5103409 242.217834,94.772449 242.217834,91.0635557 C242.217834,83.3658527 240.118492,79.5170589 235.919745,79.5170589 Z M253.449427,79.9369315 L253.449427,77.5751481 C255.5488,76.9803256 257.306999,76.0793579 258.724076,74.8722181 C260.141154,73.6650783 261.199572,72.2742642 261.899363,70.699734 L264.576051,70.699734 L264.576051,77.0503073 L270.61172,77.0503073 L270.61172,79.9369315 L264.576051,79.9369315 L264.576051,96.049543 C264.576051,98.2188956 264.812227,99.7584132 265.284586,100.668142 C265.756945,101.57787 266.552946,102.032728 267.672611,102.032728 C269.037204,102.032728 270.069381,101.402925 270.769172,100.143301 L271.871338,101.665339 C270.89163,104.149598 268.582354,105.391709 264.943439,105.391709 C262.52916,105.391709 260.648499,104.831884 259.301401,103.712218 C257.954303,102.592552 257.280764,101.018046 257.280764,98.9886512 L257.280764,79.9369315 L253.449427,79.9369315 Z M300.527643,99.9858487 C297.343593,103.589773 293.372338,105.391709 288.613758,105.391709 C286.444405,105.391709 284.476272,105.050565 282.709299,104.368269 C280.942327,103.685973 279.429051,102.723774 278.169427,101.481645 C276.909803,100.239516 275.93011,98.7612288 275.230318,97.0467404 C274.530527,95.332252 274.180637,93.4253496 274.180637,91.3259761 C274.180637,89.1566234 274.548022,87.1709957 275.282803,85.3690334 C276.017583,83.5670711 277.058507,82.0100591 278.405605,80.6979506 C279.752703,79.3858421 281.344704,78.3624129 283.181656,77.6276321 C285.018608,76.8928514 287.039225,76.5254665 289.243567,76.5254665 C292.95246,76.5254665 295.839055,77.522654 297.903439,79.5170589 C299.967823,81.5114638 301,84.3105865 301,87.9145111 C301,88.4743441 300.912527,88.8154872 300.73758,88.9379506 C300.562632,89.0604141 300.072785,89.1216449 299.268025,89.1216449 L282.368153,89.1216449 C282.228195,89.4365509 282.158217,90.01387 282.158217,90.8536194 C282.158217,94.2825962 282.901734,96.9942464 284.38879,98.9886512 C285.875846,100.983056 287.896463,101.980244 290.450701,101.980244 C291.920262,101.980244 293.381054,101.647848 294.833121,100.983046 C296.285188,100.318245 297.693496,99.3735406 299.058089,98.148906 L300.527643,99.9858487 Z M290.345732,86.1825366 C291.745315,86.1825366 292.646282,86.1038113 293.048662,85.9463583 C293.451042,85.7889052 293.652229,85.4127731 293.652229,84.8179506 C293.652229,83.27841 293.214866,82.0188048 292.340127,81.0390971 C291.465388,80.0593894 290.363234,79.569543 289.033631,79.569543 C287.52908,79.569543 286.190749,80.1905983 285.018599,81.4327277 C283.846448,82.674857 283.085437,84.2581108 282.735541,86.1825366 L290.345732,86.1825366 Z" id="Bon-compte"></path>
            <path d="M62.4029915,58.9999428 C63.0774704,58.9999428 63.6315052,59.2167393 64.0650983,59.6503324 C64.4986914,60.0839255 64.7154879,60.6379603 64.7154879,61.3124392 C64.7154879,61.9869181 64.4986914,62.5409529 64.0650983,62.974546 C63.6315052,63.4081391 63.0774704,63.6249356 62.4029915,63.6249356 C61.7285126,63.6249356 61.1744778,63.4081391 60.7408847,62.974546 C60.3072916,62.5409529 60.0904951,61.9869181 60.0904951,61.3124392 C60.0904951,60.6379603 60.3072916,60.0839255 60.7408847,59.6503324 C61.1744778,59.2167393 61.7285126,58.9999428 62.4029915,58.9999428 Z M80.9029629,54.3749499 C81.5774418,54.3749499 82.1314766,54.5917465 82.5650697,55.0253396 C82.9986628,55.4589326 83.2154593,56.0129675 83.2154593,56.6874464 L83.2154593,75.1874177 C83.2154593,75.8618966 82.9986628,76.4159315 82.5650697,76.8495246 C82.1314766,77.2831176 81.5774418,77.4999142 80.9029629,77.4999142 L73.8209426,77.4999142 C72.6646944,79.1379317 71.1712078,80.6314205 69.3404808,81.980376 L69.3404808,93.6873891 C69.3404808,94.361868 69.1236842,94.9159029 68.6900912,95.3494959 C68.2564981,95.783089 67.7024632,95.9998856 67.0279843,95.9998856 L50.8405094,95.9998856 C50.1660305,95.9998856 49.6119957,95.783089 49.1784026,95.3494959 C48.7448095,94.9159029 48.528013,94.361868 48.528013,93.6873891 L48.528013,86.7498999 L39.2780273,86.7498999 L39.2780273,93.6873891 C39.2780273,94.361868 39.0612307,94.9159029 38.6276376,95.3494959 C38.1940446,95.783089 37.6400097,95.9998856 36.9655308,95.9998856 L20.7780559,95.9998856 C20.103577,95.9998856 19.5495421,95.783089 19.1159491,95.3494959 C18.682356,94.9159029 18.4655595,94.361868 18.4655595,93.6873891 L18.4655595,81.980376 C15.5749389,79.8605869 13.3106188,77.1867629 11.6726012,73.958904 C10.0345836,70.7310452 9.21557376,67.2863876 9.21557376,63.6249356 L8.05932554,63.6249356 C5.65047437,63.6249356 3.62704,62.7095732 1.98902243,60.8788461 C0.351004867,59.0481191 -0.275297718,56.9283321 0.110119088,54.519481 C0.302826388,52.4960466 1.19410179,50.8098505 2.78394308,49.460895 C4.37378437,48.1119395 6.22859847,47.4374607 8.3483876,47.4374607 C8.5410949,47.4374607 8.7338044,47.5338154 8.9265117,47.7265227 C9.119219,47.91923 9.21557376,48.1119395 9.21557376,48.3046468 L9.21557376,51.1952673 C9.21557376,51.3879746 9.119219,51.5806842 8.9265117,51.7733915 C8.7338044,51.9660988 8.5410949,52.0624535 8.3483876,52.0624535 L8.20385657,52.0624535 C7.33667041,52.0624535 6.56583901,52.3274263 5.89136015,52.8573742 C5.21688129,53.387322 4.83146669,54.0377116 4.73511194,54.808543 C4.44604988,55.9647912 4.66284642,56.9524192 5.38550155,57.7714291 C6.10815669,58.5904389 6.99943209,58.9999428 8.05932554,58.9999428 L9.64916684,58.9999428 C10.4199982,55.2421361 12.058018,51.8697462 14.5632217,48.8827709 C17.0684255,45.8957956 20.103577,43.679654 23.6686764,42.2343437 C23.2832596,40.7890334 23.0905523,39.4400779 23.0905523,38.187475 C23.0905523,35.2968544 23.8132074,32.5989412 25.2585177,30.0937375 C26.703828,27.5885338 28.6790861,25.6132757 31.1842898,24.1679654 C33.6894935,22.7226551 36.3874067,22 39.2780273,22 C42.1686478,22 44.866561,22.7226551 47.3717647,24.1679654 C49.8769685,25.6132757 51.8522266,27.5885338 53.2975368,30.0937375 C54.7428471,32.5989412 55.4655022,35.2968544 55.4655022,38.187475 L55.3209712,39.6327852 C58.9824231,37.1275815 62.8847609,35.8749785 67.0279843,35.8749785 L69.3404808,35.8749785 L69.3404808,45.2694953 C72.6165181,47.6783464 75.0735456,50.713498 76.7115631,54.3749499 L80.9029629,54.3749499 Z M39.2780273,26.6249928 C36.0983447,26.6249928 33.3763444,27.7571518 31.1120243,30.021472 C28.8477041,32.2857921 27.7155451,35.0077924 27.7155451,38.187475 C27.7155451,39.0546611 27.8600762,39.9700236 28.1491382,40.9335645 C29.5944485,40.6445024 30.9915825,40.4999714 32.340538,40.4999714 L50.5514473,40.4999714 C50.7441546,39.72914 50.8405094,38.9583064 50.8405094,38.187475 C50.8405094,35.0077924 49.7083504,32.2857921 47.4440303,30.021472 C45.1797101,27.7571518 42.4577098,26.6249928 39.2780273,26.6249928 Z M78.5904665,72.8749213 L78.5904665,58.9999428 L73.6764116,58.9999428 C72.2311013,55.9166149 71.1230294,53.7968258 70.352198,52.6405776 C69.2923045,51.2916221 67.4134012,49.5572498 64.7154879,47.4374607 L64.7154879,40.6445024 C62.8847609,40.9335645 61.1503885,41.5116886 59.512371,42.3788747 C58.5488301,42.9569988 57.2962293,43.8723613 55.7545643,45.1249642 L32.340538,45.1249642 C28.9681481,45.1249642 25.860731,45.9439741 23.0182868,47.5819917 C20.1758425,49.2200093 17.9356116,51.4602402 16.2975941,54.3026844 C14.6595765,57.1451287 13.8405666,60.2525457 13.8405666,63.6249356 L13.8405666,63.7694667 C13.8405666,66.0819631 14.2259834,68.2017522 14.9968148,70.1288318 C16.4421251,73.5012217 19.1400383,76.6809043 23.0905523,79.6678796 L23.0905523,91.3748927 L34.6530344,91.3748927 L34.6530344,82.124907 L53.1530058,82.124907 L53.1530058,91.3748927 L64.7154879,91.3748927 L64.7154879,79.6678796 C66.6425675,78.2225693 67.9433468,77.1626758 68.6178256,76.488197 C69.1959497,75.9100729 69.9667812,74.9947104 70.9303221,73.7421075 L71.5084462,72.8749213 L78.5904665,72.8749213 Z" id=""></path>
        </g>
    </g>
</svg>