<?xml version="1.0" encoding="UTF-8"?>
<svg width="300px" height="300px" viewBox="0 0 300 300" version="1.1" xmlns="http://www.w3.org/2000/svg" xmlns:xlink="http://www.w3.org/1999/xlink">
    <!-- Generator: Sketch 51.3 (57544) - http://www.bohemiancoding.com/sketch -->
    <title>experiments / bon-compte</title>
    <desc>Created with Sketch.</desc>
    <defs>
        <linearGradient x1="0%" y1="0%" x2="100%" y2="100%" id="linearGradient-1">
            <stop stop-color="#0F73EE" offset="0%"></stop>
            <stop stop-color="#C644FC" offset="100%"></stop>
        </linearGradient>
    </defs>
    <g id="experiments-/-bon-compte" stroke="none" stroke-width="1" fill="none" fill-rule="evenodd">
        <g id="Group" transform="translate(0.000000, 102.000000)" fill="url(#linearGradient-1)">
            <path d="M0,84.2012224 L0,82.4146685 C1.22238505,82.3833253 2.20184556,82.2892971 2.93841091,82.1325811 C3.67497626,81.9758651 4.23914551,81.7094518 4.63093559,81.3333333 C5.02272567,80.9572149 5.28913893,80.4243883 5.43018336,79.7348378 C5.57122779,79.0452873 5.64174894,78.1520193 5.64174894,77.0550071 L5.64174894,55.1462153 C5.64174894,54.0492031 5.58689915,53.1637708 5.47719793,52.4898919 C5.36749671,51.8160129 5.14809756,51.2831864 4.81899389,50.8913963 C4.48989022,50.4996063 4.01191349,50.233193 3.38504937,50.0921486 C2.75818524,49.9511041 1.94327409,49.8492402 0.94029149,49.7865538 L0.94029149,48 L14.9976493,48 C19.2289821,48 22.5199694,48.7522257 24.8707099,50.2566996 C27.2214504,51.7611735 28.396803,53.8768082 28.396803,56.6036671 C28.396803,58.6723188 27.7464412,60.3648265 26.4456982,61.6812412 C25.1449551,62.9976559 23.0841702,64.0789803 20.2632816,64.9252468 L20.2632816,65.1133051 C21.234921,65.2073347 22.0811749,65.3170343 22.8020686,65.4424071 C23.5229624,65.56778 24.1654885,65.716658 24.7296662,65.8890456 C25.2938439,66.0614332 25.8188347,66.2729967 26.3046544,66.5237424 C26.7904741,66.774488 27.2684509,67.0565726 27.738599,67.3700047 C30.5281443,69.3446267 31.9228961,71.8207029 31.9228961,74.7983075 C31.9228961,76.4594974 31.4605907,78.0031272 30.5359661,79.4292431 C29.6113416,80.855359 28.3184537,81.9758618 26.6572638,82.7907851 C26.1244292,83.072874 25.5759314,83.3001088 25.0117536,83.4724965 C24.4475759,83.6448841 23.7893785,83.7859264 23.0371415,83.8956276 C22.2849046,84.0053289 21.4151436,84.0836857 20.4278326,84.1307005 C19.4405216,84.1777153 18.2730047,84.2012224 16.9252468,84.2012224 L0,84.2012224 Z M17.0662906,82.1795957 C22.7394109,82.1795957 25.5759285,79.7505336 25.5759285,74.8923366 C25.5759285,71.3505543 24.1184913,68.8744781 21.2035731,67.4640339 C20.7020818,67.2446314 20.2162694,67.056575 19.7461213,66.899859 C19.2759732,66.7431429 18.7274753,66.6256077 18.1006112,66.5472496 C17.4737471,66.4688916 16.7293571,66.4140418 15.8674189,66.3826986 C15.0054807,66.3513554 13.9476634,66.3356841 12.6939351,66.3356841 L10.5782793,66.3356841 L10.5782793,76.8199342 C10.5782793,78.7318698 11.079763,80.1031145 12.0827457,80.9337094 C13.0857283,81.7643044 14.7468933,82.1795957 17.0662906,82.1795957 Z M13.2110954,63.9849553 C14.1827348,63.9849553 14.997646,63.969284 15.6558533,63.9379408 C16.3140606,63.9065976 16.8782299,63.8517478 17.348378,63.7733898 C17.8185261,63.6950317 18.2338173,63.5853322 18.5942642,63.4442877 C18.9547111,63.3032433 19.3229882,63.1073512 19.6991067,62.8566055 C20.7020893,62.2297414 21.4151366,61.4775157 21.8382699,60.599906 C22.2614031,59.7222962 22.4729666,58.5782863 22.4729666,57.167842 C22.4729666,54.6917287 21.8696189,52.9130284 20.6629055,51.8316878 C19.4561921,50.7503472 17.5677922,50.209685 14.9976493,50.209685 L11.377527,50.209685 C10.8446925,50.209685 10.5782793,50.4760983 10.5782793,51.0089328 L10.5782793,63.9849553 L13.2110954,63.9849553 Z M49.5533615,58.8133521 C51.3399243,58.8133521 53.0324321,59.1346152 54.6309356,59.7771509 C56.2294391,60.4196866 57.6320266,61.3051189 58.83874,62.4334744 C60.0454535,63.5618298 61.0014069,64.9017318 61.7066291,66.4532205 C62.4118512,68.0047092 62.764457,69.7050527 62.764457,71.5543018 C62.764457,73.4662374 62.4118512,75.2214307 61.7066291,76.8199342 C61.0014069,78.4184377 60.0454535,79.7975181 58.83874,80.9572167 C57.6320266,82.1169154 56.2294391,83.0258547 54.6309356,83.6840621 C53.0324321,84.3422694 51.3399243,84.6713681 49.5533615,84.6713681 C47.798142,84.6713681 46.1291413,84.3501051 44.5463094,83.7075693 C42.9634774,83.0650336 41.5765614,82.1639299 40.3855195,81.0042313 C39.1944777,79.8445327 38.2541956,78.4576166 37.564645,76.8434415 C36.8750945,75.2292663 36.5303244,73.4662374 36.5303244,71.5543018 C36.5303244,69.7050527 36.8750945,67.9968735 37.564645,66.4297132 C38.2541956,64.8625529 39.1944777,63.5148152 40.3855195,62.3864598 C41.5765614,61.2581044 42.9634774,60.3805078 44.5463094,59.7536436 C46.1291413,59.1267795 47.798142,58.8133521 49.5533615,58.8133521 Z M49.5533615,61.0700517 C48.3936629,61.0700517 47.3358456,61.3207936 46.3798778,61.8222849 C45.42391,62.3237762 44.6089988,63.0368235 43.9351199,63.961448 C43.2612409,64.8860726 42.7440858,65.9987398 42.3836389,67.2994828 C42.0231921,68.6002259 41.8429713,70.0341561 41.8429713,71.6013164 C41.8429713,73.2311631 42.0231921,74.7042717 42.3836389,76.0206864 C42.7440858,77.3371011 43.2612409,78.4576039 43.9351199,79.3822285 C44.6089988,80.3068531 45.4160743,81.0199003 46.3563705,81.5213916 C47.2966667,82.0228829 48.3623197,82.2736248 49.5533615,82.2736248 C50.7444034,82.2736248 51.8257278,82.0228829 52.7973672,81.5213916 C53.7690066,81.0199003 54.5995891,80.2990174 55.2891396,79.3587212 C55.9786902,78.418425 56.5115167,77.2900865 56.8876352,75.9736718 C57.2637536,74.6572572 57.4518101,73.1998199 57.4518101,71.6013164 C57.4518101,70.0341561 57.2637536,68.6080616 56.8876352,67.3229901 C56.5115167,66.0379187 55.9786902,64.9330872 55.2891396,64.0084626 C54.5995891,63.083838 53.7690066,62.3629551 52.7973672,61.8457922 C51.8257278,61.3286293 50.7444034,61.0700517 49.5533615,61.0700517 Z M75.1763047,76.8199342 C75.1763047,78.1050056 75.2076474,79.1158089 75.2703338,79.8523742 C75.3330202,80.5889396 75.4975696,81.1531088 75.7639868,81.5448989 C76.0304041,81.936689 76.4221883,82.1952666 76.9393512,82.3206394 C77.4565141,82.4460122 78.1695614,82.5400404 79.0785143,82.6027268 L79.0785143,84.2012224 L66.7606958,84.2012224 L66.7606958,82.6027268 C67.6383056,82.5400404 68.3356815,82.4460122 68.8528444,82.3206394 C69.3700073,82.1952666 69.7696272,81.9445247 70.051716,81.5684062 C70.3338049,81.1922877 70.5140256,80.6594612 70.5923836,79.9699107 C70.6707417,79.2803601 70.7099201,78.340078 70.7099201,77.1490362 L70.7099201,70.8960978 C70.7099201,67.1662562 70.6158919,64.8939079 70.4278326,64.0789845 C70.333803,63.6715228 70.2162677,63.3345884 70.0752233,63.0681711 C69.9341789,62.8017539 69.7226154,62.5980261 69.4405266,62.4569817 C69.1584377,62.3159372 68.7979962,62.221909 68.3591913,62.1748942 C67.9203865,62.1278794 67.3562172,62.1043724 66.6666667,62.1043724 L66.6666667,60.599906 L74.1889986,58.8133521 L74.7531735,63.467795 L74.9412318,63.467795 C76.1322736,61.9946643 77.5270254,60.8506544 79.1255289,60.0357311 C80.7240324,59.2208077 82.4635543,58.8133521 84.3441467,58.8133521 C85.7859342,58.8133521 87.1023291,59.0484227 88.2933709,59.5185708 C89.4844128,59.9887189 90.3933521,60.6312449 91.0202163,61.4461683 C91.5530508,62.1670621 91.9291636,63.0995085 92.1485661,64.2435355 C92.3679685,65.3875625 92.4776681,66.962535 92.4776681,68.9685002 L92.4776681,76.8199342 C92.4776681,78.1050056 92.5168465,79.1158089 92.5952045,79.8523742 C92.6735625,80.5889396 92.8381119,81.1531088 93.0888575,81.5448989 C93.3396032,81.936689 93.7235517,82.1952666 94.2407146,82.3206394 C94.7578775,82.4460122 95.439582,82.5400404 96.2858486,82.6027268 L96.2858486,84.2012224 L84.1090738,84.2012224 L84.1090738,82.6027268 C84.9866836,82.5713836 85.6840595,82.4851911 86.2012224,82.3441467 C86.7183853,82.2031023 87.1101695,81.9445247 87.3765867,81.5684062 C87.643004,81.1922877 87.815389,80.6516255 87.8937471,79.9464034 C87.9721051,79.2411812 88.0112835,78.3087348 88.0112835,77.1490362 L88.0112835,70.9431124 C88.0112835,69.1565496 87.9172553,67.6520983 87.7291961,66.4297132 C87.5411368,65.2073282 87.2355451,64.220032 86.8124118,63.467795 C86.3892786,62.7155581 85.832945,62.1748959 85.1433945,61.8457922 C84.4538439,61.5166885 83.6232614,61.3521392 82.651622,61.3521392 C81.2411777,61.3521392 79.9482898,61.7204163 78.7729196,62.4569817 C77.5975494,63.193547 76.6807743,64.2043503 76.022567,65.4894217 C75.865851,65.8028538 75.7326443,66.1006098 75.6229431,66.3826986 C75.5132419,66.6647875 75.4270494,66.9938862 75.364363,67.3700047 C75.3016765,67.7461232 75.2546624,68.1770858 75.2233192,68.6629055 C75.191976,69.1487252 75.1763047,69.7677442 75.1763047,70.5199812 L75.1763047,76.8199342 Z M101.034321,72.5416079 L101.034321,68.6393982 L115.561824,68.6393982 L115.561824,72.5416079 L101.034321,72.5416079 Z M142.971321,80.2990127 C141.842966,81.6781138 140.385528,82.7516025 138.598966,83.519511 C136.812403,84.2874196 134.884825,84.6713681 132.816173,84.6713681 C131.154983,84.6713681 129.627025,84.3657764 128.232252,83.7545839 C126.837479,83.1433914 125.63862,82.2814661 124.635637,81.1687823 C123.632654,80.0560985 122.856922,78.7161965 122.308416,77.1490362 C121.759909,75.5818759 121.485661,73.842354 121.485661,71.9304184 C121.485661,69.9244532 121.799088,68.1144102 122.425952,66.5002351 C123.052816,64.8860599 123.938248,63.5069795 125.082276,62.3629525 C126.226303,61.2189255 127.605383,60.3413289 129.219558,59.7301363 C130.833733,59.1189438 132.612433,58.8133521 134.555712,58.8133521 C135.778097,58.8133521 136.890764,58.915216 137.893747,59.1189469 C138.89673,59.3226777 139.766491,59.6047623 140.503056,59.9652092 C141.239621,60.3256561 141.811626,60.7644544 142.219088,61.2816173 C142.62655,61.7987802 142.830277,62.3551138 142.830277,62.9506347 C142.830277,63.5774988 142.62655,64.0633112 142.219088,64.4080865 C141.811626,64.7528618 141.247457,64.9252468 140.526563,64.9252468 C139.962386,64.9252468 139.492244,64.8077116 139.116126,64.5726375 C138.740008,64.3375635 138.254195,63.8125726 137.658674,62.9976493 C137.03181,62.2767555 136.428462,61.7674361 135.848613,61.4696756 C135.268764,61.1719151 134.524374,61.0230371 133.615421,61.0230371 C131.390053,61.0230371 129.705381,61.8849624 128.561354,63.6088387 C127.417327,65.3327151 126.845322,67.8714767 126.845322,71.2251998 C126.845322,74.8296685 127.480012,77.5643223 128.749412,79.4292431 C130.018812,81.2941638 131.875869,82.2266102 134.320639,82.2266102 C135.637054,82.2266102 136.875092,81.9680327 138.034791,81.4508698 C139.194489,80.9337069 140.369842,80.0952887 141.560884,78.93559 L142.971321,80.2990127 Z M159.661495,58.8133521 C161.448058,58.8133521 163.140566,59.1346152 164.739069,59.7771509 C166.337573,60.4196866 167.74016,61.3051189 168.946874,62.4334744 C170.153587,63.5618298 171.10954,64.9017318 171.814763,66.4532205 C172.519985,68.0047092 172.872591,69.7050527 172.872591,71.5543018 C172.872591,73.4662374 172.519985,75.2214307 171.814763,76.8199342 C171.10954,78.4184377 170.153587,79.7975181 168.946874,80.9572167 C167.74016,82.1169154 166.337573,83.0258547 164.739069,83.6840621 C163.140566,84.3422694 161.448058,84.6713681 159.661495,84.6713681 C157.906276,84.6713681 156.237275,84.3501051 154.654443,83.7075693 C153.071611,83.0650336 151.684695,82.1639299 150.493653,81.0042313 C149.302611,79.8445327 148.362329,78.4576166 147.672779,76.8434415 C146.983228,75.2292663 146.638458,73.4662374 146.638458,71.5543018 C146.638458,69.7050527 146.983228,67.9968735 147.672779,66.4297132 C148.362329,64.8625529 149.302611,63.5148152 150.493653,62.3864598 C151.684695,61.2581044 153.071611,60.3805078 154.654443,59.7536436 C156.237275,59.1267795 157.906276,58.8133521 159.661495,58.8133521 Z M159.661495,61.0700517 C158.501796,61.0700517 157.443979,61.3207936 156.488011,61.8222849 C155.532043,62.3237762 154.717132,63.0368235 154.043253,63.961448 C153.369374,64.8860726 152.852219,65.9987398 152.491772,67.2994828 C152.131326,68.6002259 151.951105,70.0341561 151.951105,71.6013164 C151.951105,73.2311631 152.131326,74.7042717 152.491772,76.0206864 C152.852219,77.3371011 153.369374,78.4576039 154.043253,79.3822285 C154.717132,80.3068531 155.524208,81.0199003 156.464504,81.5213916 C157.4048,82.0228829 158.470453,82.2736248 159.661495,82.2736248 C160.852537,82.2736248 161.933861,82.0228829 162.905501,81.5213916 C163.87714,81.0199003 164.707723,80.2990174 165.397273,79.3587212 C166.086824,78.418425 166.61965,77.2900865 166.995769,75.9736718 C167.371887,74.6572572 167.559944,73.1998199 167.559944,71.6013164 C167.559944,70.0341561 167.371887,68.6080616 166.995769,67.3229901 C166.61965,66.0379187 166.086824,64.9330872 165.397273,64.0084626 C164.707723,63.083838 163.87714,62.3629551 162.905501,61.8457922 C161.933861,61.3286293 160.852537,61.0700517 159.661495,61.0700517 Z M185.519511,76.6788905 C185.519511,77.9953051 185.550854,79.0296154 185.61354,79.7818524 C185.676227,80.5340893 185.840776,81.1060943 186.107193,81.4978843 C186.37361,81.8896744 186.757559,82.148252 187.25905,82.2736248 C187.760542,82.3989976 188.465753,82.4930259 189.374706,82.5557123 L189.374706,84.2012224 L176.868829,84.2012224 L176.868829,82.5557123 C177.777782,82.4930259 178.498665,82.3989976 179.0315,82.2736248 C179.564334,82.148252 179.97179,81.8975101 180.253879,81.5213916 C180.535968,81.1452732 180.716188,80.604611 180.794546,79.8993888 C180.872904,79.1941667 180.912083,78.2460489 180.912083,77.0550071 L180.912083,71.0371415 C180.912083,69.2505787 180.888576,67.7617988 180.841561,66.5707569 C180.794546,65.3797151 180.708354,64.5648039 180.582981,64.1259991 C180.488951,63.7185374 180.379252,63.3972743 180.253879,63.1622003 C180.128506,62.9271262 179.924778,62.7390698 179.642689,62.5980254 C179.3606,62.456981 178.992323,62.3629528 178.537847,62.3159379 C178.08337,62.2689231 177.495694,62.2454161 176.7748,62.2454161 L176.7748,60.599906 L184.438176,58.8133521 L185.049365,63.5148096 L185.284438,63.5148096 C186.694882,61.9163061 188.175827,60.7331178 189.727315,59.9652092 C191.278804,59.1973007 192.994819,58.8133521 194.875411,58.8133521 C196.850033,58.8133521 198.511198,59.212972 199.858956,60.0122238 C201.206714,60.8114756 202.146996,61.9633211 202.679831,63.467795 L202.867889,63.467795 C204.027588,61.9946643 205.438011,60.8506544 207.099201,60.0357311 C208.760391,59.2208077 210.531255,58.8133521 212.411848,58.8133521 C213.884978,58.8133521 215.22488,59.0562583 216.431594,59.542078 C217.638307,60.0278977 218.555082,60.6939309 219.181946,61.5401975 C219.746124,62.2610912 220.145744,63.209209 220.380818,64.3845792 C220.615892,65.5599495 220.733427,67.1662647 220.733427,69.2035731 L220.733427,76.6788905 C220.733427,77.9639619 220.772606,78.9826008 220.850964,79.7348378 C220.929322,80.4870748 221.093871,81.0669154 221.344617,81.4743771 C221.595362,81.8818387 221.979311,82.148252 222.496474,82.2736248 C223.013637,82.3989976 223.726684,82.4930259 224.635637,82.5557123 L224.635637,84.2012224 L212.12976,84.2012224 L212.12976,82.5557123 C213.00737,82.5243691 213.712582,82.4381765 214.245416,82.2971321 C214.778251,82.1560877 215.185706,81.8896744 215.467795,81.4978843 C215.749884,81.1060943 215.930105,80.5654321 216.008463,79.8758815 C216.086821,79.186331 216.125999,78.2460489 216.125999,77.0550071 L216.125999,71.1311707 C216.125999,69.3446079 216.031971,67.8323209 215.843912,66.5942642 C215.655852,65.3562076 215.342425,64.35324 214.90362,63.5853315 C214.464815,62.8174229 213.89281,62.2610893 213.187588,61.9163141 C212.482366,61.5715388 211.628276,61.3991537 210.625294,61.3991537 C209.246193,61.3991537 207.953305,61.7831023 206.746591,62.5510108 C205.539878,63.3189194 204.59176,64.345394 203.90221,65.6304654 C203.745494,65.9438975 203.612287,66.2494892 203.502586,66.5472496 C203.392885,66.8450101 203.306692,67.1741088 203.244006,67.5345557 C203.181319,67.8950026 203.142141,68.3259652 203.126469,68.8274565 C203.110798,69.3289478 203.102962,69.9558025 203.102962,70.7080395 L203.102962,76.6788905 C203.102962,77.9639619 203.134305,78.9826008 203.196991,79.7348378 C203.259677,80.4870748 203.424227,81.0669154 203.690644,81.4743771 C203.957061,81.8818387 204.356681,82.148252 204.889516,82.2736248 C205.42235,82.3989976 206.143233,82.4930259 207.052186,82.5557123 L207.052186,84.2012224 L194.546309,84.2012224 L194.546309,82.5557123 C195.423919,82.4930259 196.129131,82.3989976 196.661965,82.2736248 C197.1948,82.148252 197.59442,81.8975101 197.860837,81.5213916 C198.127254,81.1452732 198.299639,80.604611 198.377997,79.8993888 C198.456355,79.1941667 198.495534,78.2460489 198.495534,77.0550071 L198.495534,71.1311707 C198.495534,69.3132647 198.401505,67.7853063 198.213446,66.5472496 C198.025387,65.309193 197.719795,64.3062254 197.296662,63.5383169 C196.873529,62.7704083 196.317195,62.2219104 195.627645,61.8928068 C194.938094,61.5637031 194.09184,61.3991537 193.088858,61.3991537 C191.678413,61.3991537 190.354183,61.7831023 189.116126,62.5510108 C187.878069,63.3189194 186.945623,64.345394 186.318759,65.6304654 C186.162043,65.9438975 186.028836,66.2494892 185.919135,66.5472496 C185.809434,66.8450101 185.723241,67.1741088 185.660555,67.5345557 C185.597868,67.8950026 185.55869,68.3259652 185.543018,68.8274565 C185.527347,69.3289478 185.519511,69.9558025 185.519511,70.7080395 L185.519511,76.6788905 Z M235.448989,62.6685472 L235.637047,62.6685472 C236.64003,61.4775054 237.721354,60.5372233 238.881053,59.8476728 C240.040752,59.1581222 241.388489,58.8133521 242.924307,58.8133521 C244.710869,58.8133521 246.348527,59.1346152 247.83733,59.7771509 C249.326132,60.4196866 250.61902,61.3207903 251.716032,62.480489 C252.813044,63.6401876 253.667134,65.0114323 254.278326,66.5942642 C254.889519,68.1770961 255.19511,69.9087823 255.19511,71.7893747 C255.19511,73.7013103 254.881683,75.4486678 254.254819,77.0314998 C253.627955,78.6143317 252.76603,79.969905 251.669017,81.0982605 C250.572005,82.2266159 249.271282,83.1042125 247.766808,83.7310766 C246.262334,84.3579408 244.632512,84.6713681 242.877292,84.6713681 C241.435504,84.6713681 240.126945,84.4284619 238.951575,83.9426422 C237.776205,83.4568225 236.671373,82.6654184 235.637047,81.5684062 L235.637047,88.4325341 C235.637047,89.6862623 235.699733,90.6892299 235.825106,91.4414669 C235.950479,92.1937038 236.20122,92.7735444 236.577339,93.1810061 C236.953457,93.5884678 237.49412,93.8705524 238.199342,94.0272685 C238.904564,94.1839845 239.83701,94.2780127 240.996709,94.3093559 L240.996709,95.954866 L226.51622,95.954866 L226.51622,94.3093559 C227.456516,94.2780127 228.216578,94.1839845 228.796427,94.0272685 C229.376276,93.8705524 229.830746,93.5884678 230.15985,93.1810061 C230.488953,92.7735444 230.716188,92.2172109 230.841561,91.5119887 C230.966934,90.8067666 231.029619,89.8899915 231.029619,88.7616361 L231.029619,71.1781852 C231.029619,69.3602793 231.006112,67.8714993 230.959097,66.7118007 C230.912083,65.552102 230.82589,64.7528622 230.700517,64.3140574 C230.543801,63.5618204 230.18336,63.0525009 229.619182,62.7860837 C229.055004,62.5196664 227.989351,62.3864598 226.422191,62.3864598 L226.422191,60.7879643 L235.448989,59.0014104 L235.448989,62.6685472 Z M236.859426,64.0319699 C236.451965,64.658834 236.146373,65.403224 235.942642,66.2651622 C235.738911,67.1271004 235.637047,68.2476032 235.637047,69.6267043 L235.637047,73.2938411 C235.637047,74.1401077 235.660555,74.8688263 235.707569,75.4800188 C235.754584,76.0912113 235.825105,76.6162022 235.919135,77.0550071 C236.013165,77.4938119 236.138535,77.8855961 236.295252,78.2303714 C236.451968,78.5751467 236.655695,78.9042454 236.906441,79.2176775 C237.627335,80.2206601 238.48926,80.9963928 239.492243,81.5448989 C240.495225,82.093405 241.545207,82.367654 242.642219,82.367654 C244.8049,82.367654 246.552258,81.4587146 247.884344,79.6408087 C249.21643,77.8229027 249.882464,75.2684697 249.882464,71.977433 C249.882464,70.3475863 249.702243,68.866642 249.341796,67.5345557 C248.981349,66.2024694 248.47203,65.0584596 247.813822,64.1024918 C247.155615,63.146524 246.364211,62.402134 245.439586,61.8692995 C244.514962,61.336465 243.488487,61.0700517 242.360132,61.0700517 C241.231776,61.0700517 240.18963,61.3286293 239.233662,61.8457922 C238.277695,62.3629551 237.486291,63.0916737 236.859426,64.0319699 Z M259.379408,62.2454161 L259.379408,60.5058768 C261.040598,59.5342374 262.341321,58.5626126 263.281617,57.5909732 C264.221913,56.6193338 264.942796,55.4596526 265.444288,54.1118947 L266.80771,54.1118947 L266.80771,60.0357311 L273.107663,60.0357311 L273.107663,62.2454161 L266.80771,62.2454161 L266.80771,76.5378467 C266.80771,77.634859 266.86256,78.5594697 266.972261,79.3117066 C267.081963,80.0639436 267.262183,80.6672913 267.512929,81.1217677 C267.763675,81.5762442 268.092773,81.8975073 268.500235,82.0855665 C268.907697,82.2736258 269.424852,82.367654 270.051716,82.367654 C270.835296,82.367654 271.501329,82.2031046 272.049835,81.8740009 C272.598342,81.5448973 273.139004,80.9885637 273.671838,80.2049835 L274.847203,81.0982605 C274.408398,82.2579591 273.648336,83.1433914 272.566996,83.7545839 C271.485655,84.3657764 270.145753,84.6713681 268.54725,84.6713681 C266.478598,84.6713681 264.903626,84.17772 263.822285,83.190409 C262.740944,82.203098 262.200282,80.7848392 262.200282,78.93559 L262.200282,62.2454161 L259.379408,62.2454161 Z M299.811942,79.8288669 C297.147769,83.0572172 293.84111,84.6713681 289.891866,84.6713681 C288.042617,84.6713681 286.365781,84.3657764 284.861307,83.7545839 C283.356833,83.1433914 282.063945,82.2814661 280.982605,81.1687823 C279.901264,80.0560985 279.062846,78.7240322 278.467325,77.1725435 C277.871804,75.6210548 277.574048,73.90504 277.574048,72.0244476 C277.574048,70.112512 277.887475,68.3416474 278.514339,66.7118007 C279.141204,65.0819539 280.026636,63.6872022 281.170663,62.5275035 C282.31469,61.3678049 283.678099,60.4588655 285.260931,59.8006582 C286.843763,59.1424509 288.575449,58.8133521 290.456041,58.8133521 C293.496332,58.8133521 295.847038,59.636099 297.508228,61.2816173 C299.169417,62.9271356 300,65.2856765 300,68.3573108 C300,68.7961157 299.913807,69.0625289 299.74142,69.1565585 C299.569032,69.2505882 299.169412,69.2976023 298.542548,69.2976023 L283.074753,69.2976023 C283.012067,69.5483479 282.965053,69.8539396 282.933709,70.2143865 C282.902366,70.5748333 282.886695,70.9744532 282.886695,71.4132581 C282.886695,73.0431048 283.082587,74.5240491 283.474377,75.8561354 C283.866167,77.1882217 284.430336,78.3243959 285.166902,79.2646921 C285.903467,80.2049882 286.781064,80.9337069 287.799718,81.4508698 C288.818372,81.9680327 289.954546,82.2266102 291.208275,82.2266102 C292.524689,82.2266102 293.747056,81.9366899 294.875411,81.3568406 C296.003767,80.7769913 297.163448,79.8288735 298.35449,78.5124589 L299.811942,79.8288669 Z M292.054537,67.1349318 C292.681401,67.1349318 293.182885,67.1192605 293.559003,67.0879173 C293.935122,67.056574 294.217206,66.9938886 294.405266,66.899859 C294.593325,66.8058293 294.718696,66.6726227 294.781382,66.5002351 C294.844069,66.3278474 294.875411,66.1006126 294.875411,65.8185237 C294.875411,64.3767362 294.413106,63.2248907 293.488481,62.3629525 C292.563857,61.5010143 291.302312,61.0700517 289.703808,61.0700517 C286.318742,61.0700517 284.218779,63.0916582 283.403855,67.1349318 L292.054537,67.1349318 Z" id="Bon-compte"></path>
            <path d="M163.477582,23.9999428 C163.915082,23.9999428 164.274455,24.1405674 164.555705,24.4218168 C164.836954,24.7030661 164.977579,25.0624398 164.977579,25.4999392 C164.977579,25.9374386 164.836954,26.2968123 164.555705,26.5780616 C164.274455,26.859311 163.915082,26.9999356 163.477582,26.9999356 C163.040083,26.9999356 162.680709,26.859311 162.39946,26.5780616 C162.11821,26.2968123 161.977586,25.9374386 161.977586,25.4999392 C161.977586,25.0624398 162.11821,24.7030661 162.39946,24.4218168 C162.680709,24.1405674 163.040083,23.9999428 163.477582,23.9999428 Z M175.477554,20.9999499 C175.915053,20.9999499 176.274427,21.1405746 176.555676,21.4218239 C176.836925,21.7030733 176.97755,22.0624469 176.97755,22.4999464 L176.97755,34.4999177 C176.97755,34.9374172 176.836925,35.2967908 176.555676,35.5780402 C176.274427,35.8592895 175.915053,35.9999142 175.477554,35.9999142 L170.883815,35.9999142 C170.133816,37.0624112 169.165069,38.0311598 167.977571,38.9061572 L167.977571,46.4998891 C167.977571,46.9373886 167.836947,47.2967622 167.555697,47.5780116 C167.274448,47.8592609 166.915074,47.9998856 166.477575,47.9998856 L155.9776,47.9998856 C155.540101,47.9998856 155.180727,47.8592609 154.899478,47.5780116 C154.618228,47.2967622 154.477604,46.9373886 154.477604,46.4998891 L154.477604,41.9998999 L148.477618,41.9998999 L148.477618,46.4998891 C148.477618,46.9373886 148.336993,47.2967622 148.055744,47.5780116 C147.774495,47.8592609 147.415121,47.9998856 146.977622,47.9998856 L136.477647,47.9998856 C136.040147,47.9998856 135.680773,47.8592609 135.399524,47.5780116 C135.118275,47.2967622 134.97765,46.9373886 134.97765,46.4998891 L134.97765,38.9061572 C133.102655,37.53116 131.633908,35.7967892 130.571411,33.7030446 C129.508914,31.6093001 128.977664,29.3749295 128.977664,26.9999356 L128.227666,26.9999356 C126.665169,26.9999356 125.352673,26.4061875 124.290176,25.2186899 C123.227679,24.0311922 122.821429,22.6561965 123.071429,21.0936997 C123.196428,19.7812028 123.774552,18.687455 124.805799,17.8124575 C125.837047,16.9374601 127.040169,16.4999607 128.415166,16.4999607 C128.540165,16.4999607 128.665166,16.562461 128.790165,16.6874602 C128.915164,16.8124594 128.977664,16.9374601 128.977664,17.0624593 L128.977664,18.9374548 C128.977664,19.0624541 128.915164,19.1874547 128.790165,19.312454 C128.665166,19.4374532 128.540165,19.4999535 128.415166,19.4999535 L128.321416,19.4999535 C127.758917,19.4999535 127.258919,19.6718276 126.82142,20.0155773 C126.38392,20.3593269 126.133922,20.7812009 126.071421,21.2811993 C125.883922,22.0311975 126.024546,22.6718205 126.493295,23.2030697 C126.962044,23.7343189 127.540168,23.9999428 128.227666,23.9999428 L129.258914,23.9999428 C129.758912,21.5624486 130.821411,19.3749543 132.446406,17.4374584 C134.071402,15.4999626 136.040147,14.0624665 138.352642,13.1249687 C138.102642,12.1874709 137.977643,11.3124735 137.977643,10.499975 C137.977643,8.62497944 138.446392,6.87498313 139.38389,5.24998748 C140.321387,3.62499183 141.602635,2.34374441 143.22763,1.40624665 C144.852626,0.468748882 146.602622,0 148.477618,0 C150.352613,0 152.10261,0.468748882 153.727605,1.40624665 C155.352601,2.34374441 156.633849,3.62499183 157.571346,5.24998748 C158.508844,6.87498313 158.977593,8.62497944 158.977593,10.499975 L158.883843,11.4374727 C161.258837,9.81247708 163.790081,8.99997854 166.477575,8.99997854 L167.977571,8.99997854 L167.977571,15.093714 C170.102567,16.6562108 171.696313,18.6249561 172.75881,20.9999499 L175.477554,20.9999499 Z M148.477618,2.99999285 C146.415123,2.99999285 144.649503,3.73436562 143.180756,5.20311259 C141.712009,6.67185957 140.977636,8.43747988 140.977636,10.499975 C140.977636,11.0624736 141.071386,11.6562217 141.258885,12.2812207 C142.196383,12.0937212 143.102631,11.9999714 143.977629,11.9999714 L155.790101,11.9999714 C155.9151,11.4999731 155.9776,10.9999733 155.9776,10.499975 C155.9776,8.43747988 155.243227,6.67185957 153.77448,5.20311259 C152.305733,3.73436562 150.540113,2.99999285 148.477618,2.99999285 Z M173.977557,32.9999213 L173.977557,23.9999428 L170.790065,23.9999428 C169.852567,21.999948 169.133818,20.6249508 168.63382,19.8749526 C167.946322,18.9999552 166.727575,17.8749579 164.977579,16.4999607 L164.977579,12.0937212 C163.790081,12.2812207 162.665084,12.6562198 161.602587,13.2187185 C160.977588,13.5937176 160.165091,14.1874657 159.165092,14.9999642 L143.977629,14.9999642 C141.790134,14.9999642 139.774514,15.5312134 137.930768,16.5937104 C136.087022,17.6562074 134.6339,19.109329 133.571404,20.953075 C132.508907,22.7968211 131.977657,24.8124413 131.977657,26.9999356 L131.977657,27.0936854 C131.977657,28.5936818 132.227657,29.968679 132.727656,31.2186756 C133.665153,33.4061699 135.41515,35.468665 137.977643,37.4061608 L137.977643,44.9998927 L145.477625,44.9998927 L145.477625,38.999907 L157.477597,38.999907 L157.477597,44.9998927 L164.977579,44.9998927 L164.977579,37.4061608 C166.227575,36.4686631 167.071323,35.7811652 167.508823,35.3436657 C167.883822,34.9686666 168.38382,34.3749185 169.008819,33.56242 L169.383818,32.9999213 L173.977557,32.9999213 Z" id=""></path>
        </g>
    </g>
</svg>