<?xml version="1.0" encoding="UTF-8"?>
<svg width="300px" height="300px" viewBox="0 0 300 300" version="1.1" xmlns="http://www.w3.org/2000/svg" xmlns:xlink="http://www.w3.org/1999/xlink">
    <!-- Generator: Sketch 51.3 (57544) - http://www.bohemiancoding.com/sketch -->
    <title>experiments / pinger</title>
    <desc>Created with Sketch.</desc>
    <defs>
        <polygon id="path-1" points="0.281802796 0.723214077 53.4623882 0.723214077 53.4623882 80 0.281802796 80"></polygon>
        <polygon id="path-3" points="0.771414474 0.928 16.0082566 0.928 16.0082566 16.3679 0.771414474 16.3679"></polygon>
    </defs>
    <g id="experiments-/-pinger" stroke="none" stroke-width="1" fill="none" fill-rule="evenodd">
        <g id="Group-21" transform="translate(0.000000, 100.000000)">
            <g id="Group-3" transform="translate(151.973684, 19.072100)">
                <mask id="mask-2" fill="#ffffff">
                    <use xlink:href="#path-1"></use>
                </mask>
                <g id="Clip-2"></g>
                <path d="M39.3324671,28.4814 C39.3502303,20.5634 34.0193092,14.3174 27.1439803,14.2034 C20.1225987,14.0874 14.2321382,20.6304 14.2735855,28.5024 C14.3130592,35.9204 19.8423355,41.9514 26.6604276,42.0104 C34.0074671,42.0734 39.3137171,36.4084 39.3324671,28.4814 Z M24.6709539,80.0004 C20.5015461,78.5234 15.9985855,78.1314 12.0897039,75.7774 C7.67457237,73.1184 4.51569079,69.4534 2.65648026,64.6184 C1.79891447,62.3894 2.42851974,60.8434 4.88970395,60.9154 C9.81503289,61.0594 14.8045066,59.6484 19.3242434,63.8094 C23.1048355,67.2904 28.3272039,66.8354 32.8874013,64.9114 C36.8051645,63.2574 38.7344408,59.6714 39.2002303,55.4234 C39.4775329,52.8844 39.4153618,51.1304 35.8360855,52.7494 C21.976875,59.0144 8.69792763,53.5554 2.58641447,39.3594 C-3.53398026,25.1444 2.96240132,8.6674 17.026875,2.7344 C30.3867434,-2.8996 45.7814803,3.7094 51.3433224,17.4884 C52.7249013,20.9104 53.4985855,24.4474 53.4610855,28.1904 C53.3850987,35.8544 53.3949671,43.5184 53.4551645,51.1824 C53.5499013,63.4554 47.476875,76.8234 31.4495724,79.3244 C30.8160197,79.4234 30.2189803,79.7694 29.6051645,80.0004 L24.6709539,80.0004 Z" id="Fill-1" fill="#FFFFFF" mask="url(#mask-2)"></path>
            </g>
            <path d="M300,33.0721 C299.180921,33.1261 298.362829,33.1961 297.54375,33.2331 C289.572039,33.5961 286.431908,36.8811 286.367763,45.1031 C286.307566,52.5901 286.18125,60.0831 286.418092,67.5621 C286.554276,71.8521 285.1125,73.4631 280.759539,73.4011 C272.275658,73.2801 272.271711,73.4911 272.269737,64.9821 C272.267763,58.9921 272.273684,53.0031 272.270724,47.0131 C272.259868,27.8811 281.176974,19.2161 300,20.0721 L300,33.0721 Z" id="Fill-4" fill="#FFFFFF"></path>
            <path d="M247.983158,36.4808 C241.474934,29.4228 229.845987,32.2638 226.748289,41.7298 C226.444342,42.6578 225.934145,43.6868 226.704868,44.5498 C227.362105,45.2858 228.238421,44.8338 228.9825,44.5198 C235.160132,41.9168 241.331842,39.2978 247.983158,36.4808 M239.239737,19.9078 C250.538092,19.9458 260.382829,27.1538 263.572303,37.5148 C264.51375,40.5708 264.140724,42.3968 260.895987,43.7178 C251.766711,47.4348 242.753882,51.4468 233.705526,55.3668 C232.391053,55.9368 230.367039,56.1658 230.311776,57.7968 C230.247632,59.6888 232.300263,60.2688 233.769671,60.8728 C238.544013,62.8338 243.347961,62.6878 247.100921,58.9818 C251.490395,54.6488 256.627895,55.8618 261.471316,56.4928 C264.904539,56.9398 263.07,59.8898 262.159145,61.6128 C257.091711,71.1918 248.571316,74.8558 238.417697,74.7228 C223.845,74.5328 212.7075,61.7848 212.934474,46.1278 C213.142697,31.8198 225.140724,19.8608 239.239737,19.9078" id="Fill-6" fill="#FFFFFF"></path>
            <path d="M144.372928,52.7684 C144.372928,58.8934 144.278191,63.7244 144.405493,68.5484 C144.494309,71.8894 143.248914,73.5744 139.808783,73.3184 C138.502204,73.2214 137.174901,73.2174 135.869309,73.3304 C132.252533,73.6424 130.892664,71.9814 130.942007,68.3644 C131.054507,60.0424 131.191678,51.7064 130.836414,43.3984 C130.485099,35.1894 123.940362,31.3164 117.123257,34.8484 C113.802533,36.5684 112.552204,39.4084 112.555164,43.0314 C112.561086,51.1884 112.571941,59.3454 112.496941,67.5014 C112.444638,73.1964 112.173257,73.1834 104.963388,73.3834 C100.705164,73.5014 98.1433224,72.8394 98.3712829,67.5244 C98.7482566,58.7184 98.2568092,49.8734 98.5962829,41.0634 C99.0235855,29.9804 106.963717,21.7774 118.243322,20.1464 C129.876217,18.4654 139.858125,24.1254 143.347599,34.7104 C145.421941,41.0024 143.983125,47.6134 144.372928,52.7684" id="Fill-8" fill="#FFFFFF"></path>
            <path d="M73.7515461,46.682 C73.7466118,39.707 73.8867434,32.728 73.7012171,25.758 C73.5620724,20.523 77.0091118,20.915 80.3367434,20.989 C83.5074671,21.059 87.208125,20.163 87.170625,25.536 C87.0679934,39.984 87.0936513,54.433 87.1577961,68.882 C87.1725987,72.044 85.9104276,73.496 82.7742434,73.314 C81.3038487,73.229 79.8186513,73.217 78.3512171,73.323 C74.9525329,73.571 73.6686513,71.972 73.7209539,68.604 C73.8364145,61.298 73.7564803,53.99 73.7515461,46.682" id="Fill-10" fill="#FFFFFF"></path>
            <g id="Group-14" transform="translate(72.039474, 0.072100)">
                <mask id="mask-4" fill="#ffffff">
                    <use xlink:href="#path-3"></use>
                </mask>
                <g id="Clip-13"></g>
                <path d="M16.0082566,8.6479 C16.0082566,12.9119 12.5967434,16.3679 8.38983553,16.3679 C4.18194079,16.3679 0.771414474,12.9119 0.771414474,8.6479 C0.771414474,4.3839 4.18194079,0.9279 8.38983553,0.9279 C12.5967434,0.9279 16.0082566,4.3839 16.0082566,8.6479" id="Fill-12" fill="#ffffff" mask="url(#mask-4)"></path>
            </g>
            <path d="M0,63.9915 C1.19901316,62.8865 2.35855263,61.7315 3.60493421,60.6835 C7.95296053,57.0285 10.4180921,53.7105 7.96085526,46.9055 C3.78848684,35.3455 9.66118421,22.7155 20.2184211,16.6385 C30.7411184,10.5825 44.0694079,12.4455 52.4881579,21.1505 C60.9246711,29.8725 62.5154605,43.3565 56.3546053,53.9275 C50.2470395,64.4095 37.4901316,70.1165 26.1967105,65.8635 C20.5095395,63.7205 17.4957237,65.0135 14.2884868,69.1415 C12.9493421,70.8645 11.3496711,72.3815 9.86842105,73.9915 L6.57927632,73.9915 C3.65427632,72.5115 1.46052632,70.2885 0,67.3245 L0,63.9915 Z" id="Fill-15" fill="#ffffff"></path>
            <path d="M54.3433224,39.8499 C54.4637171,48.2159 49.1693092,56.3559 41.7196382,59.5719 C39.4538487,60.5499 37.8660197,60.5489 35.9821382,58.5689 C29.1600987,51.3999 22.2087829,44.3509 15.1262171,37.4469 C13.126875,35.4979 13.2946382,33.8599 14.2548355,31.6179 C18.1005592,22.6319 27.7074671,17.5549 37.5788487,19.4209 C47.0564803,21.2119 54.2002303,29.9179 54.3433224,39.8499" id="Fill-17" fill="#CCCCCC"></path>
            <path d="M13.3358882,45.6693 C14.0385197,49.9163 17.7658224,52.2363 16.3970724,56.1303 C13.1927961,59.1203 9.67865132,61.8363 6.67174342,67.2303 C11.9957566,64.1843 14.6740461,60.6243 17.6247039,57.3773 C21.2483882,55.5003 23.6217434,60.7293 28.1858882,58.8423 C23.1411513,54.3813 19.8825987,48.7553 13.3358882,45.6693" id="Fill-19" fill="#CCCCCC"></path>
        </g>
    </g>
</svg>