<?xml version="1.0" encoding="utf-8"?>
<!-- Generator: Adobe Illustrator 23.0.1, SVG Export Plug-In . SVG Version: 6.00 Build 0)  -->
<svg version="1.1" id="Layer_1" xmlns="http://www.w3.org/2000/svg" xmlns:xlink="http://www.w3.org/1999/xlink" x="0px" y="0px"
	 viewBox="0 0 300 300" style="enable-background:new 0 0 300 300;" xml:space="preserve">
<style type="text/css">
	.st0{fill:url(#SVGID_1_);}
	.st1{fill:url(#SVGID_2_);}
	.st2{fill:url(#SVGID_3_);}
	.st3{fill:url(#SVGID_4_);}
	.st4{fill:url(#SVGID_5_);}
	.st5{fill:url(#SVGID_6_);}
	.st6{fill:url(#SVGID_7_);}
	.st7{fill:url(#SVGID_8_);}
	.st8{fill:url(#SVGID_9_);}
	.st9{fill:url(#SVGID_10_);}
	.st10{fill:url(#SVGID_11_);}
	.st11{fill:url(#SVGID_12_);}
	.st12{fill:url(#SVGID_13_);}
	.st13{fill:url(#SVGID_14_);}
	.st14{fill:url(#SVGID_15_);}
	.st15{fill:url(#SVGID_16_);}
	.st16{fill:url(#SVGID_17_);}
	.st17{fill:url(#SVGID_18_);}
	.st18{fill:url(#SVGID_19_);}
	.st19{fill:url(#SVGID_20_);}
	.st20{fill:url(#SVGID_21_);}
	.st21{fill:url(#SVGID_22_);}
	.st22{fill:url(#SVGID_23_);}
	.st23{fill:url(#SVGID_24_);}
	.st24{fill:url(#SVGID_25_);}
	.st25{fill:url(#SVGID_26_);}
	.st26{fill:url(#SVGID_27_);}
	.st27{fill:url(#SVGID_28_);}
	.st28{fill:url(#SVGID_29_);}
	.st29{fill:url(#SVGID_30_);}
	.st30{fill:url(#SVGID_31_);}
	.st31{fill:url(#SVGID_32_);}
	.st32{fill:url(#SVGID_33_);}
	.st33{fill:url(#SVGID_34_);}
	.st34{fill:url(#SVGID_35_);}
	.st35{fill:url(#SVGID_36_);}
	.st36{fill:url(#SVGID_37_);}
	.st37{fill:url(#SVGID_38_);}
	.st38{fill:url(#SVGID_39_);}
	.st39{fill:url(#SVGID_40_);}
	.st40{fill:url(#SVGID_41_);}
	.st41{fill:url(#SVGID_42_);}
	.st42{fill:url(#SVGID_43_);}
	.st43{fill:url(#SVGID_44_);}
	.st44{fill:url(#SVGID_45_);}
	.st45{fill:url(#SVGID_46_);}
	.st46{fill:url(#SVGID_47_);}
	.st47{fill:url(#SVGID_48_);}
	.st48{fill:url(#SVGID_49_);}
	.st49{fill:url(#SVGID_50_);}
	.st50{fill:url(#SVGID_51_);}
	.st51{fill:url(#SVGID_52_);}
	.st52{fill:url(#SVGID_53_);}
	.st53{fill:url(#SVGID_54_);}
	.st54{fill:url(#SVGID_55_);}
	.st55{fill:url(#SVGID_56_);}
	.st56{fill:url(#SVGID_57_);}
	.st57{fill:url(#SVGID_58_);}
	.st58{fill:url(#SVGID_59_);}
	.st59{fill:url(#SVGID_60_);}
	.st60{fill:url(#SVGID_61_);}
	.st61{fill:url(#SVGID_62_);}
	.st62{fill:url(#SVGID_63_);}
	.st63{fill:url(#SVGID_64_);}
	.st64{fill:url(#SVGID_65_);}
	.st65{fill:url(#SVGID_66_);}
	.st66{fill:url(#SVGID_67_);}
	.st67{fill:url(#SVGID_68_);}
	.st68{fill:url(#SVGID_69_);}
	.st69{fill:url(#SVGID_70_);}
	.st70{fill:url(#SVGID_71_);}
	.st71{fill:url(#SVGID_72_);}
	.st72{fill:url(#SVGID_73_);}
	.st73{fill:url(#SVGID_74_);}
	.st74{fill:url(#SVGID_75_);}
	.st75{fill:url(#SVGID_76_);}
	.st76{fill:url(#SVGID_77_);}
	.st77{fill:url(#SVGID_78_);}
	.st78{fill:url(#SVGID_79_);}
	.st79{fill:url(#SVGID_80_);}
	.st80{fill:url(#SVGID_81_);}
	.st81{fill:url(#SVGID_82_);}
	.st82{fill:url(#SVGID_83_);}
	.st83{fill:url(#SVGID_84_);}
	.st84{fill:url(#SVGID_85_);}
	.st85{fill:url(#SVGID_86_);}
	.st86{fill:url(#SVGID_87_);}
	.st87{fill:url(#SVGID_88_);}
	.st88{fill:url(#SVGID_89_);}
	.st89{fill:url(#SVGID_90_);}
	.st90{fill:url(#SVGID_91_);}
	.st91{filter:url(#Adobe_OpacityMaskFilter);}
	.st92{filter:url(#Adobe_OpacityMaskFilter_1_);}
	.st93{mask:url(#SVGID_92_);fill:url(#SVGID_93_);}
	.st94{fill:url(#SVGID_94_);}
</style>
<g>
	<linearGradient id="SVGID_1_" gradientUnits="userSpaceOnUse" x1="17.3923" y1="111.4833" x2="114.3836" y2="111.4833">
		<stop  offset="0" style="stop-color:#F9BFC2"/>
		<stop  offset="1" style="stop-color:#F9BEC8"/>
	</linearGradient>
	<path class="st0" d="M99,160H32.7c-8.5,0-15.3-6.9-15.3-15.3V78.3c0-8.5,6.9-15.3,15.3-15.3H99c8.5,0,15.3,6.9,15.3,15.3v66.3
		C114.4,153.1,107.5,160,99,160z"/>
	<linearGradient id="SVGID_2_" gradientUnits="userSpaceOnUse" x1="23.5371" y1="112.7836" x2="96.4636" y2="112.7836">
		<stop  offset="0" style="stop-color:#FBD4D8"/>
		<stop  offset="0.9988" style="stop-color:#FBD4DA"/>
	</linearGradient>
	<path class="st1" d="M81.1,129.4H38.9c-8.5,0-15.3-6.9-15.3-15.3v-2.6c0-8.5,6.9-15.3,15.3-15.3h42.2c8.5,0,15.3,6.9,15.3,15.3v2.6
		C96.5,122.5,89.6,129.4,81.1,129.4z"/>
	<linearGradient id="SVGID_3_" gradientUnits="userSpaceOnUse" x1="23.5371" y1="80.8924" x2="42.1878" y2="80.8924">
		<stop  offset="1.241990e-03" style="stop-color:#FBD4DA"/>
		<stop  offset="1" style="stop-color:#FBD3D6"/>
	</linearGradient>
	<circle class="st2" cx="32.9" cy="80.9" r="9.3"/>
	<linearGradient id="SVGID_4_" gradientUnits="userSpaceOnUse" x1="46.5563" y1="78.6897" x2="74.066" y2="78.6897">
		<stop  offset="1.241990e-03" style="stop-color:#FBD4DA"/>
		<stop  offset="1" style="stop-color:#FBD3D6"/>
	</linearGradient>
	<path class="st3" d="M72.5,80.3H48.1c-0.9,0-1.6-0.7-1.6-1.6l0,0c0-0.9,0.7-1.6,1.6-1.6h24.4c0.9,0,1.6,0.7,1.6,1.6v0
		C74.1,79.6,73.4,80.3,72.5,80.3z"/>
	<linearGradient id="SVGID_5_" gradientUnits="userSpaceOnUse" x1="61.2605" y1="138.2487" x2="94.2948" y2="138.2487">
		<stop  offset="0" style="stop-color:#F26B7B"/>
		<stop  offset="1" style="stop-color:#EF454A"/>
	</linearGradient>
	<path class="st4" d="M91.2,141.3H64.3c-1.7,0-3.1-1.4-3.1-3.1v0c0-1.7,1.4-3.1,3.1-3.1h26.9c1.7,0,3.1,1.4,3.1,3.1l0,0
		C94.3,139.9,92.9,141.3,91.2,141.3z"/>
	<linearGradient id="SVGID_6_" gradientUnits="userSpaceOnUse" x1="46.5563" y1="83.8454" x2="74.066" y2="83.8454">
		<stop  offset="1.241990e-03" style="stop-color:#FBD4DA"/>
		<stop  offset="1" style="stop-color:#FBD3D6"/>
	</linearGradient>
	<path class="st5" d="M73.3,84.7H47.4c-0.5,0-0.8-0.4-0.8-0.8l0,0c0-0.5,0.4-0.8,0.8-0.8h25.9c0.5,0,0.8,0.4,0.8,0.8l0,0
		C74.1,84.3,73.7,84.7,73.3,84.7z"/>
	<g>
		<linearGradient id="SVGID_7_" gradientUnits="userSpaceOnUse" x1="31.2819" y1="101.9087" x2="61.0671" y2="101.9087">
			<stop  offset="0" style="stop-color:#F9BFC2"/>
			<stop  offset="1" style="stop-color:#F9BEC8"/>
		</linearGradient>
		<path class="st6" d="M60.9,102.1H31.5c-0.1,0-0.2-0.1-0.2-0.2c0-0.1,0.1-0.2,0.2-0.2h29.4c0.1,0,0.2,0.1,0.2,0.2
			C61.1,102,61,102.1,60.9,102.1z"/>
	</g>
	<g>
		<linearGradient id="SVGID_8_" gradientUnits="userSpaceOnUse" x1="31.2819" y1="108.5171" x2="71.8858" y2="108.5171">
			<stop  offset="0" style="stop-color:#F9BFC2"/>
			<stop  offset="1" style="stop-color:#F9BEC8"/>
		</linearGradient>
		<path class="st7" d="M71.7,108.7H31.5c-0.1,0-0.2-0.1-0.2-0.2c0-0.1,0.1-0.2,0.2-0.2h40.3c0.1,0,0.2,0.1,0.2,0.2
			C71.9,108.6,71.8,108.7,71.7,108.7z"/>
	</g>
	<g>
		<linearGradient id="SVGID_9_" gradientUnits="userSpaceOnUse" x1="31.2819" y1="115.1256" x2="81.8328" y2="115.1256">
			<stop  offset="0" style="stop-color:#F9BFC2"/>
			<stop  offset="1" style="stop-color:#F9BEC8"/>
		</linearGradient>
		<path class="st8" d="M81.7,115.3H31.5c-0.1,0-0.2-0.1-0.2-0.2c0-0.1,0.1-0.2,0.2-0.2h50.2c0.1,0,0.2,0.1,0.2,0.2
			C81.8,115.2,81.8,115.3,81.7,115.3z"/>
	</g>
	<g>
		<linearGradient id="SVGID_10_" gradientUnits="userSpaceOnUse" x1="31.2819" y1="121.7341" x2="89.3406" y2="121.7341">
			<stop  offset="0" style="stop-color:#F9BFC2"/>
			<stop  offset="1" style="stop-color:#F9BEC8"/>
		</linearGradient>
		<path class="st9" d="M89.2,121.9H31.5c-0.1,0-0.2-0.1-0.2-0.2s0.1-0.2,0.2-0.2h57.7c0.1,0,0.2,0.1,0.2,0.2S89.3,121.9,89.2,121.9z
			"/>
	</g>
	<linearGradient id="SVGID_11_" gradientUnits="userSpaceOnUse" x1="36.2376" y1="73.3544" x2="39.8123" y2="73.3544">
		<stop  offset="0" style="stop-color:#F26B7B"/>
		<stop  offset="1" style="stop-color:#EF454A"/>
	</linearGradient>
	<path class="st10" d="M39.8,73.4c0,1-0.8,1.8-1.8,1.8c-1,0-1.8-0.8-1.8-1.8c0-1,0.8-1.8,1.8-1.8C39,71.6,39.8,72.4,39.8,73.4z"/>
	<linearGradient id="SVGID_12_" gradientUnits="userSpaceOnUse" x1="142.4122" y1="87.4201" x2="239.4034" y2="87.4201">
		<stop  offset="0" style="stop-color:#F9BFC2"/>
		<stop  offset="1" style="stop-color:#F9BEC8"/>
	</linearGradient>
	<path class="st11" d="M224.1,135.9h-66.3c-8.5,0-15.3-6.9-15.3-15.3V54.3c0-8.5,6.9-15.3,15.3-15.3h66.3c8.5,0,15.3,6.9,15.3,15.3
		v66.3C239.4,129,232.5,135.9,224.1,135.9z"/>
	<linearGradient id="SVGID_13_" gradientUnits="userSpaceOnUse" x1="151.3234" y1="88.7204" x2="224.2498" y2="88.7204">
		<stop  offset="0" style="stop-color:#FBD4D8"/>
		<stop  offset="0.9988" style="stop-color:#FBD4DA"/>
	</linearGradient>
	<path class="st12" d="M208.9,105.3h-42.2c-8.5,0-15.3-6.9-15.3-15.3v-2.6c0-8.5,6.9-15.3,15.3-15.3h42.2c8.5,0,15.3,6.9,15.3,15.3
		V90C224.2,98.5,217.4,105.3,208.9,105.3z"/>
	<linearGradient id="SVGID_14_" gradientUnits="userSpaceOnUse" x1="151.3234" y1="56.8292" x2="169.974" y2="56.8292">
		<stop  offset="0" style="stop-color:#FBD4D8"/>
		<stop  offset="0.9988" style="stop-color:#FBD4DA"/>
	</linearGradient>
	<circle class="st13" cx="160.6" cy="56.8" r="9.3"/>
	<linearGradient id="SVGID_15_" gradientUnits="userSpaceOnUse" x1="174.3426" y1="54.6266" x2="201.8523" y2="54.6266">
		<stop  offset="0" style="stop-color:#FBD4D8"/>
		<stop  offset="0.9988" style="stop-color:#FBD4DA"/>
	</linearGradient>
	<path class="st14" d="M200.3,56.2h-24.4c-0.9,0-1.6-0.7-1.6-1.6v0c0-0.9,0.7-1.6,1.6-1.6h24.4c0.9,0,1.6,0.7,1.6,1.6v0
		C201.9,55.5,201.2,56.2,200.3,56.2z"/>
	<linearGradient id="SVGID_16_" gradientUnits="userSpaceOnUse" x1="189.0468" y1="114.1855" x2="222.081" y2="114.1855">
		<stop  offset="0" style="stop-color:#F26B7B"/>
		<stop  offset="1" style="stop-color:#EF454A"/>
	</linearGradient>
	<path class="st15" d="M219,117.3h-26.9c-1.7,0-3.1-1.4-3.1-3.1l0,0c0-1.7,1.4-3.1,3.1-3.1H219c1.7,0,3.1,1.4,3.1,3.1l0,0
		C222.1,115.9,220.7,117.3,219,117.3z"/>
	<linearGradient id="SVGID_17_" gradientUnits="userSpaceOnUse" x1="174.3426" y1="59.7822" x2="201.8523" y2="59.7822">
		<stop  offset="0" style="stop-color:#FBD4D8"/>
		<stop  offset="0.9988" style="stop-color:#FBD4DA"/>
	</linearGradient>
	<path class="st16" d="M201,60.6h-25.9c-0.5,0-0.8-0.4-0.8-0.8v0c0-0.5,0.4-0.8,0.8-0.8H201c0.5,0,0.8,0.4,0.8,0.8v0
		C201.9,60.2,201.5,60.6,201,60.6z"/>
	<g>
		<linearGradient id="SVGID_18_" gradientUnits="userSpaceOnUse" x1="159.068" y1="77.8455" x2="188.8535" y2="77.8455">
			<stop  offset="0" style="stop-color:#F9BFC2"/>
			<stop  offset="1" style="stop-color:#F9BEC8"/>
		</linearGradient>
		<path class="st17" d="M188.7,78h-29.4c-0.1,0-0.2-0.1-0.2-0.2c0-0.1,0.1-0.2,0.2-0.2h29.4c0.1,0,0.2,0.1,0.2,0.2
			C188.9,77.9,188.8,78,188.7,78z"/>
	</g>
	<g>
		<linearGradient id="SVGID_19_" gradientUnits="userSpaceOnUse" x1="159.068" y1="84.454" x2="199.6719" y2="84.454">
			<stop  offset="0" style="stop-color:#F9BFC2"/>
			<stop  offset="1" style="stop-color:#F9BEC8"/>
		</linearGradient>
		<path class="st18" d="M199.5,84.6h-40.3c-0.1,0-0.2-0.1-0.2-0.2s0.1-0.2,0.2-0.2h40.3c0.1,0,0.2,0.1,0.2,0.2
			S199.6,84.6,199.5,84.6z"/>
	</g>
	<g>
		<linearGradient id="SVGID_20_" gradientUnits="userSpaceOnUse" x1="159.068" y1="91.0623" x2="209.6192" y2="91.0623">
			<stop  offset="0" style="stop-color:#F9BFC2"/>
			<stop  offset="1" style="stop-color:#F9BEC8"/>
		</linearGradient>
		<path class="st19" d="M209.4,91.2h-50.2c-0.1,0-0.2-0.1-0.2-0.2c0-0.1,0.1-0.2,0.2-0.2h50.2c0.1,0,0.2,0.1,0.2,0.2
			C209.6,91.2,209.5,91.2,209.4,91.2z"/>
	</g>
	<g>
		<linearGradient id="SVGID_21_" gradientUnits="userSpaceOnUse" x1="159.068" y1="97.6708" x2="217.1267" y2="97.6708">
			<stop  offset="0" style="stop-color:#F9BFC2"/>
			<stop  offset="1" style="stop-color:#F9BEC8"/>
		</linearGradient>
		<path class="st20" d="M217,97.8h-57.7c-0.1,0-0.2-0.1-0.2-0.2c0-0.1,0.1-0.2,0.2-0.2H217c0.1,0,0.2,0.1,0.2,0.2
			C217.1,97.8,217,97.8,217,97.8z"/>
	</g>
	<linearGradient id="SVGID_22_" gradientUnits="userSpaceOnUse" x1="164.0238" y1="49.2912" x2="167.5985" y2="49.2912">
		<stop  offset="0" style="stop-color:#F26B7B"/>
		<stop  offset="1" style="stop-color:#EF454A"/>
	</linearGradient>
	<path class="st21" d="M167.6,49.3c0,1-0.8,1.8-1.8,1.8c-1,0-1.8-0.8-1.8-1.8c0-1,0.8-1.8,1.8-1.8C166.8,47.5,167.6,48.3,167.6,49.3
		z"/>
	<g>
		<g>
			<linearGradient id="SVGID_23_" gradientUnits="userSpaceOnUse" x1="170.5652" y1="32.4358" x2="172.1542" y2="32.4358">
				<stop  offset="0" style="stop-color:#F26B7B"/>
				<stop  offset="1" style="stop-color:#EF454A"/>
			</linearGradient>
			<path class="st22" d="M171.7,33.8c-0.2,0-0.4-0.1-0.4-0.3c0,0-0.2-0.6-0.6-1.7c-0.1-0.2,0-0.5,0.3-0.6c0.2-0.1,0.5,0,0.6,0.3
				c0.4,1.1,0.7,1.7,0.7,1.8c0.1,0.2-0.1,0.5-0.3,0.6C171.8,33.8,171.7,33.8,171.7,33.8z"/>
		</g>
		<g>
			<linearGradient id="SVGID_24_" gradientUnits="userSpaceOnUse" x1="66.1949" y1="25.513" x2="169.9542" y2="25.513">
				<stop  offset="0" style="stop-color:#F26B7B"/>
				<stop  offset="1" style="stop-color:#EF454A"/>
			</linearGradient>
			<path class="st23" d="M66.7,51C66.6,51,66.6,51,66.7,51c-0.3-0.1-0.5-0.3-0.5-0.6c0.2-1.2,0.5-2.5,0.8-3.7
				c0.1-0.3,0.3-0.4,0.6-0.3c0.3,0.1,0.4,0.3,0.3,0.6c-0.3,1.2-0.6,2.5-0.8,3.7C67.1,50.9,66.9,51,66.7,51z M68.5,43.7
				c0,0-0.1,0-0.1,0c-0.2-0.1-0.4-0.3-0.3-0.6c0.4-1.2,0.8-2.4,1.2-3.6c0.1-0.2,0.4-0.4,0.6-0.3c0.2,0.1,0.4,0.4,0.3,0.6
				c-0.4,1.2-0.8,2.4-1.2,3.6C68.8,43.6,68.7,43.7,68.5,43.7z M71,36.6c-0.1,0-0.1,0-0.2,0c-0.2-0.1-0.3-0.4-0.2-0.6
				c0.5-1.2,1-2.3,1.6-3.5c0.1-0.2,0.4-0.3,0.6-0.2c0.2,0.1,0.3,0.4,0.2,0.6c-0.5,1.1-1.1,2.3-1.6,3.4C71.4,36.5,71.2,36.6,71,36.6z
				 M74.3,29.8c-0.1,0-0.2,0-0.2-0.1c-0.2-0.1-0.3-0.4-0.2-0.6c0.6-1.1,1.3-2.2,2-3.2c0.1-0.2,0.4-0.3,0.6-0.1
				c0.2,0.1,0.3,0.4,0.1,0.6c-0.7,1-1.3,2.1-2,3.2C74.7,29.7,74.5,29.8,74.3,29.8z M169.5,28.6c-0.2,0-0.3-0.1-0.4-0.3
				c-0.5-1.1-1.1-2.2-1.8-3.3c-0.1-0.2,0-0.5,0.2-0.6c0.2-0.1,0.5,0,0.6,0.2c0.6,1.1,1.2,2.2,1.8,3.4c0.1,0.2,0,0.5-0.2,0.6
				C169.6,28.6,169.6,28.6,169.5,28.6z M78.5,23.5c-0.1,0-0.2,0-0.3-0.1C78,23.3,78,23,78.1,22.8c0.8-1,1.6-2,2.4-3
				c0.2-0.2,0.5-0.2,0.7,0c0.2,0.2,0.2,0.5,0,0.7c-0.8,0.9-1.6,1.9-2.3,2.9C78.8,23.4,78.6,23.5,78.5,23.5z M165.7,22
				c-0.2,0-0.3-0.1-0.4-0.2c-0.7-1.1-1.4-2.1-2.2-3.1c-0.2-0.2-0.1-0.5,0.1-0.7c0.2-0.2,0.5-0.1,0.7,0.1c0.8,1,1.5,2,2.2,3.1
				c0.1,0.2,0.1,0.5-0.1,0.6C165.9,22,165.8,22,165.7,22z M83.4,17.8c-0.1,0-0.2,0-0.3-0.1c-0.2-0.2-0.2-0.5,0-0.7
				c0.9-0.9,1.8-1.8,2.8-2.6c0.2-0.2,0.5-0.1,0.7,0c0.2,0.2,0.2,0.5,0,0.7c-0.9,0.8-1.8,1.7-2.7,2.6C83.6,17.8,83.5,17.8,83.4,17.8z
				 M161.2,16c-0.1,0-0.3-0.1-0.4-0.2c-0.8-0.9-1.7-1.9-2.6-2.7c-0.2-0.2-0.2-0.5,0-0.7c0.2-0.2,0.5-0.2,0.7,0
				c0.9,0.9,1.8,1.8,2.6,2.8c0.2,0.2,0.1,0.5,0,0.7C161.4,16,161.3,16,161.2,16z M89.1,12.8c-0.1,0-0.3-0.1-0.4-0.2
				c-0.2-0.2-0.1-0.5,0.1-0.7c1-0.8,2.1-1.5,3.1-2.2c0.2-0.1,0.5-0.1,0.6,0.1c0.1,0.2,0.1,0.5-0.1,0.6c-1,0.7-2.1,1.4-3.1,2.1
				C89.3,12.8,89.2,12.8,89.1,12.8z M155.8,10.7c-0.1,0-0.2,0-0.3-0.1c-1-0.8-1.9-1.6-3-2.3c-0.2-0.1-0.3-0.4-0.1-0.7
				c0.1-0.2,0.4-0.3,0.6-0.1c1,0.7,2,1.5,3,2.3c0.2,0.2,0.2,0.5,0.1,0.7C156.1,10.7,156,10.7,155.8,10.7z M95.4,8.7
				c-0.2,0-0.3-0.1-0.4-0.2c-0.1-0.2,0-0.5,0.2-0.6c1.1-0.6,2.2-1.2,3.4-1.7c0.2-0.1,0.5,0,0.6,0.2c0.1,0.2,0,0.5-0.2,0.6
				c-1.1,0.5-2.2,1.1-3.3,1.7C95.5,8.7,95.5,8.7,95.4,8.7z M149.7,6.4c-0.1,0-0.2,0-0.2-0.1c-1.1-0.6-2.2-1.2-3.3-1.7
				c-0.2-0.1-0.3-0.4-0.2-0.6c0.1-0.2,0.4-0.3,0.6-0.2c1.1,0.5,2.3,1.1,3.4,1.8c0.2,0.1,0.3,0.4,0.2,0.6
				C150,6.3,149.8,6.4,149.7,6.4z M102.2,5.5c-0.2,0-0.4-0.1-0.4-0.3c-0.1-0.2,0-0.5,0.3-0.6c1.2-0.5,2.4-0.9,3.6-1.3
				c0.2-0.1,0.5,0.1,0.6,0.3c0.1,0.2-0.1,0.5-0.3,0.6c-1.2,0.4-2.4,0.8-3.5,1.2C102.3,5.5,102.3,5.5,102.2,5.5z M109.4,3.2
				c-0.2,0-0.4-0.1-0.5-0.4c-0.1-0.2,0.1-0.5,0.3-0.6c1.2-0.3,2.4-0.6,3.7-0.8c0.3-0.1,0.5,0.1,0.5,0.4c0.1,0.3-0.1,0.5-0.4,0.5
				c-1.2,0.2-2.5,0.5-3.6,0.8C109.4,3.2,109.4,3.2,109.4,3.2z M142.8,3.2c-0.1,0-0.1,0-0.2,0c-1.2-0.4-2.4-0.8-3.6-1.1
				c-0.2-0.1-0.4-0.3-0.3-0.6c0.1-0.3,0.3-0.4,0.6-0.3c1.2,0.3,2.5,0.7,3.7,1.1c0.2,0.1,0.4,0.4,0.3,0.6
				C143.2,3.1,143,3.2,142.8,3.2z M116.8,1.8c-0.2,0-0.4-0.2-0.5-0.4c0-0.3,0.1-0.5,0.4-0.5c1.2-0.2,2.5-0.3,3.8-0.5
				c0.3,0,0.5,0.2,0.5,0.4c0,0.3-0.2,0.5-0.4,0.5C119.3,1.4,118,1.6,116.8,1.8C116.8,1.8,116.8,1.8,116.8,1.8z M135.5,1.4
				C135.5,1.4,135.5,1.4,135.5,1.4c-1.3-0.2-2.5-0.3-3.8-0.4c-0.3,0-0.5-0.2-0.4-0.5c0-0.3,0.2-0.5,0.5-0.4c1.3,0.1,2.5,0.2,3.8,0.4
				c0.3,0,0.4,0.3,0.4,0.5C136,1.3,135.8,1.4,135.5,1.4z M124.3,1c-0.2,0-0.5-0.2-0.5-0.4c0-0.3,0.2-0.5,0.4-0.5
				c1.2-0.1,2.5-0.1,3.8-0.1c0.3,0,0.5,0.2,0.5,0.5c0,0.3-0.2,0.5-0.5,0.5C126.8,0.9,125.5,1,124.3,1C124.3,1,124.3,1,124.3,1z"/>
		</g>
		<g>
			<linearGradient id="SVGID_25_" gradientUnits="userSpaceOnUse" x1="65.4216" y1="55.2661" x2="66.5364" y2="55.2661">
				<stop  offset="0" style="stop-color:#F26B7B"/>
				<stop  offset="1" style="stop-color:#EF454A"/>
			</linearGradient>
			<path class="st24" d="M65.9,56.7C65.9,56.7,65.9,56.7,65.9,56.7c-0.3,0-0.5-0.2-0.5-0.5c0,0,0-0.7,0.2-1.9c0-0.3,0.3-0.4,0.5-0.4
				c0.3,0,0.4,0.3,0.4,0.5c-0.1,1.2-0.2,1.8-0.2,1.8C66.3,56.5,66.1,56.7,65.9,56.7z"/>
		</g>
	</g>
	<linearGradient id="SVGID_26_" gradientUnits="userSpaceOnUse" x1="151.6641" y1="241.4174" x2="166.7395" y2="241.4174">
		<stop  offset="2.483970e-03" style="stop-color:#1A2854"/>
		<stop  offset="1" style="stop-color:#252F6A"/>
	</linearGradient>
	<path class="st25" d="M153.2,237.3c0,0-0.5,4.8-0.9,9.4c-0.2,1.7-0.3,3.1-0.5,4.2c-0.4,2.6,1.4,4.9,4,5.1c0.5,0,1,0,1.5,0
		c1.3-0.1,2.3-0.3,3.1-0.5c1.7-0.5,2.9-2,3-3.7c0.1-2.3,0.4-5.8,0.9-7.7c0.8-2.9,3-11.7,2.3-14.2c-0.7-2.5-9.6-3.1-9.6-3.1l-1.7,2.9
		L153.2,237.3z"/>
	<linearGradient id="SVGID_27_" gradientUnits="userSpaceOnUse" x1="149.7582" y1="233.5232" x2="159.1756" y2="233.5232">
		<stop  offset="0" style="stop-color:#FDE9EC"/>
		<stop  offset="1" style="stop-color:#FDE9E9"/>
	</linearGradient>
	<path class="st26" d="M150.1,236l4,1.8c0,0,3.7-0.1,4.7-3.2c0.9-2.8-0.2-4.1-0.2-4.1l-4.8-1.2l-4.1,0.6L150.1,236z"/>
	<linearGradient id="SVGID_28_" gradientUnits="userSpaceOnUse" x1="107.5028" y1="269.5274" x2="119.6257" y2="269.5274">
		<stop  offset="0" style="stop-color:#FDE9EC"/>
		<stop  offset="1" style="stop-color:#FDE9E9"/>
	</linearGradient>
	<path class="st27" d="M108.6,266.6l-1.1,7.5c0,0,0.9,2.2,4.9,2c4-0.2,5.4-1.7,5.4-1.7l1.9-10.4l-6.5-1L108.6,266.6z"/>
	<linearGradient id="SVGID_29_" gradientUnits="userSpaceOnUse" x1="102.1201" y1="278.9834" x2="122.5722" y2="278.9834">
		<stop  offset="2.483970e-03" style="stop-color:#1A2854"/>
		<stop  offset="1" style="stop-color:#252F6A"/>
	</linearGradient>
	<path class="st28" d="M117.2,285.1c0,0,1.9-1.6,3.6-3.1c0.6-0.5,1.1-1,1.4-1.3c0.5-0.5,0.6-1.3,0.2-1.8c-0.4-0.6-0.9-1.6-1.3-2.7
		c-0.7-2.1-3.1-3.2-3.1-3.2l-10.5,1.2c0,0-2,1.9-3.8,2.6c-1.8,0.7-1.6,3.4-1.5,3.3c0.1,0,7.5,3.4,7.5,3.4L117.2,285.1z"/>
	<linearGradient id="SVGID_30_" gradientUnits="userSpaceOnUse" x1="108.1976" y1="141.2189" x2="170.874" y2="141.2189">
		<stop  offset="0" style="stop-color:#FAA31D"/>
		<stop  offset="1" style="stop-color:#FBAE56"/>
	</linearGradient>
	<path class="st29" d="M170.8,118.8c-0.2,7.4-0.5,15.7-1.4,23.6c-2.4,22.3-10.2,43.4-10.2,43.4h-51l15.4-76.7v0l2.5-12.4h44.5
		C170.6,96.6,171.1,106.3,170.8,118.8z"/>
	<linearGradient id="SVGID_31_" gradientUnits="userSpaceOnUse" x1="114.3349" y1="147.4846" x2="160.9566" y2="147.4846">
		<stop  offset="0" style="stop-color:#FFC96C"/>
		<stop  offset="4.328030e-02" style="stop-color:#FEC469"/>
		<stop  offset="0.1919" style="stop-color:#FCB661"/>
		<stop  offset="0.3653" style="stop-color:#FAAB5C"/>
		<stop  offset="0.5846" style="stop-color:#F9A659"/>
		<stop  offset="1" style="stop-color:#F9A458"/>
	</linearGradient>
	<path class="st30" d="M160.9,122c0,0,1.5,35.2-9.5,51.4c-8.4,12.3-21.2-2.6-21.2-2.6l-15.9-24.2l5.3-20.4l14.4-9.4L160.9,122z"/>
	<linearGradient id="SVGID_32_" gradientUnits="userSpaceOnUse" x1="152.9638" y1="109.2983" x2="170.874" y2="109.2983">
		<stop  offset="0" style="stop-color:#FFC96C"/>
		<stop  offset="4.328030e-02" style="stop-color:#FEC469"/>
		<stop  offset="0.1919" style="stop-color:#FCB661"/>
		<stop  offset="0.3653" style="stop-color:#FAAB5C"/>
		<stop  offset="0.5846" style="stop-color:#F9A659"/>
		<stop  offset="1" style="stop-color:#F9A458"/>
	</linearGradient>
	<path class="st31" d="M170.8,118.8c-4.5,2.6-9.9,3.1-9.9,3.1l0,0l-7.9-8.3v-8.4l4.1-8.6h13.6C170.6,96.6,171.1,106.3,170.8,118.8z"
		/>
	<linearGradient id="SVGID_33_" gradientUnits="userSpaceOnUse" x1="144.5779" y1="98.5841" x2="143.6644" y2="121.9206">
		<stop  offset="0" style="stop-color:#FFC96C"/>
		<stop  offset="1" style="stop-color:#F9A458"/>
	</linearGradient>
	<path class="st32" d="M165.4,98.8c-0.1,1.8,0.6,1.6,0.2,2.9c-0.8,2.4-7.2,7.7-7.2,11.3c0,3.5,2.3,8.6,2.5,8.9l0,0h-23.5
		c0,0-11.1-0.5-11.6-1.2c-0.3-0.4-1.2-6.2-2.1-11.7v0c-0.8-5-1.5-9.7-1.5-9.7l4-2.7h40.9C167.1,96.6,165.5,97.7,165.4,98.8z"/>
	<linearGradient id="SVGID_34_" gradientUnits="userSpaceOnUse" x1="100.2237" y1="150.465" x2="146.9023" y2="150.465">
		<stop  offset="2.483970e-03" style="stop-color:#1A2854"/>
		<stop  offset="1" style="stop-color:#252F6A"/>
	</linearGradient>
	<path class="st33" d="M127.3,117.4l6.9,3.4c2.2,1.1,7.6,2.3,7.9,4.8l4.8,58h-46.6c0,0-0.8-11.7,4.7-26.8c1.1-3.2,0-24.5,3.2-31.3
		C111.5,118.5,127.3,117.4,127.3,117.4z"/>
	<linearGradient id="SVGID_35_" gradientUnits="userSpaceOnUse" x1="122.1319" y1="171.6085" x2="140.1706" y2="171.6085">
		<stop  offset="0" style="stop-color:#252F6A"/>
		<stop  offset="0.9975" style="stop-color:#1A2854"/>
	</linearGradient>
	<path class="st34" d="M122.1,171.2c0,0,3.2,4.8,7.6,6c4.4,1.2,9.8-0.7,9.8-0.7l0.6-5.3l-3.5-3.7l-4.2-1.8l-7.8,4L122.1,171.2z"/>
	<linearGradient id="SVGID_36_" gradientUnits="userSpaceOnUse" x1="90.0179" y1="138.3691" x2="110.5336" y2="138.3691">
		<stop  offset="2.483970e-03" style="stop-color:#1A2854"/>
		<stop  offset="1" style="stop-color:#252F6A"/>
	</linearGradient>
	<path class="st35" d="M107.2,122.6c0,0-9.8,3.2-10.5,9.1c-0.7,5.9,1.4,11.3-0.9,14.4s-5.8,6.8-5.8,6.8l6,3.1l12-3.8l-0.5-18.1
		l1.2-5.9l1.7-3.9l-1.7-3.4L107.2,122.6z"/>
	<linearGradient id="SVGID_37_" gradientUnits="userSpaceOnUse" x1="99.0731" y1="109.143" x2="108.1976" y2="109.143">
		<stop  offset="0" style="stop-color:#F26B7B"/>
		<stop  offset="1" style="stop-color:#EF454A"/>
	</linearGradient>
	<path class="st36" d="M108.2,109.1c0,4.2-2,7.6-4.6,7.6c-2.5,0-4.6-3.4-4.6-7.6c0-4.2,2-7.6,4.6-7.6
		C106.2,101.6,108.2,105,108.2,109.1z"/>
	<linearGradient id="SVGID_38_" gradientUnits="userSpaceOnUse" x1="102.1279" y1="113.0592" x2="119.619" y2="113.0592">
		<stop  offset="0" style="stop-color:#FDE9EC"/>
		<stop  offset="1" style="stop-color:#FDE9E9"/>
	</linearGradient>
	<path class="st37" d="M102.3,105.2c0,0-0.9,4.4,1.3,10.6c2.7,7.8,7,9.8,7,9.8s6.9-3.6,8.3-8c1.5-4.4,0.2-6.7,0.2-6.7l-0.6-4.8
		l-2.4-3.9c0,0-6.7-1.5-6.9-1.5c-0.2-0.1-3.8,0.6-3.8,0.6L102.3,105.2z"/>
	<linearGradient id="SVGID_39_" gradientUnits="userSpaceOnUse" x1="97.5235" y1="102.7706" x2="130.3141" y2="102.7706">
		<stop  offset="1.241990e-03" style="stop-color:#0F163F"/>
		<stop  offset="1" style="stop-color:#101128"/>
	</linearGradient>
	<path class="st38" d="M125.6,114.2c-2.5,1.4-3.7,1.1-7.2-1.2c-3.5-2.3,0.9-4.8-1.8-7.9c-2.7-3-4.9,0.5-12.3,0.9
		c-7.4,0.5-6.8-9.5-6.8-9.5s3.3,1.8,6.1,1.2c0,0,0,0,0,0c1-0.2,2-0.7,2.7-1.7c0.3-0.4,0.6-0.8,1-1.2c4.3-5,9.4-5.1,13.8-3.3
		c5.5,2.3,5.7,8,5.7,8s2.8,0.5,3.4,5.1C130.8,109.7,128.1,112.8,125.6,114.2z"/>
	<linearGradient id="SVGID_40_" gradientUnits="userSpaceOnUse" x1="110.2227" y1="160.3953" x2="119.0693" y2="160.3953">
		<stop  offset="0" style="stop-color:#F9BFC2"/>
		<stop  offset="1" style="stop-color:#F9BEC8"/>
	</linearGradient>
	<path class="st39" d="M115.8,142.9c0,0,0.2,12.8-1.4,19c-1.6,6.2-4.1,10.2-4.1,10.2l2.3,6.1l5.3-5c0,0,0.7-6.5,1.1-12.6
		c0.4-6.1-0.1-17.1-0.1-17.1l-0.6-0.9L115.8,142.9z"/>
	<linearGradient id="SVGID_41_" gradientUnits="userSpaceOnUse" x1="115.5157" y1="141.2828" x2="119.456" y2="141.2828">
		<stop  offset="0" style="stop-color:#F26B7B"/>
		<stop  offset="1" style="stop-color:#EF454A"/>
	</linearGradient>
	<path class="st40" d="M115.9,139.5c0,0-0.8,1.8-0.1,3.4c0.1,0.2,0.2,0.4,0.3,0.6c0.4,0.7,1.3,0.9,2,0.5c0.5-0.3,0.9-0.7,1.1-1.3
		c0.4-1.3,0.1-2.9,0.1-2.9l-1.5-1.5L115.9,139.5z"/>
	<linearGradient id="SVGID_42_" gradientUnits="userSpaceOnUse" x1="109.2272" y1="133.3951" x2="118.1104" y2="133.3951">
		<stop  offset="0" style="stop-color:#F9BEC8"/>
		<stop  offset="1" style="stop-color:#FBD3D5"/>
	</linearGradient>
	<path class="st41" d="M112.5,125.4c0,0-2.2,2-3.1,8c-0.8,6,0.8,8,0.8,8s1.7-1.2,3.9-1.7c2-0.5,3.6,0.2,3.6,0.2l0.3-9.8L112.5,125.4
		z"/>
	<linearGradient id="SVGID_43_" gradientUnits="userSpaceOnUse" x1="117.819" y1="132.6152" x2="131.3414" y2="132.6152">
		<stop  offset="0" style="stop-color:#F9BEC8"/>
		<stop  offset="1" style="stop-color:#FBD3D5"/>
	</linearGradient>
	<path class="st42" d="M128.1,120.5c0,0,2.9,5.8,3.2,11.8c0.3,6.1-1,12.5-1,12.5s-1.7-2.4-4.7-3.8c-2.9-1.4-7.8-1.1-7.8-1.1
		L128.1,120.5z"/>
	<linearGradient id="SVGID_44_" gradientUnits="userSpaceOnUse" x1="109.7176" y1="125.0054" x2="128.0982" y2="125.0054">
		<stop  offset="0" style="stop-color:#FDE9EC"/>
		<stop  offset="1" style="stop-color:#FDE9E9"/>
	</linearGradient>
	<path class="st43" d="M112.3,124.5c0,0,1.4,3.6,0.7,7.8c-0.7,4,4.9,7.6,4.9,7.6s7.1-1,8.4-9.6c1.3-8.6,2.4-8,1.6-11
		c-0.8-3-2.1-5-1.6-7.5c0.5-2.5-5.5-1.3-5.5-1.3l-7.4,1.6l-3.6,2.7L112.3,124.5z"/>
	<linearGradient id="SVGID_45_" gradientUnits="userSpaceOnUse" x1="123.0297" y1="172.2083" x2="137.4696" y2="172.2083">
		<stop  offset="0" style="stop-color:#FDE9E9"/>
		<stop  offset="1" style="stop-color:#F9BEC8"/>
	</linearGradient>
	<path class="st44" d="M125.6,169.7c0,0-1.1,0.4-1.3,1.7c-0.1,1.2-1.3,1.7-1.3,1.7l3.9,1.4l7.6,2.8c0,0,0.9-0.7,0.6-2.4
		c-0.3-1.7,2.3-2.6,2.3-2.6s-1-3.1-1-3.2c-0.1-0.1-5.8-2-5.8-2L125.6,169.7z"/>
	<linearGradient id="SVGID_46_" gradientUnits="userSpaceOnUse" x1="103.6841" y1="99.3311" x2="120.8707" y2="99.3311">
		<stop  offset="0" style="stop-color:#F26B7B"/>
		<stop  offset="1" style="stop-color:#EF454A"/>
	</linearGradient>
	<path class="st45" d="M120.9,103.9l-3.3-0.3c0,0-2-4.9-5.9-5.6c-3.8-0.7-7.6-0.2-7.9-0.2c1-0.2,2-0.7,2.7-1.7
		c0.3-0.4,0.6-0.8,1-1.2c0,0,3.4-0.4,6.6,0.8c3.2,1.2,6.5,6.2,6.5,6.2L120.9,103.9z"/>
	<linearGradient id="SVGID_47_" gradientUnits="userSpaceOnUse" x1="104.3556" y1="244.774" x2="132.3315" y2="244.774">
		<stop  offset="2.483970e-03" style="stop-color:#1A2854"/>
		<stop  offset="1" style="stop-color:#252F6A"/>
	</linearGradient>
	<path class="st46" d="M112.6,231c0,0-1.5,10.6-4,19c-2.4,8.4-4.3,15.3-4.3,15.3s3.1,2.1,10.1,1.5c7-0.6,11.8-2.3,11.8-2.3
		s0-8,1.9-12.6c1.9-4.5,4.2-24.1,4.2-24.1l-11.8-5.1L112.6,231z"/>
	<linearGradient id="SVGID_48_" gradientUnits="userSpaceOnUse" x1="134.3131" y1="233.0371" x2="154.1294" y2="233.0371">
		<stop  offset="2.483970e-03" style="stop-color:#1A2854"/>
		<stop  offset="1" style="stop-color:#252F6A"/>
	</linearGradient>
	<path class="st47" d="M134.3,231.6c0,0,4,1.6,6.8,4.1c2.9,2.5,3.3,3.2,3.3,3.2s4.7-1.4,6.5-3.7c1.9-2.3,3.2-6.7,3.2-6.7l-10.7-1.3
		l-4.8,0.6L134.3,231.6z"/>
	<linearGradient id="SVGID_49_" gradientUnits="userSpaceOnUse" x1="115.896" y1="109.3979" x2="125.0206" y2="109.3979">
		<stop  offset="0" style="stop-color:#F26B7B"/>
		<stop  offset="1" style="stop-color:#EF454A"/>
	</linearGradient>
	<ellipse class="st48" cx="120.5" cy="109.4" rx="4.6" ry="7.6"/>
	<linearGradient id="SVGID_50_" gradientUnits="userSpaceOnUse" x1="119.0717" y1="109.143" x2="125.7709" y2="109.143">
		<stop  offset="0" style="stop-color:#F7A9AD"/>
		<stop  offset="1" style="stop-color:#F59397"/>
	</linearGradient>
	<path class="st49" d="M125.8,109.1c0,3.1-1.5,5.6-3.3,5.6c-1.8,0-3.3-2.5-3.3-5.6c0-3.1,1.5-5.6,3.3-5.6
		C124.3,103.6,125.8,106.1,125.8,109.1z"/>
	<linearGradient id="SVGID_51_" gradientUnits="userSpaceOnUse" x1="123.0132" y1="109.143" x2="126.1472" y2="109.143">
		<stop  offset="0" style="stop-color:#F26B7B"/>
		<stop  offset="1" style="stop-color:#EF454A"/>
	</linearGradient>
	<path class="st50" d="M126.1,109.1c0,1.4-0.7,2.6-1.6,2.6c-0.9,0-1.6-1.2-1.6-2.6c0-1.4,0.7-2.6,1.6-2.6
		C125.4,106.5,126.1,107.7,126.1,109.1z"/>
	<g>
		<linearGradient id="SVGID_52_" gradientUnits="userSpaceOnUse" x1="109.3387" y1="115.3048" x2="119.3275" y2="115.3048">
			<stop  offset="0" style="stop-color:#EF454A"/>
			<stop  offset="1" style="stop-color:#F26B7B"/>
		</linearGradient>
		<path class="st51" d="M118.5,118.5h-8.9c-0.1,0-0.2-0.1-0.2-0.2s0.1-0.2,0.2-0.2h8.9c0,0,0.1,0,0.2-0.1c0.5-0.6,0-3.7-0.4-5.5
			c0-0.1,0-0.3,0.2-0.3c0.1,0,0.3,0,0.3,0.2c0.1,0.5,1.1,4.9,0.3,5.9C118.9,118.4,118.7,118.5,118.5,118.5z"/>
	</g>
	<linearGradient id="SVGID_53_" gradientUnits="userSpaceOnUse" x1="106.7288" y1="118.2879" x2="109.8901" y2="118.2879">
		<stop  offset="0" style="stop-color:#F26B7B"/>
		<stop  offset="1" style="stop-color:#EF454A"/>
	</linearGradient>
	<path class="st52" d="M109.9,119.6H107c-0.2,0-0.3-0.6-0.3-1.3c0-0.7,0.1-1.3,0.3-1.3h2.9c-0.1,0-0.3,0.6-0.3,1.3
		C109.6,119,109.7,119.6,109.9,119.6z"/>
	<linearGradient id="SVGID_54_" gradientUnits="userSpaceOnUse" x1="109.615" y1="118.2879" x2="110.1699" y2="118.2879">
		<stop  offset="0" style="stop-color:#F26B7B"/>
		<stop  offset="1" style="stop-color:#EF454A"/>
	</linearGradient>
	<path class="st53" d="M110.2,118.3c0,0.7-0.1,1.3-0.3,1.3c-0.1,0-0.3-0.6-0.3-1.3c0-0.7,0.1-1.3,0.3-1.3
		C110,117,110.2,117.6,110.2,118.3z"/>
	<linearGradient id="SVGID_55_" gradientUnits="userSpaceOnUse" x1="122.1319" y1="148.627" x2="156.0508" y2="148.627">
		<stop  offset="2.483970e-03" style="stop-color:#1A2854"/>
		<stop  offset="1" style="stop-color:#252F6A"/>
	</linearGradient>
	<path class="st54" d="M134.2,120.8c0,0,17.2,5.8,19,11.2c1.9,5.4,5.4,24,0,30.7c-5.4,6.7-13.6,13.8-13.6,13.8s-1-6.3-8.2-7.3
		c-4.7-0.6-9.2,2-9.2,2s19.6-13.4,19.1-17.9C140.7,148.8,134.2,120.8,134.2,120.8z"/>
	<linearGradient id="SVGID_56_" gradientUnits="userSpaceOnUse" x1="117.6339" y1="175.7405" x2="135.2083" y2="175.7405">
		<stop  offset="0" style="stop-color:#FDE9EC"/>
		<stop  offset="1" style="stop-color:#FDE9E9"/>
	</linearGradient>
	<path class="st55" d="M135.2,178.4c0,0-1.8,0.1-5.8,0.1s-4.9-0.9-6.6-0.9c-1.7-0.1-2.1,1.9-3.6,1.8c-1.1,0-1.9-0.9-1.5-1.8
		c0.1-0.4,0.5-0.7,1-1c0.2-0.1,0.5-0.3,0.7-0.5c1.6-1.4,3.4-3.7,7.7-3.8C132.1,172,135.2,178.4,135.2,178.4z"/>
	<linearGradient id="SVGID_57_" gradientUnits="userSpaceOnUse" x1="117.7327" y1="176.7738" x2="121.3136" y2="176.7738">
		<stop  offset="0" style="stop-color:#F9BEC8"/>
		<stop  offset="1" style="stop-color:#FBD3D5"/>
	</linearGradient>
	<path class="st56" d="M121.3,176.7c0,0-0.9,1.2-1.8,0.8c-0.9-0.4-1.8,0-1.8,0c0.1-0.4,0.5-0.7,1-1c0.2-0.1,0.5-0.3,0.7-0.5
		C120.7,175.8,121.3,176.7,121.3,176.7z"/>
	<linearGradient id="SVGID_58_" gradientUnits="userSpaceOnUse" x1="98.2941" y1="281.3037" x2="117.1778" y2="281.3037">
		<stop  offset="0" style="stop-color:#252F6A"/>
		<stop  offset="0.9975" style="stop-color:#1A2854"/>
	</linearGradient>
	<path class="st57" d="M117.2,285.1c0,0-1.3-9-9.7-9c-9.2,0-9.2,9.3-9.2,9.3s4,1,9.4,1.2C113.2,286.6,117.2,285.1,117.2,285.1z"/>
	<linearGradient id="SVGID_59_" gradientUnits="userSpaceOnUse" x1="7.1779" y1="186.8865" x2="249.6362" y2="186.8865">
		<stop  offset="0" style="stop-color:#F9BEC8"/>
		<stop  offset="1" style="stop-color:#FBD3D5"/>
	</linearGradient>
	<path class="st58" d="M246.4,190.2H10.4c-1.8,0-3.3-1.5-3.3-3.3l0,0c0-1.8,1.5-3.3,3.3-3.3h235.9c1.8,0,3.3,1.5,3.3,3.3v0
		C249.6,188.7,248.2,190.2,246.4,190.2z"/>
	<linearGradient id="SVGID_60_" gradientUnits="userSpaceOnUse" x1="15.5707" y1="210.666" x2="241.2435" y2="210.666">
		<stop  offset="0" style="stop-color:#F26B7B"/>
		<stop  offset="1" style="stop-color:#EF454A"/>
	</linearGradient>
	<polygon class="st59" points="15.6,190.2 43.2,231.2 215.8,231.2 241.2,190.2 	"/>
	<linearGradient id="SVGID_61_" gradientUnits="userSpaceOnUse" x1="34.2214" y1="259.7794" x2="56.3301" y2="259.7794">
		<stop  offset="0" style="stop-color:#F26B7B"/>
		<stop  offset="1" style="stop-color:#EF454A"/>
	</linearGradient>
	<polygon class="st60" points="52.9,231.2 34.2,288.4 37.6,288.4 56.3,231.2 	"/>
	<linearGradient id="SVGID_62_" gradientUnits="userSpaceOnUse" x1="27.7131" y1="294.1885" x2="42.183" y2="294.1885">
		<stop  offset="0" style="stop-color:#F9BEC8"/>
		<stop  offset="1" style="stop-color:#FBD3D5"/>
	</linearGradient>
	<path class="st61" d="M34.2,288.4l-6.5,9.4c0,0,1.7,2.5,7.5,2.1c5.9-0.4,7-1.8,7-1.8l-4.6-9.8H34.2z"/>
	<linearGradient id="SVGID_63_" gradientUnits="userSpaceOnUse" x1="203.499" y1="259.7794" x2="225.6078" y2="259.7794">
		<stop  offset="0" style="stop-color:#F26B7B"/>
		<stop  offset="1" style="stop-color:#EF454A"/>
	</linearGradient>
	<polygon class="st62" points="207,231.2 225.6,288.4 222.3,288.4 203.5,231.2 	"/>
	<linearGradient id="SVGID_64_" gradientUnits="userSpaceOnUse" x1="217.6461" y1="294.1885" x2="232.1161" y2="294.1885">
		<stop  offset="0" style="stop-color:#F9BEC8"/>
		<stop  offset="1" style="stop-color:#FBD3D5"/>
	</linearGradient>
	<path class="st63" d="M225.6,288.4l6.5,9.4c0,0-1.7,2.5-7.5,2.1c-5.9-0.4-7-1.8-7-1.8l4.6-9.8H225.6z"/>
	<linearGradient id="SVGID_65_" gradientUnits="userSpaceOnUse" x1="50.0744" y1="166.6816" x2="113.1989" y2="166.6816">
		<stop  offset="0" style="stop-color:#FAA31D"/>
		<stop  offset="1" style="stop-color:#FBAE56"/>
	</linearGradient>
	<polygon class="st64" points="50.1,149.7 100.3,149.7 113.2,183.6 61.7,183.6 	"/>
	<linearGradient id="SVGID_66_" gradientUnits="userSpaceOnUse" x1="100.2757" y1="166.6816" x2="115.507" y2="166.6816">
		<stop  offset="0" style="stop-color:#FBAE56"/>
		<stop  offset="1" style="stop-color:#FAA31D"/>
	</linearGradient>
	<polygon class="st65" points="100.3,149.7 102.3,149.7 115.5,183.6 113.2,183.6 	"/>
	<linearGradient id="SVGID_67_" gradientUnits="userSpaceOnUse" x1="111.406" y1="181.2722" x2="137.6457" y2="181.2722">
		<stop  offset="0" style="stop-color:#FAA31D"/>
		<stop  offset="1" style="stop-color:#FBAE56"/>
	</linearGradient>
	<path class="st66" d="M111.4,178.9h25.3c0.5,0,0.9,0.4,0.9,0.9v3.8h-24.4L111.4,178.9z"/>
	<linearGradient id="SVGID_68_" gradientUnits="userSpaceOnUse" x1="161.6347" y1="175.9953" x2="174.1725" y2="175.9953">
		<stop  offset="0" style="stop-color:#F26B7B"/>
		<stop  offset="1" style="stop-color:#EF454A"/>
	</linearGradient>
	<path class="st67" d="M174.2,169.6v14h-12.5v-14c0,0,2.5-1.2,6.3-1.2C171.6,168.4,174.2,169.6,174.2,169.6z"/>
	<linearGradient id="SVGID_69_" gradientUnits="userSpaceOnUse" x1="174.1725" y1="175.7388" x2="179.6092" y2="175.7388">
		<stop  offset="0" style="stop-color:#F26B7B"/>
		<stop  offset="1" style="stop-color:#EF454A"/>
	</linearGradient>
	<path class="st68" d="M179.6,175.7c0,2.4-2,4.4-4.4,4.4c-0.4,0-0.7,0-1-0.1v-1.9c0.3,0.1,0.7,0.2,1,0.2c1.4,0,2.6-1.1,2.6-2.6
		c0-1.4-1.1-2.6-2.6-2.6c-0.4,0-0.7,0.1-1,0.2v-1.9c0.3-0.1,0.7-0.1,1-0.1C177.6,171.3,179.6,173.3,179.6,175.7z"/>
	<linearGradient id="SVGID_70_" gradientUnits="userSpaceOnUse" x1="165.4586" y1="176.1672" x2="169.2926" y2="176.1672">
		<stop  offset="2.483970e-03" style="stop-color:#1A2854"/>
		<stop  offset="1" style="stop-color:#252F6A"/>
	</linearGradient>
	<path class="st69" d="M168.6,177.1c-0.8,1.1-2,1.5-2.7,1c-0.7-0.5-0.6-1.8,0.2-2.9c0.8-1.1,2-1.5,2.7-1
		C169.5,174.7,169.4,176,168.6,177.1z"/>
	<linearGradient id="SVGID_71_" gradientUnits="userSpaceOnUse" x1="216.4983" y1="181.8842" x2="217.3143" y2="181.8842">
		<stop  offset="2.483970e-03" style="stop-color:#1A2854"/>
		<stop  offset="1" style="stop-color:#252F6A"/>
	</linearGradient>
	<path class="st70" d="M217.3,180.1v3.5c0,0-0.8,0-0.8-1.7C216.5,180.4,217.3,180.1,217.3,180.1z"/>
	<linearGradient id="SVGID_72_" gradientUnits="userSpaceOnUse" x1="184.6337" y1="181.8842" x2="217.3143" y2="181.8842">
		<stop  offset="2.483970e-03" style="stop-color:#1A2854"/>
		<stop  offset="1" style="stop-color:#252F6A"/>
	</linearGradient>
	<path class="st71" d="M217.3,183.6h-31.9c0,0-0.8-0.3-0.8-1.7c0-1.4,0.8-1.7,0.8-1.7h31.9c0,0-0.8,0.2-0.8,1.7
		C216.5,183.6,217.3,183.6,217.3,183.6z"/>
	<linearGradient id="SVGID_73_" gradientUnits="userSpaceOnUse" x1="232.1737" y1="181.842" x2="233.4707" y2="181.842">
		<stop  offset="0" style="stop-color:#FAA31D"/>
		<stop  offset="1" style="stop-color:#FBAE56"/>
	</linearGradient>
	<path class="st72" d="M233.5,180.2l-0.8,3.4c0,0-0.8-0.2-0.4-1.9C232.6,180.2,233.5,180.2,233.5,180.2z"/>
	<linearGradient id="SVGID_74_" gradientUnits="userSpaceOnUse" x1="201.1579" y1="178.2383" x2="233.4707" y2="178.2383">
		<stop  offset="0" style="stop-color:#FAA31D"/>
		<stop  offset="1" style="stop-color:#FBAE56"/>
	</linearGradient>
	<path class="st73" d="M232.7,183.5l-31-7.2c0,0-0.7-0.4-0.4-1.9c0.3-1.3,1.2-1.5,1.2-1.5l31,7.2c0,0-0.8,0-1.2,1.5
		C231.9,183.3,232.7,183.5,232.7,183.5z"/>
	<linearGradient id="SVGID_75_" gradientUnits="userSpaceOnUse" x1="9.974" y1="143.7553" x2="39.815" y2="143.7553">
		<stop  offset="0" style="stop-color:#FAA31D"/>
		<stop  offset="1" style="stop-color:#FBAE56"/>
	</linearGradient>
	<path class="st74" d="M10,103.9v79.7h29.8v-79.7H10z M36.9,180.9H12.8v-74.5h24.1V180.9z"/>
	<linearGradient id="SVGID_76_" gradientUnits="userSpaceOnUse" x1="12.8422" y1="144.2096" x2="36.8947" y2="144.2096">
		<stop  offset="0" style="stop-color:#FAA31D"/>
		<stop  offset="1" style="stop-color:#FBAE56"/>
	</linearGradient>
	<rect x="12.8" y="142.7" class="st75" width="24.1" height="3"/>
	<linearGradient id="SVGID_77_" gradientUnits="userSpaceOnUse" x1="4.2055" y1="102.2379" x2="45.5866" y2="102.2379">
		<stop  offset="0" style="stop-color:#FAA31D"/>
		<stop  offset="1" style="stop-color:#FBAE56"/>
	</linearGradient>
	<path class="st76" d="M44,103.9H5.8c-0.9,0-1.6-0.7-1.6-1.6v0c0-0.9,0.7-1.6,1.6-1.6H44c0.9,0,1.6,0.7,1.6,1.6v0
		C45.6,103.2,44.9,103.9,44,103.9z"/>
	<linearGradient id="SVGID_78_" gradientUnits="userSpaceOnUse" x1="14.9667" y1="124.5454" x2="33.3444" y2="124.5454">
		<stop  offset="0" style="stop-color:#F26B7B"/>
		<stop  offset="1" style="stop-color:#EF454A"/>
	</linearGradient>
	<path class="st77" d="M29.3,106.4L15,140.3c-0.2,0.5,0,1,0.5,1.1l3.7,1.3l14-33.9c0.2-0.4,0-1-0.5-1.1L29.3,106.4z"/>
	<linearGradient id="SVGID_79_" gradientUnits="userSpaceOnUse" x1="20.834" y1="126.8334" x2="36.8947" y2="126.8334">
		<stop  offset="2.483970e-03" style="stop-color:#1A2854"/>
		<stop  offset="1" style="stop-color:#252F6A"/>
	</linearGradient>
	<path class="st78" d="M33.3,111l-12.5,29.6c-0.2,0.4,0,0.9,0.4,1l3.2,1.1l12.2-29.6c0.2-0.4,0-0.8-0.4-1L33.3,111z"/>
	<linearGradient id="SVGID_80_" gradientUnits="userSpaceOnUse" x1="14.9668" y1="163.3254" x2="32.789" y2="163.3254">
		<stop  offset="2.483970e-03" style="stop-color:#1A2854"/>
		<stop  offset="1" style="stop-color:#252F6A"/>
	</linearGradient>
	<path class="st79" d="M28.9,145.7L15,178.6c-0.2,0.4,0,1,0.5,1.1l3.6,1.2l13.6-32.8c0.2-0.4,0-0.9-0.5-1.1L28.9,145.7z"/>
	<linearGradient id="SVGID_81_" gradientUnits="userSpaceOnUse" x1="20.6567" y1="165.5443" x2="36.2321" y2="165.5443">
		<stop  offset="0" style="stop-color:#F26B7B"/>
		<stop  offset="1" style="stop-color:#EF454A"/>
	</linearGradient>
	<path class="st80" d="M32.8,150.2l-12.1,28.7c-0.2,0.4,0,0.8,0.4,1l3.1,1.1l11.9-28.7c0.2-0.4,0-0.8-0.4-1L32.8,150.2z"/>
	<linearGradient id="SVGID_82_" gradientUnits="userSpaceOnUse" x1="248.3928" y1="259.1577" x2="286.6266" y2="259.1577">
		<stop  offset="0" style="stop-color:#FAA31D"/>
		<stop  offset="1" style="stop-color:#FBAE56"/>
	</linearGradient>
	<polygon class="st81" points="248.4,240.7 256.3,277.7 280.1,277.7 286.6,240.7 	"/>
	<linearGradient id="SVGID_83_" gradientUnits="userSpaceOnUse" x1="264.8804" y1="194.134" x2="295.7945" y2="194.134">
		<stop  offset="0" style="stop-color:#F26B7B"/>
		<stop  offset="1" style="stop-color:#EF454A"/>
	</linearGradient>
	<path class="st82" d="M273.3,240.7c0,0-4.4-12.6,2.8-22.5c7.1-9.9,11.8-10.7,12.7-16.8c1.7-10.5-3.8-13.5-3.1-19.5
		c1-8.9,10.7-5.6,9.8-16.2c-0.7-8.4,4.3-23.8-10.8-15.8c-13.5,7.1-17.1,27.6-19.2,47.4c-2.1,19.8,1.3,43.4,1.3,43.4H273.3z"/>
	<linearGradient id="SVGID_84_" gradientUnits="userSpaceOnUse" x1="239.9218" y1="198.3437" x2="268.0388" y2="198.3437">
		<stop  offset="2.483970e-03" style="stop-color:#1A2854"/>
		<stop  offset="1" style="stop-color:#252F6A"/>
	</linearGradient>
	<path class="st83" d="M260.4,240.7c0,0,4-11.5-2.5-20.5c-6.5-9-10.7-9.8-11.6-15.3c-1.6-9.6,3.4-12.3,2.8-17.7
		c-1-8.1-9.7-5.1-8.9-14.7c0.6-7.6-3.9-21.6,9.8-14.4c12.3,6.5,15.5,25.1,17.5,43.1c1.9,18-1.2,39.5-1.2,39.5H260.4z"/>
	<g>
		<linearGradient id="SVGID_85_" gradientUnits="userSpaceOnUse" x1="267.8042" y1="201.3991" x2="283.8679" y2="201.3991">
			<stop  offset="0" style="stop-color:#FDE9EC"/>
			<stop  offset="1" style="stop-color:#FDE9E9"/>
		</linearGradient>
		<path class="st84" d="M269.7,240.9c-0.1,0-0.2-0.1-0.2-0.2c0-0.1-1.6-6-1.7-11.6c-0.1-5.7,3.9-22.1,9.4-28.5
			c3.6-4.3,2.5-9.7,1.2-15.4c-0.7-3-1.3-6.1-1.3-9.1c0.1-8.6,6.3-14.1,6.4-14.2c0.1-0.1,0.2-0.1,0.3,0c0.1,0.1,0.1,0.2,0,0.3
			c-0.1,0.1-6.1,5.4-6.2,13.8c0,3,0.6,6,1.3,9c1.3,5.9,2.5,11.4-1.3,15.8c-5.4,6.3-9.3,22.5-9.2,28.2c0.1,5.5,1.6,11.4,1.6,11.4
			C269.9,240.7,269.9,240.9,269.7,240.9C269.7,240.9,269.7,240.9,269.7,240.9z"/>
	</g>
	<g>
		<linearGradient id="SVGID_86_" gradientUnits="userSpaceOnUse" x1="243.8857" y1="200.9327" x2="264.3282" y2="200.9327">
			<stop  offset="0" style="stop-color:#FDE9EC"/>
			<stop  offset="1" style="stop-color:#FDE9E9"/>
		</linearGradient>
		<path class="st85" d="M263.6,240.9C263.6,240.9,263.6,240.9,263.6,240.9c-0.1,0-0.2-0.1-0.2-0.2c0-0.2,1.4-20.8-0.7-26.3
			c-0.5-1.2-1.1-2.5-1.8-3.9c-2.5-4.9-5.5-10.9-4-18.1c1.2-5.6-1.8-9.6-4.4-13.2c-1.7-2.3-3.1-4.2-3.1-6.2c0-5.4-5.4-11.5-5.5-11.6
			c-0.1-0.1-0.1-0.2,0-0.3c0.1-0.1,0.2-0.1,0.3,0c0.2,0.3,5.6,6.3,5.6,11.9c0,1.8,1.4,3.7,3,5.9c2.5,3.4,5.7,7.7,4.4,13.6
			c-1.5,7.1,1.5,13,3.9,17.8c0.7,1.4,1.4,2.8,1.9,3.9c2.2,5.6,0.8,25.7,0.8,26.5C263.8,240.8,263.7,240.9,263.6,240.9z"/>
	</g>
	<linearGradient id="SVGID_87_" gradientUnits="userSpaceOnUse" x1="104.224" y1="160.4756" x2="159.2602" y2="160.4756">
		<stop  offset="0" style="stop-color:#F26B7B"/>
		<stop  offset="1" style="stop-color:#EF454A"/>
	</linearGradient>
	<path class="st86" d="M159.3,155.1v10.7c0,0.7-0.6,1.3-1.3,1.3h-46.5c-0.4,0-0.7-0.2-0.9-0.4l-6-1.3c-0.4-0.1-0.5-0.7-0.2-0.9
		l5.8-3.7v-5.6c0-0.7,0.6-1.3,1.3-1.3H158C158.7,153.9,159.3,154.4,159.3,155.1z"/>
	<g>
		<linearGradient id="SVGID_88_" gradientUnits="userSpaceOnUse" x1="115.6691" y1="157.8321" x2="154.5634" y2="157.8321">
			<stop  offset="0" style="stop-color:#F9BFC2"/>
			<stop  offset="1" style="stop-color:#F9BEC8"/>
		</linearGradient>
		<path class="st87" d="M154.3,158.1h-38.4c-0.1,0-0.2-0.1-0.2-0.2c0-0.1,0.1-0.2,0.2-0.2h38.4c0.1,0,0.2,0.1,0.2,0.2
			C154.6,158,154.5,158.1,154.3,158.1z"/>
	</g>
	<g>
		<linearGradient id="SVGID_89_" gradientUnits="userSpaceOnUse" x1="115.6691" y1="160.4758" x2="154.5634" y2="160.4758">
			<stop  offset="0" style="stop-color:#F9BFC2"/>
			<stop  offset="1" style="stop-color:#F9BEC8"/>
		</linearGradient>
		<path class="st88" d="M154.3,160.7h-38.4c-0.1,0-0.2-0.1-0.2-0.2c0-0.1,0.1-0.2,0.2-0.2h38.4c0.1,0,0.2,0.1,0.2,0.2
			C154.6,160.6,154.5,160.7,154.3,160.7z"/>
	</g>
	<g>
		<linearGradient id="SVGID_90_" gradientUnits="userSpaceOnUse" x1="115.6691" y1="163.1191" x2="154.5634" y2="163.1191">
			<stop  offset="0" style="stop-color:#F9BFC2"/>
			<stop  offset="1" style="stop-color:#F9BEC8"/>
		</linearGradient>
		<path class="st89" d="M154.3,163.4h-38.4c-0.1,0-0.2-0.1-0.2-0.2c0-0.1,0.1-0.2,0.2-0.2h38.4c0.1,0,0.2,0.1,0.2,0.2
			C154.6,163.2,154.5,163.4,154.3,163.4z"/>
	</g>
	<linearGradient id="SVGID_91_" gradientUnits="userSpaceOnUse" x1="165.3298" y1="161.8988" x2="169.4213" y2="161.8988">
		<stop  offset="2.483970e-03" style="stop-color:#1A2854"/>
		<stop  offset="1" style="stop-color:#252F6A"/>
	</linearGradient>
	<path class="st90" d="M166.8,156.9c0-0.1-0.2-0.2-0.3-0.1c-0.6,0.6-1.6,2-1,3.5c0.8,2,1.6,1.6,1.9,3c0.3,1.4,0.2,2.8,0.1,3.7
		c0,0.2,0.2,0.2,0.3,0.1c0.7-1,2-3.1,1.4-4.5c-0.8-1.9-2.1-2-2.4-3.5C166.8,158.1,166.8,157.3,166.8,156.9z"/>
	<defs>
		<filter id="Adobe_OpacityMaskFilter" filterUnits="userSpaceOnUse" x="17.4" y="190.2" width="225.7" height="41">
			<feFlood  style="flood-color:white;flood-opacity:1" result="back"/>
			<feBlend  in="SourceGraphic" in2="back" mode="normal"/>
		</filter>
	</defs>
	<mask maskUnits="userSpaceOnUse" x="17.4" y="190.2" width="225.7" height="41" id="SVGID_92_">
		<g class="st91">
			<defs>
				<filter id="Adobe_OpacityMaskFilter_1_" filterUnits="userSpaceOnUse" x="17.4" y="190.2" width="225.7" height="41">
					<feFlood  style="flood-color:white;flood-opacity:1" result="back"/>
					<feBlend  in="SourceGraphic" in2="back" mode="normal"/>
				</filter>
			</defs>
			<mask maskUnits="userSpaceOnUse" x="17.4" y="190.2" width="225.7" height="41" id="SVGID_92_">
				<g class="st92">
				</g>
			</mask>
			<linearGradient id="SVGID_93_" gradientUnits="userSpaceOnUse" x1="17.4133" y1="210.666" x2="243.086" y2="210.666">
				<stop  offset="0" style="stop-color:#666666"/>
				<stop  offset="0.1614" style="stop-color:#909090"/>
				<stop  offset="0.3405" style="stop-color:#B8B8B8"/>
				<stop  offset="0.5174" style="stop-color:#D7D7D7"/>
				<stop  offset="0.6889" style="stop-color:#EDEDED"/>
				<stop  offset="0.8525" style="stop-color:#FAFAFA"/>
				<stop  offset="1" style="stop-color:#FFFFFF"/>
			</linearGradient>
			<polygon class="st93" points="17.4,190.2 217.6,231.2 243.1,190.2 			"/>
		</g>
	</mask>
	<linearGradient id="SVGID_94_" gradientUnits="userSpaceOnUse" x1="17.4133" y1="210.666" x2="243.086" y2="210.666">
		<stop  offset="0" style="stop-color:#F26B7B"/>
		<stop  offset="9.793794e-02" style="stop-color:#F16572"/>
		<stop  offset="0.3387" style="stop-color:#F15860"/>
		<stop  offset="0.5736" style="stop-color:#F04E54"/>
		<stop  offset="0.7979" style="stop-color:#EF474D"/>
		<stop  offset="1" style="stop-color:#EF454A"/>
	</linearGradient>
	<polygon class="st94" points="17.4,190.2 217.6,231.2 243.1,190.2 	"/>
</g>
</svg>
