<?xml version="1.0" encoding="UTF-8"?>
<svg width="300px" height="300px" viewBox="0 0 300 300" version="1.1" xmlns="http://www.w3.org/2000/svg" xmlns:xlink="http://www.w3.org/1999/xlink">
    <!-- Generator: Sketch 52.6 (67491) - http://www.bohemiancoding.com/sketch -->
    <title>experiments / recipe</title>
    <desc>Created with Sketch.</desc>
    <defs>
        <linearGradient x1="100%" y1="50%" x2="1.67211416%" y2="50%" id="linearGradient-1">
            <stop stop-color="#9BD178" stop-opacity="0" offset="0%"></stop>
            <stop stop-color="#9BD178" offset="100%"></stop>
        </linearGradient>
    </defs>
    <g id="experiments-/-recipe" stroke="none" stroke-width="1" fill="none" fill-rule="evenodd">
        <g id="Group" transform="translate(7.000000, 118.000000)">
            <path d="M78.9250012,36.3499999 L78.9250012,47.3000001 L82.8000012,47.3000001 C83.3166705,47.3000001 83.6833335,47.3958324 83.9000013,47.5875001 C84.116669,47.7791677 84.2250013,48.0333318 84.2250013,48.3500001 C84.2250013,48.6500016 84.116669,48.8999991 83.9000013,49.1000001 C83.6833335,49.3000011 83.3166705,49.4000001 82.8000012,49.4000001 L74.0000011,49.4000001 C73.4999986,49.4000001 73.1416688,49.3000011 72.9250011,49.1000001 C72.7083333,48.8999991 72.6000011,48.6500016 72.6000011,48.3500001 C72.6000011,48.0333318 72.7083333,47.7791677 72.9250011,47.5875001 C73.1416688,47.3958324 73.4999986,47.3000001 74.0000011,47.3000001 L76.8250011,47.3000001 L76.8250011,22.2499997 L74.0000011,22.2499997 C73.4999986,22.2499997 73.1416688,22.1541673 72.9250011,21.9624997 C72.7083333,21.7708321 72.6000011,21.5166679 72.6000011,21.1999997 C72.6000011,20.8833314 72.7083333,20.6291673 72.9250011,20.4374997 C73.1416688,20.245832 73.4999986,20.1499997 74.0000011,20.1499997 L86.7000013,20.1499997 C89.3166811,20.1499997 91.5208257,20.979158 93.3125014,22.6374997 C95.104177,24.2958413 96.0000014,26.166656 96.0000014,28.2499998 C96.0000014,29.7500073 95.4458403,31.1624932 94.3375014,32.4874998 C93.2291625,33.8125065 91.3750144,34.9166621 88.7750013,35.7999999 C90.2750088,36.8333384 91.5583294,37.9999934 92.6250014,39.2999999 C93.6916734,40.6000065 95.3999897,43.2666465 97.7500015,47.3000001 L99.3500015,47.3000001 C99.850004,47.3000001 100.208334,47.3958324 100.425001,47.5875001 C100.641669,47.7791677 100.750002,48.0333318 100.750002,48.3500001 C100.750002,48.6500016 100.641669,48.8999991 100.425001,49.1000001 C100.208334,49.3000011 99.850004,49.4000001 99.3500015,49.4000001 L96.5500014,49.4000001 C93.9499884,44.7499768 91.9375085,41.6333412 90.5125013,40.05 C89.0874942,38.4666587 87.4500106,37.2333377 85.6000013,36.3499999 L78.9250012,36.3499999 Z M78.9250012,34.2499999 L84.6500013,34.2499999 C86.4833438,34.2499999 88.1458272,33.9166699 89.6375013,33.2499999 C91.1291755,32.5833298 92.212498,31.8000043 92.8875014,30.8999998 C93.5625048,29.9999953 93.9000014,29.0833378 93.9000014,28.1499998 C93.9000014,26.7499928 93.1958418,25.4166727 91.7875014,24.1499997 C90.379161,22.8833267 88.6666781,22.2499997 86.6500013,22.2499997 L78.9250012,22.2499997 L78.9250012,34.2499999 Z M127.850002,39.0749999 L106.450002,39.0749999 C106.81667,41.7916802 107.954159,43.9791584 109.862502,45.6375 C111.770845,47.2958417 114.133321,48.1250001 116.950002,48.1250001 C118.516676,48.1250001 120.158327,47.8666693 121.875002,47.3500001 C123.591677,46.8333308 124.991663,46.1500043 126.075002,45.3 C126.39167,45.0499988 126.666667,44.925 126.900002,44.925 C127.16667,44.925 127.400001,45.0291657 127.600002,45.2375 C127.800003,45.4458344 127.900002,45.6916653 127.900002,45.975 C127.900002,46.2583348 127.76667,46.5333321 127.500002,46.8000001 C126.699998,47.6333376 125.279179,48.4124965 123.237502,49.1375001 C121.195825,49.8625037 119.100013,50.2250001 116.950002,50.2250001 C113.349984,50.2250001 110.345847,49.0458452 107.937502,46.6875001 C105.529156,44.3291549 104.325002,41.4750167 104.325002,38.1249999 C104.325002,35.0749846 105.454157,32.4583441 107.712502,30.2749998 C109.970846,28.0916555 112.766652,26.9999998 116.100002,26.9999998 C119.533352,26.9999998 122.358324,28.1208219 124.575002,30.3624998 C126.79168,32.6041777 127.883335,35.5083154 127.850002,39.0749999 Z M125.725002,36.9499999 C125.308333,34.6333216 124.212511,32.7500071 122.437502,31.2999998 C120.662493,29.8499926 118.550014,29.1249998 116.100002,29.1249998 C113.649989,29.1249998 111.541677,29.8416593 109.775002,31.2749998 C108.008326,32.7083403 106.908337,34.5999881 106.475002,36.9499999 L125.725002,36.9499999 Z M155.975002,29.8749998 L155.975002,29.1749998 C155.975002,28.6583305 156.075001,28.2916675 156.275002,28.0749998 C156.475003,27.858332 156.725001,27.7499998 157.025002,27.7499998 C157.341671,27.7499998 157.600001,27.858332 157.800002,28.0749998 C158.000003,28.2916675 158.100002,28.6583305 158.100002,29.1749998 L158.100002,33.9249999 C158.083336,34.4416691 157.97917,34.8083321 157.787502,35.0249999 C157.595835,35.2416676 157.341671,35.3499999 157.025002,35.3499999 C156.741668,35.3499999 156.50417,35.2541675 156.312502,35.0624999 C156.120835,34.8708323 156.008336,34.5500021 155.975002,34.0999999 C155.875002,32.9166606 155.095843,31.7916718 153.637502,30.7249998 C152.179162,29.6583278 150.216681,29.1249998 147.750002,29.1249998 C144.63332,29.1249998 142.266677,30.0999901 140.650002,32.0499998 C139.033327,34.0000096 138.225002,36.2333206 138.225002,38.7499999 C138.225002,41.4666802 139.11666,43.7083245 140.900002,45.475 C142.683344,47.2416756 144.991655,48.1250001 147.825002,48.1250001 C149.458344,48.1250001 151.120827,47.8250031 152.812502,47.2250001 C154.504177,46.6249971 156.033329,45.65834 157.400002,44.325 C157.750004,43.991665 158.058334,43.825 158.325002,43.825 C158.608337,43.825 158.845835,43.9208324 159.037502,44.1125 C159.22917,44.3041676 159.325002,44.5416653 159.325002,44.825 C159.325002,45.5416703 158.483344,46.4499946 156.800002,47.5500001 C154.083322,49.3333423 151.058352,50.2250001 147.725002,50.2250001 C144.341652,50.2250001 141.562513,49.1458442 139.387502,46.9875001 C137.212491,44.8291559 136.125002,42.0916832 136.125002,38.7749999 C136.125002,35.3916496 137.237491,32.5833443 139.462502,30.3499998 C141.687513,28.1166553 144.491652,26.9999998 147.875002,26.9999998 C151.091685,26.9999998 153.791658,27.9583235 155.975002,29.8749998 Z M178.975003,16.9749996 L178.975003,22.3999997 L175.875003,22.3999997 L175.875003,16.9749996 L178.975003,16.9749996 Z M179.050003,27.7499998 L179.050003,47.3000001 L187.300003,47.3000001 C187.816672,47.3000001 188.183335,47.3958324 188.400003,47.5875001 C188.616671,47.7791677 188.725003,48.0333318 188.725003,48.3500001 C188.725003,48.6500016 188.616671,48.8999991 188.400003,49.1000001 C188.183335,49.3000011 187.816672,49.4000001 187.300003,49.4000001 L168.700003,49.4000001 C168.2,49.4000001 167.84167,49.3000011 167.625002,49.1000001 C167.408335,48.8999991 167.300002,48.6500016 167.300002,48.3500001 C167.300002,48.0333318 167.408335,47.7791677 167.625002,47.5875001 C167.84167,47.3958324 168.2,47.3000001 168.700003,47.3000001 L176.950003,47.3000001 L176.950003,29.8749998 L170.825003,29.8749998 C170.325,29.8749998 169.962504,29.7750008 169.737503,29.5749998 C169.512501,29.3749988 169.400003,29.1250013 169.400003,28.8249998 C169.400003,28.5083315 169.508335,28.2500008 169.725003,28.0499998 C169.94167,27.8499988 170.308333,27.7499998 170.825003,27.7499998 L179.050003,27.7499998 Z M200.750003,27.7499998 L200.750003,31.5749998 C202.000009,30.0583256 203.341663,28.9166703 204.775003,28.1499998 C206.208344,27.3833293 207.899993,26.9999998 209.850003,26.9999998 C211.91668,26.9999998 213.824994,27.4833283 215.575003,28.4499998 C217.325012,29.4166713 218.679165,30.7624912 219.637503,32.4874998 C220.595841,34.2125085 221.075003,36.0249904 221.075003,37.9249999 C221.075003,40.9416817 219.995847,43.5208226 217.837503,45.6625 C215.679159,47.8041774 213.025019,48.8750001 209.875003,48.8750001 C206.124984,48.8750001 203.083348,47.3500153 200.750003,44.3 L200.750003,56.9500002 L205.850003,56.9500002 C206.350006,56.9500002 206.708335,57.0458326 206.925003,57.2375002 C207.141671,57.4291678 207.250003,57.683332 207.250003,58.0000002 C207.250003,58.3000017 207.141671,58.5499992 206.925003,58.7500002 C206.708335,58.9500012 206.350006,59.0500002 205.850003,59.0500002 L195.825003,59.0500002 C195.325,59.0500002 194.966671,58.9541679 194.750003,58.7625002 C194.533335,58.5708326 194.425003,58.3166685 194.425003,58.0000002 C194.425003,57.683332 194.533335,57.4291678 194.750003,57.2375002 C194.966671,57.0458326 195.325,56.9500002 195.825003,56.9500002 L198.650003,56.9500002 L198.650003,29.8749998 L195.825003,29.8749998 C195.325,29.8749998 194.966671,29.7750008 194.750003,29.5749998 C194.533335,29.3749988 194.425003,29.116668 194.425003,28.7999998 C194.425003,28.4999983 194.533335,28.2500008 194.750003,28.0499998 C194.966671,27.8499988 195.325,27.7499998 195.825003,27.7499998 L200.750003,27.7499998 Z M218.950003,37.9249999 C218.950003,35.5083211 218.070845,33.4375085 216.312503,31.7124998 C214.554161,29.9874912 212.408349,29.1249998 209.875003,29.1249998 C207.32499,29.1249998 205.166679,29.9916578 203.400003,31.7249998 C201.633328,33.4583419 200.750003,35.5249879 200.750003,37.9249999 C200.750003,40.3416787 201.633328,42.416658 203.400003,44.15 C205.166679,45.883342 207.32499,46.7500001 209.875003,46.7500001 C212.391682,46.7500001 214.533328,45.8875087 216.300003,44.1625 C218.066679,42.4374914 218.950003,40.3583455 218.950003,37.9249999 Z M250.750004,39.0749999 L229.350003,39.0749999 C229.716672,41.7916802 230.854161,43.9791584 232.762503,45.6375 C234.670846,47.2958417 237.033323,48.1250001 239.850004,48.1250001 C241.416678,48.1250001 243.058328,47.8666693 244.775004,47.3500001 C246.491679,46.8333308 247.891665,46.1500043 248.975004,45.3 C249.291672,45.0499988 249.566669,44.925 249.800004,44.925 C250.066672,44.925 250.300003,45.0291657 250.500004,45.2375 C250.700005,45.4458344 250.800004,45.6916653 250.800004,45.975 C250.800004,46.2583348 250.666672,46.5333321 250.400004,46.8000001 C249.6,47.6333376 248.179181,48.4124965 246.137504,49.1375001 C244.095827,49.8625037 242.000014,50.2250001 239.850004,50.2250001 C236.249986,50.2250001 233.245849,49.0458452 230.837503,46.6875001 C228.429158,44.3291549 227.225003,41.4750167 227.225003,38.1249999 C227.225003,35.0749846 228.354159,32.4583441 230.612503,30.2749998 C232.870848,28.0916555 235.666654,26.9999998 239.000004,26.9999998 C242.433354,26.9999998 245.258326,28.1208219 247.475004,30.3624998 C249.691681,32.6041777 250.783337,35.5083154 250.750004,39.0749999 Z M248.625004,36.9499999 C248.208335,34.6333216 247.112513,32.7500071 245.337504,31.2999998 C243.562495,29.8499926 241.450016,29.1249998 239.000004,29.1249998 C236.549991,29.1249998 234.441679,29.8416593 232.675003,31.2749998 C230.908328,32.7083403 229.808339,34.5999881 229.375003,36.9499999 L248.625004,36.9499999 Z M277.050004,29.1249998 C277.050004,28.641664 277.150003,28.2916675 277.350004,28.0749998 C277.550005,27.858332 277.800003,27.7499998 278.100004,27.7499998 C278.416672,27.7499998 278.675003,27.858332 278.875004,28.0749998 C279.075005,28.2916675 279.175004,28.6583305 279.175004,29.1749998 L279.175004,32.7749998 C279.175004,33.2750024 279.075005,33.6333321 278.875004,33.8499999 C278.675003,34.0666676 278.416672,34.1749999 278.100004,34.1749999 C277.816669,34.1749999 277.579172,34.0833341 277.387504,33.8999999 C277.195837,33.7166656 277.083338,33.4166686 277.050004,32.9999999 C276.950004,31.9999948 276.433342,31.1750031 275.500004,30.5249998 C274.133331,29.5916618 272.325015,29.1249998 270.075004,29.1249998 C267.724992,29.1249998 265.90001,29.5999951 264.600004,30.5499998 C263.616666,31.2666701 263.125004,32.0666621 263.125004,32.9499999 C263.125004,33.9500049 263.708331,34.7833299 264.875004,35.4499999 C265.675008,35.9166689 267.191659,36.2749986 269.425004,36.5249999 C272.341685,36.8416682 274.366665,37.1999979 275.500004,37.5999999 C277.116679,38.1833362 278.320834,38.9916614 279.112504,40.025 C279.904175,41.0583385 280.300004,42.174994 280.300004,43.375 C280.300004,45.1583423 279.441679,46.7458264 277.725004,48.1375001 C276.008329,49.5291737 273.491687,50.2250001 270.175004,50.2250001 C266.858321,50.2250001 264.141681,49.3833418 262.025004,47.7000001 C262.025004,48.2666696 261.991671,48.6333326 261.925004,48.8000001 C261.858337,48.9666676 261.737505,49.1083328 261.562504,49.2250001 C261.387503,49.3416673 261.191672,49.4000001 260.975004,49.4000001 C260.675002,49.4000001 260.425005,49.2916678 260.225004,49.0750001 C260.025003,48.8583323 259.925004,48.5000026 259.925004,48.0000001 L259.925004,43.675 C259.925004,43.1749975 260.020836,42.8166677 260.212504,42.6 C260.404172,42.3833322 260.658336,42.275 260.975004,42.275 C261.275005,42.275 261.52917,42.3791656 261.737504,42.5875 C261.945838,42.7958344 262.050004,43.0749983 262.050004,43.425 C262.050004,44.1916705 262.241669,44.8333308 262.625004,45.35 C263.20834,46.150004 264.137498,46.8124974 265.412504,47.3375001 C266.68751,47.8625027 268.249995,48.1250001 270.100004,48.1250001 C272.833351,48.1250001 274.866664,47.6166718 276.200004,46.6000001 C277.533344,45.5833283 278.200004,44.508339 278.200004,43.375 C278.200004,42.0749935 277.525011,41.0333372 276.175004,40.25 C274.808331,39.4666627 272.82085,38.9416679 270.212504,38.6749999 C267.604158,38.4083319 265.733343,38.0583354 264.600004,37.6249999 C263.466665,37.1916644 262.58334,36.5416709 261.950004,35.6749999 C261.316667,34.8083289 261.000004,33.8750049 261.000004,32.8749998 C261.000004,31.0749908 261.883328,29.6458384 263.650004,28.5874998 C265.416679,27.5291611 267.524992,26.9999998 269.975004,26.9999998 C272.875019,26.9999998 275.233328,27.708326 277.050004,29.1249998 Z" id="Recipes" fill="#3C4F71"></path>
            <g id="Salad">
                <g>
                    <polygon id="Fill-1" fill="url(#linearGradient-1)" points="37.2952466 58.4792994 63.8623151 58.4792994 63.8623151 54.4943388 37.2952466 54.4943388"></polygon>
                    <path d="M17.0966102,57.7819293 L37.2950474,57.7819293 C46.5467977,53.9756277 53.1784364,45.1017845 53.7257043,34.6140323 C53.7655539,33.8509123 53.1585116,33.2080053 52.3947274,33.2080053 L1.99693019,33.2080053 C1.23314607,33.2080053 0.626103733,33.8509123 0.665953339,34.6140323 C1.21322127,45.1017845 7.84485993,53.9756277 17.0966102,57.7819293" id="Fill-3" fill="#F7F9FB"></path>
                    <path d="M20.8163053,22.4771725 C20.7804407,21.8707943 20.6044382,21.2650803 20.2444635,20.7224615 C19.1585617,19.085971 16.9522218,18.6389913 15.3150672,19.7242289 C14.2298295,18.0884025 12.0234897,17.6414228 10.386335,18.7266604 C8.7498445,19.811898 8.30286474,22.0189021 9.38810236,23.6553926 C7.75161186,24.7412943 7.3046321,26.9476342 8.39053388,28.5847889 C8.7498445,29.1274077 9.2393305,29.5252396 9.78460594,29.7935603 C9.81914227,30.3999384 9.99580886,31.0056525 10.3557836,31.5482713 C10.7157584,32.0908901 11.2045803,32.488722 11.7498557,32.7570427 C11.7850562,33.3634208 11.9610586,33.9691349 12.3210334,34.5117537 C13.4069352,36.1482442 15.613275,36.5952239 17.2504297,35.5099863 L23.1773945,31.5788226 C24.813885,30.4929209 25.2602006,28.286581 24.1756271,26.6494263 C23.8156524,26.1068075 23.3261664,25.7089756 22.7815551,25.4406549 C22.7456904,24.8342767 22.569688,24.2285627 22.2097132,23.6859439 C21.8504026,23.1433251 21.3602524,22.7454932 20.8163053,22.4771725" id="Fill-5" fill="#9BD178"></path>
                    <path d="M17.9715747,21.0528148 C18.607176,20.6317373 19.3271255,20.4471007 20.0351202,20.4676897 C18.9830906,19.1626151 17.1732543,18.7767381 15.6848715,19.5298956 C16.5874651,19.7052339 17.4229785,20.2259354 17.9715747,21.0528148" id="Fill-7" fill="#FFFFFF"></path>
                    <path d="M14.9776074,35.8398082 C14.6182968,35.2971894 14.4416302,34.6914754 14.4064297,34.0850972 C13.8611543,33.8167765 13.3723324,33.4189446 13.0123576,32.8763258 C12.6523829,32.333707 12.4763804,31.7286572 12.4405158,31.1216148 C11.8959045,30.8532941 11.4064185,30.4554622 11.0471079,29.9128434 C9.96120612,28.2763529 10.4081859,26.0693489 12.0446764,24.9841113 C10.9594388,23.3469566 11.4064185,21.1406167 13.042909,20.054715 C13.6778461,19.6336374 14.3984598,19.4490009 15.1057903,19.4695899 C13.9674199,18.0562572 11.9291125,17.702924 10.3862686,18.7263947 C8.74977808,19.8122965 8.30279833,22.0186364 9.38803594,23.6557911 C7.75154544,24.7410287 7.30456569,26.9480327 8.39046746,28.5845232 C8.74977808,29.127142 9.23926408,29.5249739 9.78387537,29.7932946 C9.81974001,30.4003369 9.99574244,31.0053868 10.3557172,31.5480056 C10.715692,32.0906244 11.2045138,32.4884563 11.7497893,32.756777 C11.7849898,33.3631552 11.9616564,33.9688692 12.320967,34.511488 C12.9851271,35.5130414 14.0703647,36.062966 15.1861537,36.0948457 C15.1177452,36.009169 15.0400385,35.9334548 14.9776074,35.8398082" id="Fill-9" fill="#FFFFFF"></path>
                    <path d="M9.78434028,29.7936267 C9.81954076,30.4000049 9.99554319,31.0057189 10.355518,31.5483377 C10.7154927,32.0902923 11.2049787,32.4887884 11.74959,32.7571091 C11.7854547,33.3634873 11.9607929,33.9692013 12.3207677,34.5118201 C13.4066695,36.1483106 15.6130094,36.5952903 17.250164,35.5093886 L23.1771288,31.578889 C24.8136193,30.4929873 25.2605991,28.2859832 24.1753615,26.6494927 C23.8153867,26.1068739 23.3265649,25.709042 22.7812894,25.4407213 C22.7460889,24.8343432 22.5694223,24.2286291 22.2094476,23.6860103 C21.8501369,23.1433915 21.3606509,22.7455596 20.8160397,22.4772389 C20.7808392,21.8708608 20.6041726,21.2651467 20.2441978,20.7225279 C19.158296,19.0860374 16.9519562,18.6390577 15.3148015,19.7242953 C14.2295639,18.0878048 12.023224,17.6414892 10.3860693,18.7267268 C8.74957883,19.8119644 8.30326324,22.0189685 9.3878367,23.655459 C8.27935348,24.3913484 7.71680987,25.6412977 7.80647148,26.8799563" id="Stroke-11" stroke="#7C2F57" stroke-width="1.32832021" stroke-linecap="round" stroke-linejoin="round"></path>
                    <path d="M48.0584925,28.3164682 C48.716011,26.618875 48.3394322,24.619753 46.9453602,23.2788138 C45.5512881,21.9378745 43.5382188,21.6390025 41.8678561,22.362937 C40.9944856,21.8714585 40.1038469,21.4815965 39.2244989,21.234529 L34.9891499,26.905128 C33.1321583,29.3904151 33.4170829,32.8692857 35.65331,35.0198361 C37.8888729,37.1703866 41.3757135,37.3191584 43.7872789,35.3671919 L49.2891812,30.9133342 C49.0075773,30.0446128 48.583179,29.1699139 48.0584925,28.3164682" id="Fill-13" fill="#9BD178"></path>
                    <path d="M48.0584925,28.3164682 C48.716011,26.618875 48.3394322,24.619753 46.9453602,23.2788138 C45.5512881,21.9378745 43.5382188,21.6390025 41.8678561,22.362937 C40.9944856,21.8714585 40.1038469,21.4815965 39.2244989,21.234529 L34.9891499,26.905128 C33.1321583,29.3904151 33.4170829,32.8692857 35.65331,35.0198361 C37.8888729,37.1703866 41.3757135,37.3191584 43.7872789,35.3671919 L49.2891812,30.9133342 C49.0075773,30.0446128 48.583179,29.1699139 48.0584925,28.3164682 Z" id="Stroke-15" stroke="#7C2F57" stroke-width="1.32832021" stroke-linecap="round" stroke-linejoin="round"></path>
                    <path d="M43.718804,26.6330216 L37.8044582,32.7831442" id="Stroke-17" stroke="#7C2F57" stroke-width="1.32832021" stroke-linecap="round" stroke-linejoin="round"></path>
                    <path d="M35.6535093,35.0196369 L33.5022947,37.255864" id="Stroke-19" stroke="#7C2F57" stroke-width="1.32832021" stroke-linecap="round" stroke-linejoin="round"></path>
                    <path d="M17.6485273,52.6678985 C19.2743912,52.6678985 20.6538518,53.7086374 21.1672475,55.1584989 L32.3311148,55.1584989 C33.2449991,53.4768455 35.0269406,52.3358185 37.0752104,52.3358185 C37.7739068,52.3358185 38.4387311,52.4732996 39.0517509,52.7143897 C40.0904973,50.3420098 42.4562356,48.6829379 45.2111717,48.6829379 C45.2935276,48.6829379 45.3732268,48.6922361 45.4549185,48.6955569 C47.1584891,46.6858084 48.5193532,44.4050826 49.4784004,41.9397203 C45.9902315,40.8000216 43.4677514,37.5250481 43.4677514,33.6563154 C43.4677514,32.9104636 43.5713604,32.1911782 43.7473628,31.5004517 C42.8002705,30.6257529 41.5383663,30.0864549 40.1469509,30.0864549 C39.3977783,30.0864549 38.6864628,30.2431967 38.040235,30.5228081 C36.978243,28.8644003 35.1232438,27.7618945 33.0072297,27.7618945 C32.6937462,27.7618945 32.3888967,27.79311 32.0886963,27.8396012 C32.1444858,27.5453783 32.1770296,27.2425213 32.1770296,26.9316944 C32.1770296,24.2723973 30.0211659,22.1165336 27.3618688,22.1165336 C25.0273461,22.1165336 23.0826853,23.777598 22.641683,25.9819454 C20.6937014,26.208424 19.0206821,27.3222205 18.0284269,28.9082348 C16.8541918,28.1856286 15.4760596,27.7618945 13.9956467,27.7618945 C11.0275152,27.7618945 8.45455891,29.4382346 7.16276751,31.8942987 C7.54731621,32.6773434 7.76914568,33.5553631 7.76914568,34.4865156 C7.76914568,36.9033942 6.31330673,38.9775662 4.23182895,39.8874656 C4.52870852,40.9202345 4.89333242,41.9264371 5.32237985,42.90076 C7.06314349,43.0521885 8.43330579,44.4960726 8.43330579,46.2753575 C8.43330579,46.77547 8.31907025,47.2463596 8.12579966,47.6740787 C9.96884396,50.1082255 12.2827778,52.1943523 14.9792678,53.7923216 C15.6573753,53.0989384 16.6024751,52.6678985 17.6485273,52.6678985" id="Fill-21" fill="#9BD178"></path>
                    <path d="M27.3618688,22.1165336 C25.0273461,22.1165336 23.0826853,23.777598 22.641683,25.9819454 C20.6937014,26.208424 19.0206821,27.3222205 18.0284269,28.9082348 C16.8541918,28.1856286 15.4760596,27.7618945 13.9956467,27.7618945 C11.0275152,27.7618945 8.45455891,29.4382346 7.16276751,31.8942987 C7.54731621,32.6773434 7.76914568,33.5553631 7.76914568,34.4865156 L8.49108772,33.886779 C9.78287913,31.4307149 12.3558354,29.7543748 15.3239669,29.7543748 C16.8043798,29.7543748 18.182512,30.178109 19.3567471,30.9007152 C20.3490023,29.3147008 22.0220216,28.2009043 23.9700032,27.9744257 C24.4110055,25.7700783 26.3556663,24.1090139 28.6901891,24.1090139 C29.9268552,24.1090139 31.0519424,24.5792393 31.904724,25.34568 C31.2485338,23.4667711 29.4645997,22.1165336 27.3618688,22.1165336" id="Fill-23" fill="#FFFFFF"></path>
                    <path d="M44.5807509,37.918895 C43.8720921,36.6596474 43.4676186,35.2051368 43.4676186,33.6563154 C43.4676186,32.9104636 43.5712276,32.1911782 43.74723,31.5004517 C42.8001377,30.6257529 41.5382335,30.0864549 40.1468181,30.0864549 C39.3976455,30.0864549 38.68633,30.2431967 38.0401022,30.5228081 C36.9781102,28.8644003 35.123111,27.7618945 33.0070969,27.7618945 C32.6942775,27.7618945 32.389428,27.79311 32.0885635,27.8396012 C32.1443529,27.5453783 32.1768968,27.2425213 32.1768968,26.9316944 C32.1768968,24.2723973 30.0210331,22.1165336 27.361736,22.1165336 C25.0278774,22.1165336 23.0825524,23.777598 22.6415501,25.9819454 C20.6935685,26.208424 19.0212134,27.3222205 18.028294,28.9082348 C16.854059,28.1856286 15.4759267,27.7618945 13.9955139,27.7618945 C11.0273823,27.7618945 8.45442608,29.4382346 7.16263467,31.8942987 C7.54718338,32.6773434 7.76901285,33.5553631 7.76901285,34.4865156 C7.76901285,36.9033942 6.3131739,38.9775662 4.23169612,39.8874656 C4.52857569,40.9202345 4.89319959,41.9264371 5.32291118,42.90076 C7.06301066,43.0521885 8.43317296,44.4960726 8.43317296,46.2753575 C8.43317296,46.77547 8.31893742,47.2463596 8.12566683,47.6740787 C9.96871112,50.1082255 12.2826449,52.1943523 14.9797991,53.7923216 C15.6572424,53.0989384 16.6023423,52.6678985 17.6483944,52.6678985 C19.2742584,52.6678985 20.6543831,53.7086374 21.1671147,55.1584989 L32.3316461,55.1584989 C33.2455304,53.4768455 35.0268078,52.3358185 37.0750776,52.3358185 C37.773774,52.3358185 38.4385983,52.4732996 39.051618,52.7143897 C40.0903645,50.3420098 42.4561028,48.6829379 45.2110389,48.6829379 C45.2933947,48.6829379 45.3730939,48.6922361 45.4547856,48.6955569 C47.1583563,46.6858084 48.5198845,44.4050826 49.4782676,41.9397203" id="Stroke-25" stroke="#7C2F57" stroke-width="1.32832021" stroke-linecap="round" stroke-linejoin="round"></path>
                    <path d="M52.4339129,35.8978558 L1.95774475,35.8978558 C1.22451199,35.8978558 0.629424533,35.3027684 0.629424533,34.5695356 C0.629424533,33.8363028 1.22451199,33.2412154 1.95774475,33.2412154 L52.4339129,33.2412154 C53.1671456,33.2412154 53.7622331,33.8363028 53.7622331,34.5695356 C53.7622331,35.3027684 53.1671456,35.8978558 52.4339129,35.8978558" id="Fill-27" fill="#FFFFFF"></path>
                    <path d="M37.3826501,10.5407543 C32.387502,11.4798766 30.3212999,15.8467293 32.7640807,20.304572 C37.7598931,19.3654496 39.8260951,14.9985969 37.3826501,10.5407543" id="Fill-31" fill="#9BD178"></path>
                    <path d="M37.3826501,10.5407543 C32.387502,11.4798766 30.3212999,15.8467293 32.7640807,20.304572 C37.7598931,19.3654496 39.8260951,14.9985969 37.3826501,10.5407543 Z" id="Stroke-33" stroke="#7C2F57" stroke-width="1.32832021" stroke-linecap="round" stroke-linejoin="round"></path>
                    <path d="M38.4093752,44.065896 C40.8813791,40.4189929 45.8320286,39.4685798 49.4782676,41.9392554" id="Stroke-37" stroke="#7C2F57" stroke-width="1.32832021" fill="#9BD178" stroke-linecap="round" stroke-linejoin="round"></path>
                    <path d="M4.23176254,39.8873327 C7.50407938,38.005103 11.6736765,39.1295261 13.5559063,42.4011787" id="Stroke-41" stroke="#7C2F57" stroke-width="1.32832021" fill="#9BD178" stroke-linecap="round" stroke-linejoin="round"></path>
                    <path d="M24.471112,28.9543276 C26.3832289,27.8544784 28.8206965,28.5113328 29.9205456,30.4234497" id="Stroke-45" stroke="#7C2F57" stroke-width="1.32832021" fill="#9BD178" stroke-linecap="round" stroke-linejoin="round"></path>
                    <path d="M24.3634516,39.4586174 C23.1135023,37.6467886 20.6322001,37.1911748 18.8203714,38.4404599 C17.0085426,39.6904093 16.5522646,42.1717114 17.8022139,43.9835402" id="Stroke-49" stroke="#7C2F57" stroke-width="1.32832021" fill="#F93A26" stroke-linecap="round" stroke-linejoin="round"></path>
                    <path d="M33.247855,49.3529426 C34.4068143,47.4820036 33.8303234,45.0259395 31.9600485,43.8663159 C30.0891095,42.7073566 27.6330454,43.2838475 26.4734219,45.1547865" id="Stroke-53" stroke="#7C2F57" stroke-width="1.32832021" fill="#F93A26" stroke-linecap="round" stroke-linejoin="round"></path>
                    <path d="M26.4382878,25.2284558 C26.7278616,23.0466898 25.1929876,21.0435829 23.0118858,20.7546733 C20.8301198,20.4650995 18.8263488,21.9993093 18.5374392,24.1810753" id="Stroke-57" stroke="#7C2F57" stroke-width="1.32832021" fill="#F93A26" stroke-linecap="round" stroke-linejoin="round"></path>
                    <path d="M25.2380841,10.2944817 C25.2380841,10.8450704 24.7917685,11.2907218 24.2418439,11.2907218 C23.6919193,11.2907218 23.2456037,10.8450704 23.2456037,10.2944817 C23.2456037,9.74389293 23.6919193,9.2982415 24.2418439,9.2982415 C24.7917685,9.2982415 25.2380841,9.74389293 25.2380841,10.2944817" id="Fill-59" fill="#7C2F57"></path>
                    <path d="M13.2832021,10.2944817 C13.2832021,10.8450704 12.8368865,11.2907218 12.286962,11.2907218 C11.7370374,11.2907218 11.2907218,10.8450704 11.2907218,10.2944817 C11.2907218,9.74389293 11.7370374,9.2982415 12.286962,9.2982415 C12.8368865,9.2982415 13.2832021,9.74389293 13.2832021,10.2944817" id="Fill-61" fill="#7C2F57"></path>
                    <path d="M32.5438452,0.99624016 C32.5438452,1.54682889 32.0975296,1.99248032 31.5476051,1.99248032 C30.9976805,1.99248032 30.5513649,1.54682889 30.5513649,0.99624016 C30.5513649,0.445651432 30.9976805,0 31.5476051,0 C32.0975296,0 32.5438452,0.445651432 32.5438452,0.99624016" id="Fill-63" fill="#7C2F57"></path>
                    <path d="M0.629424533,33.2412154 C0.629424533,44.24502 8.06270445,53.1660186 17.2334272,53.1660186 C26.40415,53.1660186 33.8374299,44.24502 33.8374299,33.2412154 L0.629424533,33.2412154 Z" id="Fill-65" fill="#FFFFFF" opacity="0.699999988"></path>
                    <path d="M14.4937668,33.2412154 L13.7054087,33.2080053" id="Stroke-29" stroke="#7C2F57" stroke-width="1.32832021" stroke-linecap="round" stroke-linejoin="round"></path>
                    <path d="M9.0974659,33.2080053 L1.99693019,33.2080053 C1.23314607,33.2080053 0.626103733,33.8509123 0.665953339,34.6140323 C1.21322127,45.1017845 7.84485993,53.9756277 17.0966102,57.7819293 L37.2950474,57.7819293 C46.5467977,53.9756277 53.1784364,45.1017845 53.7257043,34.6140323 C53.7655539,33.8509123 53.1585116,33.2080053 52.3947274,33.2080053 L18.5617474,33.2080053" id="Stroke-67" stroke="#7C2F57" stroke-width="1.32832021" stroke-linecap="round" stroke-linejoin="round"></path>
                </g>
            </g>
        </g>
    </g>
</svg>