<?xml version="1.0" encoding="UTF-8"?>
<svg width="300px" height="300px" viewBox="0 0 300 300" version="1.1" xmlns="http://www.w3.org/2000/svg" xmlns:xlink="http://www.w3.org/1999/xlink">
    <!-- Generator: Sketch 52.6 (67491) - http://www.bohemiancoding.com/sketch -->
    <title>experiments / Scss metaball</title>
    <desc>Created with Sketch.</desc>
    <g id="experiments-/-Scss-metaball" stroke="none" stroke-width="1" fill="none" fill-rule="evenodd">
        <g id="Group-12" transform="translate(57.000000, 50.000000)" fill="#000000">
            <path d="M141.663879,43.8507038 C99.1103886,44.1218902 73.1806236,8.8778224 52.9420161,2.09816138 C22.5384537,-8.07133014 -17.5667905,18.2676529 8.30548802,91.1591783 C34.1777665,164.050704 47.5619618,182.596466 94.142884,188.810026 C131.417767,193.786297 164.242522,165.264263 177.329141,142.501551 C197.777405,106.898161 184.200461,43.5829071 141.663879,43.8507038 Z" id="Path"></path>
            <path d="M180.475287,157.722338 C180.539537,153.969796 176.157041,152.132508 173.712177,154.871491 C167.963533,161.346067 155.942104,172.600304 145.898886,178.379965 C131.807945,186.48844 149.341309,201.735898 161.62988,199.546067 C173.918452,197.356237 180.292683,164.163016 180.454998,157.905389 C180.46627,157.842112 180.473033,157.781095 180.475287,157.722338 Z" id="Path"></path>
        </g>
    </g>
</svg>