<?xml version="1.0" encoding="UTF-8"?>
<svg width="300px" height="300px" viewBox="0 0 300 300" version="1.1" xmlns="http://www.w3.org/2000/svg" xmlns:xlink="http://www.w3.org/1999/xlink">
    <!-- Generator: Sketch 51.2 (57519) - http://www.bohemiancoding.com/sketch -->
    <title>experiments / bon-compte copy</title>
    <desc>Created with Sketch.</desc>
    <defs>
        <polygon id="path-1" points="0.0662908988 0.183066006 37.9340911 0.183066006 37.9340911 30.1642857 0.0662908988 30.1642857"></polygon>
        <polygon id="path-3" points="0.386748768 0.611231429 6.08793103 0.611231429 6.08793103 6.29462429 0.386748768 6.29462429"></polygon>
    </defs>
    <g id="experiments-/-bon-compte-copy" stroke="none" stroke-width="1" fill="none" fill-rule="evenodd">
        <g id="Group-35" transform="translate(0.000000, 99.000000)">
            <path d="M217.147833,83.3915957 C203.527389,83.3915957 192.578128,75.0279957 192.578128,62.0889886 C192.578128,49.2706386 203.527389,40.85186 217.147833,40.85186 C230.768276,40.85186 241.716798,49.2706386 241.716798,62.0889886 C241.716798,75.0279957 230.768276,83.3915957 217.147833,83.3915957 M217.147833,47.2334457 C212.172709,47.2334457 208.256453,52.5997457 208.256453,60.8176743 C208.256453,68.9223029 210.493892,76.51046 217.147833,76.51046 C223.799557,76.51046 226.101281,68.9223029 226.101281,60.8176743 C226.101281,52.5997457 222.12,47.2334457 217.147833,47.2334457" id="Fill-1" fill="#217624"></path>
            <path d="M270.267562,83.3915957 C256.642685,83.3915957 245.700074,75.0279957 245.700074,62.0889886 C245.700074,49.2706386 256.642685,40.85186 270.267562,40.85186 C283.888005,40.85186 294.832833,49.2706386 294.832833,62.0889886 C294.832833,75.0279957 283.888005,83.3915957 270.267562,83.3915957 M270.267562,47.2334457 C265.288005,47.2334457 261.371749,52.5997457 261.371749,60.8176743 C261.371749,68.9223029 263.606232,76.51046 270.267562,76.51046 C276.921502,76.51046 279.225443,68.9223029 279.225443,60.8176743 C279.225443,52.5997457 275.242685,47.2334457 270.267562,47.2334457" id="Fill-3" fill="#217624"></path>
            <path d="M189.789901,74.25991 C189.569704,74.0723029 189.247537,73.9487029 188.916502,73.9487029 L171.25197,73.9464957 C176.097783,62.83721 187.109852,58.84596 189.70936,49.3302314 C190.253941,47.3415957 190.568719,45.6067814 190.568719,43.37536 C190.568719,42.6962957 190.035961,42.1459814 189.350985,42.1459814 L156.324384,42.1459814 C155.975616,42.1459814 155.658621,42.2865029 155.412562,42.4799957 C154.617488,43.1105029 154.071429,44.5436743 154.071429,46.1982957 L154.071429,46.2041814 L154.071429,46.2211029 C154.066256,47.9103029 154.67734,49.3221386 155.446552,49.9783957 C155.674138,50.1652671 155.991133,50.2793029 156.319951,50.2793029 L173.459113,50.2793029 C170.566995,59.0401886 153.317734,65.0752529 153.317734,80.8644171 C153.317734,81.5434814 153.852709,82.0952671 154.535468,82.0952671 L188.916502,82.08791 C189.263793,82.08791 189.585222,81.9304671 189.823892,81.74286 C190.621182,81.1027886 191.16798,79.67771 191.16798,78.01941 C191.16798,76.3272671 190.56133,74.9227886 189.789901,74.25991" id="Fill-5" fill="#217624"></path>
            <path d="M217.9817,35.82134 C212.501158,35.82134 208.095739,32.4539757 208.095739,27.2480614 C208.095739,22.0877614 212.501158,18.6953829 217.9817,18.6953829 C223.462241,18.6953829 227.869138,22.0877614 227.869138,27.2480614 C227.869138,32.4539757 223.462241,35.82134 217.9817,35.82134 M217.9817,21.2696471 C215.979236,21.2696471 214.405345,23.4274971 214.405345,26.73674 C214.405345,29.9952186 215.303128,33.0528471 217.9817,33.0528471 C220.664704,33.0528471 221.583177,29.9952186 221.583177,26.73674 C221.583177,23.4274971 219.989335,21.2696471 217.9817,21.2696471" id="Fill-7" fill="#217624"></path>
            <path d="M168.812734,19.32589 C168.720369,19.2523186 168.605837,19.2059686 168.475049,19.2059686 L154.867906,19.2059686 C154.726034,19.2059686 154.610764,19.2596757 154.511749,19.3376614 C154.195493,19.5922186 153.967906,20.1638686 153.967906,20.8377829 C153.967906,21.5087543 154.216182,22.08114 154.528005,22.3459971 C154.613719,22.42104 154.732685,22.4695971 154.867906,22.4695971 L158.745,22.4695971 L158.745,34.7817757 C158.745,35.0561971 158.968153,35.2761757 159.241552,35.2761757 L164.09697,35.2761757 C164.368153,35.2761757 164.593522,35.0561971 164.593522,34.7817757 L164.593522,22.4695971 L168.475049,22.4695971 C168.612488,22.4695971 168.727759,22.4144186 168.823818,22.3379043 C169.145985,22.08114 169.368399,21.5087543 169.368399,20.8377829 C169.368399,20.1557757 169.124557,19.5922186 168.812734,19.32589" id="Fill-9" fill="#217624"></path>
            <path d="M187.554754,34.601305 L181.344163,19.9009979 C181.084803,19.4882621 180.613374,19.2145764 180.080616,19.2145764 L175.556232,19.2145764 C175.016084,19.2145764 174.547611,19.4882621 174.290468,19.9009979 L168.08431,34.601305 C168.051798,34.6586907 168.038498,34.724905 168.038498,34.7925907 C168.038498,35.064805 168.272734,35.2884621 168.557956,35.2884621 L172.110665,35.2884621 C172.326429,35.2884621 172.512635,35.1648621 172.588744,34.9853479 L174.058448,31.4833479 L179.736281,31.4833479 L181.119532,34.9853479 C181.199335,35.1648621 181.387759,35.2884621 181.601305,35.2884621 L187.077414,35.2884621 C187.36633,35.2884621 187.5917,35.064805 187.5917,34.7925907 C187.5917,34.724905 187.582833,34.6586907 187.554754,34.601305 Z M174.993177,29.1415693 L177.138251,23.4552336 L178.886527,29.1415693 L174.993177,29.1415693 Z" id="Fill-11" fill="#217624"></path>
            <path d="M289.609286,34.601305 L283.398695,19.9009979 C283.139335,19.4882621 282.673079,19.2145764 282.132931,19.2145764 L277.61298,19.2145764 C277.073571,19.2145764 276.606576,19.4882621 276.342783,19.9009979 L270.136626,34.601305 C270.111502,34.6586907 270.095246,34.724905 270.095246,34.7925907 C270.095246,35.064805 270.327266,35.2884621 270.613966,35.2884621 L274.165197,35.2884621 C274.383916,35.2884621 274.564951,35.1648621 274.643276,34.9853479 L276.10633,31.4833479 L281.798202,31.4833479 L283.178498,34.9853479 C283.253867,35.1648621 283.437857,35.2884621 283.655837,35.2884621 L289.134163,35.2884621 C289.418645,35.2884621 289.648448,35.064805 289.648448,34.7925907 C289.648448,34.724905 289.639581,34.6586907 289.609286,34.601305 Z M277.049926,29.1415693 L279.195739,23.4552336 L280.943276,29.1415693 L277.049926,29.1415693 Z" id="Fill-13" fill="#217624"></path>
            <path d="M268.820394,32.7146393 C268.820394,33.2163964 268.540345,33.6644464 268.147241,33.9182679 C266.356108,35.0726036 264.072857,35.8215607 261.656601,35.8215607 C255.949212,35.8215607 251.295517,32.380625 251.295517,27.2475464 C251.295517,22.0629679 255.949212,18.6956036 261.656601,18.6956036 C264.027044,18.6956036 266.262266,19.3776107 268.046749,20.4811821 C268.278768,20.628325 268.530739,20.8519821 268.530739,21.096975 C268.530739,21.2235179 268.409557,21.6561179 268.041576,22.0048464 C267.371379,22.6302036 266.824581,22.7162821 266.413005,22.7162821 C266.110049,22.7162821 265.834433,22.6235821 265.606847,22.4609893 C264.839852,21.9195036 263.588128,21.3404964 262.106601,21.3404964 C259.504138,21.3404964 257.701182,22.832525 257.701182,27.2475464 C257.701182,31.6588893 259.481232,33.2781964 262.38,33.2781964 C263.135911,33.2781964 263.508325,33.199475 263.684926,33.127375 L263.684926,28.5924321 L261.688374,28.5843393 C261.583448,28.5843393 261.4933,28.5468179 261.420148,28.4791321 C261.171872,28.2437036 260.979015,27.7500393 260.979015,27.1548464 C260.979015,26.5677464 261.155616,26.0645179 261.410542,25.8445393 C261.48665,25.7694964 261.578276,25.7202036 261.688374,25.7202036 L268.320148,25.7202036 C268.595764,25.7202036 268.820394,25.9409179 268.820394,26.2138679 L268.820394,32.7146393 Z" id="Fill-15" fill="#217624"></path>
            <path d="M248.447512,19.7123607 C248.447512,19.4394107 248.222143,19.217225 247.948744,19.217225 L244.021404,19.217225 C243.745788,19.217225 243.524852,19.4394107 243.524852,19.7123607 L243.518202,28.9448393 L237.679286,20.2155893 C237.314261,19.6895536 236.799975,19.217225 235.86968,19.217225 L231.248498,19.217225 C230.975099,19.217225 230.751946,19.4394107 230.751946,19.7123607 L230.751946,34.7922964 C230.751946,35.0645107 230.975099,35.2889036 231.248498,35.2889036 L235.182488,35.2889036 C235.455887,35.2889036 235.679039,35.0645107 235.679039,34.7922964 L235.679039,26.6361679 L241.154409,34.6554536 C241.407118,35.0321393 241.839384,35.295525 242.330764,35.295525 L247.953916,35.295525 C248.226576,35.295525 248.44899,35.0748107 248.44899,34.8018607 L248.447512,19.7123607 Z" id="Fill-17" fill="#217624"></path>
            <path d="M208.463424,34.7463879 C208.463424,34.3071664 207.8383,34.3711736 206.035345,32.0021736 C203.975246,29.284445 202.900123,28.6230379 200.633128,27.9123379 C200.633128,27.9123379 205.378448,27.960895 205.378448,23.5591164 C205.378448,20.410995 202.408744,19.2169307 197.661207,19.2169307 L191.005049,19.2147236 C190.219581,19.2147236 189.585591,19.8459664 189.585591,20.6199379 L189.585591,34.7920021 C189.585591,35.067895 189.813177,35.2886093 190.085837,35.2886093 L194.939778,35.2886093 C195.212438,35.2886093 195.435591,35.067895 195.435591,34.7920021 L195.435591,21.6690664 L196.783374,21.6690664 C197.04569,21.6690664 199.344458,21.7566164 199.344458,24.1226736 C199.344458,26.5586236 197.619828,26.9139736 196.825493,27.1619093 C196.335591,27.3164093 196.246182,27.7953593 197.277709,29.5507736 C198.189532,31.1082807 199.719089,33.2124236 200.582882,34.058495 C200.89766,34.3667593 201.16367,34.7044521 201.639532,34.9487093 C202.516626,35.5233021 204.443719,35.8374521 206.019089,35.732245 C208.318596,35.6358664 208.463424,34.9774021 208.463424,34.7463879" id="Fill-19" fill="#217624"></path>
            <g id="Group-23" transform="translate(110.837438, 72.122807)">
                <mask id="mask-2" fill="white">
                    <use xlink:href="#path-1"></use>
                </mask>
                <g id="Clip-22"></g>
                <path d="M35.6082266,15.9341 C34.2863054,15.3168357 29.5808867,13.9329571 25.5641379,11.8656 C20.7523153,9.38697857 12.4845813,2.24025 12.4845813,2.24025 C8.2491133,-1.25218571 4.82423645,0.742335714 4.70157635,0.819585714 C2.23655172,1.99084286 1.47546798,4.09277857 1.40748768,6.11378571 C1.33211823,8.71895 2.42128079,11.2211143 2.52546798,11.4675786 C2.69615764,11.8545643 2.68359606,11.9457929 2.55133005,11.9847857 C0.727684729,12.3916357 0.134334975,12.84925 0.0663546798,14.7908 C0.029408867,21.4159071 16.0528079,29.3358714 23.6230049,30.0767357 C27.2200493,30.4306143 30.4845813,29.77215 33.5163547,27.0073357 C39.6161084,21.4755 38.4744828,17.2745714 35.6082266,15.9341" id="Fill-21" fill="#217624" mask="url(#mask-2)"></path>
            </g>
            <path d="M108.479557,81.7884007 C107.847044,82.961865 105.808374,83.0920864 103.916749,82.0878364 C102.031773,81.076965 101.01798,79.3119864 101.647537,78.136315 C102.284483,76.9650579 104.323153,76.8326293 106.205172,77.8412936 C108.094581,78.852165 109.11133,80.6171436 108.479557,81.7884007" id="Fill-24" fill="#217624"></path>
            <path d="M101.935714,90.1516329 C94.8428571,95.14419 86.2596059,98.0738043 76.9330049,98.0738043 C53.7864532,98.0738043 35.179803,79.8722329 33.8128079,57.0915757 C33.7721675,56.50889 34.4785714,55.9946257 35.1384236,56.3808757 C37.7578818,57.9906186 43.5975369,61.31384 50.8270936,61.8303114 C51.4692118,61.8832829 52.3795567,61.8303114 52.7364532,62.80219 C53.1568966,63.8358686 54.3901478,67.1980829 62.5810345,72.5239186 C63.0029557,72.8005471 63.1278325,72.92709 63.0487685,73.2007757 C63.0487685,73.2029829 62.6830049,74.7060471 60.3155172,74.3396614 C56.5359606,73.76139 54.4448276,70.52719 53.285468,69.81649 C52.8598522,69.5376543 52.3174877,69.5604614 51.9605911,69.63109 C50.6881773,69.8922686 45.1337438,71.5542471 45.8652709,77.6606757 C46.2206897,80.6837257 48.970197,86.5157329 58.2731527,88.8891471 C60.1064039,89.4041471 70.5731527,90.7070971 78.555665,84.5535829 C79.2554187,84.0569757 80.2470443,83.3161114 83.0305419,84.65364 C83.9283251,85.0906543 91.0507389,88.4455114 100.666256,88.1799186 C100.666256,88.1799186 101.34532,88.1578471 102.059113,88.12989 C102.503202,88.1210614 102.863793,88.2807114 102.922167,88.70154 C102.982759,89.17534 102.667241,89.6417829 101.935714,90.1516329" id="Fill-26" fill="#217624"></path>
            <path d="M110.831601,45.4308721 C110.618054,46.4049579 110.643177,46.669815 111.178153,47.3819864 C112.081847,48.4487721 114.83431,51.8801436 116.437759,56.0060293 C116.632094,56.4790936 116.966084,56.3444579 117.191453,56.0420793 C117.898596,55.095215 119.665345,51.2238864 118.428399,45.6022936 C114.578645,26.8290721 96.2335714,12.8357864 76.9485961,12.8357864 C68.849335,12.8357864 58.2274138,16.1126579 51.8054926,20.837415 C51.4567241,21.0927079 51.1131281,21.3546221 50.7946552,21.6172721 C50.0210099,22.2595507 49.2658374,22.9474436 51.0281527,23.1107721 C53.5589409,23.3116221 57.3045074,23.4190364 61.0537685,23.690515 C68.5766749,24.2231721 76.8806158,25.8667579 82.2207635,27.8745221 C91.0574631,31.1742007 94.4084483,34.1258864 96.5897291,35.7172364 C97.1054926,36.1005436 97.2843103,36.1461579 97.4350493,36.0306507 C97.6234729,35.8864507 97.6389901,35.4803364 97.4202709,34.7549221 C97.2008128,34.0287721 96.3237192,32.5190864 94.0360345,30.6967221 C92.8434236,29.7358793 93.0185468,29.412165 93.705,28.819915 C94.2791379,28.3291936 95.7791379,27.2616721 98.3128818,27.2616721 C100.576182,27.2616721 104.96165,28.1511507 108.011158,31.2757293 C108.011158,31.2757293 112.951552,35.7319507 110.831601,45.4308721" id="Fill-28" fill="#217624"></path>
            <path d="M67.7857389,27.40212 C65.5416502,27.0695771 63.2680049,26.8142843 61.061601,26.6597843 C57.4660345,26.4052271 51.3537192,26.1021129 51.3537192,26.1021129 C33.1608621,24.9360057 21.9529803,9.03501286 19.0423892,5.98547714 C11.7086453,-2.35384429 6.24435961,-0.0760728571 3.40987685,1.63887714 C-0.309827586,3.87324143 -0.186428571,7.71293429 0.163817734,9.79647714 C1.65568966,19.0296914 8.92366995,24.7071986 14.9118473,27.89652 C21.7209606,31.5081414 28.414803,32.7625343 28.4776108,32.7743057 C34.8152956,33.9977986 35.1633251,37.4181343 35.1714532,37.4379986 C35.4965764,40.6229057 37.0327833,41.9214414 37.3224384,42.3658129 C37.7576601,42.8911129 37.5234236,43.1066771 36.8177586,42.8550629 C32.0251478,41.1908771 29.8667734,37.5660129 29.8202217,37.4836129 C29.3155419,36.67212 29.0295813,36.7839486 28.5699754,36.8869486 C26.6835222,37.3864986 25.4325369,38.3024629 24.8362315,39.6252771 C23.6399261,42.2694343 25.1687438,45.04602 25.5810591,45.6838843 C32.5460837,56.1817914 50.226133,57.9269057 63.8325369,57.53992 C78.2539655,57.1396914 91.2300739,54.3248486 91.9143103,54.1784414 C92.411601,54.0827986 92.5564286,54.3888557 92.1426355,54.7339057 C90.8340148,55.8227629 84.2177586,58.1917629 77.7633251,60.1311057 L77.376133,60.23852 L77.7492857,60.3849271 C97.2308128,68.0025129 110.237956,60.8447486 110.381305,60.7719129 C111.084015,60.4401057 112.049778,59.8912629 111.538448,58.85317 C103.991158,43.8703486 87.1822906,30.10072 67.7953448,27.40212 L67.7857389,27.40212 Z" id="Fill-30" fill="#217624"></path>
            <g id="Group-34" transform="translate(293.349754, 76.537093)">
                <mask id="mask-4" fill="white">
                    <use xlink:href="#path-3"></use>
                </mask>
                <g id="Clip-33"></g>
                <path d="M5.24955665,5.46179571 C4.69610837,6.02020286 4.02295567,6.29462429 3.23305419,6.29462429 C2.44093596,6.29462429 1.77,6.02020286 1.21655172,5.46179571 C0.662364532,4.90853857 0.386748768,4.23388857 0.386748768,3.44667429 C0.386748768,2.66240286 0.662364532,1.99731714 1.21876847,1.44406 C1.778867,0.88786 2.44758621,0.611231429 3.23305419,0.611231429 C4.02295567,0.611231429 4.69610837,0.88786 5.24955665,1.44406 C5.81039409,1.99216714 6.0882266,2.66240286 6.0882266,3.44667429 C6.0882266,4.23388857 5.81039409,4.90118143 5.24955665,5.46179571 Z M1.49881773,1.71995286 C1.02147783,2.20258143 0.785024631,2.77423143 0.785024631,3.44961714 C0.785024631,4.13309571 1.02147783,4.70916 1.49216749,5.19178857 C1.97394089,5.67221 2.54881773,5.90984571 3.23305419,5.90984571 C3.91285714,5.90984571 4.49438424,5.67221 4.97172414,5.19178857 C5.44463054,4.70916 5.68108374,4.13309571 5.68108374,3.44961714 C5.68108374,2.77423143 5.44463054,2.20258143 4.97172414,1.71995286 C4.48699507,1.24247429 3.90842365,0.997481429 3.23305419,0.997481429 C2.55768473,0.997481429 1.98133005,1.24247429 1.49881773,1.71995286 Z M3.17763547,1.88033857 C3.56630542,1.88033857 3.84857143,1.91491714 4.03256158,1.98996 C4.3562069,2.12312429 4.51729064,2.39018857 4.51729064,2.78158857 C4.51729064,3.05821714 4.41605911,3.26642429 4.20916256,3.39885286 C4.10349754,3.46506714 3.9520197,3.52024571 3.75916256,3.55261714 C4.00226601,3.58204571 4.18403941,3.68725286 4.29857143,3.85426 C4.40866995,4.01611714 4.46852217,4.17871 4.46852217,4.33688857 L4.46852217,4.56054571 C4.46852217,4.63632429 4.46852217,4.71357429 4.47812808,4.79376714 C4.48034483,4.87837429 4.48699507,4.93355286 4.50103448,4.95856714 L4.52172414,4.99756 L4.00226601,4.99756 C4.00226601,4.98358143 4.00078818,4.97475286 3.99561576,4.96518857 C3.99561576,4.95415286 3.99044335,4.94238143 3.98896552,4.93355286 L3.97492611,4.83055286 L3.97492611,4.58776714 C3.97492611,4.22432429 3.88034483,3.98889571 3.68305419,3.86750286 C3.56630542,3.80349571 3.36162562,3.77186 3.06975369,3.77186 L2.63305419,3.77186 L2.63305419,4.99756 L2.07960591,4.99756 L2.07960591,1.88033857 L3.17763547,1.88033857 Z M3.77246305,2.36958857 C3.63502463,2.29454571 3.40965517,2.25334571 3.10669951,2.25334571 L2.63305419,2.25334571 L2.63305419,3.38561 L3.13182266,3.38561 C3.36384236,3.38561 3.5426601,3.35986 3.65793103,3.31645286 C3.87369458,3.22743143 3.98157635,3.06483857 3.98157635,2.82499571 C3.98157635,2.59839571 3.91285714,2.44978143 3.77246305,2.36958857 Z" id="Fill-32" fill="#EDECEA" mask="url(#mask-4)"></path>
            </g>
        </g>
    </g>
</svg>