<?xml version="1.0" encoding="UTF-8"?>
<svg width="96px" height="96px" viewBox="0 0 96 96" version="1.1" xmlns="http://www.w3.org/2000/svg" xmlns:xlink="http://www.w3.org/1999/xlink">
    <!-- Generator: Sketch 52.6 (67491) - http://www.bohemiancoding.com/sketch -->
    <title>Icons / tools / slack</title>
    <desc>Created with Sketch.</desc>
    <g id="Icons-/-tools-/-slack" stroke="none" stroke-width="1" fill="none" fill-rule="evenodd">
        <g id="Slack-Mark">
            <g id="Group" transform="translate(0.000000, 50.322581)" fill="#E01E5A">
                <path d="M20.4387097,10.2193548 C20.4387097,15.716129 15.9483871,20.2064516 10.4516129,20.2064516 C4.95483871,20.2064516 0.464516129,15.716129 0.464516129,10.2193548 C0.464516129,4.72258065 4.95483871,0.232258065 10.4516129,0.232258065 L20.4387097,0.232258065 L20.4387097,10.2193548 Z" id="Path"></path>
                <path d="M25.4709677,10.2193548 C25.4709677,4.72258065 29.9612903,0.232258065 35.4580645,0.232258065 C40.9548387,0.232258065 45.4451613,4.72258065 45.4451613,10.2193548 L45.4451613,35.2258065 C45.4451613,40.7225806 40.9548387,45.2129032 35.4580645,45.2129032 C29.9612903,45.2129032 25.4709677,40.7225806 25.4709677,35.2258065 L25.4709677,10.2193548 Z" id="Path"></path>
            </g>
            <g id="Group" fill="#36C5F0">
                <path d="M35.4580645,20.4387097 C29.9612903,20.4387097 25.4709677,15.9483871 25.4709677,10.4516129 C25.4709677,4.95483871 29.9612903,0.464516129 35.4580645,0.464516129 C40.9548387,0.464516129 45.4451613,4.95483871 45.4451613,10.4516129 L45.4451613,20.4387097 L35.4580645,20.4387097 Z" id="Path"></path>
                <path d="M35.4580645,25.4709677 C40.9548387,25.4709677 45.4451613,29.9612903 45.4451613,35.4580645 C45.4451613,40.9548387 40.9548387,45.4451613 35.4580645,45.4451613 L10.4516129,45.4451613 C4.95483871,45.4451613 0.464516129,40.9548387 0.464516129,35.4580645 C0.464516129,29.9612903 4.95483871,25.4709677 10.4516129,25.4709677 L35.4580645,25.4709677 Z" id="Path"></path>
            </g>
            <g id="Group" transform="translate(50.322581, 0.000000)" fill="#2EB67D">
                <path d="M25.2387097,35.4580645 C25.2387097,29.9612903 29.7290323,25.4709677 35.2258065,25.4709677 C40.7225806,25.4709677 45.2129032,29.9612903 45.2129032,35.4580645 C45.2129032,40.9548387 40.7225806,45.4451613 35.2258065,45.4451613 L25.2387097,45.4451613 L25.2387097,35.4580645 Z" id="Path"></path>
                <path d="M20.2064516,35.4580645 C20.2064516,40.9548387 15.716129,45.4451613 10.2193548,45.4451613 C4.72258065,45.4451613 0.232258065,40.9548387 0.232258065,35.4580645 L0.232258065,10.4516129 C0.232258065,4.95483871 4.72258065,0.464516129 10.2193548,0.464516129 C15.716129,0.464516129 20.2064516,4.95483871 20.2064516,10.4516129 L20.2064516,35.4580645 Z" id="Path"></path>
            </g>
            <g id="Group" transform="translate(50.322581, 50.322581)" fill="#ECB22E">
                <path d="M10.2193548,25.2387097 C15.716129,25.2387097 20.2064516,29.7290323 20.2064516,35.2258065 C20.2064516,40.7225806 15.716129,45.2129032 10.2193548,45.2129032 C4.72258065,45.2129032 0.232258065,40.7225806 0.232258065,35.2258065 L0.232258065,25.2387097 L10.2193548,25.2387097 Z" id="Path"></path>
                <path d="M10.2193548,20.2064516 C4.72258065,20.2064516 0.232258065,15.716129 0.232258065,10.2193548 C0.232258065,4.72258065 4.72258065,0.232258065 10.2193548,0.232258065 L35.2258065,0.232258065 C40.7225806,0.232258065 45.2129032,4.72258065 45.2129032,10.2193548 C45.2129032,15.716129 40.7225806,20.2064516 35.2258065,20.2064516 L10.2193548,20.2064516 Z" id="Path"></path>
            </g>
        </g>
    </g>
</svg>