<?xml version="1.0" encoding="utf-8"?>
<!-- Generator: Adobe Illustrator 21.1.0, SVG Export Plug-In . SVG Version: 6.00 Build 0)  -->
<svg version="1.1" id="Layer_1" xmlns="http://www.w3.org/2000/svg" xmlns:xlink="http://www.w3.org/1999/xlink" x="0px" y="0px"
	 viewBox="0 0 300 300" style="enable-background:new 0 0 300 300;" xml:space="preserve">
<style type="text/css">
	.st0{fill:#009BA3;}
</style>
<g id="IpatkX.tif">
	<g>
		<path class="st0" d="M152.2,173.3c-7.6,6.3-15.1,12.7-22.7,18.8c-22.7,18.2-53.5,19.6-75.9,3.3C35,181.9,27.1,163,30.9,140.8
			c4-23.5,18.9-38.8,41.9-45c26.6-7.2,48.4,2.3,66.7,21.5c3.7,3.8,6.9,8.1,9.6,11.3c9.1-8.3,17.2-17.5,26.9-24.2
			c24.1-16.6,54.6-14.4,75,4.2c16.8,15.3,22.6,34.5,16.8,56.1c-6,22.1-21.5,35.8-43.8,40.4c-29.3,6-51.4-6.8-69.3-29.1
			c-1.2-1.4-2.3-3-3.4-4.4c-0.2-0.3-0.6-0.4-0.9-0.6C151,171.8,151.6,172.5,152.2,173.3z M89.9,187.9c2.3-0.4,6-0.7,9.5-1.6
			c14.9-3.8,25.3-13.6,33.6-25.8c7.9-11.7,8.3-8.8,0.1-20.6c-11.6-16.7-26.2-28.8-48.4-27.1c-18.1,1.4-36.2,16.5-35.8,37.8
			C49.4,171.4,67.3,187.8,89.9,187.9z M251.1,150.6c0.2-24.3-24.6-43-49.1-37.2c-13.9,3.3-24.4,11.6-32.5,22.8
			c-11.3,15.6-11.4,12.2,0.1,27.8c12,16.2,27.5,26.3,49,23C236.2,184.4,251,167.9,251.1,150.6z"/>
		<path class="st0" d="M106.9,155.2c-10.3,0-20.3-0.1-30.3,0.1c-4.1,0.1-3.7-2.6-3.7-5.2c-0.1-2.8-0.1-5.2,3.9-5.2
			c8.9,0.1,17.8-0.1,26.8,0.1C108.1,145,108.5,146.3,106.9,155.2z"/>
		<path class="st0" d="M191.3,154.4c0.9-3.5,0.8-7.8,2.8-9.1c2.3-1.6,6.3-0.6,9.9-0.8c0.1-2.1,0.3-3.7,0.4-5.3
			c0.1-1.6,0.1-3.3,0.2-5.4c3.2,0,6.3,0,10,0c0,3.4,0,6.8,0,10.7c2.4,0.2,4.2,0.4,6,0.3c3.9-0.2,6.6-0.2,6.6,5.3
			c-0.1,5.2-2.7,5.4-6.3,5c-4.9-0.6-6.9,1.2-6.2,6.2c0.2,1.8-0.1,3.6-0.2,5.7c-3.4,0-6.4,0-9.7,0c-0.4-3.8,0.4-8.6-1.6-10.7
			C201.2,154.4,196.4,155.1,191.3,154.4z"/>
	</g>
</g>
</svg>
