<?xml version="1.0" encoding="utf-8"?>
<!-- Generator: Adobe Illustrator 21.1.0, SVG Export Plug-In . SVG Version: 6.00 Build 0)  -->
<svg version="1.1" id="Layer_1" xmlns="http://www.w3.org/2000/svg" xmlns:xlink="http://www.w3.org/1999/xlink" x="0px" y="0px"
	 viewBox="0 0 300 300" style="enable-background:new 0 0 300 300;" xml:space="preserve">
<style type="text/css">
	.st0{fill:#B0B6B6;}
	.st1{fill:#E92633;}
	.st2{fill:#BB272F;}
	.st3{fill:#F2F2F2;}
	.st4{fill:#B3B3B3;}
</style>
<g>
	<polygon class="st0" points="148.9,30 262.2,70 244.4,216.7 148.9,270 55.6,216.7 37.8,70 	"/>
	<polygon class="st1" points="47.8,77.8 63.3,208.9 150,257.8 150,42.2 	"/>
	<polygon class="st2" points="250,77.8 232.2,208.9 150,257.8 150,42.2 	"/>
	<polygon class="st3" points="78.9,204.4 103.3,204.4 118.9,171.1 150,171.1 150,150 127.8,148.9 150,100 150,48.6 	"/>
	<polygon class="st4" points="221.1,204.4 196.7,204.4 181.1,171.1 150,171.1 150,150 172.2,148.9 150,100 150,48.6 	"/>
</g>
</svg>
