<!-- Generator: Adobe Illustrator 21.1.0, SVG Export Plug-In  -->
<svg version="1.1"
	 xmlns="http://www.w3.org/2000/svg" xmlns:xlink="http://www.w3.org/1999/xlink" xmlns:a="http://ns.adobe.com/AdobeSVGViewerExtensions/3.0/"
	 x="0px" y="0px" width="151px" height="134.9px" viewBox="0 0 151 134.9" style="enable-background:new 0 0 151 134.9;"
	 xml:space="preserve">
<style type="text/css">
	.st0{fill:#FFFFFF;}
</style>
<defs>
</defs>
<g>
	<path class="st0" d="M105.7,10.6c2.9,0,5.3-2.4,5.3-5.3c0-2.9-2.4-5.3-5.3-5.3s-5.3,2.4-5.3,5.3C100.4,8.2,102.8,10.6,105.7,10.6z
		 M105.7,3c1.3,0,2.3,1,2.3,2.3c0,1.3-1,2.3-2.3,2.3s-2.3-1-2.3-2.3C103.4,4,104.5,3,105.7,3z"/>
	<path class="st0" d="M71.2,5.3c0,2.9,2.4,5.3,5.3,5.3c2.9,0,5.3-2.4,5.3-5.3c0-2.9-2.4-5.3-5.3-5.3C73.6,0,71.2,2.4,71.2,5.3z
		 M76.5,3c1.3,0,2.3,1,2.3,2.3c0,1.3-1,2.3-2.3,2.3c-1.3,0-2.3-1-2.3-2.3C74.2,4,75.2,3,76.5,3z"/>
	<path class="st0" d="M51.2,105.1c2.9,0,5.3-2.4,5.3-5.3c0-2.9-2.4-5.3-5.3-5.3c-2.9,0-5.3,2.4-5.3,5.3
		C45.9,102.7,48.3,105.1,51.2,105.1z M51.2,97.4c1.3,0,2.3,1,2.3,2.3c0,1.3-1,2.3-2.3,2.3c-1.3,0-2.3-1-2.3-2.3
		C48.9,98.5,49.9,97.4,51.2,97.4z"/>
	<path class="st0" d="M145.6,39.9c-2.9,0-5.3,2.4-5.3,5.3c0,2.9,2.4,5.3,5.3,5.3c2.9,0,5.3-2.4,5.3-5.3
		C151,42.3,148.6,39.9,145.6,39.9z M145.6,47.5c-1.3,0-2.3-1-2.3-2.3c0-1.3,1-2.3,2.3-2.3c1.3,0,2.3,1,2.3,2.3
		C148,46.5,146.9,47.5,145.6,47.5z"/>
	<path class="st0" d="M145.6,69.1c-2.9,0-5.3,2.4-5.3,5.3c0,2.9,2.4,5.3,5.3,5.3c2.9,0,5.3-2.4,5.3-5.3
		C151,71.5,148.6,69.1,145.6,69.1z M145.6,76.8c-1.3,0-2.3-1-2.3-2.3c0-1.3,1-2.3,2.3-2.3c1.3,0,2.3,1,2.3,2.3
		C148,75.7,146.9,76.8,145.6,76.8z"/>
	<path class="st0" d="M136.4,99.8c0-2.9-2.4-5.3-5.3-5.3c-2.9,0-5.3,2.4-5.3,5.3c0,2.9,2.4,5.3,5.3,5.3
		C134,105.1,136.4,102.7,136.4,99.8z M131,102.1c-1.3,0-2.3-1-2.3-2.3c0-1.3,1-2.3,2.3-2.3s2.3,1,2.3,2.3
		C133.4,101,132.3,102.1,131,102.1z"/>
	<path class="st0" d="M14.5,88.4h45.8c1,1,2,2,3,3c3.1,2.8,4.9,6.6,4.9,10.5c0,0.9,0.4,1.7,1,2.3c-0.6,0.9-1,2-1,3.1
		c0,1.5,0.6,2.9,1.6,3.8c-1,1-1.6,2.3-1.6,3.8c0,1.5,0.6,2.9,1.6,3.8c-1,1-1.6,2.3-1.6,3.8c0,2.9,2.4,5.3,5.3,5.3h9.4
		c0.7,3.9,4.1,6.9,8.2,6.9c4.1,0,7.5-3,8.2-6.9h9.4c2.9,0,5.3-2.4,5.3-5.3c0-1.5-0.6-2.9-1.6-3.8c1-1,1.6-2.3,1.6-3.8
		c0-1.5-0.6-2.9-1.6-3.8c1-1,1.6-2.3,1.6-3.8c0-1.2-0.4-2.3-1-3.1c0.6-0.6,1-1.4,1-2.3c0-3.9,1.8-7.8,4.9-10.5
		c10.2-9,15.3-21.9,14.1-35.4c-1.4-15.8-11.6-29.1-25.7-35h18.4c0.5,2.4,2.6,4.3,5.2,4.3c2.9,0,5.3-2.4,5.3-5.3
		c0-2.9-2.4-5.3-5.3-5.3c-2.2,0-4.1,1.4-4.9,3.4H96v-1.9l-1.5-1.5h-6.7l-1.5,1.5V18c0,0,0,0,0,0H56c-0.7-2.1-2.7-3.5-5-3.5
		c-2.9,0-5.3,2.4-5.3,5.3c0,2.9,2.4,5.3,5.3,5.3c2.5,0,4.6-1.8,5.2-4.1h18.6c-11.3,4.8-20.2,14.3-23.9,26.3
		c-3.4-5.2-9.3-8.5-15.6-8.5c-10.3,0-18.7,8.4-18.7,18.7c0,0.7,0,1.4,0.1,2.1c-0.7-0.1-1.5-0.2-2.3-0.2C6.5,59.5,0,66,0,74
		C0,81.9,6.5,88.4,14.5,88.4z M51,22.1c-1.3,0-2.3-1-2.3-2.3c0-1.3,1-2.3,2.3-2.3c1.3,0,2.3,1,2.3,2.3C53.3,21.1,52.3,22.1,51,22.1z
		 M91.1,131.9c-2.4,0-4.5-1.6-5.1-3.9h10.3C95.6,130.2,93.6,131.9,91.1,131.9z M111.1,122.7c0,1.3-1,2.3-2.3,2.3H73.5
		c-1.3,0-2.3-1-2.3-2.3c0-1.3,1-2.3,2.3-2.3h35.3C110,120.3,111.1,121.4,111.1,122.7z M111.1,115c0,1.3-1,2.3-2.3,2.3H73.5
		c-1.3,0-2.3-1-2.3-2.3c0-1.3,1-2.3,2.3-2.3h35.3C110,112.7,111.1,113.7,111.1,115z M73.5,109.7c-1.3,0-2.3-1-2.3-2.3
		c0-1.3,1-2.3,2.3-2.3h35.3c1.3,0,2.3,1,2.3,2.3c0,1.3-1,2.3-2.3,2.3H73.5z M131,17.6c1.3,0,2.3,1,2.3,2.3c0,1.3-1,2.3-2.3,2.3
		s-2.3-1-2.3-2.3C128.7,18.6,129.8,17.6,131,17.6z M89.3,17.6H93v3.2h-3.7V17.6z M86.3,21v1.2l1.5,1.5h6.7l1.5-1.5V21
		c18.2,2.2,32.5,17,34.1,35.3c1.1,12.6-3.7,24.6-13.1,32.9c-3.8,3.3-5.9,8-5.9,12.8c0,0.1,0,0.1-0.1,0.1h-2.2H73.5h-2.2
		c-0.1,0-0.1,0-0.1-0.2c0-4.7-2.2-9.4-5.9-12.7c-0.3-0.2-0.5-0.5-0.8-0.7H79c6.1,0,11-5,11-11c0-0.2,0-0.3,0-0.5H97l1.3-2.3h17.2
		l1.2-2.4l-14.5-19L100,53l-9.6,9.1l-8.8-14L79.1,48l-9.3,12.2c-2.3-6.6-8.6-11.4-16-11.4c-0.1,0-0.1,0-0.2,0
		C57.9,33.9,70.8,22.9,86.3,21z M70.6,64l9.5-12.4l14.1,22.4h-4.9c-1.5-4.4-5.6-7.6-10.5-7.6h-8.3c0-0.2,0-0.4,0-0.6
		C70.7,65.2,70.7,64.6,70.6,64z M96.4,71.6L92,64.7l8.8-8.4l11.6,15.3H96.4z M14.5,62.5c3.5,0,6.8,1.6,9,4.3l2.3-1.9
		c-1.6-2-3.6-3.4-5.9-4.4c-0.2-1-0.3-2-0.3-3c0-8.6,7-15.7,15.7-15.7c5.5,0,10.7,3,13.5,7.7c-1.8,0.6-3.6,1.4-5.1,2.6l1.8,2.4
		c2.4-1.8,5.3-2.8,8.4-2.8c7.7,0,14,6.3,14,14c0,0.2,0,0.4,0,0.6h-3.8v3H79c4.4,0,8,3.6,8,8c0,4.4-3.6,8-8,8H14.5
		C8.1,85.4,3,80.3,3,74C3,67.6,8.1,62.5,14.5,62.5z"/>
	<path class="st0" d="M94.6,49.5c3.7,0,6.7-3,6.7-6.7c0-3.7-3-6.7-6.7-6.7c-3.7,0-6.7,3-6.7,6.7C87.9,46.5,90.9,49.5,94.6,49.5z
		 M94.6,39.2c2,0,3.7,1.6,3.7,3.7c0,2-1.6,3.7-3.7,3.7c-2,0-3.7-1.6-3.7-3.7C90.9,40.8,92.6,39.2,94.6,39.2z"/>
</g>
</svg>
