<?xml version="1.0" encoding="utf-8"?>
<!-- Generator: Adobe Illustrator 21.1.0, SVG Export Plug-In . SVG Version: 6.00 Build 0)  -->
<svg version="1.1" id="Layer_1" xmlns="http://www.w3.org/2000/svg" xmlns:xlink="http://www.w3.org/1999/xlink" x="0px" y="0px"
	 viewBox="0 0 300 300" style="enable-background:new 0 0 300 300;" xml:space="preserve">
<style type="text/css">
	.st0{fill:#23C4F2;}
</style>
<g>
	<path class="st0" d="M97.1,43.5H30v208.1h36.9v-73.8h30.2c0,0,60.4-1.7,60.4-70.5S97.1,43.5,97.1,43.5z M92.1,145.8H65.2V72h26.9
		c0,0,30.2,3.4,30.2,36.9S92.1,145.8,92.1,145.8z"/>
	<path class="st0" d="M176,246.5V213c0,0,18.5,13.4,40.3,13.4c0,0,20.1,3.4,20.1-16.8S176,179.4,176,139.1c0,0-3.4-43.6,53.7-43.6
		c20.1,0,33.6,6.7,33.6,6.7v30.2c0,0-57.1-20.1-57.1,3.4c0,20.1,63.8,26.9,63.8,70.5c0,0,0,50.3-53.7,50.3
		C189.4,256.6,176,246.5,176,246.5z"/>
</g>
</svg>
