<?xml version="1.0" encoding="utf-8"?>
<!-- Generator: Adobe Illustrator 21.1.0, SVG Export Plug-In . SVG Version: 6.00 Build 0)  -->
<svg version="1.1" id="Layer_1" xmlns="http://www.w3.org/2000/svg" xmlns:xlink="http://www.w3.org/1999/xlink" x="0px" y="0px"
	 viewBox="0 0 300 300" style="enable-background:new 0 0 300 300;" xml:space="preserve">
<style type="text/css">
	.st0{fill:#006EBC;}
	.st1{fill:#1CA7E1;}
	.st2{fill:#EBEBEB;}
	.st3{fill:#FFFFFF;}
</style>
<g>
	<polygon class="st0" points="43.6,30 256.4,30 236,245.1 150,270 61.7,245.1 	"/>
	<polygon class="st1" points="151.1,47 237.2,47 221.3,232.6 151.1,250.8 	"/>
	<polygon class="st2" points="83.2,71.9 83.2,101.3 151.1,101.3 151.1,72.2 	"/>
	<polygon class="st3" points="150.8,72.6 215.7,73 206.6,208.9 151.1,222.5 151.1,195.2 181.7,188.5 181.7,152.3 151.1,152.7 
		151.1,126.6 185.1,126.2 187.4,101.3 151.1,101.3 	"/>
	<polygon class="st2" points="151.6,126.6 119.4,126.2 119.4,152.6 151.1,152.6 	"/>
	<polygon class="st2" points="151.6,195.1 119.4,187.4 119.4,164.7 92.3,164.7 94.5,207.7 151.6,222.6 	"/>
</g>
</svg>
