<!-- Generator: Adobe Illustrator 21.1.0, SVG Export Plug-In  -->
<svg version="1.1"
	 xmlns="http://www.w3.org/2000/svg" xmlns:xlink="http://www.w3.org/1999/xlink" xmlns:a="http://ns.adobe.com/AdobeSVGViewerExtensions/3.0/"
	 x="0px" y="0px" width="114.6px" height="129.8px" viewBox="0 0 114.6 129.8" style="enable-background:new 0 0 114.6 129.8;"
	 xml:space="preserve">
<style type="text/css">
	.st0{fill:#FFFFFF;}
</style>
<defs>
</defs>
<g>
	<path class="st0" d="M41.2,95.3c0-0.1,0.1-0.1,0.1-0.2c0,0,0-0.1,0-0.1c0-0.1,0-0.2,0-0.3V10.6C41.4,4.7,36.6,0,30.8,0h-8.7
		c-5.8,0-10.6,4.7-10.6,10.6v84.1c0,0.1,0,0.2,0,0.3c0,0,0,0.1,0,0.1c0,0.1,0,0.1,0.1,0.2c0,0,0,0,0,0L24,120.4H9.4v3h16.5
		c0.2,0.1,0.3,0.1,0.5,0.1c0.2,0,0.4,0,0.5-0.1h38.2h1.2c8,0,14.5-6.5,14.5-14.5c0-8.2-6.4-14.8-14.2-14.8c-4.8,0-8.8,3.9-8.8,8.8
		c0,4.5,3.5,8.3,8.5,9.1c1.9,0.3,3.2,1.9,3.2,3.9c0,2.4-2,4.5-4.4,4.5H28.9L41.2,95.3C41.2,95.3,41.2,95.3,41.2,95.3z M66.9,109.1
		c-2.9-0.5-6-2.6-6-6.1c0-3.2,2.6-5.8,5.8-5.8c6.2,0,11.2,5.3,11.2,11.8c0,4.3-2.4,8-5.9,10c0.4-0.9,0.6-2,0.6-3
		C72.6,112.4,70.2,109.6,66.9,109.1z M24.2,114.2l-8.8-18h22l-8.8,18H24.2z M27.2,117.2l-0.7,1.5l-0.7-1.5H27.2z M38.4,28.4H14.5
		v-7.7h23.8V28.4z M14.5,93.2V31.4h6v61.8H14.5z M23.5,31.4h5.9l0,61.8h-5.9V31.4z M32.4,93.2l0-61.8h6v61.8H32.4z M22.1,3h8.7
		c4.2,0,7.6,3.4,7.6,7.6v7.1H14.5v-7.1C14.5,6.4,17.9,3,22.1,3z"/>
	<path class="st0" d="M91.3,3.7c-14.6,0-26.5,11.9-26.5,26.5c0,7,2.8,13.7,7.8,18.7c2.2,2.3,5.9,5.6,9.7,9
		c-3.2-1.1-6.7-1.7-10.2-1.8c-9.4-0.3-17.4,6.4-17.9,15.1c-0.3,4.5,1.2,8.8,4.3,12c3,3.2,7.3,5.1,11.7,5.1c2.7,0,5.1-0.5,7.2-1.6
		l0.1-0.1c2.5-1.6,5.6-2.5,8.9-2.5c6.3,0,12.1,3.7,14.8,9.5c1.4,3,1.5,6.6,0.3,10.1C96.9,117,85,126,71,126.8H0v3h71.1
		c20.4,0,36.9-16.6,36.9-36.9c0-9.8-4.1-18.9-10.7-25.5l0.1-0.1L84.5,52.4l-0.1-0.1c-2.1-2.1-3.2-4.8-3.2-7.7
		c0-6,4.9-10.8,10.8-10.8c1.4,0,2.9,0.3,4.3,0.8c1.5,0.6,3.2,0.9,4.8,0.9c7.5,0,13.5-6.1,13.5-13.5c0-3.7-1.5-7.2-3.9-9.7
		C105.6,6.8,98.5,3.7,91.3,3.7z M105,92.8c0,0.9,0,1.8-0.1,2.7c-0.2-1.1-0.6-2.1-1.1-3.1c-3.2-6.8-10-11.2-17.5-11.2
		c-3.8,0-7.4,1-10.4,2.9c-1.6,0.8-3.6,1.2-5.8,1.2c-3.6,0-7-1.5-9.5-4.1c-2.5-2.7-3.7-6.1-3.5-9.8c0.4-7,7.2-12.6,14.8-12.3
		c7.6,0.3,14.6,3.1,20.2,7.5c0.9,0.8,1.7,1.5,2.3,2C100.9,74.8,105,83.4,105,92.8z M101.1,32.5c-1.2,0-2.6-0.2-3.7-0.7
		c-1.7-0.7-3.5-1-5.3-1c-7.6,0-13.8,6.2-13.8,13.8c0,2.8,0.8,5.5,2.4,7.7c-2.3-2.1-4.4-4.1-5.9-5.6c-4.4-4.5-6.9-10.4-6.9-16.6
		c0-13,10.5-23.5,23.5-23.5c6.4,0,12.7,2.8,17.2,7.7c2,2,3.1,4.7,3.1,7.6C111.6,27.8,106.9,32.5,101.1,32.5z"/>
</g>
</svg>
