<?xml version="1.0" encoding="utf-8"?>
<!-- Generator: Adobe Illustrator 21.1.0, SVG Export Plug-In . SVG Version: 6.00 Build 0)  -->
<svg version="1.1" id="Layer_1" xmlns="http://www.w3.org/2000/svg" xmlns:xlink="http://www.w3.org/1999/xlink" x="0px" y="0px"
	 viewBox="0 0 100 100" style="enable-background:new 0 0 100 100;" xml:space="preserve">
<style type="text/css">
	.st0{fill:#FFFFFF;}
</style>
<g>
	<path class="st0" d="M90,25.2c-2.3,3.3-5,6.1-8.2,8.5c0,0.5,0.1,1.2,0.1,2.1c0,4.4-0.6,8.8-1.9,13.2c-1.3,4.4-3.2,8.6-5.9,12.6
		c-2.6,4-5.7,7.6-9.4,10.7c-3.6,3.1-8,5.6-13.1,7.4c-5.1,1.8-10.6,2.8-16.4,2.8C26,82.5,17.6,80,10,75.1c1.2,0.1,2.5,0.2,4,0.2
		c7.6,0,14.4-2.3,20.4-7c-3.6-0.1-6.7-1.2-9.5-3.3C22,62.9,20,60.2,19,57c1.1,0.2,2.1,0.3,3.1,0.3c1.5,0,2.9-0.2,4.3-0.6
		C22.6,55.9,19.5,54,17,51s-3.7-6.5-3.7-10.4v-0.2c2.3,1.3,4.8,2,7.4,2.1c-2.2-1.5-4-3.4-5.3-5.8c-1.3-2.4-2-5-2-7.8
		c0-3,0.7-5.7,2.2-8.3c4.1,5,9.1,9.1,14.9,12.1c5.9,3,12.2,4.7,18.9,5.1c-0.3-1.3-0.4-2.5-0.4-3.8c0-4.5,1.6-8.4,4.8-11.6
		c3.2-3.2,7.1-4.8,11.6-4.8c4.7,0,8.7,1.7,12,5.2c3.7-0.7,7.2-2,10.4-4c-1.3,3.9-3.7,6.9-7.2,9C83.7,27.4,86.9,26.6,90,25.2z"/>
</g>
</svg>
