<?xml version="1.0" encoding="utf-8"?>
<!-- Generator: Adobe Illustrator 21.1.0, SVG Export Plug-In . SVG Version: 6.00 Build 0)  -->
<svg version="1.1" id="Layer_1" xmlns="http://www.w3.org/2000/svg" xmlns:xlink="http://www.w3.org/1999/xlink" x="0px" y="0px"
	 viewBox="0 0 300 300" style="enable-background:new 0 0 300 300;" xml:space="preserve">
<style type="text/css">
	.st0{fill:#4587FF;}
</style>
<g>
	<circle class="st0" cx="148.3" cy="150" r="52.2"/>
	<circle class="st0" cx="230" cy="75.2" r="24.3"/>
	<path class="st0" d="M259.1,100c-4.6,5.4-10.7,9.5-17.7,11.7c4.9,11.8,7.7,24.7,7.7,38.3c0,54.7-44.4,99.1-99.1,99.1
		S50.9,204.7,50.9,150S95.3,50.9,150,50.9c16,0,31,3.8,44.4,10.5c2.6-6.8,7.1-12.6,12.8-16.8C190.2,35.3,170.7,30,150,30
		C83.7,30,30,83.7,30,150s53.7,120,120,120s120-53.7,120-120C270,132.2,266.1,115.3,259.1,100z"/>
</g>
</svg>
