<!-- Generator: Adobe Illustrator 21.1.0, SVG Export Plug-In  -->
<svg version="1.1"
	 xmlns="http://www.w3.org/2000/svg" xmlns:xlink="http://www.w3.org/1999/xlink" xmlns:a="http://ns.adobe.com/AdobeSVGViewerExtensions/3.0/"
	 x="0px" y="0px" width="121.5px" height="149.3px" viewBox="0 0 121.5 149.3" style="enable-background:new 0 0 121.5 149.3;"
	 xml:space="preserve">
<style type="text/css">
	.st0{fill:#FFFFFF;}
</style>
<defs>
</defs>
<g>
	<path class="st0" d="M28.6,109.1l0-101.1c0-2.1-0.8-4.1-2.3-5.6C24.8,0.8,22.8,0,20.7,0H7.9C5.8,0,3.8,0.8,2.3,2.3
		C0.8,3.8,0,5.8,0,7.9l0,101.1v0.5l14.3,25.2l6.2-11.1l0.2-0.3h-0.1l7.9-13.9V109.1z M3,105.5l0-79h5.5l0,79.1
		C6.8,105,4.8,104.9,3,105.5z M25.6,18.5H3l0-2.1h22.6L25.6,18.5z M25.6,21.5l0,2H3l0-2H25.6z M11.5,26.5h5.5l0,79.1
		c-0.8-0.3-1.7-0.5-2.6-0.5c-1,0-2,0.2-2.9,0.6L11.5,26.5z M20.1,105.8l0-79.3h5.5l0,78.9C23.8,104.8,21.8,105,20.1,105.8z M4.4,4.4
		C5.4,3.5,6.6,3,7.9,3h12.8c1.3,0,2.6,0.5,3.5,1.4c0.9,0.9,1.4,2.2,1.4,3.5l0,5.5H3l0-5.5C3,6.6,3.5,5.4,4.4,4.4z M11.3,123.4
		l-8.3-14.6c0.8-0.5,1.7-0.8,2.6-0.8c1,0,2,0.4,2.8,1c0.9,0.7,2.2,0.7,3.1,0c1.6-1.3,4.1-1.3,5.7,0c0.4,0.4,1,0.5,1.5,0.5
		c0.6,0,1.1-0.2,1.5-0.5c1.5-1.2,3.6-1.4,5.2-0.3l-8.3,14.7H11.3z"/>
	<polygon class="st0" points="63.8,41.7 66.8,41.7 66.8,27.5 72.5,27.5 72.5,24.5 57.3,24.5 57.3,27.5 63.8,27.5 	"/>
	<polygon class="st0" points="63.8,74.6 66.8,74.6 66.8,60.5 72.5,60.5 72.5,57.5 57.3,57.5 57.3,60.5 63.8,60.5 	"/>
	<polygon class="st0" points="63.8,92.9 63.8,107 66.8,107 66.8,92.9 72.5,92.9 72.5,89.9 57.3,89.9 57.3,92.9 	"/>
	<path class="st0" d="M58.6,137l8.5,12.3v-26.4h22.5h15.2h0.9c8.7,0,15.7-7.1,15.7-15.7V24.3c0-8.7-7.1-15.7-15.7-15.7h-0.9H89.6
		H33.7v114.4h16.5v26.4L58.6,137z M64,139.7l-5.5-7.9l-5.5,7.9v-16.8H64V139.7z M105.7,11.5c7,0,12.7,5.7,12.7,12.7v82.9
		c0,7-5.7,12.7-12.7,12.7h-0.9V11.5H105.7z M101.8,11.5v108.4h-9.2V11.5H101.8z M89.6,119.9H46.2V11.5h43.4V119.9z M36.7,11.5h6.5
		v108.4h-6.5V11.5z"/>
</g>
</svg>
