<?xml version="1.0" encoding="utf-8"?>
<!-- Generator: Adobe Illustrator 21.1.0, SVG Export Plug-In . SVG Version: 6.00 Build 0)  -->
<svg version="1.1" id="Layer_1" xmlns="http://www.w3.org/2000/svg" xmlns:xlink="http://www.w3.org/1999/xlink" x="0px" y="0px"
	 viewBox="0 0 100 100" style="enable-background:new 0 0 100 100;" xml:space="preserve">
<style type="text/css">
	.st0{fill:#FFFFFF;}
</style>
<g>
	<path class="st0" d="M10,24.9h23.2c2.3,0,4.3,0.2,6.1,0.5c1.8,0.4,3.4,1,4.9,1.9c1.5,0.9,2.7,2.1,3.5,3.8s1.2,3.6,1.2,6
		c0,4.7-2.2,8.1-6.7,10.3c3,0.8,5.2,2.3,6.7,4.5c1.5,2.2,2.3,4.8,2.3,8c0,2-0.3,3.7-1,5.3c-0.6,1.6-1.5,3-2.6,4
		c-1.1,1.1-2.4,2-3.8,2.8c-1.5,0.8-3.1,1.3-4.7,1.6c-1.7,0.3-3.4,0.5-5.2,0.5H10V24.9z M20.8,44.8h11c2,0,3.6-0.5,4.8-1.4
		s1.8-2.4,1.8-4.4c0-3.7-2.5-5.6-7.4-5.6H20.8V44.8z M20.8,65.8h11.6c5.3,0,8-2.2,8-6.5c0-4.7-2.6-7-7.8-7H20.8V65.8z M73,67.7
		c1.6,0,3.2-0.4,4.8-1.2c1.5-0.8,2.5-2,3-3.4h8.6c-2.6,8-8.2,12-16.7,12c-5.6,0-10-1.7-13.3-5.2c-3.3-3.4-4.9-8-4.9-13.6
		c0-5.4,1.7-9.9,5.1-13.5c3.4-3.6,7.8-5.4,13.1-5.4c3.6,0,6.7,0.9,9.4,2.7c2.7,1.8,4.7,4.1,6,7c1.3,2.9,2,6.1,2,9.7
		c0,0.4,0,1.1-0.1,1.8H64.2c0,2.9,0.7,5.1,2.2,6.7S70.1,67.7,73,67.7z M82.2,28.2h-20v4.8h20V28.2z M72.3,44.9
		c-2.3,0-4.2,0.7-5.7,2.1c-1.5,1.4-2.3,3.2-2.4,5.6h15.9C79.7,47.4,77.1,44.9,72.3,44.9z"/>
</g>
</svg>
