<?xml version="1.0" encoding="utf-8"?>
<!-- Generator: Adobe Illustrator 21.1.0, SVG Export Plug-In . SVG Version: 6.00 Build 0)  -->
<svg version="1.1" id="Layer_1" xmlns="http://www.w3.org/2000/svg" xmlns:xlink="http://www.w3.org/1999/xlink" x="0px" y="0px"
	 viewBox="0 0 300 300" style="enable-background:new 0 0 300 300;" xml:space="preserve">
<style type="text/css">
	.st0{fill:#72BD3B;}
</style>
<g id="N5LLgt.tif">
	<g>
		<path class="st0" d="M207,270c-11.4,0-22.8,0-34.1,0c-2.3-0.7-4.7-1.4-7-2.1c-19.9-6.2-24.4-25.8-21.3-41.3
			c2.8-13.8,21.3-24,36.9-21.2c0,2.7,0,5.6,0,8.4c0,3,0,5.9,0,8.9c-1.9,0-3.1,0.2-4.3,0c-10.7-1.8-13.8,4.5-12.7,13.5
			c1,8.2,6.8,13.2,14.8,13.2c5.2,0,10.3,0,15.5,0c10.2,0,15.3-4.9,15.7-15.2c0.2-6.7,0.1-13.5,0-20.3c-0.1-8-3.7-14.5-10.5-18
			c-5.8-3-12.5-5.2-19-5.7c-9.2-0.8-17-3.6-23.4-10c-4.3-4.3-8-9.2-12.7-14.6c0,8.1,0.5,15.4-0.2,22.5c-0.3,3.6-1.7,8-4.2,10.4
			c-3.9,3.6-8.9,6.6-13.9,8.3c-12.1,4-24.6,3.1-36.9,0.7c-15.3-3-23.7-14.2-29.8-27.3c-9.1-19.5-12-40.4-12.4-61.7
			c-0.2-8.3,2.9-15.6,8.2-22c2.4-3,5.2-4.3,9.2-4.3c12.3,0.2,24.5,0.1,36.8,0.1c6.2,0,14.6-8.5,14.6-14.7c0-11.6-0.1-23.1,0.1-34.7
			c0.1-6.6,3-10.1,9.4-11.8c1.5-0.4,3.1-0.8,4.6-1.2c3.9,0,7.8,0,11.7,0c10.1,2.4,18.8,7,25,15.7c0.7,1,2.8,1.2,4.3,1.2
			c8.7,0.1,17.5-0.7,26.1,0.2c17.2,1.8,33.4,6.4,41.9,23.8c2.5,5.2,4.7,10.8,6.1,16.4c5.9,23.4,6.5,47.4,7.1,71.4
			c0.5,21,0,42-5.9,62.3C240.2,242.9,229.9,261.5,207,270z M219.8,150.7c-3.8-5-6.5-8.9-9.7-12.4c-3.8-4.1-7.5-9.6-14-7.7
			c-6.2,1.8-7.4,8-8.9,13.5c-0.1,0.3,0.1,0.6,0.3,1.3C197.6,147.1,207.9,148.8,219.8,150.7z"/>
		<path class="st0" d="M57.6,81.5C74.3,65.3,90,50,105.7,34.7c0,9-0.7,18.7,0.2,28.2c0.8,7.9-2.6,12.7-8.1,17
			c-1,0.8-2.5,1.6-3.7,1.6C82.4,81.6,70.7,81.5,57.6,81.5z"/>
	</g>
</g>
</svg>
