<?xml version="1.0" encoding="utf-8"?>
<!-- Generator: Adobe Illustrator 21.1.0, SVG Export Plug-In . SVG Version: 6.00 Build 0)  -->
<svg version="1.1" id="Layer_1" xmlns="http://www.w3.org/2000/svg" xmlns:xlink="http://www.w3.org/1999/xlink" x="0px" y="0px"
	 viewBox="0 0 100 100" style="enable-background:new 0 0 100 100;" xml:space="preserve">
<style type="text/css">
	.st0{fill:#FFFFFF;}
</style>
<g>
	<path class="st0" d="M29.3,20.7c0,2.5-0.8,4.7-2.6,6.4c-1.8,1.7-4.1,2.6-7.1,2.6h-0.1c-2.8,0-5.1-0.8-6.9-2.6
		c-1.7-1.7-2.6-3.8-2.6-6.4c0-2.6,0.9-4.7,2.7-6.4c1.8-1.7,4.1-2.5,7-2.5c2.9,0,5.2,0.8,6.9,2.5C28.4,16,29.2,18.1,29.3,20.7z
		 M28.2,36.6v51.6H11V36.6H28.2z M90,58.6v29.6H72.9V60.6c0-3.6-0.7-6.5-2.1-8.6C69.3,50,67.2,49,64.2,49c-2.2,0-4,0.6-5.5,1.8
		c-1.5,1.2-2.6,2.7-3.3,4.5c-0.4,1-0.6,2.4-0.6,4.2v28.8H37.7c0.1-13.9,0.1-25.1,0.1-33.7c0-8.6,0-13.7-0.1-15.4l-0.1-2.5h17.1v7.5
		h-0.1c0.7-1.1,1.4-2.1,2.1-2.9c0.7-0.8,1.7-1.7,2.9-2.7c1.2-1,2.7-1.7,4.5-2.3c1.8-0.5,3.8-0.8,6-0.8c5.9,0,10.7,2,14.3,5.9
		C88.2,45.3,90,51,90,58.6z"/>
</g>
</svg>
