<?xml version="1.0" encoding="utf-8"?>
<!-- Generator: Adobe Illustrator 21.1.0, SVG Export Plug-In . SVG Version: 6.00 Build 0)  -->
<svg version="1.1" id="Layer_1" xmlns="http://www.w3.org/2000/svg" xmlns:xlink="http://www.w3.org/1999/xlink" x="0px" y="0px"
	 viewBox="0 0 100 100" style="enable-background:new 0 0 100 100;" xml:space="preserve">
<style type="text/css">
	.st0{fill:#FFFFFF;}
</style>
<g>
	<path class="st0" d="M90,51c0,8.7-2.5,16.6-7.6,23.5c-5.1,7-11.7,11.8-19.7,14.5c-0.9,0.2-1.6,0.1-2.1-0.4
		c-0.4-0.4-0.7-0.9-0.7-1.6V76c0-3.4-0.9-5.8-2.7-7.4c2-0.2,3.8-0.5,5.3-0.9c1.6-0.4,3.2-1.1,4.9-2c1.7-0.9,3.1-2.1,4.2-3.5
		c1.1-1.4,2-3.2,2.8-5.5c0.7-2.3,1.1-4.9,1.1-7.8c0-4.2-1.4-7.8-4.1-10.7c1.3-3.2,1.1-6.7-0.4-10.6c-1-0.3-2.4-0.1-4.2,0.6
		c-1.8,0.7-3.4,1.5-4.8,2.3l-2,1.2c-3.2-0.9-6.6-1.4-10-1.4c-3.4,0-6.8,0.5-10,1.4c-0.6-0.4-1.3-0.8-2.2-1.4c-0.9-0.6-2.4-1.2-4.3-2
		c-2-0.8-3.5-1-4.5-0.7c-1.5,3.9-1.6,7.5-0.4,10.6c-2.7,3-4.1,6.5-4.1,10.7c0,3,0.4,5.6,1.1,7.8c0.7,2.3,1.6,4.1,2.7,5.5
		c1.1,1.4,2.5,2.6,4.2,3.5c1.7,0.9,3.3,1.6,4.9,2c1.6,0.4,3.4,0.7,5.3,0.9c-1.4,1.3-2.2,3-2.6,5.4c-0.7,0.3-1.5,0.6-2.3,0.8
		C37,75,36,75,34.8,75s-2.3-0.4-3.4-1.1c-1.1-0.7-2.1-1.8-2.9-3.3c-0.7-1.1-1.5-2-2.5-2.7c-1-0.7-1.9-1.1-2.6-1.3l-1-0.2
		c-0.7,0-1.2,0.1-1.5,0.2c-0.3,0.2-0.4,0.4-0.3,0.6c0.1,0.2,0.3,0.5,0.5,0.7c0.2,0.2,0.4,0.5,0.7,0.6l0.4,0.3c0.8,0.3,1.5,1,2.3,2
		c0.7,1,1.3,1.9,1.6,2.7l0.5,1.2c0.4,1.3,1.2,2.4,2.3,3.2c1.1,0.8,2.2,1.3,3.5,1.6c1.3,0.2,2.5,0.3,3.6,0.4c1.2,0,2.1,0,2.9-0.2
		l1.2-0.2c0,1.3,0,2.9,0,4.6c0,1.8,0,2.7,0,2.8c0,0.6-0.2,1.1-0.7,1.6c-0.5,0.4-1.1,0.5-2.1,0.4c-8.1-2.7-14.6-7.5-19.7-14.5
		C12.5,67.5,10,59.7,10,51c0-7.3,1.8-13.9,5.4-20.1c3.6-6.1,8.4-11,14.6-14.6C36.1,12.8,42.7,11,50,11s13.9,1.8,20.1,5.4
		c6.1,3.6,11,8.4,14.6,14.6C88.2,37,90,43.7,90,51z"/>
</g>
</svg>
