<?xml version="1.0" encoding="utf-8"?>
<!-- Generator: Adobe Illustrator 21.1.0, SVG Export Plug-In . SVG Version: 6.00 Build 0)  -->
<svg version="1.1" id="Layer_1" xmlns="http://www.w3.org/2000/svg" xmlns:xlink="http://www.w3.org/1999/xlink" x="0px" y="0px"
	 viewBox="0 0 300 300" style="enable-background:new 0 0 300 300;" xml:space="preserve">
<style type="text/css">
	.st0{fill:#E84B00;}
	.st1{fill:#F66500;}
	.st2{fill:#EBEBEB;}
	.st3{fill:#FFFFFF;}
</style>
<g>
	<polygon class="st0" points="43.6,30 256.4,30 236,245.1 150,270 61.7,245.1 	"/>
	<polygon class="st1" points="151.1,47 237.2,47 221.3,232.6 151.1,250.8 	"/>
	<polygon class="st2" points="85.5,74.2 92.3,153.4 150,152.3 150,127.4 114.9,126.2 112.6,99.1 151.1,99 151.1,74.2 	"/>
	<polygon class="st2" points="94.5,167 119.4,167 119.4,189.6 151.1,198.7 151.1,223.9 96.8,210 	"/>
	<polygon class="st3" points="219.1,74.2 216.8,99.1 151.1,99.1 151.1,74.2 	"/>
	<polygon class="st3" points="150,152.3 185.1,153.4 182.8,187.4 150.8,198.7 150.8,223.8 208.9,208.9 215.7,127.4 150,127.4 	"/>
</g>
</svg>
