<?xml version="1.0" encoding="utf-8"?>
<!-- Generator: Adobe Illustrator 21.1.0, SVG Export Plug-In . SVG Version: 6.00 Build 0)  -->
<svg version="1.1" id="Layer_1" xmlns="http://www.w3.org/2000/svg" xmlns:xlink="http://www.w3.org/1999/xlink" x="0px" y="0px"
	 viewBox="0 0 300 300" style="enable-background:new 0 0 300 300;" xml:space="preserve">
<style type="text/css">
	.st0{fill:#6FC4CD;}
	.st1{fill:#DFA21A;}
	.st2{fill:#35B186;}
	.st3{fill:#CF175A;}
	.st4{fill:#BC2124;}
	.st5{fill:#6FC4CC;}
	.st6{fill:#618136;}
	.st7{fill:#1C8C73;}
	.st8{fill:#36B186;}
	.st9{fill:#392438;}
</style>
<g id="oJfsYu.tif">
	<g>
		<path class="st0" d="M79.1,148.2c-6.5,2.1-13.1,4.2-19.6,6.3c-12.8,4.2-23-0.4-28.4-12.9c-0.3-0.6-0.7-1.2-1.1-1.7
			c0-3.6,0-7.1,0-10.7c4.4-11.1,13.8-15.3,24.5-18c3.9-1,7.8-2.3,11.7-3.4c4.4,13.2,8.8,26.3,13.1,39.5
			C79.2,147.6,79.2,147.9,79.1,148.2z"/>
		<path class="st1" d="M151.9,79.2c-2.2-6.7-4.5-13.4-6.6-20.1c-4.1-13,1.7-24,14.8-28.2c0.4-0.1,0.8-0.6,1.1-0.9c2.5,0,5,0,7.5,0
			c10.9,2.9,16.4,10.4,19,21c1.2,5.1,3.2,10.1,4.9,15.1c-0.2,0.2-0.3,0.5-0.4,0.7c-3.5,1.1-7.1,2.1-10.6,3.2
			C171.6,73,162.1,77,151.9,79.2z"/>
		<path class="st2" d="M129.2,270c-10-4.1-14.9-12-17.3-22.1c-1.1-4.8-3-9.3-4.6-14c0.2-0.2,0.3-0.4,0.5-0.7
			c13.3-4.1,26.6-7.9,39.5-13c0.3,0,0.6,0.1,0.9,0.1c1.7,5.5,3,11.3,5.2,16.6c5.6,13.7,2.7,26.9-14.6,33
			C135.6,270,132.4,270,129.2,270z"/>
		<path class="st3" d="M270,169.7c-3.5,10.6-11.5,15.8-21.9,18.2c-4.8,1.1-9.5,2.9-14.2,4.3c-3.6-10.7-7.2-21.4-10.8-32.1
			c-0.9-2.6-1-5.6-3.3-7.6c0.1-0.3,0.3-0.6,0.3-0.9c6.7-2.1,13.4-4.1,20.1-6.2c10-3.1,19.1-0.7,25,6.5c2.2,2.8,3,6.2,4.7,9.2
			C270,164,270,166.9,270,169.7z"/>
		<path class="st1" d="M220.1,151.8c-0.1,0.3-0.2,0.6-0.3,0.9c-13.3,3.6-26.4,8.1-39.3,12.8c-0.3-0.1-0.6-0.1-0.9-0.2
			c-4.8-14.9-9.6-29.8-14.4-44.7c0.1-0.3,0.2-0.6,0.3-0.9c13.4-3.8,26.8-7.9,39.8-12.9c0.2,0.1,0.5,0.2,0.7,0.4
			c4.3,13.7,8.7,27.4,13,41.1C219.5,149.4,219.8,150.6,220.1,151.8z"/>
		<path class="st0" d="M206.1,107.1c-0.2-0.1-0.5-0.3-0.7-0.4c-4.1-13.4-7.9-26.9-13.2-39.9c0.1-0.3,0.2-0.5,0.4-0.7
			c6.6-2,13.2-4,19.7-6.1c12.9-4.2,24.8,1.3,28.8,13.3c3.9,11.7-2.5,22.9-15.4,27.2C219.1,102.7,212.6,104.9,206.1,107.1z"/>
		<path class="st3" d="M179.6,165.2c0.3,0.1,0.6,0.1,0.9,0.2c0,3.5,1.8,6.4,2.6,9.6c2.7,10.4,7.2,20.2,9.1,30.8
			c-14.6,4.8-29.3,9.7-43.9,14.5c-0.3-0.1-0.6-0.1-0.9-0.1c-3.5-13.5-8.1-26.7-12.9-39.8c0.1-0.2,0.2-0.5,0.3-0.7
			C149.7,174.9,164.7,170,179.6,165.2z"/>
		<path class="st4" d="M192.2,205.8c-1.9-10.6-6.5-20.4-9.1-30.8c-0.8-3.2-2.7-6.2-2.6-9.6c13-4.7,26-9.2,39.3-12.8
			c2.3,2,2.4,5,3.3,7.6c3.6,10.7,7.2,21.4,10.8,32.1c0,0.3-0.1,0.5-0.2,0.7c-13.7,3.9-27.2,8.2-40.5,13.1
			C192.8,206,192.5,205.9,192.2,205.8z"/>
		<path class="st1" d="M193.1,206.1c13.3-4.9,26.8-9.2,40.5-13.1c2.3,7.1,4.6,14.1,6.8,21.2c4.1,12.9-3.3,22.8-13.4,26.7
			c-11.2,4.4-23-1.9-27.1-13.7C197.6,220.2,195.4,213.2,193.1,206.1z"/>
		<path class="st5" d="M165.5,119.6c-0.1,0.3-0.2,0.6-0.3,0.9c-12.1,3.8-24.1,7.5-36.1,11.4c-2.9,1-6.3,1.1-8.6,3.6
			c-0.3,0-0.6,0-0.9,0c-3-13.9-8.2-27.1-12.7-40.5c0-0.4,0.1-0.8,0.1-1.2c12.9-4.1,25.8-8.2,38.7-12.2c2-0.6,4.1-1.1,6.1-1.6
			c0.4,0.9,0.9,1.9,1.2,2.8C157.1,95.1,161.3,107.4,165.5,119.6z"/>
		<path class="st6" d="M165.5,119.6c-4.2-12.3-8.4-24.5-12.6-36.8c-0.3-1-0.8-1.9-1.2-2.8c0.1-0.3,0.2-0.5,0.2-0.8
			c10.1-2.3,19.7-6.3,29.6-9.3c3.5-1.1,7.1-2.1,10.6-3.2c5.4,13,9.1,26.5,13.2,39.9C192.3,111.8,179,115.9,165.5,119.6z"/>
		<path class="st7" d="M106.8,95c4.6,13.4,9.8,26.6,12.7,40.5c-2.5-0.3-4.8,0.8-7.1,1.5c-11,3.5-21.7,7.9-33.1,10.2
			c-4.4-13.2-8.8-26.3-13.1-39.5c0.1-0.3,0.2-0.6,0.2-0.9c2.6,0.2,4.8-0.9,7.2-1.6C84.6,101.8,95.7,98.4,106.8,95z"/>
		<path class="st8" d="M106.8,95c-11.1,3.4-22.2,6.8-33.3,10.2c-2.3,0.7-4.6,1.8-7.2,1.6c-2.5-7.4-5.4-14.6-7.3-22.1
			c-3-11.3,3.4-22.6,14.1-25.8c11.4-3.5,22.7,2.3,26.8,13.8c2.5,7,4.7,14.1,7,21.1C106.9,94.3,106.9,94.6,106.8,95z"/>
		<path class="st2" d="M79.3,147.3c11.4-2.2,22.1-6.7,33.1-10.2c2.3-0.7,4.6-1.8,7.1-1.5c0.3,0,0.6,0,0.9,0
			c4.8,14.7,9.6,29.4,14.3,44.1c0,0.3-0.1,0.5-0.3,0.7c-13.5,3.6-26.8,8-39.9,12.9c-0.3-0.1-0.5-0.2-0.8-0.3
			c-4.6-15-9-30.1-14.8-44.8C79.2,147.9,79.2,147.6,79.3,147.3z"/>
		<path class="st3" d="M93.9,193c0.2,0.2,0.5,0.3,0.8,0.3c1.9,6.2,3.6,12.5,5.8,18.6c2.5,7.1,3.7,14.6,7.5,21.3
			c-0.2,0.2-0.3,0.4-0.5,0.7c-7.1,2.2-14.1,4.4-21.2,6.6c-13.1,4.1-24.8-2.7-27.8-16c-2.7-12.1,5.6-22.9,18.5-25.3
			C82.7,198,88.2,195.1,93.9,193z"/>
		<path class="st9" d="M107.9,233.2c-3.7-6.6-5-14.2-7.5-21.3c-2.2-6.1-3.9-12.4-5.8-18.6c13.1-4.9,26.3-9.3,39.9-12.9
			c4.8,13.1,9.4,26.3,12.9,39.8C134.5,225.3,121.2,229.2,107.9,233.2z"/>
	</g>
</g>
</svg>
