<!-- Generator: Adobe Illustrator 21.1.0, SVG Export Plug-In  -->
<svg version="1.1"
	 xmlns="http://www.w3.org/2000/svg" xmlns:xlink="http://www.w3.org/1999/xlink" xmlns:a="http://ns.adobe.com/AdobeSVGViewerExtensions/3.0/"
	 x="0px" y="0px" width="112.2px" height="132.7px" viewBox="0 0 112.2 132.7" style="enable-background:new 0 0 112.2 132.7;"
	 xml:space="preserve">
<style type="text/css">
	.st0{fill:#FFFFFF;}
</style>
<defs>
</defs>
<g>
	<path class="st0" d="M105.7,47.9l5.9-16.9c0.7-2.1,0.7-4.3,0-6.4l-0.8-2.4c-0.5-1.5-1.9-2.5-3.5-2.5c-1.2,0-2.4,0.6-3,1.6L96,33.9
		c-0.7,1-1.8,1.7-3,1.7l-13,0.9c-1.8,0.1-3.4-1-4-2.7l-4.2-12.3c-0.4-1.1-0.2-2.4,0.5-3.4l8.3-12.5c0.7-1.1,0.8-2.6,0.2-3.8
		c-0.7-1.3-2-2-3.5-1.9l-2.5,0.2c-2.2,0.1-4.3,1-5.9,2.5l-13.3,12c-2.5,2.2-3.6,5.5-3.1,8.8l2.5,15L15.9,97.6L15.6,98
		c-0.1,0.2-0.2,0.5-0.2,0.7l-2.2,30.9H4.8c-0.8,0-1.5,0.7-1.5,1.5c0,0.8,0.7,1.5,1.5,1.5h82.6c0.8,0,1.5-0.7,1.5-1.5
		c0-0.8-0.7-1.5-1.5-1.5H19.8l23.9-12.1c0.2-0.1,0.4-0.3,0.6-0.5l1.1-1.7l38.5-57.7l14.9-3.5C102,53.4,104.6,51,105.7,47.9z
		 M52.7,47.7l6.2,4.1l-32.4,48.8c-0.7-1.1-1.6-2.1-2.7-2.9c-1-0.7-2.2-1.2-3.4-1.4L52.7,47.7z M23.3,124.5l-6.4-4.3l1.5-20.9
		l0.1-0.2c1.3,0,2.6,0.4,3.6,1.1c1.1,0.7,1.9,1.9,2.3,3.2c0.4,1.2,1.6,2,2.8,1.9c1.4-0.1,2.7,0.2,3.8,0.9c1.1,0.7,1.9,1.9,2.3,3.2
		c0.4,1.2,1.6,2,2.8,1.9c1.4-0.1,2.7,0.2,3.8,0.9c1,0.6,1.7,1.5,2.1,2.7L42,115L23.3,124.5z M44,112c-0.6-0.9-1.4-1.7-2.3-2.3
		c-1.2-0.8-2.6-1.3-4.1-1.4l32.5-48.9l6.2,4.2L44,112z M35.3,106.4c-0.7-1-1.5-2-2.5-2.6c-1.1-0.8-2.4-1.2-3.8-1.4l32.5-48.8
		l6.2,4.1L35.3,106.4z M82.6,54.8c-0.4,0.1-0.7,0.3-0.9,0.6L78,61L54.3,45.2l2.9-4.3l10.2,6.8c0.3,0.2,0.5,0.3,0.8,0.3
		c0.5,0,1-0.2,1.2-0.7c0.5-0.7,0.3-1.6-0.4-2.1l-10.9-7.2l-2.5-15c-0.4-2.3,0.4-4.5,2.1-6.1L71,4.9c1.1-1,2.6-1.6,4.1-1.7L77.6,3
		c0.3,0,0.5,0.2,0.6,0.3c0.1,0.1,0.2,0.4,0,0.7l-8.3,12.5c-1.2,1.8-1.5,4-0.8,6.1l4.2,12.3c1,3,3.9,4.9,7.1,4.7l13-0.9
		c2.1-0.2,4.1-1.3,5.3-3.1l8.3-12.5c0.2-0.2,0.4-0.3,0.5-0.3c0.1,0,0.5,0,0.6,0.4l0.8,2.4c0.5,1.4,0.5,3,0,4.4l-5.9,16.9
		c-0.8,2.2-2.6,3.8-4.8,4.3L82.6,54.8z"/>
	<path class="st0" d="M4,65.5c-0.5,0.7-0.3,1.6,0.4,2.1l13.8,9.2c0.3,0.2,0.5,0.3,0.8,0.3c0.5,0,1-0.2,1.2-0.7
		c0.5-0.7,0.3-1.6-0.4-2.1L6,65.1C5.4,64.6,4.4,64.8,4,65.5z"/>
	<path class="st0" d="M33.4,53.9c0.3,0.2,0.5,0.3,0.8,0.3c0.5,0,1-0.2,1.2-0.7c0.5-0.7,0.3-1.6-0.4-2.1l-13.8-9.2
		c-0.7-0.5-1.6-0.3-2.1,0.4c-0.5,0.7-0.3,1.6,0.4,2.1L33.4,53.9z"/>
	<path class="st0" d="M0.7,48.6l13.8,9.2C14.7,58,15,58,15.3,58c0.5,0,1-0.2,1.2-0.7c0.5-0.7,0.3-1.6-0.4-2.1L2.3,46.1
		c-0.7-0.5-1.6-0.3-2.1,0.4C-0.2,47.2,0,48.1,0.7,48.6z"/>
	<path class="st0" d="M92.7,93.1c0.5,0,1-0.2,1.2-0.7c0.5-0.7,0.3-1.6-0.4-2.1l-13.8-9.2c-0.7-0.5-1.6-0.3-2.1,0.4
		c-0.5,0.7-0.3,1.6,0.4,2.1l13.8,9.2C92.2,93,92.5,93.1,92.7,93.1z"/>
	<path class="st0" d="M64.6,104c-0.7-0.5-1.6-0.3-2.1,0.4c-0.5,0.7-0.3,1.6,0.4,2.1l13.8,9.2c0.3,0.2,0.5,0.3,0.8,0.3
		c0.5,0,1-0.2,1.2-0.7c0.5-0.7,0.3-1.6-0.4-2.1L64.6,104z"/>
	<path class="st0" d="M81.8,102.6l13.8,9.2c0.3,0.2,0.5,0.3,0.8,0.3c0.5,0,1-0.2,1.2-0.7c0.5-0.7,0.3-1.6-0.4-2.1l-13.8-9.2
		c-0.7-0.5-1.6-0.3-2.1,0.4C81,101.2,81.1,102.2,81.8,102.6z"/>
</g>
</svg>
