<!-- Generator: Adobe Illustrator 21.1.0, SVG Export Plug-In  -->
<svg version="1.1"
	 xmlns="http://www.w3.org/2000/svg" xmlns:xlink="http://www.w3.org/1999/xlink" xmlns:a="http://ns.adobe.com/AdobeSVGViewerExtensions/3.0/"
	 x="0px" y="0px" width="94.4px" height="98.4px" viewBox="0 0 94.4 98.4" style="enable-background:new 0 0 94.4 98.4;"
	 xml:space="preserve">
<style type="text/css">
	.st0{fill:#ffffff;}
</style>
<defs>
</defs>
<g>
	<path class="st0" d="M10.3,36.9c0-0.2,0.1-0.3,0.1-0.4c0-0.1,0-0.1,0-0.1v-0.2c0-0.2-0.1-0.3-0.1-0.3c-0.1-0.1-0.1-0.1-0.2-0.2
		c-0.1,0-0.1-0.1-0.2-0.1c-0.1,0-0.2-0.1-0.3-0.2c-0.3-0.1-0.5-0.2-0.6-0.2s-0.3,0-0.4,0c-0.1,0.1-0.2,0.2-0.3,0.3
		c0,0.1,0,0.3,0,0.4c0.1,0.1,0.2,0.2,0.3,0.3c0.1,0,0.3,0.1,0.5,0.2h0.1c0,0,0,0,0,0.1L8.8,38c-1.4-0.5-2.6-0.8-3.4-1v-0.1
		c0-0.1,0-0.3,0-0.4c-0.1-0.1-0.2-0.1-0.4-0.2c-0.1,0-0.3,0-0.4,0c-0.1,0.1-0.2,0.2-0.3,0.3L4.2,37c0,0-0.1,0.1-0.1,0.2l-0.2,0.7
		c0,0.1,0,0.3,0,0.4c0.1,0.1,0.2,0.2,0.3,0.3c0.1,0,0.3,0,0.4,0c0.1-0.1,0.2-0.2,0.3-0.3L5,38.1c0.8,0.2,2,0.6,3.4,1v0.3l0,0
		c0,0.1,0,0.3,0,0.4c0.1,0.1,0.2,0.2,0.3,0.3c0.1,0,0.1,0,0.2,0c0.1,0,0.2,0,0.2-0.1c0.1-0.1,0.2-0.2,0.3-0.3l0.6-1.8
		C10.1,37.5,10.2,37.2,10.3,36.9z"/>
	<path class="st0" d="M13.7,28.6c-0.1-0.3-0.3-0.6-0.7-0.8c-0.1,0-0.3-0.2-0.7-0.4c-0.1-0.1-0.3-0.1-0.4,0c-0.1,0-0.3,0.1-0.3,0.3
		c-0.1,0.1-0.1,0.3,0,0.4c0,0.1,0.1,0.3,0.3,0.3c0.3,0.2,0.5,0.3,0.6,0.3c0.1,0.1,0.2,0.1,0.2,0.1s0,0,0,0.1
		c-0.1,0.1-0.2,0.3-0.3,0.5l-0.3,0.4c-0.1,0.1-0.2,0.3-0.3,0.4s-0.1,0.2-0.1,0.2c-0.1-0.1-0.3-0.1-0.5-0.2c-0.3-0.1-0.6-0.2-0.7-0.3
		c0.1-0.2,0.3-0.5,0.5-0.9c0.1,0,0.2,0,0.3-0.1s0.2-0.2,0.3-0.3c0-0.1,0-0.3,0-0.4c-0.1-0.1-0.2-0.2-0.3-0.3c0,0-0.1,0-0.4-0.1
		c-0.2-0.1-0.3-0.1-0.4-0.1c-0.1,0-0.2,0-0.4,0c0.1,0,0.1-0.1,0.2-0.2l0,0c0.1-0.2,0.2-0.4,0.1-0.6c0-0.1-0.1-0.1-0.1-0.2l-0.1-0.1
		c0,0-0.1,0-0.1-0.1c-0.1,0-0.2-0.1-0.3-0.1l-0.5-0.2c-0.1,0-0.3,0-0.4,0.1c-0.1,0.1-0.2,0.2-0.3,0.3C8.5,26.9,8.3,27.4,8,28
		c-0.1,0.3-0.3,0.5-0.3,0.7l-0.4,0c-0.1,0.1-0.1,0.2-0.1,0.3c-0.1,0.1-0.1,0.3-0.2,0.4c0,0.1,0,0.2,0,0.4c0.1,0.1,0.2,0.3,0.3,0.3
		s0.3,0,0.4,0C7.8,30,7.9,29.9,8,29.8l0,0c0.2,0.1,0.3,0.1,0.4,0.2l0.4,0.1c0.2,0.1,0.3,0.1,0.4,0.1c0.1,0,0.2,0.1,0.4,0.2
		s0.4,0.2,0.5,0.2c0.2,0.1,0.4,0.2,0.8,0.3c0.2,0.1,0.3,0.1,0.4,0.2c-0.1,0.2-0.1,0.3-0.2,0.4c-0.1,0.1-0.1,0.3,0,0.4
		c0,0.1,0.1,0.2,0.3,0.3c0.1,0,0.2,0.1,0.2,0.1c0.1,0,0.1,0,0.2,0c0.1,0,0.2-0.1,0.3-0.3c0-0.1,0.1-0.3,0.3-0.6
		c0.1-0.3,0.2-0.4,0.3-0.6c0,0,0.1-0.1,0.1-0.2c0.1-0.1,0.1-0.2,0.3-0.3c0.1-0.1,0.2-0.3,0.3-0.4c0.2-0.2,0.3-0.4,0.4-0.6
		C13.7,29,13.8,28.8,13.7,28.6z M9.8,28.4c0,0.1,0.1,0.1,0.1,0.1c-0.2,0.3-0.3,0.6-0.4,0.8L8.7,29c-0.1,0-0.2-0.1-0.3-0.1
		c0.1-0.1,0.1-0.3,0.2-0.4c0.2-0.4,0.4-0.8,0.5-1.1l0,0h0.1c0.1,0.1,0.1,0.2,0.2,0.2c0.1,0.1,0.3,0.1,0.4,0c0,0,0,0,0.1,0
		c-0.1,0.1-0.2,0.2-0.2,0.3C9.7,28.1,9.7,28.2,9.8,28.4z M10.3,27.8L10.3,27.8L10.3,27.8L10.3,27.8z M10.3,27.8L10.3,27.8L10.3,27.8
		L10.3,27.8z"/>
	<path class="st0" d="M20.5,18.9c0-0.1,0-0.3-0.1-0.4s-0.2-0.2-0.4-0.2c-0.1,0-0.3,0-0.4,0.1s-0.2,0.1-0.3,0.2l-0.8-0.8
		c0.1-0.1,0.2-0.3,0.3-0.3c0.1-0.1,0.1-0.2,0.2-0.3c0.1-0.1,0.2-0.3,0.2-0.4c0.5-1,0.2-1.6-0.1-2c-0.3-0.4-0.7-0.6-1-0.6
		s-0.6,0.1-1,0.3c-0.3,0.2-0.5,0.4-0.8,0.7c-0.5,0.4-0.9,0.9-1.2,1.4C15,16.7,15,16.9,15,17s0.1,0.3,0.2,0.3
		c0.1,0.1,0.2,0.1,0.4,0.1c0.1,0,0.3-0.1,0.3-0.2c0,0,0.1-0.1,0.1-0.2l0,0c0.1,0.1,0.2,0.2,0.4,0.3l2.2,2.1l-0.2,0.2
		c-0.1,0.1-0.1,0.3-0.1,0.4s0.1,0.3,0.2,0.4s0.2,0.1,0.4,0.1l0,0c0.1,0,0.3-0.1,0.4-0.2s0.2-0.2,0.3-0.4c0.2-0.2,0.3-0.3,0.4-0.4
		s0.2-0.2,0.3-0.3C20.4,19.2,20.5,19,20.5,18.9z M18,15.3c0,0,0.1,0,0.3,0.2c0.1,0.1,0.2,0.3,0,0.8c-0.1,0.1-0.1,0.2-0.2,0.3
		c-0.1,0.1-0.1,0.2-0.2,0.3c0,0.1-0.1,0.1-0.2,0.2l-0.3-0.3c-0.1-0.1-0.2-0.1-0.3-0.3c-0.1-0.1-0.3-0.3-0.4-0.4l0,0
		c0.1-0.1,0.2-0.2,0.3-0.3c0.2-0.2,0.5-0.4,0.7-0.5C17.8,15.3,17.9,15.3,18,15.3z"/>
	<path class="st0" d="M27.7,11.3c0-0.1-0.2-0.3-0.4-0.6c-0.1-0.1-0.2-0.2-0.3-0.2c-0.1,0-0.3,0-0.4,0.1s-0.2,0.2-0.2,0.3
		s0,0.3,0.1,0.4c0.2,0.3,0.3,0.5,0.4,0.5C27,11.9,27,12,27,12s0,0-0.1,0.1s-0.3,0.2-0.5,0.3L26,12.6c-0.2,0.1-0.3,0.1-0.4,0.2
		c-0.1,0-0.2,0.1-0.2,0.1c-0.1-0.1-0.2-0.2-0.3-0.4c-0.2-0.3-0.4-0.5-0.5-0.6c0.2-0.1,0.5-0.3,0.9-0.6c0.1,0,0.2,0.1,0.3,0.1l0,0
		c0.1,0,0.3-0.1,0.4-0.2c0.1-0.1,0.2-0.2,0.2-0.4c0-0.1-0.1-0.3-0.2-0.4c0,0-0.1-0.1-0.3-0.3c-0.1-0.1-0.2-0.2-0.3-0.3
		c-0.1-0.1-0.2-0.1-0.3-0.1c0.1,0,0.2,0,0.2-0.1l0,0c0.2-0.1,0.3-0.3,0.3-0.6c0-0.1,0-0.1,0-0.2l-0.1-0.1l-0.1-0.1
		c-0.1-0.1-0.1-0.1-0.2-0.3L25,7.9c-0.1-0.1-0.3-0.1-0.4-0.1l0,0c-0.1,0-0.3,0.1-0.4,0.1c-0.2,0.2-0.6,0.6-1.2,1L22.9,9
		c-0.2,0.2-0.4,0.3-0.5,0.4h-0.1c-0.1,0.1-0.2,0.1-0.3,0.2c-0.1,0.1-0.2,0.2-0.4,0.3c-0.1,0.1-0.1,0.2-0.1,0.3c0,0.2,0,0.3,0.1,0.4
		c0.1,0.1,0.2,0.1,0.3,0.2c0.1,0,0.3,0,0.4-0.1l0,0c0.1,0.2,0.2,0.3,0.3,0.4l0.5,0.6c0.1,0.1,0.2,0.2,0.3,0.3
		c0.2,0.2,0.3,0.4,0.3,0.4c0.1,0.1,0.3,0.3,0.5,0.6c0.1,0.1,0.2,0.2,0.3,0.3c-0.2,0.1-0.3,0.2-0.3,0.3C24.1,13.7,24,13.8,24,14
		c0,0.1,0,0.3,0.1,0.4c0.1,0.1,0.2,0.2,0.4,0.2c0,0,0,0,0.1,0s0.2,0,0.3-0.1c0.1-0.1,0.3-0.2,0.6-0.4c0.2-0.2,0.4-0.3,0.5-0.4
		c0,0,0.1-0.1,0.2-0.1c0.1-0.1,0.2-0.1,0.4-0.2c0.2-0.1,0.3-0.1,0.4-0.2c0.3-0.1,0.4-0.3,0.6-0.4c0.3-0.2,0.4-0.4,0.5-0.6
		C28,12.1,28,11.7,27.7,11.3z M25,9.8c-0.1,0-0.3,0.1-0.4,0.2c-0.1,0.1-0.1,0.2-0.1,0.4c0,0.1,0,0.1,0.1,0.2
		c-0.3,0.2-0.5,0.4-0.7,0.5l-0.6-0.6c-0.1-0.1-0.1-0.2-0.2-0.3c0.1-0.1,0.2-0.2,0.4-0.3c0.4-0.3,0.7-0.5,0.9-0.7l0,0l0,0
		c0,0.1,0,0.2,0.1,0.3C24.7,9.7,24.8,9.8,25,9.8C24.9,9.8,25,9.8,25,9.8L25,9.8z M25.2,10.1L25.2,10.1L25.2,10.1L25.2,10.1z
		 M25.2,10.1L25.2,10.1L25.2,10.1L25.2,10.1z"/>
	<path class="st0" d="M34.1,7.9c-0.1,0-0.3,0-0.4,0L33.4,8c-0.1-0.2-0.2-0.5-0.3-0.8c-0.4-0.9-0.5-1.1-0.5-1.2
		c-0.1-0.1-0.2-0.4-0.5-0.8C32,5.1,32,5,31.9,4.9c0.3-0.1,0.5-0.2,0.7-0.3c0.1,0,0.1,0,0.2-0.1c0.1,0.1,0.2,0.2,0.3,0.3
		c0.1,0,0.3,0,0.4,0c0.1-0.1,0.2-0.2,0.3-0.3c0-0.1,0-0.3,0-0.4l-0.1-0.3c0,0,0-0.1-0.1-0.1l-0.3-0.1c-0.1-0.1-0.2-0.1-0.4-0.1
		c-0.1,0-0.2,0-0.3,0s-0.3,0.1-0.5,0.1c-0.3,0.1-0.7,0.3-1.2,0.5S30,4.5,29.7,4.7c-0.2,0.1-0.3,0.2-0.4,0.2S29.1,5,29.1,5.1
		c-0.1,0.1-0.2,0.2-0.2,0.4c0,0.2,0,0.4,0.1,0.6c0,0,0.1,0.1,0.1,0.2l0.2,0.1c0.1,0.1,0.2,0.2,0.3,0.3c0.1,0.1,0.3,0,0.4,0
		c0.1-0.1,0.2-0.2,0.3-0.3c0-0.1,0-0.3,0-0.4c0,0,0-0.1-0.1-0.2l0,0l0.1-0.1c0.2-0.1,0.4-0.2,0.6-0.3C31,5.5,31,5.7,31.1,5.8
		c0.2,0.4,0.4,0.7,0.5,0.8c0,0,0.1,0.2,0.5,1.1c0.2,0.3,0.3,0.6,0.4,0.8c-0.1,0.1-0.3,0.2-0.4,0.2C32,8.8,31.9,8.9,31.9,9
		s0,0.3,0.1,0.4c0.1,0.1,0.2,0.2,0.3,0.2s0.1,0,0.2,0c0.1,0,0.2,0,0.3-0.1c0.3-0.2,0.8-0.4,1.6-0.8c0.1-0.1,0.2-0.2,0.3-0.3
		c0-0.1,0-0.3,0-0.4C34.3,8.1,34.2,8,34.1,7.9z"/>
	<path class="st0" d="M41,6.5c0.2,0,0.3-0.1,0.4-0.2c0.1-0.1,0.1-0.2,0.1-0.4c0-0.2-0.1-0.3-0.2-0.4c-0.1-0.1-0.2-0.1-0.4-0.1
		c-0.1,0-0.2,0-0.4,0.1V5.4c0-0.1-0.1-0.3-0.2-0.5l-0.2-0.4C40,4.3,39.9,4,39.9,3.7c-0.1-0.3-0.1-0.6-0.2-1c0-0.2-0.1-0.3-0.1-0.5
		c0.1,0,0.3-0.1,0.4-0.1c0.1,0,0.3-0.1,0.3-0.2c0.1-0.1,0.1-0.3,0.1-0.4s-0.1-0.3-0.2-0.3c-0.1-0.1-0.3-0.1-0.4-0.1
		c-0.2,0-0.4,0.1-0.8,0.2c-0.5,0.1-0.8,0.1-1,0.2c-0.1,0-0.3,0.1-0.3,0.2c-0.1,0.1-0.1,0.3-0.1,0.4c0,0.1,0.1,0.3,0.2,0.3
		c0.1,0.1,0.3,0.1,0.4,0.1c0.1,0,0.2,0,0.3-0.1c0,0.1,0.1,0.3,0.1,0.5c0.1,0.4,0.2,0.8,0.2,1.1c0.1,0.3,0.2,0.6,0.3,0.9l0.2,0.4
		c0.1,0.2,0.1,0.4,0.2,0.5l0,0c-0.3,0.1-0.5,0.1-0.6,0.1l0,0c-0.1,0-0.2,0.1-0.3,0.2s-0.1,0.3-0.1,0.4s0.1,0.2,0.2,0.3
		c0.1,0.1,0.2,0.1,0.3,0.1h0.1l1-0.3C40.5,6.6,40.8,6.6,41,6.5z"/>
	<path class="st0" d="M44.6,1.5c0,0.1,0.1,0.3,0.2,0.4C44.9,2,45,2,45.2,2c0.1,0,0.3-0.1,0.4-0.2c0.1-0.1,0.1-0.2,0.1-0.4
		c0,0,0-0.1,0-0.2l0,0c0,0,0.1,0,0.2,0c0.2,0,0.4,0,0.7,0c0,0.1,0,0.3,0.1,0.5c0.1,0.5,0.1,0.7,0.1,0.9c0,0,0,0.3,0.1,1.2
		c0,0.4,0,0.7,0,0.9c-0.2,0-0.3,0-0.5,0.1c-0.1,0-0.2,0.1-0.3,0.2S46,5.3,46,5.4s0.1,0.2,0.2,0.3c0.1,0.1,0.2,0.1,0.3,0.1h0.1
		c0.3,0,0.9-0.1,1.7-0.1c0.1,0,0.3-0.1,0.4-0.2c0.1-0.1,0.1-0.2,0.1-0.4c0-0.1-0.1-0.3-0.2-0.4c-0.1-0.1-0.2-0.1-0.4-0.1h-0.3
		c0-0.2,0-0.5,0-0.9c0-1-0.1-1.2-0.1-1.3s-0.1-0.5-0.1-0.9c0-0.1,0-0.2,0-0.4c0.3,0,0.5,0,0.7,0c0.1,0,0.1,0,0.2,0
		c0,0.1,0.1,0.3,0.2,0.4c0.1,0.1,0.2,0.1,0.4,0.1s0.3-0.1,0.4-0.2c0.1-0.1,0.1-0.2,0.1-0.4V0.7c0-0.1,0-0.1,0-0.2l-0.3-0.1
		c-0.1-0.1-0.2-0.2-0.3-0.3C49,0.1,48.9,0,48.8,0s-0.3,0-0.5,0c-0.4,0-0.8,0-1.3,0s-0.9,0-1.3,0.1c-0.2,0-0.4,0-0.5,0.1
		c-0.1,0-0.2,0-0.2,0.1c-0.1,0.1-0.2,0.1-0.3,0.3S44.6,1,44.6,1.2C44.6,1.2,44.6,1.2,44.6,1.5L44.6,1.5z"/>
	<path class="st0" d="M62.5,7.6c0.3-0.1,0.5-0.2,0.7-0.4c0.2-0.2,0.3-0.4,0.4-0.7c0.1-0.4,0.1-1-0.3-1.5c0.1-0.1,0.2-0.2,0.3-0.3
		C63.9,4.4,64,4,64,3.6s-0.2-0.8-0.5-1.1c-0.1-0.1-0.2-0.2-0.4-0.3c-0.2-0.1-0.3-0.1-0.4-0.2c-0.1,0-0.2-0.1-0.4-0.1
		c-0.1,0-0.3-0.1-0.3-0.1l-0.3-0.1c-0.1-0.1-0.1-0.1-0.2-0.1s-0.2,0-0.2,0c-0.3-0.1-0.4-0.2-0.6-0.2c-0.2,0-0.3,0-0.4,0.2
		c-0.1,0.1-0.1,0.2-0.1,0.3c0,0.2,0.1,0.3,0.2,0.4c0.1,0.1,0.2,0.1,0.3,0.1c0,0.1,0,0.1,0,0.2l-0.2,0.7c0,0.1-0.1,0.2-0.2,0.6
		c-0.1,0.3-0.2,0.5-0.2,0.6l-0.2,0.6c-0.1,0.2-0.2,0.4-0.2,0.6c0,0.1-0.1,0.2-0.1,0.2l0,0c-0.1-0.1-0.3-0.1-0.4,0
		c-0.1,0-0.2,0.1-0.3,0.3c-0.1,0.1-0.1,0.3,0,0.4c0,0.1,0.1,0.2,0.3,0.3c0.5,0.2,1.1,0.4,1.7,0.6c0.5,0.1,1,0.2,1.3,0.2
		C62.1,7.6,62.3,7.6,62.5,7.6z M62.8,4c-0.1,0.1-0.3,0.1-0.4,0.2c-0.1,0-0.1,0-0.2,0C62,4.1,61.7,4,61.4,3.9
		c0.1-0.3,0.2-0.6,0.3-1.1l0,0c0.1,0,0.2,0.1,0.4,0.1C62.3,3,62.5,3,62.6,3.1c0.1,0,0.1,0.1,0.2,0.1C62.9,3.3,63,3.4,63,3.6
		C62.9,3.8,62.9,3.9,62.8,4z M61,4.9L61.2,5c0.1,0,0.2,0.1,0.3,0.1c0.1,0,0.2,0.1,0.2,0.1c0.2,0.1,0.3,0.1,0.4,0.2
		c0.5,0.3,0.5,0.6,0.4,0.8c0,0.1-0.1,0.1-0.1,0.2c-0.1,0.1-0.1,0.1-0.2,0.1c-0.2,0-0.6,0.1-1.3-0.1c-0.1,0-0.3-0.1-0.4-0.1
		C60.7,5.9,60.8,5.4,61,4.9z"/>
	<path class="st0" d="M67.8,10.5c0.2,0,0.3-0.1,0.4-0.2c0.1-0.1,0.1-0.2,0.1-0.4s-0.1-0.3-0.2-0.4c0,0-0.1-0.1-0.3-0.2
		C68,9.2,68.2,9.1,68.4,9c0.3,0.2,0.7,0.5,1.3,0.9c0,0.2-0.1,0.4-0.2,0.6c-0.1-0.1-0.2-0.1-0.3-0.2l0,0c-0.1-0.1-0.2-0.1-0.4-0.1
		c-0.2,0-0.3,0.1-0.4,0.2c-0.1,0.1-0.1,0.2-0.1,0.4s0.1,0.3,0.2,0.4c0.1,0.1,0.4,0.3,0.7,0.5c0.3,0.2,0.5,0.3,0.6,0.4
		c0.1,0.1,0.2,0.1,0.3,0.1h0.1c0.1,0,0.2-0.1,0.3-0.2c0.1-0.1,0.1-0.3,0.1-0.4c0-0.1-0.1-0.2-0.2-0.3s-0.2-0.1-0.3-0.2
		c0-0.1,0.1-0.3,0.1-0.4c0.1-0.2,0.1-0.5,0.2-0.8l0.2-0.7c0-0.2,0.1-0.4,0.2-0.8l0.5-1.1c0-0.2,0.1-0.3,0.1-0.4s0-0.1,0-0.1V6.6V6.5
		c0-0.1-0.1-0.1-0.2-0.2L71.3,6l-0.2,0.2c-0.1-0.1-0.2-0.1-0.4,0l-0.1,0.1l0,0c0,0,0,0-0.1,0.1c0,0-0.1,0.1-0.2,0.1l-0.2,0.2
		c-0.1,0.1-0.3,0.2-0.5,0.4c-0.3,0.2-0.5,0.4-0.6,0.4c-0.2,0.2-0.6,0.4-1.2,0.8C67.4,8.6,67,8.8,66.7,9l0,0
		c-0.1-0.1-0.2-0.1-0.4-0.1C66.2,8.9,66,9,65.9,9c-0.1,0.1-0.2,0.2-0.2,0.4c0,0.1,0,0.2,0.1,0.4c0.1,0.1,0.4,0.3,0.7,0.5
		c0.4,0.2,0.6,0.4,0.7,0.4C67.5,10.5,67.6,10.5,67.8,10.5z M69.3,8.4c0.1-0.1,0.3-0.2,0.4-0.3c0.1-0.1,0.2-0.2,0.4-0.3l-0.2,1
		C69.7,8.7,69.5,8.6,69.3,8.4z"/>
	<path class="st0" d="M78.9,14.8c0.1,0.1,0.2,0.2,0.4,0.2c0.1,0,0.3-0.1,0.4-0.2l0.2-0.2c0,0,0.1-0.1,0,0l0.1-0.2
		c0-0.1,0.1-0.3,0-0.4c0-0.1-0.1-0.2-0.1-0.3c-0.1-0.1-0.2-0.2-0.3-0.4c-0.2-0.3-0.5-0.6-0.9-1s-0.7-0.7-0.9-0.9
		c-0.2-0.1-0.3-0.2-0.4-0.3S77.3,11,77.2,11c-0.1-0.1-0.3-0.1-0.4-0.1c-0.2,0-0.4,0.1-0.5,0.3c0,0-0.1,0.1-0.2,0.2L76,11.5
		c-0.1,0.1-0.2,0.2-0.2,0.4c0,0.1,0,0.3,0.2,0.4c0.1,0.1,0.2,0.2,0.4,0.2c0.1,0,0.3-0.1,0.4-0.2l0.1-0.1l0,0l0.1,0.1
		c0.1,0.1,0.3,0.3,0.5,0.5c-0.1,0.1-0.2,0.2-0.3,0.3c-0.3,0.3-0.5,0.6-0.6,0.7c0,0-0.2,0.2-0.8,0.8c-0.3,0.3-0.5,0.5-0.7,0.6
		c-0.1-0.1-0.2-0.2-0.4-0.3c-0.1-0.1-0.2-0.1-0.4-0.1c-0.2,0-0.3,0.1-0.4,0.2c-0.1,0.1-0.1,0.2-0.1,0.4s0.1,0.3,0.2,0.4
		c0.2,0.2,0.7,0.6,1.2,1.2c0.1,0.1,0.2,0.2,0.4,0.2l0,0c0.1,0,0.3-0.1,0.4-0.2s0.2-0.2,0.2-0.4c0-0.1-0.1-0.3-0.2-0.4L75.8,16
		c0.2-0.1,0.4-0.3,0.6-0.6c0.7-0.7,0.9-0.8,0.9-0.9c0.1-0.1,0.3-0.3,0.6-0.7c0.1-0.1,0.2-0.2,0.2-0.3c0.2,0.2,0.3,0.4,0.5,0.5
		l0.1,0.1c-0.1,0.1-0.1,0.2-0.1,0.4C78.8,14.6,78.8,14.7,78.9,14.8z"/>
	<path class="st0" d="M79.7,22.1c0,0,0.1,0.1,0.1,0.2s0.1,0.2,0.2,0.4c0.1,0.2,0.1,0.3,0.2,0.4c0.1,0.3,0.2,0.5,0.3,0.6
		c0.2,0.3,0.4,0.4,0.6,0.5c0.1,0,0.2,0.1,0.3,0.1c0.2,0,0.5-0.1,0.7-0.2c0.1,0,0.3-0.2,0.7-0.4c0.1-0.1,0.2-0.2,0.2-0.3
		c0-0.1,0-0.3-0.1-0.4s-0.2-0.2-0.3-0.2c-0.1,0-0.3,0-0.4,0.1c-0.3,0.2-0.5,0.3-0.6,0.3c-0.1,0.1-0.2,0.1-0.2,0.1s0,0-0.1-0.1
		s-0.2-0.3-0.3-0.5l-0.2-0.4c-0.1-0.2-0.1-0.3-0.2-0.4c0-0.1-0.1-0.2-0.1-0.2c0.1-0.1,0.3-0.2,0.4-0.3c0.3-0.2,0.5-0.4,0.6-0.5
		c0.1,0.2,0.3,0.5,0.5,0.9c-0.1,0.1-0.1,0.2-0.1,0.3c0,0.1,0,0.3,0.1,0.4s0.2,0.2,0.4,0.2c0.1,0,0.3,0,0.4-0.1c0,0,0.1-0.1,0.3-0.2
		c0.1-0.1,0.2-0.2,0.3-0.3c0.1-0.1,0.1-0.2,0.1-0.3c0,0.1,0,0.2,0.1,0.2l0,0c0.1,0.2,0.3,0.4,0.5,0.4c0.1,0,0.1,0,0.2,0l0.1-0.1
		l0.1-0.1c0.1-0.1,0.2-0.1,0.3-0.2l0.4-0.4c0.1-0.1,0.2-0.2,0.1-0.4c0-0.1,0-0.3-0.1-0.4c0.1-0.4-0.2-0.8-0.5-1.4
		c-0.2-0.3-0.3-0.5-0.4-0.6l0,0v-0.1c0-0.1-0.1-0.2-0.2-0.3c-0.1-0.1-0.2-0.3-0.3-0.4c-0.1-0.1-0.2-0.2-0.3-0.2
		c-0.2,0-0.3,0-0.4,0.1s-0.2,0.2-0.2,0.3c0,0.1,0,0.3,0.1,0.4l0,0c-0.2,0.1-0.3,0.2-0.4,0.3l-0.3,0.3c-0.1,0.1-0.2,0.2-0.3,0.2
		c-0.1,0.1-0.2,0.1-0.4,0.2c-0.2,0.1-0.4,0.2-0.4,0.3c-0.1,0.1-0.4,0.3-0.7,0.5c-0.1,0.1-0.3,0.2-0.4,0.3c-0.1-0.2-0.2-0.3-0.2-0.4
		c-0.1-0.1-0.2-0.2-0.3-0.2c-0.1,0-0.3,0-0.4,0.1S79,20.4,79,20.5c0,0.1,0,0.3,0.1,0.4s0.2,0.3,0.4,0.6C79.5,21.8,79.6,22,79.7,22.1
		z M83.4,21.7L83.4,21.7L83.4,21.7L83.4,21.7z M83.4,21.7L83.4,21.7L83.4,21.7L83.4,21.7z M84,21.1c-0.1,0.1-0.2,0.2-0.2,0.3v0.1
		l0,0c0-0.1-0.1-0.3-0.2-0.4S83.4,21,83.2,21l0,0c-0.1,0-0.1,0-0.2,0c-0.2-0.3-0.3-0.6-0.5-0.8l0.6-0.5c0.1-0.1,0.2-0.1,0.3-0.2
		c0.1,0.1,0.2,0.3,0.3,0.4c0.3,0.4,0.5,0.7,0.7,1l0,0c0,0,0,0-0.1,0C84.2,21,84.1,21,84,21.1z"/>
	<path class="st0" d="M84.3,29.5c0.1,0,0.2-0.1,0.3-0.2c0.1-0.1,0.1-0.3,0-0.4c0,0-0.1-0.1-0.1-0.3c0.2,0,0.4,0,0.7,0
		c0.1,0.3,0.3,0.8,0.6,1.5c-0.2,0.1-0.3,0.3-0.4,0.4c-0.1-0.1-0.1-0.2-0.1-0.3l0,0c-0.1-0.1-0.1-0.2-0.2-0.3c-0.1-0.1-0.3-0.1-0.5,0
		c-0.1,0.1-0.2,0.1-0.3,0.2c-0.1,0.1-0.1,0.3,0,0.4c0.1,0.2,0.2,0.4,0.3,0.8c0.1,0.3,0.2,0.5,0.3,0.7c0,0.1,0.1,0.3,0.3,0.3
		c0.1,0,0.2,0.1,0.2,0.1h0.1c0.2,0,0.3-0.1,0.3-0.3c0.1-0.1,0.1-0.2,0-0.4c0-0.1-0.1-0.2-0.1-0.3c0.1-0.1,0.2-0.2,0.3-0.3
		c0.2-0.2,0.4-0.3,0.6-0.5l0.5-0.5c0.1-0.1,0.3-0.3,0.6-0.5l0.9-0.9c0.1-0.1,0.2-0.2,0.3-0.3l0.1-0.1l0.1-0.1v-0.1
		c0-0.1,0-0.2,0-0.3l0.2-0.2H89c-0.1-0.1-0.2-0.2-0.3-0.2h-0.1l0,0h-0.1c-0.1,0-0.1,0-0.2,0H88c-0.2,0-0.4,0-0.7,0
		c-0.4,0-0.6,0-0.7,0c-0.3,0-0.8,0-1.4,0c-0.5,0-0.9,0-1.2,0l0,0c0-0.1-0.1-0.2-0.2-0.3C83.7,27,83.5,27,83.4,27s-0.3,0.1-0.4,0.2
		s-0.1,0.2-0.1,0.4c0,0.2,0.1,0.5,0.3,0.8c0.2,0.4,0.3,0.6,0.3,0.7c0.1,0.1,0.1,0.2,0.3,0.3C84,29.6,84.1,29.6,84.3,29.5z
		 M86.3,28.7c0.2,0,0.3,0,0.4,0s0.3,0,0.5,0l-0.7,0.7C86.4,29.1,86.3,28.9,86.3,28.7z"/>
	<path class="st0" d="M88.4,36.3c-0.4,0.2-0.7,0.3-0.8,0.5c-0.2,0.2-0.3,0.4-0.4,0.7S87,38,87,38.3c-0.1,0.7,0.1,1.2,0.5,1.6
		c0.2,0.2,0.5,0.3,0.9,0.4c0.2,0,0.4,0.1,0.7,0.1c0.8,0,1.7-0.2,2.8-0.7l0,0c0,0.1,0.1,0.2,0.2,0.3s0.3,0.1,0.4,0s0.2-0.1,0.3-0.3
		c0.1-0.1,0.1-0.3,0-0.4c-0.1-0.3-0.2-0.7-0.2-1c0-0.1-0.1-0.3-0.2-0.4c-0.1-0.1-0.3-0.1-0.4-0.1s-0.3,0.1-0.4,0.2
		c-0.1,0.1-0.1,0.2-0.1,0.4c0,0.1,0,0.1,0,0.2c-1.3,0.6-2.3,0.8-3,0.6c-0.3-0.1-0.3-0.1-0.3-0.1c-0.1-0.2-0.2-0.4-0.2-0.8
		c0-0.2,0.1-0.4,0.1-0.5c0.1-0.1,0.1-0.2,0.2-0.3c0,0,0.1-0.1,0.5-0.3c0.3-0.1,0.6-0.2,1-0.3c0.5-0.1,1-0.2,1.4-0.3
		c0,0.1,0.1,0.1,0.1,0.2c0.1,0.1,0.2,0.1,0.4,0.1c0.1,0,0.3-0.1,0.4-0.2c0.1-0.1,0.1-0.2,0.1-0.4V36c0-0.1,0-0.2,0-0.3l-0.1-0.3
		c0-0.2-0.1-0.3-0.1-0.3c-0.1-0.1-0.1-0.2-0.2-0.2c-0.1-0.1-0.3-0.1-0.4,0c-0.1,0-0.2,0.1-0.3,0.3c-0.1,0.1-0.1,0.3,0,0.4
		c-0.4,0.1-0.9,0.2-1.4,0.3C89,36.1,88.7,36.2,88.4,36.3z"/>
	<path class="st0" d="M43,48.9c0,6.3,8.8,5.9,9.8,0.7c0.1-0.5-0.2-2.8-0.5-3.4C49.3,41.4,43,43.5,43,48.9z"/>
	<path class="st0" d="M2.6,50.6c0.1-0.1,0.1-0.1,0-0.2c-0.2-0.2-0.3-0.4-0.3-0.6c0-0.1,0.1-0.3,0.3-0.5c0.2-0.2,0.3-0.4,0.3-0.6
		c0-0.2-0.1-0.5-0.4-0.7c-0.1,0-0.1,0-0.2,0c0,0.1,0,0.1,0,0.2c0.2,0.2,0.4,0.4,0.3,0.5c0,0.1-0.1,0.3-0.2,0.4
		c-0.1,0.3-0.2,0.5-0.2,0.7C2.1,50.1,2.3,50.3,2.6,50.6C2.5,50.7,2.6,50.7,2.6,50.6z"/>
	<path class="st0" d="M3.4,61.7c0.4,0.1,0.8,0,1-0.2c0.3-0.2,0.3-0.6,0.2-1c0-0.1-0.1-0.2-0.1-0.3c-0.1-0.2-0.2-0.3-0.3-0.4
		c-0.1-0.2-0.3-0.2-0.5-0.2c-0.1,0-0.2,0-0.2,0c-0.1,0-0.1,0-0.1,0.1c-0.1-0.1-0.1,0-0.1,0.1c0,0.1,0.1,0.2,0.1,0.2
		c0.1,0,0.1,0,0.2,0c0.1-0.1,0.2-0.1,0.2-0.3c0.1,0,0.2,0.1,0.2,0.1c0.1,0.1,0.1,0.2,0.2,0.4c0.1,0.2,0.2,0.3,0.2,0.3
		c0.1,0.3,0,0.6-0.2,0.8c-0.2,0.1-0.4,0.2-0.8,0.1c-0.1,0-0.2-0.1-0.3-0.1C3,61.2,3,61.2,2.9,61.1c0-0.1-0.1-0.2-0.2-0.3l0,0l0,0
		l0,0c0-0.1,0-0.1,0-0.1c0-0.1-0.1-0.1-0.2-0.1c0,0-0.1,0-0.1,0.1l0,0l0,0v0.1v0.1l0,0l0,0l0,0c0,0.1-0.1,0.3-0.1,0.5
		c-0.1,0.2-0.3,0.4-0.6,0.5C1.4,62,1.2,62.1,0.9,62c-0.1-0.1-0.3-0.2-0.4-0.3c-0.1-0.2-0.1-0.4-0.2-0.6c0-0.3,0.1-0.6,0.3-0.8l0,0
		c0,0,0,0,0.1,0.1s0.3,0.1,0.4,0c0.1,0,0.1-0.1,0.1-0.2v-0.1c0-0.1,0-0.1-0.1-0.1H1H0.9c-0.1,0-0.1,0-0.2,0
		c-0.2,0.1-0.4,0.2-0.5,0.4S0,60.9,0,61.1c0,0.3,0.1,0.5,0.2,0.7c0.1,0.2,0.3,0.4,0.5,0.4c0.3,0.1,0.6,0.1,0.9-0.1
		c0.7-0.2,0.9-0.4,1.1-0.7c0-0.1,0.1-0.2,0.1-0.3C2.9,61.4,3.1,61.6,3.4,61.7z"/>
	<path class="st0" d="M5.3,66.9c-0.1-0.3-0.3-0.6-0.6-0.7c0.5,0,0.9,0.1,1.3,0.3c0.4,0.2,0.7,0.4,0.8,0.7c0,0,0,0.1,0.1,0.1H7
		c0,0,0,0,0.1-0.1v-0.1c-0.2-0.4-0.5-0.7-1-0.9c-0.5-0.2-1-0.3-1.5-0.3s-1,0.2-1.3,0.5c-0.4,0.3-0.5,0.8-0.4,1.3
		c0,0.3,0.2,0.5,0.3,0.6c0.1,0.1,0.3,0.2,0.5,0.3c0.2,0,0.4,0,0.7,0C4.8,68.5,5,68.3,5.2,68C5.4,67.7,5.4,67.3,5.3,66.9z M5,67.9
		c-0.1,0.2-0.4,0.4-0.7,0.5c-0.3,0-0.5,0-0.8-0.2c-0.3-0.1-0.4-0.3-0.5-0.7c-0.1-0.5,0-0.8,0.3-1.1c0.2-0.2,0.5-0.3,0.8-0.4
		c0,0,0,0,0.1,0c0.4,0.1,0.7,0.3,0.9,0.7C5.2,67.3,5.2,67.6,5,67.9z"/>
	<path class="st0" d="M7.4,73.4c-0.2,0-0.3,0.1-0.5,0.1s-0.4,0-0.6,0.1c-0.2,0-0.4,0-0.5,0.1H5.7v0.1v0.1h0.1h0.5
		c0.2,0,0.4,0,0.6-0.1c0.2,0,0.3,0,0.5-0.1c0,0,0.1,0,0.1-0.1v-0.1C7.6,73.5,7.6,73.4,7.4,73.4C7.5,73.4,7.5,73.4,7.4,73.4z"/>
	<path class="st0" d="M7.8,72.6c-0.3-0.2-0.7-0.3-1.1-0.2c-0.2,0-0.4,0-0.6,0.1s-0.3,0.2-0.5,0.3c-0.2,0.1-0.3,0.3-0.4,0.4
		C5.1,73.4,5,73.6,5,73.8c0,0.4,0.1,0.7,0.4,0.9c0.3,0.2,0.6,0.3,1,0.2c0.2,0,0.5-0.1,0.7-0.2s0.4-0.2,0.6-0.4
		C7.9,74.1,8,73.9,8,73.6c0.1,0,0.1-0.1,0.1-0.1C8.2,73.1,8.1,72.8,7.8,72.6z M8,73.3c0,0.2-0.1,0.4-0.2,0.5
		c-0.1,0.2-0.2,0.3-0.3,0.4s-0.3,0.2-0.4,0.3c-0.2,0.1-0.3,0.1-0.5,0.1c-0.4,0-0.6,0-0.9-0.2c-0.3-0.1-0.4-0.3-0.4-0.6
		c0-0.2,0.1-0.4,0.2-0.6C5.6,73,5.8,72.9,6,72.8s0.4-0.2,0.6-0.2c0.3,0,0.6,0,0.8,0.1C7.8,72.8,7.9,73,8,73.3L8,73.3z"/>
	<path class="st0" d="M12.1,77.6c-0.3-0.6-1.1-0.8-1.7-0.4c-0.6,0.4-0.8,1.1-0.4,1.7c0.3,0.5,1,0.8,1.7,0.4
		C12.2,78.9,12.4,78.2,12.1,77.6L12.1,77.6z M11.4,78.8c-0.4,0.3-0.9,0.2-1.1-0.1c-0.2-0.3-0.1-0.8,0.4-1c0.3-0.2,0.9-0.3,1.1,0.1
		l0,0C12,78.2,11.7,78.6,11.4,78.8z"/>
	<path class="st0" d="M17.5,85.2C17.5,85.2,17.5,85.3,17.5,85.2C17.5,85.3,17.5,85.3,17.5,85.2c-0.1,0-0.1,0-0.1,0s-0.1,0-0.1,0.1
		l-0.2,0.1c-0.1,0.1-0.3,0.2-0.5,0.3c-0.3,0.1-0.4,0.2-0.5,0.3c-0.2,0.1-0.6,0.3-1.1,0.5s-0.9,0.4-1.1,0.5l0,0
		c-0.1-0.1-0.2-0.2-0.2-0.2h-0.1h-0.1c0,0,0,0-0.1,0.1V87c0.1,0.1,0.2,0.3,0.5,0.5s0.4,0.4,0.5,0.4h0.1h0.1v-0.1v-0.1
		c0-0.1-0.2-0.2-0.5-0.5l0,0c0.2-0.1,0.6-0.3,1-0.4l0.1-0.1c0.2,0.2,0.6,0.6,1.2,1.2c0,0,0,0,0.1,0c-0.2,0.4-0.3,0.8-0.5,1.1
		c-0.2-0.2-0.4-0.4-0.5-0.5h-0.1h-0.1v0.1v0.1c0.1,0.1,0.3,0.3,0.5,0.5s0.4,0.4,0.5,0.5h0.1h0.1c0,0,0,0,0-0.1v-0.1
		c-0.1-0.1-0.2-0.2-0.3-0.3c0.1-0.2,0.2-0.3,0.3-0.5c0.1-0.2,0.2-0.4,0.3-0.6l0.2-0.5c0.1-0.1,0.1-0.3,0.2-0.6l0.2-0.5l0.1-0.2
		l0.1-0.3c0-0.1,0.1-0.2,0.1-0.3v-0.1c0,0,0,0,0-0.1v-0.1C17.6,85.3,17.6,85.2,17.5,85.2z M17.3,85.7c0,0.1-0.1,0.2-0.1,0.3
		c0,0.1-0.1,0.2-0.1,0.2l-0.6,1.4c-0.6-0.5-0.9-0.9-1.1-1.1c0.3-0.1,0.5-0.2,0.7-0.3c0.1,0,0.3-0.1,0.5-0.2
		C16.9,85.8,17.1,85.7,17.3,85.7l0.1-0.1L17.3,85.7z"/>
	<path class="st0" d="M23.2,89.4c-0.1-0.1-0.4-0.2-0.6-0.3c-0.3-0.1-0.4-0.2-0.5-0.3H22c0,0-0.1,0-0.1,0.1V89c0,0,0,0.1,0.1,0.1
		s0.2,0.1,0.5,0.3l0,0c-0.1,0.5-0.4,1-0.8,1.6c0,0-0.1,0-0.1,0.1c0,0,0,0,0,0.1c-0.1,0.1-0.2,0.2-0.3,0.4c-0.1,0.2-0.2,0.4-0.3,0.5
		c-0.1,0.2-0.2,0.3-0.3,0.5c-0.2-0.1-0.4-0.2-0.6-0.3H20c0,0-0.1,0-0.1,0.1v0.1c0,0,0,0.1,0.1,0.1c0.2,0.1,0.6,0.3,1.3,0.7h0.1
		c0,0,0.1,0,0.1-0.1v-0.1c0,0,0-0.1-0.1-0.1l-0.3-0.2l-0.3-0.2c0.1-0.1,0.2-0.3,0.3-0.4c0.1-0.2,0.2-0.3,0.3-0.5
		c0.1-0.2,0.2-0.3,0.3-0.4c0.2,0.1,0.4,0.2,0.6,0.3l0,0c0.2,0.2,0.3,0.5,0.3,1v0.7c0,0.2,0,0.3,0,0.4l0,0h-0.1h-0.1v0.1v0.1
		c0.1,0.1,0.2,0.2,0.5,0.3H23c0,0,0.1,0,0.1-0.1V94c0,0,0-0.1-0.1-0.1l-0.2-0.1c0-0.1,0-0.3,0-0.5v-0.7c0-0.4-0.1-0.7-0.2-0.9
		c0.1,0,0.1,0,0.2,0c0.3,0.1,0.5,0.1,0.7,0s0.4-0.3,0.5-0.5c0-0.1,0.1-0.3,0.1-0.5s0-0.3-0.1-0.5C24,90,23.7,89.7,23.2,89.4z
		 M23.9,91c-0.1,0.2-0.2,0.3-0.4,0.4c-0.2,0.1-0.3,0.1-0.6,0c-0.3-0.1-0.7-0.2-1.1-0.5c0.4-0.6,0.6-1.1,0.8-1.6
		c0.2,0.1,0.3,0.1,0.4,0.2c0.5,0.3,0.8,0.5,0.9,0.7c0,0.1,0.1,0.2,0.1,0.4C24,90.8,24,90.9,23.9,91z"/>
	<path class="st0" d="M31.2,93c-0.1,0-0.2-0.1-0.3-0.2c-0.3-0.1-0.6-0.2-1-0.4c-0.4-0.1-0.7-0.2-1-0.3c-0.2,0-0.3-0.1-0.4-0.1
		s-0.1,0-0.1,0c-0.1,0-0.1,0-0.1,0c-0.1,0.1-0.1,0.2-0.2,0.3c0,0,0,0.1,0,0.2s0,0.1,0,0.1v0.1c0,0,0,0,0.1,0.1h0.1c0,0,0,0,0.1-0.1
		v-0.1c0-0.1,0-0.1,0-0.1c0-0.1,0-0.1,0.1-0.2c0,0,0,0,0.1,0s0.2,0,0.3,0.1c0.2,0.1,0.5,0.1,0.9,0.2c0,0.2-0.1,0.4-0.2,0.7
		c-0.1,0.4-0.1,0.6-0.2,0.7c0,0.1-0.1,0.4-0.3,1c-0.2,0.5-0.3,0.9-0.3,1l0,0c-0.2-0.1-0.5-0.1-0.7-0.2H28c0,0,0,0-0.1,0.1V96
		c0,0,0,0,0.1,0c0.3,0.1,0.7,0.2,1.4,0.4h0.1c0,0,0,0,0.1-0.1v-0.1c0,0,0,0-0.1-0.1L29,95.9l0,0c0-0.1,0.1-0.4,0.3-1
		c0.2-0.6,0.3-0.9,0.3-1s0.1-0.4,0.2-0.8c0.1-0.3,0.1-0.5,0.1-0.6c0.4,0.1,0.7,0.2,0.9,0.3c0.1,0.1,0.2,0.1,0.3,0.1
		C31.1,92.9,31.1,92.9,31.2,93L31.2,93c0,0,0,0.1,0,0.2v0.1c0,0,0,0,0.1,0.1h0.1c0,0,0,0,0.1-0.1c0-0.1,0-0.2,0-0.2V93l0,0
		c0,0,0,0,0-0.1c0,0,0-0.1-0.1-0.1C31.3,93.1,31.3,93.1,31.2,93z"/>
	<path class="st0" d="M42.8,97.3C42.8,97.3,42.7,97.3,42.8,97.3c-0.2,0.3-0.3,0.4-0.4,0.6L42.3,98h-0.1h-0.1c-0.3,0.1-0.6,0.2-1,0.1
		c-0.3-0.1-0.6-0.3-0.8-0.6c-0.2-0.4-0.3-0.8-0.2-1.3s0.2-0.9,0.5-1.3s0.5-0.6,0.9-0.6s0.8,0.2,1.2,0.6l0,0c0,0.3,0,0.5,0,0.7v0.1
		c0,0,0,0,0.1,0.1h0.1c0,0,0,0,0.1-0.1c0-0.1,0-0.2,0-0.4c0-0.1,0-0.2,0-0.3c0-0.1,0-0.2,0-0.4c0-0.1,0-0.2,0-0.3v-0.1h-0.1h-0.1
		v0.1c0,0.1,0,0.2,0,0.2C42.4,94.1,42,94,41.6,94s-0.8,0.3-1.1,0.7c-0.3,0.4-0.4,0.9-0.5,1.4s0,1,0.2,1.5c0.1,0.2,0.3,0.4,0.6,0.6
		c0.2,0.1,0.5,0.2,0.7,0.2c0.3,0,0.5,0,0.8-0.1c0,0,0,0,0.1,0h0.1c0.1,0,0.2-0.1,0.2-0.1c0.1-0.1,0.3-0.3,0.4-0.6v-0.1
		C42.9,97.3,42.9,97.3,42.8,97.3C42.9,97.3,42.8,97.3,42.8,97.3z"/>
	<path class="st0" d="M50.5,94.9c-0.1-0.2-0.2-0.4-0.4-0.5c-0.1-0.2-0.3-0.3-0.5-0.4s-0.5-0.2-0.7-0.2l0,0l0,0l0,0
		c-0.3,0-0.5,0-0.8,0.2s-0.5,0.3-0.6,0.5c-0.2,0.2-0.3,0.5-0.4,0.9c-0.1,0.4,0,0.7,0,1.1c0.1,0.4,0.2,0.7,0.5,1
		c0.2,0.3,0.5,0.5,0.8,0.5c0.7,0.2,1.3,0.1,1.7-0.3c0.2-0.2,0.4-0.4,0.5-0.6s0.2-0.5,0.2-0.8c0-0.2,0-0.4,0-0.6
		C50.6,95.3,50.6,95.1,50.5,94.9z M50.5,96.1c0,0.5-0.2,0.9-0.6,1.2c-0.4,0.3-0.9,0.4-1.5,0.2c-0.3-0.1-0.5-0.2-0.7-0.5
		c-0.2-0.2-0.3-0.5-0.4-0.9c-0.1-0.3-0.1-0.7,0-1s0.2-0.6,0.3-0.8c0.1-0.1,0.3-0.3,0.6-0.4c0.2-0.1,0.4-0.2,0.7-0.1l0,0H49
		c0,0,0,0,0.1,0c0.3,0.1,0.5,0.2,0.7,0.3c0.2,0.1,0.4,0.3,0.5,0.5s0.2,0.4,0.3,0.6C50.5,95.6,50.5,95.9,50.5,96.1z"/>
	<path class="st0" d="M58,95.4c0-0.2-0.1-0.4-0.1-0.5c0,0,0-0.1-0.1-0.1h-0.1c0,0-0.1,0-0.1,0.1V95c0,0.1,0.1,0.3,0.1,0.5
		c0,0.1,0,0.2,0,0.3v0.1l0,0c-0.1,0-0.2,0.1-0.3,0.1c-0.2,0.1-0.5,0.1-0.9,0.2l-0.7,0.2c-0.4-1.6-0.7-2.8-0.9-3.5l0.4-0.1
		c0,0,0.1,0,0.1-0.1v-0.1c0,0,0-0.1-0.1-0.1h-0.1l-0.4,0.1c0,0,0,0-0.1,0c0,0,0,0-0.1,0l-0.5,0.1c0,0-0.1,0-0.1,0.1v0.1
		c0,0,0,0.1,0.1,0.1h0.1l0.5-0.1c0.2,0.7,0.5,1.9,0.9,3.5l-0.3,0l-0.2,0.1c0,0-0.1,0-0.1,0.1v0.1c0,0,0,0.1,0.1,0.1h0.1l1.5-0.4
		c0.4-0.1,0.7-0.2,0.9-0.2c0.1,0,0.2-0.1,0.3-0.1H58l0,0c0,0,0.1,0,0.1-0.1v-0.1v-0.1C58,95.6,58,95.5,58,95.4z"/>
	<path class="st0" d="M64.9,93.2c-0.1-0.2-0.1-0.4-0.1-0.5c0,0,0-0.1-0.1-0.1h-0.1c0,0-0.1,0-0.1,0.1v0.1c0,0.1,0.1,0.2,0.1,0.5
		c0,0.1,0,0.2,0.1,0.3v0.1l0,0c-0.1,0-0.2,0.1-0.3,0.1c-0.2,0.1-0.5,0.2-0.9,0.3l-0.6,0.2c-0.5-1.5-1-2.7-1.3-3.4l0.4-0.1
		c0,0,0.1,0,0.1-0.1v-0.1c0,0,0-0.1-0.1-0.1h-0.1l-0.4,0.1h-0.1l0,0l-0.5,0.2c0,0-0.1,0-0.1,0.1V91c0,0,0,0.1,0.1,0.1H61l0.5-0.2
		c0.3,0.7,0.7,1.9,1.3,3.4l-0.5,0.2l-0.2,0.1c0,0-0.1,0-0.1,0.1v0.1c0,0,0,0.1,0.1,0.1h0.1l1.5-0.5c0.4-0.1,0.6-0.2,0.9-0.3
		c0.1,0,0.2-0.1,0.3-0.1H65l0,0c0,0,0,0,0.1-0.1v-0.1v-0.1C64.9,93.4,64.9,93.3,64.9,93.2z"/>
	<path class="st0" d="M71.5,89.6C71.5,89.6,71.4,89.6,71.5,89.6c-0.1-0.1-0.1-0.1-0.2-0.1c0,0-0.1,0-0.1,0.1v0.1
		c0.1,0.3,0.2,0.5,0.2,0.5c0.1,0.2,0.1,0.4,0,0.5c0,0-0.1,0.1-0.2,0.2s-0.3,0.1-0.5,0.2l-0.3,0.1c-0.1,0-0.3,0.1-0.4,0.1
		s-0.2,0.1-0.2,0.1c-0.1,0-0.1,0.1-0.2,0.1l0,0c-0.1-0.1-0.2-0.3-0.3-0.6c-0.2-0.3-0.3-0.5-0.3-0.6s-0.1-0.2-0.1-0.3
		c0.3-0.1,0.7-0.3,1.3-0.6l0.1,0.1c0,0,0,0,0.1,0h0.1c0,0,0,0,0-0.1v-0.1c0,0-0.1-0.1-0.2-0.3c-0.1-0.1-0.1-0.2-0.2-0.3
		c0,0,0,0-0.1,0h-0.1c0,0,0,0,0,0.1v0.1c0,0.1,0.1,0.1,0.1,0.2c-0.6,0.3-1,0.5-1.3,0.6c0-0.1-0.1-0.2-0.1-0.2l-0.2-0.3
		c-0.1-0.1-0.1-0.2-0.2-0.3c0-0.1-0.1-0.2-0.2-0.3c-0.1-0.1-0.1-0.2-0.1-0.3c0.1-0.1,0.3-0.2,0.6-0.3c0.5-0.2,0.9-0.4,1.1-0.6
		c0.1,0.1,0.1,0.2,0.2,0.3c0.1,0.1,0.1,0.2,0.1,0.2s0,0-0.1,0.1v0.1c0,0,0,0.1,0.1,0.1H70l0,0c0.1,0,0.1-0.1,0.1-0.1s0,0,0-0.1l0,0
		l0,0c0,0,0,0,0-0.1S70,87.8,70,87.7l-0.2-0.4h-0.1h-0.1c-0.2,0.2-0.6,0.4-1.2,0.6c-0.3,0.1-0.5,0.3-0.7,0.3c0,0,0,0-0.1,0
		c0,0-0.1,0-0.1,0.1c-0.1,0.1-0.3,0.2-0.4,0.2c0,0,0,0-0.1,0.1v0.1c0,0,0,0,0.1,0.1h0.1c0.1-0.1,0.2-0.1,0.3-0.2
		c0,0.1,0.1,0.2,0.1,0.3c0.1,0.1,0.1,0.2,0.2,0.3l0.2,0.3c0.1,0.1,0.1,0.2,0.2,0.3c0,0.1,0.1,0.2,0.2,0.4c0.1,0.2,0.2,0.3,0.2,0.4
		c0.1,0.1,0.2,0.3,0.3,0.6c0.2,0.3,0.3,0.5,0.3,0.6l0,0l-0.1,0.1c-0.3,0.1-0.4,0.2-0.5,0.3c0,0-0.1,0-0.1,0.1v0.1c0,0,0,0.1,0.1,0.1
		h0.1c0.1,0,0.2-0.1,0.5-0.3c0.2-0.1,0.4-0.2,0.5-0.3c0,0,0.1,0,0.2-0.1c0.1,0,0.2-0.1,0.3-0.1c0.1,0,0.3-0.1,0.4-0.1
		c0.2-0.1,0.4-0.1,0.5-0.2c0.2-0.1,0.3-0.2,0.3-0.3c0.1-0.2,0.1-0.4,0-0.6C71.7,90.1,71.6,89.9,71.5,89.6z"/>
	<path class="st0" d="M77.9,85.8C77.9,85.8,77.8,85.8,77.9,85.8c-0.1,0-0.1,0-0.2,0v0.1c0,0.2,0,0.4,0,0.6c0,0,0,0.1-0.1,0.1
		l-0.1,0.1c0,0,0,0.1-0.1,0.1c-0.2,0.3-0.4,0.5-0.8,0.6c-0.3,0.1-0.7,0.1-1-0.1c-0.4-0.2-0.7-0.5-0.9-1c-0.2-0.4-0.4-0.9-0.4-1.3
		c0-0.5,0.1-0.8,0.4-1s0.7-0.3,1.3-0.1c0,0,0,0,0.1,0c0.2,0.2,0.3,0.4,0.4,0.6c0,0,0,0.1,0.1,0.1h0.1c0,0,0.1,0,0.1-0.1v-0.1
		c0-0.1-0.1-0.2-0.2-0.3c-0.1-0.1-0.1-0.2-0.2-0.3c-0.1-0.1-0.2-0.2-0.2-0.3c-0.1-0.1-0.2-0.2-0.2-0.2s0,0-0.1,0h-0.1c0,0,0,0,0,0.1
		v0.1c0,0.1,0.1,0.1,0.2,0.2c-0.5-0.1-0.9,0-1.2,0.2c-0.3,0.3-0.5,0.7-0.5,1.2s0.1,1,0.4,1.4c0.3,0.5,0.6,0.8,1,1.1
		c0.3,0.1,0.5,0.2,0.8,0.1c0.3,0,0.5-0.1,0.7-0.3c0.2-0.1,0.4-0.3,0.5-0.6c0,0,0,0,0.1-0.1c0,0,0-0.1,0.1-0.1
		c0.1-0.1,0.1-0.2,0.1-0.2C78,86.4,78,86.2,77.9,85.8C77.9,85.9,77.9,85.9,77.9,85.8z"/>
	<path class="st0" d="M83.3,82C83.3,82,83.2,82,83.3,82l-0.5,0.4l0,0c-0.1-0.1-0.3-0.3-0.7-0.7c-0.4-0.4-0.6-0.7-0.7-0.7
		c-0.1-0.1-0.3-0.2-0.6-0.5c-0.2-0.2-0.4-0.3-0.5-0.4c0.3-0.3,0.5-0.5,0.7-0.7c0.1-0.1,0.2-0.2,0.3-0.2c0,0,0,0,0.1,0
		c0,0,0,0,0.1,0.1c0,0,0,0,0.1,0.1c0,0,0,0,0.1,0h0.1v-0.1v-0.1c-0.1-0.1-0.1-0.1-0.1-0.1L81.6,79l0,0l0,0h-0.1c0,0-0.1,0-0.1,0.1
		c-0.1,0.1-0.2,0.1-0.3,0.2c-0.2,0.2-0.5,0.4-0.8,0.7c-0.3,0.3-0.5,0.5-0.7,0.8c-0.1,0.1-0.2,0.2-0.2,0.3l-0.1,0.1
		c0,0.1,0,0.1,0,0.1c0,0.1,0.1,0.2,0.2,0.3l0.1,0.1l0.1,0.1h0.1h0.1v-0.1v-0.1c0,0-0.1,0-0.1-0.1l-0.1-0.1c-0.1-0.1-0.1-0.1-0.1-0.1
		s0,0,0-0.1c0.1-0.1,0.1-0.2,0.2-0.3c0.2-0.2,0.4-0.4,0.6-0.6c0.1,0.1,0.3,0.3,0.5,0.4c0.3,0.2,0.5,0.4,0.6,0.5s0.3,0.3,0.7,0.7
		c0.4,0.4,0.6,0.7,0.7,0.7l0,0c-0.2,0.2-0.3,0.4-0.5,0.5v0.1v0.1h0.1h0.1c0.2-0.2,0.5-0.6,1-1.1v-0.1C83.4,82.1,83.4,82.1,83.3,82
		L83.3,82z"/>
	<path class="st0" d="M87.7,76.8C87.7,76.8,87.6,76.8,87.7,76.8c-0.2,0.2-0.3,0.3-0.4,0.5l0,0c-0.1-0.1-0.2-0.1-0.3-0.2
		c-0.1-0.1-0.2-0.1-0.4-0.2l-0.3-0.2c-0.2-0.1-0.4-0.2-0.6-0.4c-0.2-0.1-0.4-0.3-0.7-0.5c-0.3-0.2-0.5-0.3-0.6-0.4
		c0.2-0.2,0.3-0.4,0.4-0.5v-0.1c0,0,0-0.1-0.1-0.1h-0.1c0,0-0.1,0-0.1,0.1c-0.1,0.1-0.2,0.3-0.4,0.6c-0.2,0.2-0.4,0.4-0.5,0.6v0.1
		c0,0,0,0.1,0.1,0.1h0.1c0,0,0.1,0,0.1-0.1c0.1-0.1,0.2-0.3,0.4-0.5c0.1,0.1,0.3,0.2,0.6,0.4c0.3,0.2,0.5,0.4,0.7,0.5
		s0.4,0.3,0.6,0.4c0,0,0.1,0.1,0.3,0.2c0.2,0.1,0.3,0.2,0.4,0.2c0.1,0.1,0.2,0.1,0.3,0.2l0,0l0,0c-0.2,0.3-0.4,0.6-0.5,0.7v0.1v0.1
		h0.1h0.1c0-0.1,0.2-0.3,0.5-0.7c0.2-0.3,0.3-0.5,0.5-0.6V77C87.8,76.8,87.8,76.8,87.7,76.8C87.8,76.8,87.7,76.7,87.7,76.8z"/>
	<path class="st0" d="M90.8,71.4c0-0.1-0.1-0.1-0.2-0.2c-0.2-0.2-0.3-0.3-0.4-0.4c-0.2-0.2-0.4-0.4-0.7-0.7
		c-0.3-0.3-0.5-0.6-0.7-0.7c-0.1,0-0.1-0.1-0.2-0.2S88.4,69,88.4,69c-0.1-0.1-0.1-0.1-0.2-0.2l0.2-0.3v-0.1c0,0,0-0.1-0.1-0.1h-0.1
		c0,0-0.1,0-0.1,0.1l-0.4,0.9v0.1c0,0,0,0.1,0.1,0.1h0.1c0,0,0.1,0,0.1-0.1l0.2-0.4c0.1,0.1,0.2,0.2,0.3,0.3
		c0.2,0.1,0.2,0.2,0.2,0.2c0.2,0.1,0.4,0.4,0.7,0.7c0.3,0.3,0.5,0.6,0.7,0.7c0.1,0.1,0.2,0.2,0.4,0.4l0.1,0.1l-0.3,0h-0.5
		c-0.1,0-0.2,0-0.4,0H89c-0.2,0-0.6,0-1.1-0.1c-0.4,0-0.7-0.1-0.9-0.1c0.1-0.2,0.2-0.4,0.2-0.5v-0.1c0,0,0,0-0.1-0.1H87
		c0,0,0,0-0.1,0.1c0,0.1-0.1,0.3-0.2,0.6v0.1v0.1c-0.1,0.2-0.1,0.3-0.2,0.4v0.1c0,0,0,0.1,0.1,0.1h0.1c0,0,0.1,0,0.1-0.1
		s0.1-0.2,0.2-0.4c0.2,0,0.6,0,1,0.1c0.5,0.1,0.9,0.1,1.1,0.1c0.1,0,0.2,0,0.4,0c0.2,0,0.3,0,0.4,0s0.3,0,0.5,0c0.1,0,0.2,0,0.3,0
		h0.1l0,0l0,0c0,0,0.1,0,0.1-0.1L90.8,71.4C90.9,71.5,90.9,71.5,90.8,71.4L90.8,71.4z"/>
	<path class="st0" d="M93.7,62.4c-0.1,0-0.3-0.1-0.6-0.2H93c0,0,0,0-0.1,0.1v0.1c0,0,0,0.1,0.1,0.1c0.3,0.1,0.5,0.2,0.5,0.2
		c0.2,0.1,0.3,0.2,0.4,0.3c0,0,0,0.1,0,0.3c0,0.1-0.1,0.3-0.2,0.5l-0.2,0.3c-0.1,0.1-0.1,0.2-0.2,0.3c0,0.1-0.1,0.2-0.1,0.2
		c0,0.1,0,0.2-0.1,0.2l0,0c-0.1,0-0.4-0.1-0.7-0.1c-0.3-0.1-0.5-0.1-0.7-0.1c-0.1,0-0.2-0.1-0.3-0.1c0.1-0.3,0.3-0.7,0.4-1.4
		c0.1,0,0.1,0,0.2,0h0.1c0,0,0,0,0-0.1v-0.1c0,0,0,0-0.1,0c0,0-0.1,0-0.3,0c-0.1,0-0.3,0-0.3,0h-0.1V63v0.1h0.1c0.1,0,0.1,0,0.2,0
		c-0.2,0.7-0.3,1.1-0.4,1.3c-0.1,0-0.2,0-0.2-0.1h-0.3c-0.1,0-0.3,0-0.3-0.1c-0.1,0-0.2,0-0.3-0.1c-0.1,0-0.2-0.1-0.3-0.1
		c0-0.1,0.1-0.4,0.2-0.7c0.1-0.5,0.2-0.9,0.3-1.2c0.1,0,0.2,0,0.3,0c0.1,0,0.2,0,0.2,0v0.1c0,0,0,0,0.1,0.1H91c0,0,0,0,0.1-0.1l0,0
		c0-0.1,0-0.1,0-0.2l0,0l0,0l0,0H91c-0.1,0-0.2,0-0.3,0l-0.4-0.1h-0.1c0,0,0,0-0.1,0.1c0,0.3-0.1,0.7-0.3,1.3
		c-0.1,0.3-0.2,0.6-0.2,0.7l0,0v0.1c0,0.2-0.1,0.3-0.1,0.4v0.1c0,0,0,0,0.1,0h0.1c0,0,0,0,0-0.1s0-0.2,0.1-0.3
		c0.1,0,0.2,0.1,0.3,0.1c0.1,0,0.3,0.1,0.3,0.1h0.3c0.1,0,0.2,0,0.3,0.1c0.1,0,0.2,0,0.4,0.1c0.2,0.1,0.3,0.1,0.4,0.1
		s0.4,0.1,0.7,0.1c0.3,0.1,0.5,0.1,0.7,0.1l0,0V65c-0.1,0.3-0.1,0.5-0.1,0.6v0.1c0,0,0,0,0.1,0.1h0.1c0,0,0,0,0.1-0.1
		c0-0.1,0.1-0.3,0.1-0.6c0.1-0.2,0.1-0.4,0.1-0.5c0,0,0-0.1,0.1-0.2c0-0.1,0.1-0.2,0.2-0.3c0.1-0.1,0.1-0.2,0.2-0.3
		c0.1-0.2,0.2-0.4,0.2-0.5c0.1-0.2,0.1-0.3,0-0.4C94.1,62.7,94,62.5,93.7,62.4z"/>
	<path class="st0" d="M93.5,52.3c0,0.2,0.2,0.5,0.5,0.7c0.1,0,0.1,0,0.2,0c0-0.1,0-0.1,0-0.2c-0.3-0.2-0.4-0.3-0.4-0.5
		c0-0.1,0.1-0.3,0.2-0.5c0.2-0.3,0.3-0.5,0.3-0.6c0-0.3-0.1-0.5-0.4-0.8c-0.1-0.1-0.1-0.1-0.2,0s-0.1,0.1,0,0.2
		c0.2,0.2,0.3,0.4,0.3,0.6c0,0.1-0.1,0.3-0.3,0.5C93.6,52,93.5,52.2,93.5,52.3z"/>
</g>
</svg>
