<!-- Generator: Adobe Illustrator 21.1.0, SVG Export Plug-In  -->
<svg version="1.1"
	 xmlns="http://www.w3.org/2000/svg" xmlns:xlink="http://www.w3.org/1999/xlink" xmlns:a="http://ns.adobe.com/AdobeSVGViewerExtensions/3.0/"
	 x="0px" y="0px" width="265px" height="234.8px" viewBox="0 0 265 234.8" style="enable-background:new 0 0 265 234.8;"
	 xml:space="preserve">
<style type="text/css">
	.st0{fill:#FFFFFF;}
</style>
<defs>
</defs>
<g>
	<path class="st0" d="M91.3,103.9l2.4-8.1h-0.3l-4.3,7.4l-18.5,24.3h-1.8l-8.9-24.3l-1.2-7.4h-0.3l-0.6,8L50,140.1h-5.8l11.5-53.9
		h4.2l10,27.5l1.2,6h0.1l3.5-6.2l21-27.4h5.5l-11.5,53.9h-6.2L91.3,103.9z"/>
	<path class="st0" d="M103,128.1c0-4.1,0.5-7.8,1.6-11.1c1.1-3.4,2.5-6.2,4.3-8.7c1.8-2.4,4-4.3,6.4-5.6c2.4-1.3,5-2,7.8-2
		c2.2,0,4,0.3,5.5,1c1.5,0.7,2.7,1.6,3.7,2.8c0.9,1.2,1.6,2.6,2,4.2c0.4,1.6,0.6,3.2,0.6,4.9c0,3.8-0.5,7.4-1.5,10.8
		c-1,3.3-2.4,6.2-4.2,8.7s-3.8,4.4-6.2,5.8c-2.4,1.4-4.9,2.1-7.7,2.1c-2.3,0-4.2-0.4-5.8-1.1c-1.6-0.7-2.8-1.7-3.8-3
		c-1-1.2-1.7-2.6-2.2-4.2C103.2,131.2,103,129.7,103,128.1z M109.2,126.7c0,3,0.6,5.3,1.7,7c1.1,1.6,2.9,2.4,5.4,2.4
		c1.7,0,3.3-0.6,4.8-1.8c1.5-1.2,2.8-2.8,4-4.9c1.2-2.1,2.1-4.4,2.8-7c0.7-2.6,1-5.4,1-8.3c0-2.6-0.5-4.7-1.4-6.2
		c-0.9-1.5-2.8-2.3-5.4-2.3c-1.7,0-3.3,0.6-4.8,1.7c-1.5,1.2-2.9,2.7-4.1,4.7c-1.2,1.9-2.2,4.2-2.8,6.7S109.2,123.9,109.2,126.7z"/>
	<path class="st0" d="M150.9,124.2l0.7,7.3h0.2l3.3-7.5l13-22.4h6.6l-24,39.3h-2.5l-7.5-39.3h6.2L150.9,124.2z"/>
	<path class="st0" d="M199,136.3c-1.8,1.5-3.9,2.7-6.3,3.5c-2.4,0.8-4.9,1.2-7.3,1.2c-4.1,0-7.2-1.2-9.3-3.5
		c-2.1-2.4-3.1-5.6-3.1-9.8c0-4.2,0.6-8,1.8-11.3c1.2-3.3,2.7-6.2,4.7-8.5c1.9-2.3,4.1-4.1,6.5-5.3c2.4-1.2,4.9-1.8,7.5-1.8
		c1.8,0,3.4,0.3,4.8,0.8c1.4,0.5,2.5,1.2,3.3,2c0.9,0.8,1.5,1.8,1.9,2.9c0.4,1.1,0.6,2.3,0.6,3.5c0,3.6-1.8,6.5-5.3,8.6
		c-3.5,2.1-8.7,3.1-15.5,3.1c-0.6,0-1.3,0-1.9,0c-0.7,0-1.4-0.1-2.1-0.1c-0.2,1-0.4,1.9-0.5,2.8c-0.1,0.9-0.2,1.6-0.2,2.3
		c0,2.8,0.6,5.1,1.9,6.9s3.3,2.7,6,2.7c2.3,0,4.3-0.4,6.2-1.1c1.9-0.7,3.3-1.5,4.3-2.3L199,136.3z M192.5,105.6
		c-2.8,0-5.3,1-7.3,2.9s-3.7,4.8-4.7,8.7c1.9,0,4-0.1,6.1-0.2c2.1-0.1,4-0.4,5.7-0.8c1.7-0.4,3.1-1.1,4.3-2.1c1.1-0.9,1.7-2.3,1.7-4
		c0-0.5-0.1-1-0.3-1.6c-0.2-0.5-0.5-1-0.9-1.5c-0.4-0.4-1-0.8-1.7-1.1C194.6,105.8,193.6,105.6,192.5,105.6z"/>
</g>
<path class="st0" d="M132.5,0C59.3,0,0,52.6,0,117.4c0,64.1,58,116.2,130.1,117.4c0.3,0,0.7,0,1,0c0.2,0,0.3,0,0.5,0
	c0.3,0,0.6,0,0.9,0c73.2,0,132.5-52.6,132.5-117.4C265,52.6,205.7,0,132.5,0z M224.3,194.8c-21,15-47.8,24.3-76.7,26.7
	c-0.1-7.3-7.5-24.3-16.5-24.3c-9,0-16.3,16.7-16.5,24.1c-27.9-2.7-53.8-11.9-74.2-26.5c-25-17.9-38.8-41.9-38.8-67.6
	c0-25.6,13.8-49.6,38.8-67.6c24.6-17.6,57.3-27.3,92-27.3c34.7,0,67.3,9.7,92,27.3c25,17.9,38.8,41.9,38.8,67.6
	C263.2,152.9,249.4,176.9,224.3,194.8z"/>
</svg>
